<?xml version="1.0" encoding="utf-8"?>
<!-- Generator: Adobe Illustrator 22.1.0, SVG Export Plug-In . SVG Version: 6.00 Build 0)  -->
<svg version="1.1" id="Capa_2" xmlns="http://www.w3.org/2000/svg" xmlns:xlink="http://www.w3.org/1999/xlink" x="0px" y="0px"
	 viewBox="0 0 300 300" style="enable-background:new 0 0 300 300;" xml:space="preserve">
<style type="text/css">
	.st0{fill:#FFFFFF;}
</style>
<g>
	<path class="st0" d="M157.3,143.2v-0.3c-0.1,0.1-0.1,0.2-0.2,0.3H157.3z"/>
	<path class="st0" d="M149.5,6.4C70.5,6.4,6.4,70.5,6.4,149.5s64.1,143.1,143.1,143.1s143.1-64.1,143.1-143.1S228.5,6.4,149.5,6.4z
		 M111.8,218.7H82.4v-88.3h29.3V218.7z M97.5,115.5c-8.3,0-15.1-6.8-15.1-15.1c0-8.3,6.8-15.1,15.1-15.1c8.3,0,15.1,6.8,15.1,15.1
		C112.6,108.8,105.9,115.5,97.5,115.5z M217.6,218.7h-29.4v-47.2c0-11.9-4.2-20-14.9-20c-8.1,0-12.9,5.5-15.1,10.7
		c-0.8,1.9-1,4.5-1,7.2v49.3H128c0,0,0.4-80,0-88.3h29.4v12.5c3.9-6,10.9-14.6,26.5-14.6c19.3,0,33.8,12.6,33.8,39.7V218.7z"/>
</g>
</svg>
