<?xml version="1.0" encoding="utf-8"?>
<!-- Generator: Adobe Illustrator 22.1.0, SVG Export Plug-In . SVG Version: 6.00 Build 0)  -->
<svg version="1.1" id="Capa_1" xmlns="http://www.w3.org/2000/svg" xmlns:xlink="http://www.w3.org/1999/xlink" x="0px" y="0px"
	 viewBox="0 0 100 99.5" style="enable-background:new 0 0 100 99.5;" xml:space="preserve">
<g>
	<path d="M65.8,47.5L42.7,32.1c-2-1.3-4.6,0.1-4.6,2.5v30.8c0,2.4,2.7,3.8,4.6,2.5l23.1-15.4C67.6,51.3,67.6,48.7,65.8,47.5z"/>
	<path d="M50,2.5C23.8,2.5,2.5,23.8,2.5,50S23.8,97.5,50,97.5S97.5,76.2,97.5,50S76.2,2.5,50,2.5z M50,90.1
		c-22.1,0-40.1-18-40.1-40.1S27.9,9.9,50,9.9s40.1,18,40.1,40.1S72.1,90.1,50,90.1z"/>
</g>
</svg>
