<?xml version="1.0" encoding="utf-8"?>
<!-- Generator: Adobe Illustrator 24.2.0, SVG Export Plug-In . SVG Version: 6.00 Build 0)  -->
<svg version="1.1" id="Layer_1" xmlns="http://www.w3.org/2000/svg" xmlns:xlink="http://www.w3.org/1999/xlink" x="0px" y="0px"
	 viewBox="0 0 300 300" style="enable-background:new 0 0 300 300;" xml:space="preserve">
<style type="text/css">
	.st0{fill:#FFFFFF;}
</style>
<path class="st0" d="M150,8.05C71.6,8.05,8.05,71.6,8.05,150c0,78.4,63.55,141.95,141.95,141.95c78.4,0,141.95-63.55,141.95-141.95
	C291.95,71.6,228.4,8.05,150,8.05z M224.02,124.44c2.07,46.03-32.26,97.34-93.01,97.34c-18.48,0-35.68-5.42-50.16-14.7
	c17.36,2.05,34.69-2.76,48.45-13.55c-14.32-0.27-26.41-9.72-30.57-22.73c5.12,0.98,10.17,0.7,14.77-0.56
	c-15.74-3.16-26.6-17.34-26.25-32.5c4.41,2.45,9.46,3.93,14.83,4.1c-14.57-9.74-18.7-28.98-10.13-43.69
	c16.14,19.8,40.25,32.83,67.45,34.19c-4.77-20.47,10.75-40.18,31.87-40.18c9.42,0,17.92,3.97,23.89,10.33
	c7.45-1.47,14.45-4.19,20.78-7.95c-2.44,7.65-7.63,14.06-14.38,18.1c6.61-0.79,12.92-2.55,18.79-5.15
	C235.96,114.07,230.41,119.84,224.02,124.44z"/>
</svg>
