<svg width="493" height="132" viewBox="0 0 493 132" fill="none" xmlns="http://www.w3.org/2000/svg">
<path d="M45.5654 24.8535H66.7949H88.0243M45.5654 63.1701H66.7949H88.0243M88.0243 107.7H47.6366C46.4927 107.7 45.5654 106.773 45.5654 105.629V99.4155" stroke="url(#paint0_linear_3303_703)" stroke-width="8.28466" stroke-linecap="round" stroke-linejoin="round"/>
<path d="M163.659 109.772C161.356 109.772 159.65 108.571 158.541 106.17L122.591 25.5562C121.994 24.0656 122.079 22.9063 122.847 22.0782C123.615 21.1674 124.638 20.7119 125.917 20.7119C127.111 20.7119 128.007 20.9603 128.604 21.4572C129.201 21.954 129.755 22.6993 130.267 23.693L163.786 99.4624L197.306 23.693C198.244 21.7056 199.694 20.7119 201.656 20.7119C203.02 20.7119 204.001 21.1674 204.598 22.0782C205.195 22.9891 205.195 24.1485 204.598 25.5562L168.648 106.17C168.136 107.412 167.497 108.323 166.729 108.903C165.961 109.482 164.938 109.772 163.659 109.772Z" fill="url(#paint1_linear_3303_703)"/>
<path d="M241.24 109.772C239.203 109.772 238.185 108.447 238.185 105.797V24.6867C238.185 22.0368 239.203 20.7119 241.24 20.7119C243.346 20.7119 244.398 22.0368 244.398 24.6867V105.797C244.398 108.447 243.346 109.772 241.24 109.772Z" fill="url(#paint2_linear_3303_703)"/>
<path d="M313.782 109.772C301.919 109.772 292.913 106.799 286.762 100.854C280.612 94.8255 277.536 86.1135 277.536 74.7178V24.5518C277.536 21.9919 278.854 20.7119 281.49 20.7119C284.214 20.7119 285.576 21.9919 285.576 24.5518V74.0984C285.576 93.2565 294.978 102.836 313.782 102.836C332.585 102.836 341.987 93.2565 341.987 74.0984V24.5518C341.987 21.9919 343.349 20.7119 346.073 20.7119C348.709 20.7119 350.027 21.9919 350.027 24.5518V74.7178C350.027 86.1135 346.952 94.8255 340.801 100.854C334.65 106.799 325.644 109.772 313.782 109.772Z" fill="url(#paint3_linear_3303_703)"/>
<path d="M415.834 109.772C403.285 109.772 393.063 106.766 385.167 100.755C383.755 99.7667 383.09 98.6138 383.173 97.2962C383.339 95.8963 383.962 94.8669 385.043 94.2081C386.123 93.5494 387.37 93.7141 388.783 94.7022C392.605 97.5844 396.636 99.6843 400.874 101.002C405.196 102.237 410.182 102.855 415.834 102.855C423.729 102.855 429.629 101.331 433.535 98.2844C437.524 95.2375 439.519 91.2436 439.519 86.3027C439.519 82.1852 438.064 78.9736 435.156 76.6679C432.33 74.3621 427.635 72.5504 421.069 71.2328L408.479 68.6389C400.667 67.0742 394.808 64.4391 390.902 60.7334C387.079 57.0277 385.167 52.0868 385.167 45.9106C385.167 40.8874 386.456 36.4817 389.032 32.6937C391.691 28.9056 395.348 25.9822 400.002 23.9235C404.656 21.7824 410.016 20.7119 416.083 20.7119C421.485 20.7119 426.43 21.4531 430.917 22.9353C435.488 24.4176 439.643 26.7645 443.383 29.9761C444.63 30.9643 445.17 32.1172 445.004 33.4348C444.837 34.7524 444.214 35.7406 443.134 36.3993C442.137 36.9758 440.931 36.7287 439.519 35.6582C436.028 32.8584 432.372 30.8408 428.549 29.6056C424.726 28.288 420.571 27.6292 416.083 27.6292C409.102 27.6292 403.492 29.2762 399.254 32.5701C395.099 35.8641 393.021 40.2697 393.021 45.7871C393.021 50.1516 394.351 53.6102 397.01 56.163C399.669 58.6335 403.949 60.4452 409.85 61.598L422.565 64.192C430.959 65.9214 437.192 68.5153 441.264 71.974C445.336 75.3503 447.372 80.003 447.372 85.9321C447.372 90.626 446.084 94.7846 443.508 98.4079C441.015 101.949 437.399 104.749 432.662 106.807C427.925 108.784 422.316 109.772 415.834 109.772Z" fill="url(#paint4_linear_3303_703)"/>
<defs>
<linearGradient id="paint0_linear_3303_703" x1="66.7949" y1="24.8535" x2="66.7949" y2="107.7" gradientUnits="userSpaceOnUse">
<stop stop-color="#2593FC"/>
<stop offset="1" stop-color="#30D2E0"/>
</linearGradient>
<linearGradient id="paint1_linear_3303_703" x1="163.623" y1="20.7119" x2="163.623" y2="109.772" gradientUnits="userSpaceOnUse">
<stop stop-color="#E0C230"/>
<stop offset="0.0001" stop-color="#2593FC"/>
<stop offset="1" stop-color="#30D2E0"/>
</linearGradient>
<linearGradient id="paint2_linear_3303_703" x1="241.291" y1="20.7119" x2="241.291" y2="109.772" gradientUnits="userSpaceOnUse">
<stop stop-color="#E0C230"/>
<stop offset="0.0001" stop-color="#2593FC"/>
<stop offset="1" stop-color="#30D2E0"/>
</linearGradient>
<linearGradient id="paint3_linear_3303_703" x1="313.782" y1="20.7119" x2="313.782" y2="109.772" gradientUnits="userSpaceOnUse">
<stop stop-color="#E0C230"/>
<stop offset="0.0001" stop-color="#2593FC"/>
<stop offset="1" stop-color="#30D2E0"/>
</linearGradient>
<linearGradient id="paint4_linear_3303_703" x1="415.269" y1="20.7119" x2="415.269" y2="109.772" gradientUnits="userSpaceOnUse">
<stop stop-color="#E0C230"/>
<stop offset="0.0001" stop-color="#2593FC"/>
<stop offset="1" stop-color="#30D2E0"/>
</linearGradient>
</defs>
</svg>
