<svg id="Layer_1" data-name="Layer 1" xmlns="http://www.w3.org/2000/svg" viewBox="0 0 400 68.51"><defs><style>.cls-1{fill:#0e1c35;}</style></defs><path class="cls-1" d="M318.45,66.35a2.06,2.06,0,1,1-2-2.16A2.06,2.06,0,0,1,318.45,66.35Z"/><path class="cls-1" d="M346.29,41.49a11.81,11.81,0,1,0,0,23.61,13,13,0,0,0,8.77-3.56l2.08,2.24a16.26,16.26,0,0,1-11,4.5,15,15,0,0,1-15.35-15c0-8.3,6.86-14.88,15.46-14.88a16,16,0,0,1,10.86,4.31l-2,2.46A12.59,12.59,0,0,0,346.29,41.49Z"/><path class="cls-1" d="M400,53.28c0,8.35-6.86,15-15.51,15s-15.56-6.61-15.56-15,6.85-14.92,15.54-14.93S400,44.93,400,53.28Zm-27.64,0a12.08,12.08,0,0,0,24.16,0,12.08,12.08,0,0,0-24.16,0Z"/><path class="cls-1" d="M114,1.4h-1.77c-1.29,0-1.76.18-2,1L89.76,55.71c-.83,2.41-1.48,5-1.94,6.21h-.28c-.46-1.21-1.21-3.89-2-6.21L64.9,2.45c-.28-.83-.65-1-2-1H61.1c-.84,0-1,.46-.74,1.11L85.13,66.18a1.39,1.39,0,0,0,1.58,1h1.76A1.42,1.42,0,0,0,90,66.08l24.7-63.56C115,1.87,114.92,1.4,114,1.4Z"/><path class="cls-1" d="M145.19,1.38h-1.94c-.93,0-1.2.27-1.2,1.2l0,63.37c0,.92.27,1.2,1.21,1.2h1.94c.83,0,1.11-.28,1.11-1.2l0-63.37C146.31,1.66,146,1.38,145.19,1.38Z"/><path class="cls-1" d="M227.17,1.33h-2c-.83,0-1.11.28-1.11,1.21l0,42.34c0,11.95-6.56,19.64-20.09,19.65s-20.2-7.68-20.21-19.63l0-42.34c0-.92-.27-1.2-1.11-1.2h-1.94c-.93,0-1.21.28-1.21,1.21l0,42.34c0,14.35,8.08,23.61,24.48,23.6s24.35-9.28,24.34-23.64l0-42.33C228.28,1.61,228,1.33,227.17,1.33Z"/><path class="cls-1" d="M284.14,32c-10.47-1.1-20.75-2.86-20.76-13.79,0-8.89,6.94-14.09,18.89-14.09,10.38,0,16.22,3.88,20.39,12.12.47.83.74.83,1.48.55l1.86-.83c.74-.28,1-.74.55-1.58C301.73,4.53,294.69,0,282.27,0,267.63,0,259,7.15,259,18.45c0,14.36,12.61,16.3,24.19,17.68,10.1,1.2,19.73,2.58,19.74,13.51,0,9.82-6.84,14.65-20.19,14.65-10.37,0-16.95-4.34-20.94-13.69-.46-.93-.74-1-1.58-.74l-1.76.64c-.92.38-1,.75-.64,1.67,4.45,11,12,16.21,24.93,16.2,16.12,0,24.45-6.87,24.45-18.91C307.22,35.19,295.45,33.25,284.14,32Z"/><rect class="cls-1" y="1.28" width="38.53" height="4.63" rx="0.27"/><rect class="cls-1" x="0.02" y="32.02" width="38.53" height="4.63" rx="0.27"/><path class="cls-1" d="M38.3,62.75l-33.63,0V58.14H0V63H0v4.09a.27.27,0,0,0,.27.27l38,0a.27.27,0,0,0,.27-.26V63A.27.27,0,0,0,38.3,62.75Z"/></svg>