<?xml version="1.0" encoding="utf-8"?>
<!-- Generator: Adobe Illustrator 22.1.0, SVG Export Plug-In . SVG Version: 6.00 Build 0)  -->
<svg version="1.1" id="Capa_1" xmlns="http://www.w3.org/2000/svg" xmlns:xlink="http://www.w3.org/1999/xlink" x="0px" y="0px"
	 viewBox="0 0 512 512" style="enable-background:new 0 0 512 512;" xml:space="preserve">
<style type="text/css">
	.st0{fill:#F2BB80;}
	.st1{fill:#316D38;}
	.st2{fill:#999395;}
	.st3{fill:#333333;}
	.st4{fill:#FFFFFF;}
	.st5{fill:#E08000;}
</style>
<path class="st0" d="M136.6,149.2l17,59.7h-17c0,23.5-19.1,42.6-42.6,42.6l0,0c-23.5,0-42.6-19.1-42.6-42.6v-59.7
	c0-14.1,11.4-25.6,25.6-25.6H111C125.1,123.7,136.6,135.1,136.6,149.2z"/>
<path class="st1" d="M332.6,4.4H179.2c-14.1,0-25.6,11.4-25.6,25.6v51.1c0,14.1,11.4,25.6,25.6,25.6l0,0v25.6l42.6-25.6h110.8
	c14.1,0,25.6-11.4,25.6-25.6V29.9C358.2,15.8,346.7,4.4,332.6,4.4z"/>
<path class="st2" d="M469,362.3H366.7v-76.7c0-18.8,15.3-34.1,34.1-34.1h34.1c18.8,0,34.1,15.3,34.1,34.1L469,362.3L469,362.3z"/>
<path class="st2" d="M42.8,362.3h102.3v-76.7c0-18.8-15.3-34.1-34.1-34.1H76.9c-18.8,0-34.1,15.3-34.1,34.1V362.3z"/>
<circle class="st3" cx="102.5" cy="183.3" r="8.5"/>
<path class="st3" d="M42.8,362.3L42.8,362.3c0,23.5,19.1,42.6,42.6,42.6h59.7v102.3h59.7l-17-25.6v-85.2c0-18.8-15.3-34.1-34.1-34.1
	L42.8,362.3L42.8,362.3z"/>
<path class="st2" d="M113.7,490.6l-45.3-15.1V439h-17v36.5L6,490.6c-4.6,1.5-7.1,6.5-5.6,11s6.5,7.1,11,5.6l48.4-16.6l48.4,16.6
	c0.9,0.1,1.8,0.1,2.7,0c3.7,0,6.9-2.3,8.1-5.8C120.6,496.9,118.2,492.1,113.7,490.6C113.8,490.6,113.8,490.6,113.7,490.6z"/>
<rect x="85.5" y="251.5" class="st3" width="17" height="85.2"/>
<path class="st3" d="M111,157.8H76.9l-25.6,34.1v-42.6c0-14.1,11.4-25.6,25.6-25.6h68.2C145.1,142.5,129.9,157.8,111,157.8z"/>
<path class="st0" d="M375.2,149.2l-17,59.7h17c0,23.5,19.1,42.6,42.6,42.6l0,0c23.5,0,42.6-19.1,42.6-42.6v-59.7L375.2,149.2
	L375.2,149.2z"/>
<path class="st3" d="M460.5,149.2L460.5,149.2c0-14.1-11.4-25.6-25.6-25.6H371c-7.1,0-12.8,5.7-12.8,12.8s5.7,12.8,12.8,12.8h55.4
	l34.1,42.6L460.5,149.2L460.5,149.2z"/>
<g>
	<rect id="r1" x="179.2" y="29.9" class="st4" width="153.4" height="17">
	<animate id="c1"  xlink:href="#r1" attributeType="CSS" attributeName="width" from="1" to="153.4" begin="0s;c5.end + 5s" end="	" dur="0.3s" repeatCount="infinite" fill="freeze" />
	</rect>
	<rect id="r2" x="179.2" y="64" class="st4" height="17">
	<animate id="c2"  xlink:href="#r2" attributeType="CSS" attributeName="width" from="1" to="42" begin="c1.end" end="	" dur="0.3s" repeatCount="linear" fill="freeze" />
	</rect>
	<rect id="r3" x="230.4" y="64" class="st4" height="17">
	<animate id="c3"  xlink:href="#r3" attributeType="CSS" attributeName="width" from="1" to="102.3" begin="c2.end" end="	" dur="0.3s" repeatCount="linear" fill="freeze" />
	</rect>
</g>
<path class="st5" d="M307,106.6c14.1,0,25.6,11.4,25.6,25.6v17c0,14.1-11.4,25.6-25.6,25.6h-17v25.6l-42.6-25.6h-25.6
	c-14.1,0-25.6-11.4-25.6-25.6v-17c0-14.1,11.4-25.6,25.6-25.6C221.8,106.6,307,106.6,307,106.6z"/>
<rect x="145.1" y="319.7" class="st3" width="221.6" height="25.6"/>
<path class="st2" d="M505.8,490.6l-45.3-15.1V439h-17v36.5l-45.3,15.1c-4.5,1.5-6.9,6.3-5.4,10.8c1.5,4.5,6.3,6.9,10.8,5.4
	l48.4-16.2l48.4,16.6c0.9,0.1,1.8,0.1,2.7,0c3.8,0.2,7.3-2.2,8.5-5.8c1.4-4.5-1-9.3-5.5-10.7C506,490.6,505.9,490.6,505.8,490.6z"/>
<rect x="409.3" y="251.5" class="st3" width="17" height="85.2"/>
<g>
	<path class="st3" d="M42.8,404.9H94c9.4,0,17,7.6,17,17l0,0c0,9.4-7.6,17-17,17H34.3c-14.1,0-25.6-11.4-25.6-25.6V294.1
		c0-9.4,7.6-17,17-17l0,0c9.4,0,17,7.6,17,17V404.9z"/>
	<path class="st3" d="M469,404.9h-51.1c-9.4,0-17,7.6-17,17l0,0c0,9.4,7.6,17,17,17h59.7c14.1,0,25.6-11.4,25.6-25.6V294.1
		c0-9.4-7.6-17-17-17l0,0c-9.4,0-17,7.6-17,17L469,404.9L469,404.9z"/>
</g>
<path class="st2" d="M221.8,319.7h-76.7v-17h70.8l23.4-62.6l16,6l-25.6,68.2C228.6,317.5,225.4,319.7,221.8,319.7z"/>
<path class="st3" d="M469,362.3L469,362.3c0,23.5-19.1,42.6-42.6,42.6h-59.7v102.3H307l17-25.6v-85.2c0-18.8,15.3-34.1,34.1-34.1
	L469,362.3L469,362.3z"/>
<polygon class="st2" points="264.4,490.2 264.4,345.3 247.4,345.3 247.4,490.2 204.8,490.2 204.8,507.2 307,507.2 307,490.2 "/>
<g>
	<rect id="r4" x="221.9" y="132.2" class="st4" height="17" >
	<animate id="c4"  xlink:href="#r4" attributeType="CSS" attributeName="width" from="1" to="51.1" begin="c3.end" end="" dur="0.3s" repeatCount="linear" fill="freeze" />
	</rect>
	<rect id="r5" x="290" y="132.2" class="st4" height="17" >
	<animate id="c5"  xlink:href="#r5" attributeType="CSS" attributeName="width" from="1" to="17" begin="c4.end" end="" dur="0.3s" repeatCount="linear" fill="freeze" />
	</rect>
</g>
<circle class="st3" cx="400.8" cy="183.3" r="8.5"/>
</svg>
