<svg xmlns="http://www.w3.org/2000/svg" viewBox="0 0 233.81 373.38"><defs><style>.\30 8006269-5fb3-4dff-b5ec-9e94518d35db{isolation:isolate;}.\37 106fd98-9ec6-4932-ab0f-71133c69a3cb{fill:#e3e3df;}.\31 342abdd-e8d5-4773-a29c-4b267156fdae,.\37 106fd98-9ec6-4932-ab0f-71133c69a3cb,.cc928e30-9263-48b7-b01a-e6745006d141{mix-blend-mode:multiply;}.ddef8b38-2647-40ef-9bde-477aef24b47d{fill:#e67a77;}.e2712cb5-02ae-4f0b-8005-c3f0edb1b474{fill:#f18b84;}.ab65b168-aaf4-41b8-8bd2-b0377ebc175d{fill:#ce625a;}.cadadf23-0ab2-4898-ad2f-0dc683ba95b2{fill:#333;}.\31 342abdd-e8d5-4773-a29c-4b267156fdae{opacity:0.15;}.ae0d3ec6-cfaf-4a3a-b2fb-a3189af90436{fill:#91471c;}.\35 98dac75-cbc7-4f6b-96eb-deaf792034fe{fill:#de8747;}.\37 5f8ceb6-d5a0-43ad-bf60-3f948fad40de{fill:#fbd480;}.cc928e30-9263-48b7-b01a-e6745006d141{opacity:0.08;}.d9d9d054-ceca-41f5-9c4d-b101257fc1d6{fill:#e29351;}.\35 486228c-a810-49d9-8231-49478fc6a77e{fill:#e7d3c8;opacity:0.6;}.\37 4ba0505-53af-48c5-aa78-036466b4cc04{fill:#f2d2c4;}.\36 d37af89-d5f8-4e5b-a9ba-e16b57867603{fill:#d4a490;}.\31 9c45d38-e513-474a-b1c9-12d48b1e4761{fill:#dcaf9a;}.e79d7aa2-a1f9-4298-943e-ab9c6b6f706a{fill:#e6bca5;}.\38 eb66d7c-2966-44a0-87bc-b333378fa75f{fill:#fff;}.\30 d994212-9a00-47e3-8524-f41cfb46d147{fill:#4c5c6a;}.\31 cfd5eda-fce7-4c85-82a6-458a1f704c35{fill:#5b6a75;}</style></defs><title>prop2</title><g class="08006269-5fb3-4dff-b5ec-9e94518d35db"><g id="69489dd7-da78-49fa-92c0-c5ab0f79dc79" data-name="Capa 1"><path class="7106fd98-9ec6-4932-ab0f-71133c69a3cb" d="M160.8,363.41c0,5.51-24.73,10-55.24,10s-55.25-4.46-55.25-10,24.74-10,55.25-10S160.8,357.91,160.8,363.41Z"/><polyline class="ddef8b38-2647-40ef-9bde-477aef24b47d" points="120.95 359 120.95 359 119.15 341.96 119.15 341.96 129.62 341.63 129.62 341.63 128.25 358.77"/><polyline class="ddef8b38-2647-40ef-9bde-477aef24b47d" points="65.97 358.57 65.97 358.57 64.01 336.53 64.01 336.53 74.48 336.2 74.48 336.2 73.27 358.34"/><polyline class="e2712cb5-02ae-4f0b-8005-c3f0edb1b474" points="132.29 363.41 132.29 363.41 129.47 336.87 129.47 336.87 145.78 336.36 145.78 336.36 143.65 363.06"/><polyline class="e2712cb5-02ae-4f0b-8005-c3f0edb1b474" points="76.88 363.41 76.88 363.41 74.06 336.87 74.06 336.87 90.37 336.36 90.37 336.36 88.24 363.06"/><path class="e2712cb5-02ae-4f0b-8005-c3f0edb1b474" d="M166.55,296.64c2.77,29.67-21.86,56.23-55,59.33s-62.29-18.45-65.06-48.12,21.87-56.22,55-59.32S163.78,267,166.55,296.64Z"/><path class="e2712cb5-02ae-4f0b-8005-c3f0edb1b474" d="M156.7,308.12a3.94,3.94,0,0,1,.82-2.66,9.67,9.67,0,0,1,2-2,19.13,19.13,0,0,1,2.33-1.49,20.1,20.1,0,0,1,2.5-1.15c.86-.34,1.73-.63,2.61-.89a22.47,22.47,0,0,1,2.73-.6,16.08,16.08,0,0,1,2.92-.23,8.17,8.17,0,0,1,1.69.19c.34.08.41.08.74.18s.52.16.77.26a11.47,11.47,0,0,1,2.85,1.5,6.72,6.72,0,0,1,2.42,3,4.57,4.57,0,0,1,.17,2.69,5.05,5.05,0,0,1-1.28,2.21,7.86,7.86,0,0,1-1.48,1.13,6.64,6.64,0,0,1-1.94.78,5.36,5.36,0,0,1-2.36,0A5.14,5.14,0,0,1,172,310a6.3,6.3,0,0,1-2-3.47,8.05,8.05,0,0,1,0-3.59,6.43,6.43,0,0,1,1.84-3.19l-.09.1a9.27,9.27,0,0,1,3.39-2.32,11.63,11.63,0,0,1,1.85-.58,13.27,13.27,0,0,1,1.86-.28,16.3,16.3,0,0,1,1.85,0,12.14,12.14,0,0,1,1.81.26,9.59,9.59,0,0,1,3.3,1.35h0a.14.14,0,0,1,0,.19.15.15,0,0,1-.16.05,11,11,0,0,0-3.26-.67,13.25,13.25,0,0,0-3.33.24,11.52,11.52,0,0,0-3.14,1.06,7.94,7.94,0,0,0-2.56,2h0a4.62,4.62,0,0,0-1.09,2.2,5.61,5.61,0,0,0,.07,2.48,4,4,0,0,0,1.24,2.07,2.49,2.49,0,0,0,2.23.49,4.56,4.56,0,0,0,1.12-.46,5.85,5.85,0,0,0,1-.73,2.32,2.32,0,0,0,.6-1,2,2,0,0,0-.06-1.13,4.71,4.71,0,0,0-1.51-1.91,9.28,9.28,0,0,0-2.19-1.29,10,10,0,0,0-1.2-.41,6.42,6.42,0,0,0-1.24-.2,14.72,14.72,0,0,0-2.57.06,27.26,27.26,0,0,0-5.07,1,21.88,21.88,0,0,0-4.76,2,9.36,9.36,0,0,0-2,1.57,3.6,3.6,0,0,0-1.06,2.22.13.13,0,0,1-.14.12.13.13,0,0,1-.13-.11Z"/><path class="ab65b168-aaf4-41b8-8bd2-b0377ebc175d" d="M90,256.39a64.78,64.78,0,0,1,35.64-.27l-.3,4.65a64.31,64.31,0,0,0-35.19.34Z"/><path class="e2712cb5-02ae-4f0b-8005-c3f0edb1b474" d="M55,278s-7.1-17.81-2.28-19.43,14.61,4.59,14.61,4.59"/><path class="ab65b168-aaf4-41b8-8bd2-b0377ebc175d" d="M83.71,282.31s-6.82-15.62-3.7-17.18,13.72,2.52,18.43,4.92C98.44,270.05,86.39,274.43,83.71,282.31Z"/><path class="cadadf23-0ab2-4898-ad2f-0dc683ba95b2" d="M60.69,291.5a2.3,2.3,0,0,1-2.22,2.36h0a2.29,2.29,0,0,1-2.36-2.22L56,287.06a2.27,2.27,0,0,1,2.21-2.35h0a2.28,2.28,0,0,1,2.36,2.21Z"/><path class="cadadf23-0ab2-4898-ad2f-0dc683ba95b2" d="M76.17,296.48A2.29,2.29,0,0,1,74,298.84h0a2.28,2.28,0,0,1-2.36-2.22l-.14-4.57a2.28,2.28,0,0,1,2.21-2.36h0A2.28,2.28,0,0,1,76,291.9Z"/><path class="ab65b168-aaf4-41b8-8bd2-b0377ebc175d" d="M73.53,312.66c.24,7.87-2.42,14.34-15.44,15.73-6.88.73-9.15-4-9.39-11.91s-12.26-17.48,5.59-18C67,298.05,73.28,304.8,73.53,312.66Z"/><path class="e2712cb5-02ae-4f0b-8005-c3f0edb1b474" d="M66.75,313.64c.27,8.61-6,15.78-14,16s-14.66-6.52-14.93-15.13,6-15.77,14-16S66.48,305,66.75,313.64Z"/><path class="ab65b168-aaf4-41b8-8bd2-b0377ebc175d" d="M45,312.5a2.28,2.28,0,1,1,1.67,2.75A2.28,2.28,0,0,1,45,312.5Z"/><path class="ab65b168-aaf4-41b8-8bd2-b0377ebc175d" d="M53.74,314.65a2.27,2.27,0,1,1,1.67,2.75A2.27,2.27,0,0,1,53.74,314.65Z"/><g class="1342abdd-e8d5-4773-a29c-4b267156fdae"><path class="ae0d3ec6-cfaf-4a3a-b2fb-a3189af90436" d="M93.83,169.6a14,14,0,1,1,14,14A14,14,0,0,1,93.83,169.6Z"/><path class="ae0d3ec6-cfaf-4a3a-b2fb-a3189af90436" d="M95.79,168.58a14,14,0,1,1,14,14A14,14,0,0,1,95.79,168.58Z"/></g><path class="598dac75-cbc7-4f6b-96eb-deaf792034fe" d="M93.83,167.6a14,14,0,1,1,14,14A14,14,0,0,1,93.83,167.6Z"/><path class="75f8ceb6-d5a0-43ad-bf60-3f948fad40de" d="M95.79,166.58a14,14,0,1,1,14,14A14,14,0,0,1,95.79,166.58Z"/><g class="cc928e30-9263-48b7-b01a-e6745006d141"><path d="M105.93,171.35l3.6.06v.6a3.69,3.69,0,0,0,.1,1.25.51.51,0,0,0,.53.3.55.55,0,0,0,.49-.24,1.31,1.31,0,0,0,.18-.76,1.6,1.6,0,0,0-.32-1.19,12.63,12.63,0,0,0-1.91-1.35,15.3,15.3,0,0,1-1.85-1.3,3.52,3.52,0,0,1-.81-1.26,5.18,5.18,0,0,1-.31-2,4.52,4.52,0,0,1,1-3,4.23,4.23,0,0,1,2.8-1.3l0-1.35,1.65,0,0,1.4a4.35,4.35,0,0,1,2.5,1.15,4.4,4.4,0,0,1,1,3.39v.7L111,166.4v-.88a8.18,8.18,0,0,0-.08-1.81.5.5,0,0,0-.53-.36.63.63,0,0,0-.54.24,1.19,1.19,0,0,0-.2.72,6.66,6.66,0,0,0,.14,1.73,2.64,2.64,0,0,0,1.14,1.16,24.84,24.84,0,0,1,2.21,1.55,4,4,0,0,1,1,1.38,4.5,4.5,0,0,1,.39,2,3.41,3.41,0,0,1-1,2.51,4.48,4.48,0,0,1-2.76,1.08l0,1.15-1.65,0,0-1.14a3.92,3.92,0,0,1-2.47-1.17,3.53,3.53,0,0,1-.78-2.5C105.89,171.88,105.9,171.65,105.93,171.35Z"/></g><path class="d9d9d054-ceca-41f5-9c4d-b101257fc1d6" d="M105.93,170.35l3.6.06v.6a3.69,3.69,0,0,0,.1,1.25.51.51,0,0,0,.53.3.55.55,0,0,0,.49-.24,1.31,1.31,0,0,0,.18-.76,1.6,1.6,0,0,0-.32-1.19,12.63,12.63,0,0,0-1.91-1.35,15.3,15.3,0,0,1-1.85-1.3,3.52,3.52,0,0,1-.81-1.26,5.18,5.18,0,0,1-.31-2,4.52,4.52,0,0,1,1-3,4.23,4.23,0,0,1,2.8-1.3l0-1.35,1.65,0,0,1.4a4.35,4.35,0,0,1,2.5,1.15,4.4,4.4,0,0,1,1,3.39v.7L111,165.4v-.88a8.18,8.18,0,0,0-.08-1.81.5.5,0,0,0-.53-.36.63.63,0,0,0-.54.24,1.19,1.19,0,0,0-.2.72,6.66,6.66,0,0,0,.14,1.73,2.64,2.64,0,0,0,1.14,1.16,24.84,24.84,0,0,1,2.21,1.55,4,4,0,0,1,1,1.38,4.5,4.5,0,0,1,.39,2,3.41,3.41,0,0,1-1,2.51,4.48,4.48,0,0,1-2.76,1.08l0,1.15-1.65,0,0-1.14a3.92,3.92,0,0,1-2.47-1.17,3.53,3.53,0,0,1-.78-2.5C105.89,170.88,105.9,170.65,105.93,170.35Z"/><g class="1342abdd-e8d5-4773-a29c-4b267156fdae"><path class="ae0d3ec6-cfaf-4a3a-b2fb-a3189af90436" d="M94.18,252.09a14,14,0,1,1,14,14A14,14,0,0,1,94.18,252.09Z"/><path class="ae0d3ec6-cfaf-4a3a-b2fb-a3189af90436" d="M96.14,251.07a14,14,0,1,1,14,14A14,14,0,0,1,96.14,251.07Z"/></g><path class="598dac75-cbc7-4f6b-96eb-deaf792034fe" d="M94.18,248.09a14,14,0,1,1,14,14A14,14,0,0,1,94.18,248.09Z"/><path class="75f8ceb6-d5a0-43ad-bf60-3f948fad40de" d="M96.14,247.07a14,14,0,1,1,14,14A14,14,0,0,1,96.14,247.07Z"/><g class="cc928e30-9263-48b7-b01a-e6745006d141"><path d="M105.93,251l3.6.07v.59a3.66,3.66,0,0,0,.1,1.25.5.5,0,0,0,.53.3.51.51,0,0,0,.49-.24,1.31,1.31,0,0,0,.18-.76,1.62,1.62,0,0,0-.32-1.19,12.63,12.63,0,0,0-1.91-1.35,15.3,15.3,0,0,1-1.85-1.3,3.52,3.52,0,0,1-.81-1.26,5.18,5.18,0,0,1-.31-2,4.52,4.52,0,0,1,1-3,4.23,4.23,0,0,1,2.8-1.3l0-1.35,1.65,0,0,1.39a3.83,3.83,0,0,1,3.51,4.54v.7L111,246v-.88a8,8,0,0,0-.08-1.8.48.48,0,0,0-.53-.36.6.6,0,0,0-.54.23,1.19,1.19,0,0,0-.2.72,6.57,6.57,0,0,0,.14,1.73,2.59,2.59,0,0,0,1.14,1.16c1.08.71,1.82,1.22,2.21,1.55a4,4,0,0,1,1,1.39,4.47,4.47,0,0,1,.39,2,3.42,3.42,0,0,1-1,2.51,4.48,4.48,0,0,1-2.76,1.08l0,1.14-1.65,0,0-1.15a3.91,3.91,0,0,1-2.47-1.16,3.55,3.55,0,0,1-.78-2.51C105.89,251.49,105.9,251.27,105.93,251Z"/></g><path class="d9d9d054-ceca-41f5-9c4d-b101257fc1d6" d="M105.93,250l3.6.07v.59a3.66,3.66,0,0,0,.1,1.25.5.5,0,0,0,.53.3.51.51,0,0,0,.49-.24,1.31,1.31,0,0,0,.18-.76,1.62,1.62,0,0,0-.32-1.19,12.63,12.63,0,0,0-1.91-1.35,15.3,15.3,0,0,1-1.85-1.3,3.52,3.52,0,0,1-.81-1.26,5.18,5.18,0,0,1-.31-2,4.52,4.52,0,0,1,1-3,4.23,4.23,0,0,1,2.8-1.3l0-1.35,1.65,0,0,1.39a3.83,3.83,0,0,1,3.51,4.54v.7L111,245v-.88a8,8,0,0,0-.08-1.8.48.48,0,0,0-.53-.36.6.6,0,0,0-.54.23,1.19,1.19,0,0,0-.2.72,6.57,6.57,0,0,0,.14,1.73,2.59,2.59,0,0,0,1.14,1.16c1.08.71,1.82,1.22,2.21,1.55a4,4,0,0,1,1,1.39,4.47,4.47,0,0,1,.39,2,3.42,3.42,0,0,1-1,2.51,4.48,4.48,0,0,1-2.76,1.08l0,1.14-1.65,0,0-1.15a3.91,3.91,0,0,1-2.47-1.16,3.55,3.55,0,0,1-.78-2.51C105.89,250.49,105.9,250.27,105.93,250Z"/><g class="1342abdd-e8d5-4773-a29c-4b267156fdae"><path class="ae0d3ec6-cfaf-4a3a-b2fb-a3189af90436" d="M94.18,211.5a14,14,0,1,1,14,14A14,14,0,0,1,94.18,211.5Z"/><path class="ae0d3ec6-cfaf-4a3a-b2fb-a3189af90436" d="M96.14,210.49a14,14,0,1,1,14,14A14,14,0,0,1,96.14,210.49Z"/></g><path class="598dac75-cbc7-4f6b-96eb-deaf792034fe" d="M94.18,209.5a14,14,0,1,1,14,14A14,14,0,0,1,94.18,209.5Z"/><path class="75f8ceb6-d5a0-43ad-bf60-3f948fad40de" d="M96.14,208.49a14,14,0,1,1,14,14A14,14,0,0,1,96.14,208.49Z"/><g class="cc928e30-9263-48b7-b01a-e6745006d141"><path d="M105.93,212.21l3.6.07v.59a3.66,3.66,0,0,0,.1,1.25.5.5,0,0,0,.53.3.53.53,0,0,0,.49-.24,1.31,1.31,0,0,0,.18-.76,1.62,1.62,0,0,0-.32-1.19,12.63,12.63,0,0,0-1.91-1.35,15.3,15.3,0,0,1-1.85-1.3,3.52,3.52,0,0,1-.81-1.26,5.18,5.18,0,0,1-.31-2,4.52,4.52,0,0,1,1-3,4.23,4.23,0,0,1,2.8-1.3l0-1.35,1.65,0,0,1.39a4.35,4.35,0,0,1,2.5,1.15,4.4,4.4,0,0,1,1,3.39v.7l-3.59-.06v-.88a8,8,0,0,0-.08-1.8.5.5,0,0,0-.53-.37.63.63,0,0,0-.54.24,1.19,1.19,0,0,0-.2.72,6.61,6.61,0,0,0,.14,1.73,2.59,2.59,0,0,0,1.14,1.16,24.84,24.84,0,0,1,2.21,1.55,4,4,0,0,1,1,1.39,4.44,4.44,0,0,1,.39,2,3.38,3.38,0,0,1-1,2.5,4.49,4.49,0,0,1-2.76,1.09l0,1.14-1.65,0,0-1.14a3.91,3.91,0,0,1-2.47-1.16,3.55,3.55,0,0,1-.78-2.51C105.89,212.74,105.9,212.51,105.93,212.21Z"/></g><path class="d9d9d054-ceca-41f5-9c4d-b101257fc1d6" d="M105.93,211.21l3.6.07v.59a3.66,3.66,0,0,0,.1,1.25.5.5,0,0,0,.53.3.53.53,0,0,0,.49-.24,1.31,1.31,0,0,0,.18-.76,1.62,1.62,0,0,0-.32-1.19,12.63,12.63,0,0,0-1.91-1.35,15.3,15.3,0,0,1-1.85-1.3,3.52,3.52,0,0,1-.81-1.26,5.18,5.18,0,0,1-.31-2,4.52,4.52,0,0,1,1-3,4.23,4.23,0,0,1,2.8-1.3l0-1.35,1.65,0,0,1.39a4.35,4.35,0,0,1,2.5,1.15,4.4,4.4,0,0,1,1,3.39v.7l-3.59-.06v-.88a8,8,0,0,0-.08-1.8.5.5,0,0,0-.53-.37.63.63,0,0,0-.54.24,1.19,1.19,0,0,0-.2.72,6.61,6.61,0,0,0,.14,1.73,2.59,2.59,0,0,0,1.14,1.16,24.84,24.84,0,0,1,2.21,1.55,4,4,0,0,1,1,1.39,4.44,4.44,0,0,1,.39,2,3.38,3.38,0,0,1-1,2.5,4.49,4.49,0,0,1-2.76,1.09l0,1.14-1.65,0,0-1.14a3.91,3.91,0,0,1-2.47-1.16,3.55,3.55,0,0,1-.78-2.51C105.89,211.74,105.9,211.51,105.93,211.21Z"/><path class="e2712cb5-02ae-4f0b-8005-c3f0edb1b474" d="M90.11,261.61s15.62-6.52,35.19-.4l.23,8.18"/><path class="7106fd98-9ec6-4932-ab0f-71133c69a3cb" d="M36.06,366.32v-3.58h0c-.58-3.35-8.41-6-18-6-9.76,0-17.71,2.75-18,6.19H0V363s0,.1,0,.15,0,.09,0,.14c0,.84,0,3,0,3.83,0,.41.78,4.59,17.34,5.37l1.24,0C37.89,372,36.06,366.32,36.06,366.32Z"/><path class="598dac75-cbc7-4f6b-96eb-deaf792034fe" d="M16.93,355.18c7.2,0,19.13,2.86,19.13,2.86v3.58s1.83,5.67-17.48,6.19l-1.24,0C.78,367,0,362.81,0,362.4c0-1,0-4.17,0-4.17s10.68-3.05,17.88-3.05"/><path class="75f8ceb6-d5a0-43ad-bf60-3f948fad40de" d="M36.06,358.43c0,3.54-8.07,6.4-18,6.4S0,362,0,358.43,8.07,352,18,352,36.06,354.9,36.06,358.43Z"/><g class="cc928e30-9263-48b7-b01a-e6745006d141"><path d="M23.91,359.27l-3.06-1.34.45-.21a2.88,2.88,0,0,0,.83-.48c.07-.1,0-.19-.22-.29a1.28,1.28,0,0,0-.59-.08,2.08,2.08,0,0,0-.7.2c-.42.19-.63.37-.62.53a4.26,4.26,0,0,0,.59,1.18,4.55,4.55,0,0,1,.6,1.2,1,1,0,0,1-.26.83,3.81,3.81,0,0,1-1.34,1,8.37,8.37,0,0,1-3.4.88,8.82,8.82,0,0,1-3.56-.65l-1.23.58-1.35-.72,1.27-.58a1.77,1.77,0,0,1-1-1.47c0-.52.7-1.07,2-1.65l.58-.25,2.82,1.34-.73.34a8,8,0,0,0-1.44.74c-.14.12-.1.24.13.35a1.23,1.23,0,0,0,.66.13,2.26,2.26,0,0,0,.77-.22,6,6,0,0,0,1.31-.74c.2-.18.19-.47,0-.88a6.61,6.61,0,0,1-.56-1.37,1,1,0,0,1,.28-.83,2.93,2.93,0,0,1,1.19-.8,6.15,6.15,0,0,1,2.57-.51,9.36,9.36,0,0,1,3,.54l.81-.37,1.35.55-.81.37c.82.44,1.26.86,1.3,1.26s-.32.82-1.11,1.22Z"/></g><path class="d9d9d054-ceca-41f5-9c4d-b101257fc1d6" d="M23.91,358.27l-3.06-1.34.45-.21a2.88,2.88,0,0,0,.83-.48c.07-.1,0-.19-.22-.29a1.28,1.28,0,0,0-.59-.08,2.08,2.08,0,0,0-.7.2c-.42.19-.63.37-.62.53a4.26,4.26,0,0,0,.59,1.18,4.55,4.55,0,0,1,.6,1.2,1,1,0,0,1-.26.83,3.81,3.81,0,0,1-1.34,1,8.37,8.37,0,0,1-3.4.88,8.82,8.82,0,0,1-3.56-.65l-1.23.58-1.35-.72,1.27-.58a1.77,1.77,0,0,1-1-1.47c0-.52.7-1.07,2-1.65l.58-.25,2.82,1.34-.73.34a8,8,0,0,0-1.44.74c-.14.12-.1.24.13.35a1.23,1.23,0,0,0,.66.13,2.26,2.26,0,0,0,.77-.22,6,6,0,0,0,1.31-.74c.2-.18.19-.47,0-.88a6.61,6.61,0,0,1-.56-1.37,1,1,0,0,1,.28-.83,2.93,2.93,0,0,1,1.19-.8,6.15,6.15,0,0,1,2.57-.51,9.36,9.36,0,0,1,3,.54l.81-.37,1.35.55-.81.37c.82.44,1.26.86,1.3,1.26s-.32.82-1.11,1.22Z"/><path class="7106fd98-9ec6-4932-ab0f-71133c69a3cb" d="M233.81,363.19l0,0c0-3.4-7.29-7.33-16.73-8.93-8.95-1.53-16.75-.44-18.51,2.4a44.57,44.57,0,0,0-9.66-1c-9.76,0-17.7,2.75-18,6.19h0v.05a.88.88,0,0,0,0,.16s0,.09,0,.14c0,.84,0,3,0,3.83,0,.41.78,4.58,17.35,5.36l1.23.05c11-.3,15.11-2.25,16.65-3.89a68.37,68.37,0,0,0,7.65,2.09l1.21.26c19.13,2.72,18.27-3.18,18.27-3.18Z"/><path class="598dac75-cbc7-4f6b-96eb-deaf792034fe" d="M185.61,354.81c7.2,0,19.13,2.87,19.13,2.87v3.58s1.83,5.67-17.48,6.19l-1.24,0c-16.56-.78-17.34-5-17.34-5.37,0-1,0-4.17,0-4.17s10.68-3.06,17.88-3.06"/><path class="75f8ceb6-d5a0-43ad-bf60-3f948fad40de" d="M204.74,358.07c0,3.54-8.08,6.4-18,6.4s-18-2.86-18-6.4,8.07-6.4,18-6.4S204.74,354.54,204.74,358.07Z"/><g class="cc928e30-9263-48b7-b01a-e6745006d141"><path d="M192.58,358.91l-3.05-1.34.45-.21a3.36,3.36,0,0,0,.83-.48c.07-.1,0-.19-.23-.29a1.22,1.22,0,0,0-.58-.08,1.82,1.82,0,0,0-.7.2c-.42.19-.63.37-.62.52a4.12,4.12,0,0,0,.59,1.19,5.12,5.12,0,0,1,.6,1.2,1,1,0,0,1-.26.83,3.87,3.87,0,0,1-1.35,1,8.15,8.15,0,0,1-3.39.87,8.78,8.78,0,0,1-3.56-.64l-1.23.58-1.35-.72,1.27-.58a1.75,1.75,0,0,1-1-1.47c0-.52.7-1.08,2.05-1.66l.58-.25,2.81,1.35-.73.33a9,9,0,0,0-1.43.74c-.14.13-.1.25.13.36a1.33,1.33,0,0,0,.66.13,2.26,2.26,0,0,0,.77-.22,6.24,6.24,0,0,0,1.31-.74c.19-.18.19-.47,0-.88a7,7,0,0,1-.55-1.37,1,1,0,0,1,.27-.83,3.16,3.16,0,0,1,1.2-.81,6.29,6.29,0,0,1,2.56-.5,9.68,9.68,0,0,1,3,.53l.8-.36,1.35.55-.8.37c.82.44,1.26.86,1.3,1.26s-.33.82-1.11,1.21Z"/></g><path class="d9d9d054-ceca-41f5-9c4d-b101257fc1d6" d="M192.58,357.91l-3.05-1.34.45-.21a3.36,3.36,0,0,0,.83-.48c.07-.1,0-.19-.23-.29a1.22,1.22,0,0,0-.58-.08,1.82,1.82,0,0,0-.7.2c-.42.19-.63.37-.62.52a4.12,4.12,0,0,0,.59,1.19,5.12,5.12,0,0,1,.6,1.2,1,1,0,0,1-.26.83,3.87,3.87,0,0,1-1.35,1,8.15,8.15,0,0,1-3.39.87,8.78,8.78,0,0,1-3.56-.64l-1.23.58-1.35-.72,1.27-.58a1.75,1.75,0,0,1-1-1.47c0-.52.7-1.08,2.05-1.66l.58-.25,2.81,1.35-.73.33a9,9,0,0,0-1.43.74c-.14.13-.1.25.13.36a1.33,1.33,0,0,0,.66.13,2.26,2.26,0,0,0,.77-.22,6.24,6.24,0,0,0,1.31-.74c.19-.18.19-.47,0-.88a7,7,0,0,1-.55-1.37,1,1,0,0,1,.27-.83,3.16,3.16,0,0,1,1.2-.81,6.29,6.29,0,0,1,2.56-.5,9.68,9.68,0,0,1,3,.53l.8-.36,1.35.55-.8.37c.82.44,1.26.86,1.3,1.26s-.33.82-1.11,1.21Z"/><path class="598dac75-cbc7-4f6b-96eb-deaf792034fe" d="M213.26,353.17c7.1,1.21,18.38,6,18.38,6l-.6,3.53s.85,5.89-18.27,3.17l-1.22-.25c-16.19-3.55-16.26-7.8-16.19-8.2.17-1,.71-4.12.71-4.12s11-1.21,18.14,0"/><path class="75f8ceb6-d5a0-43ad-bf60-3f948fad40de" d="M231.57,359.6c-.59,3.48-9,4.95-18.84,3.28S195.43,357,196,353.54s9-5,18.85-3.28S232.17,356.11,231.57,359.6Z"/><g class="cc928e30-9263-48b7-b01a-e6745006d141"><path d="M219.62,358.4l-2.79-1.84.48-.13a3.13,3.13,0,0,0,.9-.33c.09-.09,0-.19-.17-.32a1.21,1.21,0,0,0-.57-.19,2.4,2.4,0,0,0-.72.08c-.45.12-.68.26-.7.42a4,4,0,0,0,.39,1.27,5.25,5.25,0,0,1,.39,1.28,1,1,0,0,1-.4.78,3.8,3.8,0,0,1-1.49.72,8.34,8.34,0,0,1-3.5.3,8.85,8.85,0,0,1-3.4-1.23l-1.31.36-1.2-.94,1.34-.35a1.78,1.78,0,0,1-.74-1.62c.1-.51.88-.94,2.3-1.29l.62-.15,2.55,1.8-.78.21a8.81,8.81,0,0,0-1.54.49c-.16.09-.14.22.07.37a1.34,1.34,0,0,0,.63.24,2.26,2.26,0,0,0,.79-.09,6.17,6.17,0,0,0,1.42-.51c.22-.14.27-.44.13-.87a7.83,7.83,0,0,1-.32-1.45,1.08,1.08,0,0,1,.42-.77,3.14,3.14,0,0,1,1.31-.59,6.36,6.36,0,0,1,2.61-.07,9.63,9.63,0,0,1,2.84,1l.86-.23,1.24.77-.86.24c.74.56,1.1,1,1.08,1.46s-.46.75-1.31,1Z"/></g><path class="d9d9d054-ceca-41f5-9c4d-b101257fc1d6" d="M219.62,357.4l-2.79-1.84.48-.13a3.13,3.13,0,0,0,.9-.33c.09-.09,0-.19-.17-.32a1.21,1.21,0,0,0-.57-.19,2.4,2.4,0,0,0-.72.08c-.45.12-.68.26-.7.42a4,4,0,0,0,.39,1.27,5.25,5.25,0,0,1,.39,1.28,1,1,0,0,1-.4.78,3.8,3.8,0,0,1-1.49.72,8.34,8.34,0,0,1-3.5.3,8.85,8.85,0,0,1-3.4-1.23l-1.31.36-1.2-.94,1.34-.35a1.78,1.78,0,0,1-.74-1.62c.1-.51.88-.94,2.3-1.29l.62-.15,2.55,1.8-.78.21a8.81,8.81,0,0,0-1.54.49c-.16.09-.14.22.07.37a1.34,1.34,0,0,0,.63.24,2.26,2.26,0,0,0,.79-.09,6.17,6.17,0,0,0,1.42-.51c.22-.14.27-.44.13-.87a7.83,7.83,0,0,1-.32-1.45,1.08,1.08,0,0,1,.42-.77,3.14,3.14,0,0,1,1.31-.59,6.36,6.36,0,0,1,2.61-.07,9.63,9.63,0,0,1,2.84,1l.86-.23,1.24.77-.86.24c.74.56,1.1,1,1.08,1.46s-.46.75-1.31,1Z"/><path class="5486228c-a810-49d9-8231-49478fc6a77e" d="M89.07,129.53a21.09,21.09,0,0,1,4.09-.18,1.24,1.24,0,0,0,0-.33c-.36-1.63-3.28-4.88-5.06-5.06s-3.85,1.6-3.85,1.6.7.79,1.74,1.75c1.39,1.16,2.93,2.18,2.93,2.18Z"/><path class="5486228c-a810-49d9-8231-49478fc6a77e" d="M87.2,135.43c-.89-.18-3.78.87-3.87.9l0,0a11.81,11.81,0,0,0,2,2.16,27.61,27.61,0,0,0,7,3.49C93,139.3,87.2,135.43,87.2,135.43Z"/><path class="74ba0505-53af-48c5-aa78-036466b4cc04" d="M114,156.66h-10.3v6.69a5.11,5.11,0,0,0,3,4.64,8.24,8.24,0,0,0,3.52,0,6.43,6.43,0,0,0,3-2,5,5,0,0,0,.75-2.64Z"/><path class="6d37af89-d5f8-4e5b-a9ba-e16b57867603" d="M84.21,125.56s2.05-1.78,3.85-1.6,4.7,3.43,5.06,5.06a1.24,1.24,0,0,1,0,.33,48.1,48.1,0,0,1,9.6,1.59,48.63,48.63,0,0,0-.18-5.61c-3.44-2-9.74-5.58-12.8-6.16-4.34-.81-6.54,3.71-6,5.69A6.86,6.86,0,0,0,86,127.31C84.91,126.35,84.21,125.56,84.21,125.56Z"/><path class="19c45d38-e513-474a-b1c9-12d48b1e4761" d="M102.76,130.94a48.1,48.1,0,0,0-9.6-1.59,21.09,21.09,0,0,0-4.09.18l-.38.06c-2.87.53-5.14,1.9-5.69,4.76a3,3,0,0,0,.33,2c.09,0,3-1.08,3.87-.9,0,0,5.78,3.87,5.16,6.58a68.5,68.5,0,0,0,9.15,2.54A110,110,0,0,0,102.76,130.94Z"/><path class="19c45d38-e513-474a-b1c9-12d48b1e4761" d="M117.54,154.89,132,140.22l9-27.46-.11-.05-.35,0c-.49,0-1,0-1.59,0s-1.15.09-1.76.16-1.24.16-1.87.29-1.28.23-1.91.4-1.28.3-1.9.47l-.37.11c0,.33-.12.7-.18,1l-.28,1.23c-.07.39-.11.79-.2,1.18l-.23,1.18c-.16.78-.35,1.55-.52,2.33l-.58,2.32c-.2.77-.42,1.53-.64,2.29-.11.38-.2.77-.33,1.15l-.35,1.14-.35,1.14c-.12.38-.26.75-.38,1.13-.26.75-.5,1.51-.79,2.25l-.08.2-.07.08-1.72,1.89-1.74,1.87-1.8,1.82-.89.92-.93.89-.08-.07,6.48-7.86,1.34-4.56c.43-1.53.9-3,1.36-4.57l2.67-8.87-1.17.33c-1.18.36-2.28.71-3.21,1s-1.71.6-2.25.81l-.85.33.81-.42c.52-.26,1.26-.62,2.18-1l1.49-.6c.53-.19,1.09-.42,1.68-.61s1.2-.4,1.84-.57,1.27-.35,1.92-.5,1.3-.26,1.94-.38,1.29-.17,1.91-.25,1.2-.06,1.76-.09c-5-.32-13.42,2.85-15.6,4.41-2.53,1.81-4.7,18.79-5.42,34.33"/><path class="e79d7aa2-a1f9-4298-943e-ab9c6b6f706a" d="M132.68,66.87,90.05,64.7s-2.77,20.11-1.81,26.74c1.06,7.28,7.23,19.51,12.29,26.74a15.51,15.51,0,0,1,2,7.15,48.63,48.63,0,0,1,.18,5.61,110,110,0,0,1-1.25,13.61c-.51,3.45-1,5.78-1,5.78S98.82,166,106.76,168a5.11,5.11,0,0,1-3-4.64v-6.69H114v6.69a5,5,0,0,1-.75,2.64,16.08,16.08,0,0,0,3.45-6.94,37.68,37.68,0,0,0,1.14-8c.72-15.54,2.89-32.52,5.42-34.33,2.18-1.56,10.56-4.73,15.6-4.41h0c.57,0,1.12.05,1.61.07s1,.14,1.35.2a6.09,6.09,0,0,1,1,.25l.87.28-.89-.18a6.32,6.32,0,0,0-1-.15l-1-.08.11.05-9,27.46-14.42,14.67a9.57,9.57,0,0,1,2.08,1.68,16.78,16.78,0,0,1,4.29,8.76S141,153,145.69,147.81c.88-1,15.18-42.28,15.9-44.81S132.68,66.87,132.68,66.87Z"/><path class="6d37af89-d5f8-4e5b-a9ba-e16b57867603" d="M135.22,112.66c-.64.12-1.3.22-1.94.38s-1.3.31-1.92.5-1.24.38-1.84.57-1.15.42-1.68.61l-1.49.6c-.92.39-1.66.75-2.18,1l-.81.42.85-.33c.54-.21,1.32-.48,2.25-.81s2-.69,3.21-1l1.17-.33-2.67,8.87c-.46,1.52-.93,3-1.36,4.57l-1.34,4.56L119,140.09l.08.07.93-.89.89-.92,1.8-1.82,1.74-1.87,1.72-1.89.07-.08.08-.2c.29-.74.53-1.5.79-2.25.12-.38.26-.75.38-1.13l.35-1.14.35-1.14c.13-.38.22-.77.33-1.15.22-.76.44-1.52.64-2.29l.58-2.32c.17-.78.36-1.55.52-2.33l.23-1.18c.09-.39.13-.79.2-1.18l.28-1.23c.06-.3.13-.67.18-1l.37-.11c.62-.17,1.26-.33,1.9-.47s1.28-.27,1.91-.4,1.26-.19,1.87-.29,1.2-.1,1.76-.16,1.1,0,1.59,0l.35,0,1,.08a6.32,6.32,0,0,1,1,.15l.89.18-.87-.28a6.09,6.09,0,0,0-1-.25c-.4-.06-.85-.17-1.35-.2s-1-.06-1.61-.07h0c-.56,0-1.15,0-1.76.09S135.86,112.53,135.22,112.66Z"/><g class="cc928e30-9263-48b7-b01a-e6745006d141"><rect x="81.36" y="49.27" width="63.32" height="22.94"/></g><rect class="8eb66d7c-2966-44a0-87bc-b333378fa75f" x="81.36" y="44.83" width="63.32" height="22.94"/><rect class="0d994212-9a00-47e3-8524-f41cfb46d147" x="77.04" width="71.45" height="44.83"/><path class="1cfd5eda-fce7-4c85-82a6-458a1f704c35" d="M84.66,32.33a3.26,3.26,0,1,1,3.25,3.25A3.25,3.25,0,0,1,84.66,32.33Z"/><path class="1cfd5eda-fce7-4c85-82a6-458a1f704c35" d="M84.66,18.51a3.26,3.26,0,1,1,3.25,3.25A3.25,3.25,0,0,1,84.66,18.51Z"/></g></g></svg>