<svg id="0396987a-5cca-4db8-96c1-498d439744f3" data-name="Capa 1" xmlns="http://www.w3.org/2000/svg" viewBox="0 0 393.99 365.69"><defs><style>.\33 ebe40bc-ccbc-4a99-8640-6f3144ef8c3b{fill:#ff0;}.ed82b243-9cf6-4870-b062-37394296dad4{fill:#2e5e00;}.da989f5e-a7e1-4dc8-a67a-e010da5d4244{fill:#577b00;}.a759bd84-f8d8-423b-96cb-4c1d96055df0{fill:#6e280e;}.\32 6f8a2e6-b06f-49d8-8113-ff2f210a5ea5,.b088da4c-d414-4bbf-973d-671bdfec77b1{fill:#471103;}.\36 877b773-ca13-4c3b-86da-596b0e665547{fill:#4c6600;}.ae44513f-61a8-4963-acb8-559568de5e23{fill:#2b5000;}.\32 20e55f3-0420-4c4f-bd40-c187be4c5426,.\33 67f4846-cfe8-4e8b-91bd-f84153322acb{fill:#80270d;}.\32 20e55f3-0420-4c4f-bd40-c187be4c5426,.\36 551ab5b-9dd2-4f5e-b281-122af97cfec5,.b088da4c-d414-4bbf-973d-671bdfec77b1{opacity:0.5;}.\35 7604f2d-3415-406d-a05a-dff96bda0403{fill:#294700;}</style></defs><title>prop2</title><path class="3ebe40bc-ccbc-4a99-8640-6f3144ef8c3b" d="M310.59,352a116.13,116.13,0,1,0-223.77,0Z"/><path class="ed82b243-9cf6-4870-b062-37394296dad4" d="M362,344.1v0a34.71,34.71,0,0,0-69.41,0v0Z"/><path class="ed82b243-9cf6-4870-b062-37394296dad4" d="M122.51,346.83h0a35.87,35.87,0,0,0-71.74,0h71.74Z"/><path class="da989f5e-a7e1-4dc8-a67a-e010da5d4244" d="M144.05,343.86h0a25.73,25.73,0,0,0-51.46,0h51.46Z"/><path class="ed82b243-9cf6-4870-b062-37394296dad4" d="M259.68,338.46h0a25.73,25.73,0,0,0-51.46,0h51.46Z"/><path class="da989f5e-a7e1-4dc8-a67a-e010da5d4244" d="M69.87,346.83h0a19.11,19.11,0,0,0-38.21,0H69.87Z"/><path class="da989f5e-a7e1-4dc8-a67a-e010da5d4244" d="M305,332.72h0a15.14,15.14,0,1,0-30.28,0H305Z"/><path class="a759bd84-f8d8-423b-96cb-4c1d96055df0" d="M22.21,341.77H363.39A10.18,10.18,0,0,1,373.57,352v8H12v-8A10.18,10.18,0,0,1,22.21,341.77Z"/><path class="26f8a2e6-b06f-49d8-8113-ff2f210a5ea5" d="M214.4,218.25a8.91,8.91,0,0,0,8.91,8.91h0a8.91,8.91,0,0,0,8.92-8.91v-14.5a8.92,8.92,0,0,0-8.92-8.92h0a8.92,8.92,0,0,0-8.91,8.92Z"/><path class="a759bd84-f8d8-423b-96cb-4c1d96055df0" d="M151.45,302a8.92,8.92,0,0,0,8.91,8.92h0a8.92,8.92,0,0,0,8.92-8.92V291.08a8.92,8.92,0,0,0-8.92-8.92h0a8.91,8.91,0,0,0-8.91,8.92Z"/><path class="a759bd84-f8d8-423b-96cb-4c1d96055df0" d="M301.78,87.05a3.39,3.39,0,0,0,3.38,3.38h41.08a3.39,3.39,0,0,0,3.38-3.38h0a3.38,3.38,0,0,0-3.38-3.38H305.16a3.38,3.38,0,0,0-3.38,3.38Z"/><path class="6877b773-ca13-4c3b-86da-596b0e665547" d="M358.09,84.45A10.85,10.85,0,1,1,347.24,73.6,10.84,10.84,0,0,1,358.09,84.45Z"/><path class="ae44513f-61a8-4963-acb8-559568de5e23" d="M297.85,124.62a10.41,10.41,0,1,1-10.4-10.4A10.39,10.39,0,0,1,297.85,124.62Z"/><circle class="ae44513f-61a8-4963-acb8-559568de5e23" cx="246.46" cy="161.99" r="6.83" transform="translate(32.42 364.89) rotate(-76.78)"/><path class="6877b773-ca13-4c3b-86da-596b0e665547" d="M255.8,141.53a25.16,25.16,0,1,1-25.15-25.15A25.16,25.16,0,0,1,255.8,141.53Z"/><path class="ae44513f-61a8-4963-acb8-559568de5e23" d="M248.11,139.84a20.5,20.5,0,1,1-20.49-20.5A20.49,20.49,0,0,1,248.11,139.84Z"/><path class="367f4846-cfe8-4e8b-91bd-f84153322acb" d="M330.13,125.13H304.46V81.71a15.07,15.07,0,0,0-9.32-13.93v0a15.64,15.64,0,0,1,.39,3.44v45.61a15.07,15.07,0,0,1-15.07,15.07H269.57a15.07,15.07,0,0,1-15.07-15.07V71.25a14.78,14.78,0,0,1,.47-3.73v-.88h-11.1V98.17a15.07,15.07,0,0,1-15.07,15.07H213.35a15.07,15.07,0,0,1-15.07-15.07V66.64H188.2v48.09c0,5.43-3.81,9.83-9.24,9.83s-9.25-4.4-9.25-9.83V66.64h-7.06v37a6.66,6.66,0,1,1-13.31,0V86.33H137.88v8.85a15,15,0,0,1-.16,2.13v21.43a6.11,6.11,0,1,1-12.21,0v-9.22h0V47.81a5.27,5.27,0,0,0-10.54,0v61.71H89.05a4.32,4.32,0,1,0,0,8.63h25.67v2.58a15.07,15.07,0,0,0,15.07,15.07h30.15V161h-56.5a4.31,4.31,0,0,0,0,8.62h56.5V340.4h63.35V144.73h66.1a15.08,15.08,0,0,0,14.5-11h26.24a4.32,4.32,0,0,0,0-8.63Z"/><g class="6551ab5b-9dd2-4f5e-b281-122af97cfec5"><path class="26f8a2e6-b06f-49d8-8113-ff2f210a5ea5" d="M188.2,111.75c3.64,1.1,7.81.46,11.75-1a22.89,22.89,0,0,0,3.87-.89,15,15,0,0,1-5.3-9,15.87,15.87,0,0,1-9.22.93,3.05,3.05,0,0,0-1.1-1.81Z"/><path class="26f8a2e6-b06f-49d8-8113-ff2f210a5ea5" d="M115,100.53a19.18,19.18,0,0,0,3,1.29c-.55,5.2,2.69,9.93,7.52,12.19v-4.49h0V105a4.25,4.25,0,0,1-.44-2.19l.44,0V95.27a11,11,0,0,1-1.4-.23,2.64,2.64,0,0,0-.55-.15,5.14,5.14,0,0,1-3.94-3.78c-.53-2.46-2.84-3-4.65-2.22Z"/><path class="b088da4c-d414-4bbf-973d-671bdfec77b1" d="M142.46,110.17a16.46,16.46,0,0,0,1.73,1.5,10,10,0,0,0,5.85,3c6.57,2.11,14.33,1.13,19.67-2.88V94c-.15-.21-.32-.41-.5-.62-2-2.19-4.75-.88-5.66,1.24a7.34,7.34,0,0,0-.9-.36v9.33a6.66,6.66,0,1,1-13.31,0V93a3.79,3.79,0,0,0-2.16,1.67,3.92,3.92,0,0,0-4.11.26,3.4,3.4,0,0,0-5.19.13v.09a15,15,0,0,1-.16,2.13v14.85A12.72,12.72,0,0,0,142.46,110.17Z"/><path class="26f8a2e6-b06f-49d8-8113-ff2f210a5ea5" d="M252.69,100.4c.61-.15,1.21-.34,1.81-.55v-9a13.22,13.22,0,0,1-10.63.5v6.81a15.26,15.26,0,0,1-.29,3A18.26,18.26,0,0,0,252.69,100.4Z"/><path class="26f8a2e6-b06f-49d8-8113-ff2f210a5ea5" d="M304.46,96.05a10.92,10.92,0,0,1-8.27,2.75,6.42,6.42,0,0,1-.66-.13v7.16a17.83,17.83,0,0,0,8.93-1.73Z"/><path class="26f8a2e6-b06f-49d8-8113-ff2f210a5ea5" d="M102.4,118.15h7.26a22.57,22.57,0,0,0-.11-8.63h-7.22A15,15,0,0,1,102.4,118.15Z"/></g><path class="a759bd84-f8d8-423b-96cb-4c1d96055df0" d="M101.84,81.23a3.38,3.38,0,0,1-3.38,3.38H57.38A3.38,3.38,0,0,1,54,81.23h0a3.39,3.39,0,0,1,3.38-3.38H98.46a3.38,3.38,0,0,1,3.38,3.38Z"/><path class="da989f5e-a7e1-4dc8-a67a-e010da5d4244" d="M362.48,117.92a8.85,8.85,0,1,1-5.26-11.36A8.85,8.85,0,0,1,362.48,117.92Z"/><circle class="ae44513f-61a8-4963-acb8-559568de5e23" cx="134.7" cy="61.77" r="38.33"/><circle class="ae44513f-61a8-4963-acb8-559568de5e23" cx="196.34" cy="57.66" r="47.98"/><path class="da989f5e-a7e1-4dc8-a67a-e010da5d4244" d="M123.36,164.68a16.16,16.16,0,1,1-16.15-16.15A16.15,16.15,0,0,1,123.36,164.68Z"/><path class="6877b773-ca13-4c3b-86da-596b0e665547" d="M120.38,164.2a12.3,12.3,0,1,1-12.3-12.29A12.3,12.3,0,0,1,120.38,164.2Z"/><circle class="6877b773-ca13-4c3b-86da-596b0e665547" cx="82.05" cy="114.22" r="25.15"/><path class="ae44513f-61a8-4963-acb8-559568de5e23" d="M216,61.77a33.42,33.42,0,1,0,33.42-33.41A33.41,33.41,0,0,0,216,61.77Z"/><circle class="57604f2d-3415-406d-a05a-dff96bda0403" cx="301.63" cy="82.14" r="20.37" transform="translate(-4.07 16.77) rotate(-3.16)"/><path class="da989f5e-a7e1-4dc8-a67a-e010da5d4244" d="M319.22,118.91a18.78,18.78,0,1,0,24.09-11.16A18.77,18.77,0,0,0,319.22,118.91Z"/><path class="ae44513f-61a8-4963-acb8-559568de5e23" d="M35.12,77.18A13.22,13.22,0,1,0,48.34,64,13.22,13.22,0,0,0,35.12,77.18Z"/><path class="26f8a2e6-b06f-49d8-8113-ff2f210a5ea5" d="M216.85,206.67a2.11,2.11,0,0,1-2.11,2.12h0a2.12,2.12,0,0,1-2.12-2.12v-71a2.12,2.12,0,0,1,2.12-2.12h0a2.11,2.11,0,0,1,2.11,2.12Z"/><path class="26f8a2e6-b06f-49d8-8113-ff2f210a5ea5" d="M205.49,129.51a4.58,4.58,0,1,0-9.15,0V340.4h9.15Z"/><path class="26f8a2e6-b06f-49d8-8113-ff2f210a5ea5" d="M188.92,148.2a10.6,10.6,0,0,0-21.2,0V340.4h21.2Z"/><path class="26f8a2e6-b06f-49d8-8113-ff2f210a5ea5" d="M216.85,226a2.12,2.12,0,0,0-4.23,0V340.4h4.23Z"/><path class="220e55f3-0420-4c4f-bd40-c187be4c5426" d="M181.84,300a3.52,3.52,0,0,1-3.52,3.52h0A3.53,3.53,0,0,1,174.8,300V151.22a3.52,3.52,0,0,1,3.52-3.52h0a3.51,3.51,0,0,1,3.52,3.52Z"/><circle class="57604f2d-3415-406d-a05a-dff96bda0403" cx="158.73" cy="77.85" r="25.34" transform="translate(56.56 222.14) rotate(-80.82)"/><circle class="6877b773-ca13-4c3b-86da-596b0e665547" cx="197.39" cy="63.95" r="28.76" transform="translate(-9.72 51.32) rotate(-14.46)"/><path class="da989f5e-a7e1-4dc8-a67a-e010da5d4244" d="M130.24,39.79a21.16,21.16,0,1,1-21.16-21.16A21.15,21.15,0,0,1,130.24,39.79Z"/><circle class="6877b773-ca13-4c3b-86da-596b0e665547" cx="281.26" cy="66.29" r="18.15"/><circle class="6877b773-ca13-4c3b-86da-596b0e665547" cx="252.11" cy="28.36" r="11.42"/><path class="57604f2d-3415-406d-a05a-dff96bda0403" d="M113.3,84.56A19.55,19.55,0,1,1,93.76,65,19.54,19.54,0,0,1,113.3,84.56Z"/><path class="6877b773-ca13-4c3b-86da-596b0e665547" d="M108,151.18a9.65,9.65,0,1,1-9.65-9.65A9.65,9.65,0,0,1,108,151.18Z"/><path class="57604f2d-3415-406d-a05a-dff96bda0403" d="M139.2,101.5a9,9,0,1,1-9-9A9,9,0,0,1,139.2,101.5Z"/><path class="ae44513f-61a8-4963-acb8-559568de5e23" d="M311.05,52.15a4,4,0,1,1-4-4A4,4,0,0,1,311.05,52.15Z"/><path class="ae44513f-61a8-4963-acb8-559568de5e23" d="M192.89,106.82a4,4,0,1,1-4-4A4,4,0,0,1,192.89,106.82Z"/><path class="ae44513f-61a8-4963-acb8-559568de5e23" d="M277.05,114.22a4,4,0,1,1-4-4A4,4,0,0,1,277.05,114.22Z"/><path class="ae44513f-61a8-4963-acb8-559568de5e23" d="M153.66,14a6.34,6.34,0,1,1-6.34-6.34A6.33,6.33,0,0,1,153.66,14Z"/><path class="6877b773-ca13-4c3b-86da-596b0e665547" d="M163.81,4.26A3.41,3.41,0,1,1,160.4.86,3.41,3.41,0,0,1,163.81,4.26Z"/><path class="57604f2d-3415-406d-a05a-dff96bda0403" d="M231.73,48.63a15.39,15.39,0,1,1-15.39-15.39A15.39,15.39,0,0,1,231.73,48.63Z"/><path class="ed82b243-9cf6-4870-b062-37394296dad4" d="M88.21,164.68a4,4,0,1,1-4-4A4,4,0,0,1,88.21,164.68Z"/><path class="ed82b243-9cf6-4870-b062-37394296dad4" d="M77,70.33a4,4,0,1,1-4-4A4,4,0,0,1,77,70.33Z"/><path class="26f8a2e6-b06f-49d8-8113-ff2f210a5ea5" d="M232.75,144.67V133.33a4.72,4.72,0,0,0-9.44,0v11.34Z"/><path class="26f8a2e6-b06f-49d8-8113-ff2f210a5ea5" d="M242.41,144.67V137a2.77,2.77,0,1,0-5.54,0v7.68Z"/><path class="26f8a2e6-b06f-49d8-8113-ff2f210a5ea5" d="M159.94,135.8V122.2a2.77,2.77,0,0,0-5.54,0v13.6Z"/><path class="26f8a2e6-b06f-49d8-8113-ff2f210a5ea5" d="M115.55,360v-18.8A10.17,10.17,0,0,1,125.72,331h181.8a10.17,10.17,0,0,1,10.17,10.17V360Z"/><path class="26f8a2e6-b06f-49d8-8113-ff2f210a5ea5" d="M394,362.53a3.15,3.15,0,0,1-3.16,3.16H3.16A3.16,3.16,0,0,1,0,362.53H0a3.17,3.17,0,0,1,3.16-3.16H390.83a3.16,3.16,0,0,1,3.16,3.16Z"/><circle class="26f8a2e6-b06f-49d8-8113-ff2f210a5ea5" cx="157.48" cy="330.99" r="10.24" transform="translate(-9.69 4.79) rotate(-1.69)"/><circle class="26f8a2e6-b06f-49d8-8113-ff2f210a5ea5" cx="272.08" cy="335.12" r="10.24" transform="matrix(1, -0.03, 0.03, 1, -9.79, 8.19)"/><path class="26f8a2e6-b06f-49d8-8113-ff2f210a5ea5" d="M229.74,331a6.45,6.45,0,1,1-6.44-6.45A6.44,6.44,0,0,1,229.74,331Z"/><path class="26f8a2e6-b06f-49d8-8113-ff2f210a5ea5" d="M199.84,331a5.46,5.46,0,1,1-5.46-5.46A5.46,5.46,0,0,1,199.84,331Z"/><path class="a759bd84-f8d8-423b-96cb-4c1d96055df0" d="M88.77,342.52a5.46,5.46,0,1,1-5.46-5.47A5.46,5.46,0,0,1,88.77,342.52Z"/><path class="6877b773-ca13-4c3b-86da-596b0e665547" d="M325.45,114.35a14,14,0,1,0,18-8.33A14,14,0,0,0,325.45,114.35Z"/><path class="a759bd84-f8d8-423b-96cb-4c1d96055df0" d="M50.29,181.59a2.11,2.11,0,0,1-.66-.1l-.15-.06-16.91-6.78a2.06,2.06,0,1,1,1.54-3.83l16.18,6.48,16.17-6.48A2.06,2.06,0,1,1,68,174.65l-16.9,6.78A2.09,2.09,0,0,1,50.29,181.59Z"/><path class="a759bd84-f8d8-423b-96cb-4c1d96055df0" d="M304,15a2.84,2.84,0,0,1-.81-.12l-.2-.08h0l-24-9.63a2.66,2.66,0,0,1,2-4.94L304,9.45,327.09.19a2.66,2.66,0,0,1,2,4.94l-24,9.63A2.7,2.7,0,0,1,304,15Z"/></svg>