<svg xmlns="http://www.w3.org/2000/svg" viewBox="0 0 285.43 157.26"><defs><style>.bf7e310f-61ae-4808-bd5c-c36a2bd17a9d{isolation:isolate;}.\31 8206543-f60e-4508-a78d-bc4276ecceb9,.\32 3b08603-8a92-4775-82c7-25ff5f30723d{fill:#424242;}.\32 3b08603-8a92-4775-82c7-25ff5f30723d{opacity:0.1;mix-blend-mode:multiply;}.c06c1529-bf11-42dc-b4b7-f55284921649{fill:#ffca28;}.\34 8d8489f-29a8-4d99-b3cb-938ab1af1cab{fill:#ffb300;}.dd275b2b-d012-4cb2-b23c-e5e697c5b524{fill:#f57c00;}.\34 478f94d-6c20-4a0b-8e0e-c242cb40c6f2{fill:#fafafa;}.\30 6a6b8d3-70be-4af4-83da-48520e554a2e{fill:#ef5350;}.d8e73f4d-8dd9-4d08-bae7-cde0c8ae4b02{fill:#e53935;}.f82f0cc2-db21-465b-8f27-8616217a1742{fill:#66bb6a;}.\39 8994175-d039-4ad2-8351-de46f213248c{fill:#43a047;}.\33 142f095-0c6f-4dc1-8a88-9307926782a4{fill:#e0e0e0;}.\30 4279335-a75b-456b-8962-cc3e6f8e3811{fill:#ffa726;}.\36 0e7caac-9844-4aa7-9c0b-f787384a5417{fill:#ffecb3;}.e645b466-2465-450b-aca0-aac76df93516{fill:#b2ebf2;opacity:0.8;}.ece79cc4-e47a-46bf-bd78-eb2676d8b65c{opacity:0.5;}.\38 7170a5a-2255-49b6-a089-ceb5f69341a3{fill:#616161;}</style></defs><title>prop2</title><g class="bf7e310f-61ae-4808-bd5c-c36a2bd17a9d"><g id="b5d25f3c-2a0a-4b6a-80f1-b3d72fcc066c" data-name="Capa 1"><ellipse class="23b08603-8a92-4775-82c7-25ff5f30723d" cx="142.72" cy="142.84" rx="142.72" ry="13.02"/><polygon class="c06c1529-bf11-42dc-b4b7-f55284921649" points="247.43 100.06 247.43 138 261.57 138 261.57 142.84 150.34 142.84 150.34 95.23 261.57 95.23 261.57 100.06 247.43 100.06"/><rect class="48d8489f-29a8-4d99-b3cb-938ab1af1cab" x="39.12" y="95.23" width="111.22" height="47.61"/><ellipse class="48d8489f-29a8-4d99-b3cb-938ab1af1cab" cx="39.12" cy="119.03" rx="10.52" ry="23.81"/><ellipse class="c06c1529-bf11-42dc-b4b7-f55284921649" cx="149.97" cy="119.03" rx="10.52" ry="23.81"/><path class="dd275b2b-d012-4cb2-b23c-e5e697c5b524" d="M129.87,142.84c-5.82,0-10.53-10.66-10.53-23.81s4.71-23.8,10.53-23.8h10.52c-5.81,0-10.52,10.65-10.52,23.8s4.71,23.81,10.52,23.81Z"/><ellipse class="4478f94d-6c20-4a0b-8e0e-c242cb40c6f2" cx="155.18" cy="119.03" rx="8.39" ry="18.97"/><path class="4478f94d-6c20-4a0b-8e0e-c242cb40c6f2" d="M257.55,138H155.18V100.06H257.55c-2.22,0-4,8.49-4,19S255.33,138,257.55,138Z"/><ellipse class="c06c1529-bf11-42dc-b4b7-f55284921649" cx="261.57" cy="97.64" rx="1.67" ry="2.42"/><path class="c06c1529-bf11-42dc-b4b7-f55284921649" d="M263.24,140.42c0-1.33-.75-2.42-1.67-2.42s-1.68,1.09-1.68,2.42.75,2.42,1.68,2.42S263.24,141.76,263.24,140.42Z"/><polygon class="06a6b8d3-70be-4af4-83da-48520e554a2e" points="177.58 130.56 170.57 124.24 163.57 130.56 163.57 108.62 177.58 108.62 177.58 130.56"/><polygon class="06a6b8d3-70be-4af4-83da-48520e554a2e" points="227.67 52.45 227.67 90.39 241.81 90.39 241.81 95.23 130.59 95.23 130.59 47.61 241.81 47.61 241.81 52.45 227.67 52.45"/><rect class="d8e73f4d-8dd9-4d08-bae7-cde0c8ae4b02" x="19.37" y="47.61" width="111.22" height="47.61"/><ellipse class="d8e73f4d-8dd9-4d08-bae7-cde0c8ae4b02" cx="19.37" cy="71.42" rx="10.52" ry="23.81"/><ellipse class="06a6b8d3-70be-4af4-83da-48520e554a2e" cx="130.22" cy="71.42" rx="10.52" ry="23.81"/><ellipse class="4478f94d-6c20-4a0b-8e0e-c242cb40c6f2" cx="135.42" cy="71.42" rx="8.39" ry="18.97"/><path class="4478f94d-6c20-4a0b-8e0e-c242cb40c6f2" d="M237.79,90.39H135.42V52.45H237.79c-2.22,0-4,8.49-4,19S235.57,90.39,237.79,90.39Z"/><ellipse class="06a6b8d3-70be-4af4-83da-48520e554a2e" cx="241.81" cy="50.03" rx="1.67" ry="2.42"/><path class="06a6b8d3-70be-4af4-83da-48520e554a2e" d="M243.48,92.81c0-1.34-.75-2.42-1.67-2.42s-1.68,1.08-1.68,2.42.75,2.42,1.68,2.42S243.48,94.14,243.48,92.81Z"/><polygon class="f82f0cc2-db21-465b-8f27-8616217a1742" points="260.78 4.84 260.78 42.78 274.92 42.78 274.92 47.61 163.69 47.61 163.69 0 274.92 0 274.92 4.84 260.78 4.84"/><rect class="98994175-d039-4ad2-8351-de46f213248c" x="52.47" width="111.22" height="47.61"/><ellipse class="98994175-d039-4ad2-8351-de46f213248c" cx="52.47" cy="23.81" rx="10.52" ry="23.81"/><ellipse class="f82f0cc2-db21-465b-8f27-8616217a1742" cx="163.32" cy="23.81" rx="10.52" ry="23.81"/><ellipse class="4478f94d-6c20-4a0b-8e0e-c242cb40c6f2" cx="168.53" cy="23.81" rx="8.39" ry="18.97"/><path class="4478f94d-6c20-4a0b-8e0e-c242cb40c6f2" d="M270.9,42.78H168.53V4.84H270.9c-2.22,0-4,8.49-4,19S268.68,42.78,270.9,42.78Z"/><ellipse class="f82f0cc2-db21-465b-8f27-8616217a1742" cx="274.91" cy="2.42" rx="1.67" ry="2.42"/><ellipse class="f82f0cc2-db21-465b-8f27-8616217a1742" cx="274.91" cy="45.2" rx="1.67" ry="2.42"/><path class="3142f095-0c6f-4dc1-8a88-9307926782a4" d="M63,47.61c-5.82,0-10.53-10.66-10.53-23.8S57.18,0,63,0h5.26C62.45,0,57.73,10.66,57.73,23.81s4.72,23.8,10.53,23.8Z"/><path class="3142f095-0c6f-4dc1-8a88-9307926782a4" d="M73.52,47.61C67.71,47.61,63,37,63,23.81S67.71,0,73.52,0h5.26C73,0,68.26,10.66,68.26,23.81S73,47.61,78.78,47.61Z"/><polygon class="04279335-a75b-456b-8962-cc3e6f8e3811" points="251 33.91 245.8 31.12 240.6 33.91 240.6 19.78 251 19.78 251 33.91"/><path class="23b08603-8a92-4775-82c7-25ff5f30723d" d="M28.83,114H139.68c1-10.74,5.24-18.8,10.29-18.8H39.12C34.07,95.23,29.85,103.29,28.83,114Z"/><path class="48d8489f-29a8-4d99-b3cb-938ab1af1cab" d="M150.34,95.23H150l.37,0Z"/><path class="48d8489f-29a8-4d99-b3cb-938ab1af1cab" d="M150.34,142.82l-.37,0h.37Z"/><path class="23b08603-8a92-4775-82c7-25ff5f30723d" d="M241.81,47.61h-89v4.84h89c.92,0,1.67-1.08,1.67-2.42S242.73,47.61,241.81,47.61Z"/><path class="23b08603-8a92-4775-82c7-25ff5f30723d" d="M186.2,52.45H158.34c-1.62,0-3,4.49-3.65,11h79.46c.64-6.47,2-11,3.64-11Z"/><path class="18206543-f60e-4508-a78d-bc4276ecceb9" d="M74.92,154.28a2.13,2.13,0,0,1-2-2.83L74.42,147a5.78,5.78,0,0,1,5.14-3.89l120-12.64.21,2L83.08,144.8c-.7,5.27-4.78,8-7.22,9.26A2.09,2.09,0,0,1,74.92,154.28Z"/><path class="18206543-f60e-4508-a78d-bc4276ecceb9" d="M210.51,154.28a2.09,2.09,0,0,1-.94-.22c-2.44-1.21-6.52-4-7.22-9.26L85.66,132.51l.21-2,120,12.64A5.78,5.78,0,0,1,211,147l1.52,4.42a2.13,2.13,0,0,1-2,2.83Z"/><path class="60e7caac-9844-4aa7-9c0b-f787384a5417" d="M148.88,132c.6-.16,1.4.91,1.79,2.38s.21,2.78-.39,2.94-1.4-.91-1.79-2.38S148.28,132.14,148.88,132Z"/><path class="60e7caac-9844-4aa7-9c0b-f787384a5417" d="M136.55,132c-.6-.16-1.4.91-1.79,2.38s-.21,2.78.39,2.94,1.4-.91,1.79-2.38S137.15,132.14,136.55,132Z"/><path class="18206543-f60e-4508-a78d-bc4276ecceb9" d="M151.87,137.36l-2-.09c0-.06.21-5.64-2.61-8.58a6.59,6.59,0,0,0-9.05,0c-2.82,2.94-2.62,8.52-2.61,8.58l-2,.09c0-.26-.25-6.49,3.16-10.06a8.61,8.61,0,0,1,12,0C152.12,130.87,151.88,137.1,151.87,137.36Z"/><circle class="e645b466-2465-450b-aca0-aac76df93516" cx="110.51" cy="131.5" r="24.75"/><g class="ece79cc4-e47a-46bf-bd78-eb2676d8b65c"><path class="4478f94d-6c20-4a0b-8e0e-c242cb40c6f2" d="M117.09,107.64,86.65,138.08a24.59,24.59,0,0,1-.89-6.58c0-.79,0-1.57.11-2.34l22.3-22.29a22.63,22.63,0,0,1,2.34-.12A24.59,24.59,0,0,1,117.09,107.64Z"/><path class="4478f94d-6c20-4a0b-8e0e-c242cb40c6f2" d="M124,110.72,89.73,144.94A24,24,0,0,1,88,141.71L120.72,109A24.67,24.67,0,0,1,124,110.72Z"/></g><path class="18206543-f60e-4508-a78d-bc4276ecceb9" d="M110.51,157.26a25.76,25.76,0,1,1,25.75-25.76A25.79,25.79,0,0,1,110.51,157.26Zm0-49.5a23.74,23.74,0,1,0,23.73,23.74A23.77,23.77,0,0,0,110.51,107.76Z"/><circle class="e645b466-2465-450b-aca0-aac76df93516" cx="174.92" cy="131.5" r="24.75"/><g class="ece79cc4-e47a-46bf-bd78-eb2676d8b65c"><path class="4478f94d-6c20-4a0b-8e0e-c242cb40c6f2" d="M181.5,107.64l-30.44,30.44a25,25,0,0,1-.88-6.58,22.64,22.64,0,0,1,.11-2.34l22.29-22.29a22.63,22.63,0,0,1,2.34-.12A24.59,24.59,0,0,1,181.5,107.64Z"/><path class="4478f94d-6c20-4a0b-8e0e-c242cb40c6f2" d="M188.36,110.72l-34.21,34.22a25.27,25.27,0,0,1-1.78-3.23L185.13,109A23.44,23.44,0,0,1,188.36,110.72Z"/></g><path class="18206543-f60e-4508-a78d-bc4276ecceb9" d="M174.92,157.26a25.76,25.76,0,1,1,25.76-25.76A25.79,25.79,0,0,1,174.92,157.26Zm0-49.5a23.74,23.74,0,1,0,23.74,23.74A23.76,23.76,0,0,0,174.92,107.76Z"/><path class="87170a5a-2255-49b6-a089-ceb5f69341a3" d="M138.21,128.67a6.59,6.59,0,0,1,9,0l.27-2.41a8.9,8.9,0,0,0-9.55,0Z"/><path class="18206543-f60e-4508-a78d-bc4276ecceb9" d="M85.43,131.5c0,1.31,1.31,2.38,0,2.38a2.38,2.38,0,0,1,0-4.76C86.74,129.12,85.43,130.19,85.43,131.5Z"/><path class="18206543-f60e-4508-a78d-bc4276ecceb9" d="M200,131.5c0,1.31-1.31,2.38,0,2.38a2.38,2.38,0,0,0,0-4.76C198.69,129.12,200,130.19,200,131.5Z"/></g></g></svg>