<?xml version="1.0" encoding="utf-8"?>
<!-- Generator: Adobe Illustrator 22.1.0, SVG Export Plug-In . SVG Version: 6.00 Build 0)  -->
<svg version="1.1" id="Capa_1" xmlns="http://www.w3.org/2000/svg" xmlns:xlink="http://www.w3.org/1999/xlink" x="0px" y="0px"
	 viewBox="0 0 85.8 73.1" style="enable-background:new 0 0 85.8 73.1;" xml:space="preserve">
<style type="text/css">
	.st0{fill:#D8D8D8;}
	.st1{fill:#A9A9A9;}
	.st2{fill:#FFFFFF;}
</style>
<g>
	<polygon class="st0" points="0.8,72.3 18.7,72.3 51.7,16.9 42.8,0.5 	"/>
	<polygon class="st1" points="36.6,42.3 46.7,61.2 76.7,7.2 58,7.2 	"/>
	<polygon class="st2" points="46.7,61.2 65.8,26.8 85.6,61.2 	"/>
	<path class="st2" d="M26.9,66.9c0-0.6,0-1-0.1-1.3c-0.1-0.3-0.2-0.4-0.4-0.4c-0.1,0-0.2,0-0.3,0.1c-0.1,0.1-0.1,0.3-0.2,0.5
		c0,0.2-0.1,0.5-0.1,0.9c0,0.4,0,0.8,0,1.3c0,0.6,0,1.1,0,1.5c0,0.4,0,0.7,0.1,0.9c0,0.2,0.1,0.4,0.2,0.5c0.1,0.1,0.2,0.1,0.3,0.1
		c0.1,0,0.2,0,0.3-0.1c0.1-0.1,0.1-0.2,0.2-0.4c0-0.2,0.1-0.4,0.1-0.6c0-0.2,0-0.5,0-0.8h1.3v0.3c0,0.4,0,0.8-0.1,1.2
		c-0.1,0.4-0.2,0.7-0.3,1c-0.1,0.3-0.4,0.5-0.6,0.6c-0.3,0.2-0.6,0.2-1,0.2c-0.4,0-0.8-0.1-1-0.3c-0.2-0.2-0.4-0.5-0.6-0.9
		c-0.1-0.4-0.2-0.8-0.2-1.3c0-0.5,0-1.1,0-1.7c0-0.5,0-1,0-1.5c0-0.5,0.1-0.9,0.2-1.3c0.1-0.4,0.3-0.7,0.6-0.9
		c0.3-0.2,0.6-0.4,1.1-0.4c0.6,0,1,0.2,1.4,0.6c0.3,0.4,0.5,1.1,0.5,2v0.3H26.9z"/>
	<path class="st2" d="M32.7,68.1c0,0.6,0,1.1,0,1.6c0,0.5-0.1,0.9-0.2,1.3c-0.1,0.4-0.3,0.7-0.6,0.9c-0.3,0.2-0.6,0.3-1.1,0.3
		c-0.4,0-0.8-0.1-1.1-0.3c-0.3-0.2-0.5-0.5-0.6-0.8c-0.1-0.4-0.2-0.8-0.3-1.3c0-0.5-0.1-1.1-0.1-1.7c0-0.6,0-1.2,0.1-1.7
		c0-0.5,0.1-0.9,0.3-1.3c0.1-0.4,0.3-0.6,0.6-0.8c0.3-0.2,0.6-0.3,1.1-0.3c0.5,0,0.8,0.1,1.1,0.3c0.3,0.2,0.5,0.5,0.6,0.9
		c0.1,0.4,0.2,0.8,0.2,1.3C32.7,67,32.7,67.6,32.7,68.1 M30.1,68.1c0,0.6,0,1,0,1.4c0,0.4,0,0.7,0.1,0.9c0,0.2,0.1,0.4,0.2,0.5
		c0.1,0.1,0.2,0.1,0.3,0.1c0.1,0,0.2,0,0.3-0.1c0.1-0.1,0.1-0.3,0.2-0.5c0-0.2,0.1-0.5,0.1-0.9c0-0.4,0-0.8,0-1.4c0-0.5,0-1,0-1.4
		c0-0.4,0-0.7-0.1-0.9c0-0.2-0.1-0.4-0.2-0.5c-0.1-0.1-0.2-0.1-0.3-0.1c-0.1,0-0.2,0-0.3,0.1c-0.1,0.1-0.1,0.3-0.2,0.5
		c0,0.2-0.1,0.5-0.1,0.9C30.1,67.1,30.1,67.6,30.1,68.1"/>
	<path class="st2" d="M33.4,64.3h2.1c0.5,0,0.9,0.2,1.2,0.5c0.3,0.3,0.4,0.8,0.4,1.5c0,0.5-0.1,0.9-0.2,1.2
		c-0.2,0.3-0.4,0.5-0.7,0.6v0c0.1,0,0.2,0.1,0.3,0.1c0.1,0.1,0.2,0.2,0.3,0.3c0.1,0.1,0.2,0.3,0.3,0.6c0.1,0.2,0.1,0.6,0.1,1
		c0,0.2,0,0.5-0.1,0.7c0,0.3-0.1,0.5-0.3,0.7c-0.1,0.2-0.3,0.4-0.6,0.5c-0.2,0.1-0.6,0.2-1,0.2h-2V64.3z M34.7,67.5h0.4
		c0.2,0,0.4-0.1,0.5-0.3c0.1-0.2,0.1-0.4,0.1-0.7c0-0.1,0-0.2,0-0.3c0-0.1-0.1-0.2-0.1-0.3c-0.1-0.1-0.1-0.1-0.2-0.2
		c-0.1-0.1-0.2-0.1-0.3-0.1h-0.4V67.5z M34.7,70.9h0.4c0.3,0,0.5-0.1,0.6-0.3c0.1-0.2,0.2-0.4,0.2-0.7c0-0.4-0.1-0.7-0.2-0.9
		c-0.1-0.2-0.3-0.3-0.5-0.3h-0.4V70.9z"/>
	<path class="st2" d="M38,64.3h2.3c0.3,0,0.5,0.1,0.7,0.2c0.2,0.1,0.4,0.3,0.5,0.5c0.1,0.2,0.2,0.4,0.3,0.7c0.1,0.3,0.1,0.5,0.1,0.8
		c0,0.6-0.1,1-0.2,1.3c-0.2,0.3-0.4,0.5-0.7,0.6v0c0.2,0,0.4,0.1,0.5,0.2c0.1,0.1,0.2,0.3,0.3,0.4c0.1,0.2,0.1,0.4,0.1,0.6
		c0,0.2,0,0.5,0,0.7c0,0.4,0,0.7,0,0.9c0,0.2,0,0.4,0,0.5c0,0.1,0,0.2,0.1,0.3c0,0,0.1,0.1,0.1,0.1v0.1h-1.4
		c-0.1-0.1-0.1-0.3-0.1-0.6c0-0.2,0-0.6,0-1c0-0.3,0-0.6,0-0.8c0-0.2,0-0.4-0.1-0.5c0-0.1-0.1-0.2-0.2-0.3C40,69,40,69,39.9,69h-0.5
		v3.3H38V64.3z M39.3,67.7h0.4c0.1,0,0.2,0,0.3-0.1c0.1-0.1,0.2-0.1,0.2-0.2c0.1-0.1,0.1-0.2,0.1-0.3c0-0.1,0-0.2,0-0.4
		c0-0.3,0-0.5-0.1-0.7c-0.1-0.2-0.3-0.3-0.5-0.3h-0.4V67.7z"/>
	<path class="st2" d="M43.6,64.3h1.7l1.4,8h-1.4l-0.2-1.5h-1.4l-0.2,1.5h-1.4L43.6,64.3z M44.5,65.7L44.5,65.7L44,69.3h1L44.5,65.7z
		"/>
	<polygon class="st2" points="47.2,64.3 48.7,64.3 49.8,69.5 49.9,69.5 49.9,64.3 51.1,64.3 51.1,72.3 49.6,72.3 48.4,66.8 
		48.4,66.8 48.4,72.3 47.2,72.3 	"/>
	<path class="st2" d="M51.9,64.3h2c0.3,0,0.6,0.1,0.9,0.2c0.2,0.1,0.4,0.3,0.6,0.6c0.2,0.3,0.3,0.7,0.3,1.2c0.1,0.5,0.1,1.1,0.1,1.8
		c0,0.7,0,1.3-0.1,1.9c0,0.5-0.1,1-0.3,1.3c-0.1,0.4-0.4,0.6-0.6,0.8c-0.3,0.2-0.6,0.3-1.1,0.3h-1.9V64.3z M53.3,70.9h0.4
		c0.2,0,0.3,0,0.4-0.1c0.1-0.1,0.2-0.2,0.3-0.4c0.1-0.2,0.1-0.5,0.1-0.8c0-0.4,0-0.8,0-1.4c0-0.5,0-0.9,0-1.2c0-0.3-0.1-0.6-0.1-0.8
		c-0.1-0.2-0.1-0.3-0.3-0.4c-0.1-0.1-0.3-0.1-0.4-0.1h-0.4V70.9z"/>
	<path class="st2" d="M60.4,68.1c0,0.6,0,1.1,0,1.6c0,0.5-0.1,0.9-0.2,1.3c-0.1,0.4-0.3,0.7-0.6,0.9c-0.3,0.2-0.6,0.3-1.1,0.3
		c-0.4,0-0.8-0.1-1.1-0.3c-0.3-0.2-0.5-0.5-0.6-0.8c-0.1-0.4-0.2-0.8-0.3-1.3c0-0.5-0.1-1.1-0.1-1.7c0-0.6,0-1.2,0.1-1.7
		c0-0.5,0.1-0.9,0.3-1.3c0.1-0.4,0.3-0.6,0.6-0.8c0.3-0.2,0.6-0.3,1.1-0.3c0.5,0,0.8,0.1,1.1,0.3c0.3,0.2,0.5,0.5,0.6,0.9
		c0.1,0.4,0.2,0.8,0.2,1.3C60.4,67,60.4,67.6,60.4,68.1 M57.8,68.1c0,0.6,0,1,0,1.4c0,0.4,0,0.7,0.1,0.9c0,0.2,0.1,0.4,0.2,0.5
		c0.1,0.1,0.2,0.1,0.3,0.1c0.1,0,0.2,0,0.3-0.1c0.1-0.1,0.1-0.3,0.2-0.5c0-0.2,0.1-0.5,0.1-0.9c0-0.4,0-0.8,0-1.4c0-0.5,0-1,0-1.4
		c0-0.4,0-0.7-0.1-0.9c0-0.2-0.1-0.4-0.2-0.5c-0.1-0.1-0.2-0.1-0.3-0.1c-0.1,0-0.2,0-0.3,0.1c-0.1,0.1-0.1,0.3-0.2,0.5
		c0,0.2-0.1,0.5-0.1,0.9C57.8,67.1,57.8,67.6,57.8,68.1"/>
	<path class="st2" d="M64.3,69.7V70c0,0.3,0,0.6,0.1,0.8c0.1,0.2,0.2,0.3,0.5,0.3c0.1,0,0.2,0,0.3-0.1c0.1-0.1,0.1-0.1,0.2-0.2
		c0-0.1,0.1-0.2,0.1-0.3c0-0.1,0-0.2,0-0.3c0-0.3-0.1-0.5-0.2-0.7c-0.1-0.2-0.3-0.3-0.5-0.4c-0.2-0.1-0.4-0.2-0.6-0.3
		c-0.2-0.1-0.4-0.2-0.6-0.4c-0.2-0.2-0.3-0.4-0.5-0.7c-0.1-0.3-0.2-0.7-0.2-1.2c0-0.3,0-0.6,0.1-0.9c0.1-0.3,0.2-0.5,0.3-0.7
		c0.1-0.2,0.3-0.4,0.6-0.5c0.2-0.1,0.5-0.2,0.9-0.2c0.3,0,0.6,0.1,0.9,0.2c0.2,0.1,0.4,0.3,0.6,0.5c0.1,0.2,0.2,0.4,0.3,0.7
		c0.1,0.3,0.1,0.5,0.1,0.9v0.2h-1.3c0-0.4,0-0.7-0.1-0.8c-0.1-0.2-0.2-0.3-0.4-0.3c-0.4,0-0.5,0.3-0.5,0.9c0,0.3,0.1,0.5,0.2,0.7
		c0.1,0.2,0.3,0.3,0.5,0.4c0.2,0.1,0.4,0.2,0.6,0.3c0.2,0.1,0.4,0.2,0.6,0.4c0.2,0.2,0.3,0.4,0.5,0.7c0.1,0.3,0.2,0.7,0.2,1.1
		c0,0.5,0,0.8-0.1,1.2c-0.1,0.3-0.2,0.6-0.4,0.8c-0.2,0.2-0.4,0.4-0.6,0.4c-0.2,0.1-0.5,0.1-0.8,0.1c-0.2,0-0.5,0-0.7-0.1
		c-0.2-0.1-0.4-0.2-0.6-0.3c-0.2-0.2-0.3-0.4-0.4-0.6c-0.1-0.3-0.2-0.6-0.2-1v-0.5H64.3z"/>
	<rect x="67.5" y="70.3" class="st2" width="1.2" height="2"/>
	<path class="st2" d="M70.6,64.3h1.7l1.4,8h-1.4l-0.2-1.5h-1.4l-0.2,1.5h-1.4L70.6,64.3z M71.5,65.7L71.5,65.7L71,69.3h1L71.5,65.7z
		"/>
	<rect x="74.2" y="70.3" class="st2" width="1.2" height="2"/>
	<path class="st2" d="M77.4,69.7V70c0,0.3,0,0.6,0.1,0.8c0.1,0.2,0.2,0.3,0.5,0.3c0.1,0,0.2,0,0.3-0.1c0.1-0.1,0.1-0.1,0.2-0.2
		c0-0.1,0.1-0.2,0.1-0.3c0-0.1,0-0.2,0-0.3c0-0.3-0.1-0.5-0.2-0.7c-0.1-0.2-0.3-0.3-0.5-0.4c-0.2-0.1-0.4-0.2-0.6-0.3
		c-0.2-0.1-0.4-0.2-0.6-0.4c-0.2-0.2-0.3-0.4-0.5-0.7c-0.1-0.3-0.2-0.7-0.2-1.2c0-0.3,0-0.6,0.1-0.9c0.1-0.3,0.2-0.5,0.3-0.7
		c0.1-0.2,0.3-0.4,0.6-0.5C77.3,64,77.6,64,78,64c0.3,0,0.6,0.1,0.9,0.2c0.2,0.1,0.4,0.3,0.6,0.5c0.1,0.2,0.2,0.4,0.3,0.7
		c0.1,0.3,0.1,0.5,0.1,0.9v0.2h-1.3c0-0.4,0-0.7-0.1-0.8c-0.1-0.2-0.2-0.3-0.4-0.3c-0.4,0-0.5,0.3-0.5,0.9c0,0.3,0.1,0.5,0.2,0.7
		c0.1,0.2,0.3,0.3,0.5,0.4c0.2,0.1,0.4,0.2,0.6,0.3c0.2,0.1,0.4,0.2,0.6,0.4c0.2,0.2,0.3,0.4,0.5,0.7c0.1,0.3,0.2,0.7,0.2,1.1
		c0,0.5,0,0.8-0.1,1.2c-0.1,0.3-0.2,0.6-0.4,0.8c-0.2,0.2-0.4,0.4-0.6,0.4c-0.2,0.1-0.5,0.1-0.8,0.1c-0.2,0-0.5,0-0.7-0.1
		c-0.2-0.1-0.4-0.2-0.6-0.3c-0.2-0.2-0.3-0.4-0.4-0.6c-0.1-0.3-0.2-0.6-0.2-1v-0.5H77.4z"/>
	<rect x="80.6" y="70.3" class="st2" width="1.2" height="2"/>
	<g>
		<path class="st2" d="M85.7,64.4c0,1.3-1,2.4-2.4,2.4c-1.3,0-2.4-1-2.4-2.4c0-1.3,1.1-2.3,2.4-2.3C84.6,62.1,85.7,63.1,85.7,64.4z
			 M81.5,64.4c0,1,0.8,1.9,1.8,1.9c1,0,1.8-0.8,1.8-1.9c0-1-0.8-1.9-1.8-1.9C82.2,62.6,81.5,63.4,81.5,64.4z M82.9,65.7h-0.5v-2.3
			c0.2,0,0.5-0.1,0.9-0.1c0.4,0,0.6,0.1,0.8,0.2c0.1,0.1,0.2,0.3,0.2,0.5c0,0.3-0.2,0.5-0.5,0.5v0c0.2,0.1,0.4,0.3,0.4,0.6
			c0.1,0.4,0.1,0.5,0.2,0.6h-0.6c-0.1-0.1-0.1-0.3-0.2-0.6c0-0.3-0.2-0.4-0.5-0.4h-0.3V65.7z M82.9,64.3h0.3c0.3,0,0.5-0.1,0.5-0.3
			c0-0.2-0.2-0.4-0.5-0.4c-0.1,0-0.2,0-0.3,0V64.3z"/>
	</g>
</g>
</svg>
