<?xml version="1.0" encoding="utf-8"?>
<!-- Generator: Adobe Illustrator 22.1.0, SVG Export Plug-In . SVG Version: 6.00 Build 0)  -->
<svg version="1.1" id="Capa_1" xmlns="http://www.w3.org/2000/svg" xmlns:xlink="http://www.w3.org/1999/xlink" x="0px" y="0px"
	 viewBox="0 0 217.4 64" style="enable-background:new 0 0 217.4 64;" xml:space="preserve">
<style type="text/css">
	.st0{fill:#FFFFFF;}
	.st1{fill:#EAEAEA;}
	.st2{fill:#B2B2B2;}
</style>
<g>
	<path class="st0" d="M48.3,25.8c-0.5,0.3-1.4,0.7-2.5,0.7c-1.2,0-2.2-0.5-3-1.6c-0.7-1-1.1-2.7-1.1-4.6c0-3.7,1.6-6.3,4.3-6.3
		c0.9,0,1.6,0.3,2,0.6l-0.2,1.3c-0.4-0.3-1-0.5-1.8-0.5c-1.9,0-3.2,1.9-3.2,4.9c0,3.1,1.2,4.9,3.1,4.9c0.7,0,1.1-0.1,1.4-0.3v-3.7
		h-1.6v-1.3h2.6V25.8z"/>
	<path class="st0" d="M51.1,22.2c0,2.2,0.9,3.1,2,3.1c0.7,0,1.2-0.2,1.6-0.5l0.2,1.1c-0.4,0.3-1,0.5-1.9,0.5c-1.8,0-2.8-1.8-2.8-4.4
		s1-4.7,2.7-4.7c1.9,0,2.4,2.5,2.4,4.1c0,0.3,0,0.6,0,0.7H51.1z M54.2,21.1c0-1-0.3-2.6-1.4-2.6c-1.1,0-1.5,1.5-1.6,2.6H54.2z"/>
	<path class="st0" d="M56.9,24.7c0.3,0.3,0.9,0.6,1.4,0.6c0.8,0,1.1-0.6,1.1-1.3c0-0.8-0.3-1.2-1.1-1.6c-1-0.6-1.5-1.4-1.5-2.5
		c0-1.4,0.7-2.6,2-2.6c0.6,0,1.1,0.3,1.4,0.5L60,19c-0.2-0.2-0.6-0.5-1.2-0.5c-0.6,0-1,0.5-1,1.2c0,0.7,0.3,1.1,1.1,1.5
		c1,0.6,1.5,1.3,1.5,2.7c0,1.5-0.8,2.6-2.1,2.6c-0.6,0-1.2-0.2-1.6-0.6L56.9,24.7z"/>
	<path class="st0" d="M63.7,15v2.5h1.5v1.2h-1.5v4.7c0,1.1,0.2,1.7,0.8,1.7c0.3,0,0.5-0.1,0.6-0.1l0,1.2c-0.2,0.1-0.5,0.2-0.9,0.2
		c-0.5,0-0.9-0.2-1.1-0.7c-0.3-0.5-0.4-1.3-0.4-2.3v-4.8h-0.9v-1.2h0.9v-2.1L63.7,15z"/>
	<path class="st0" d="M68.1,15c0,0.5-0.2,1-0.7,1c-0.4,0-0.6-0.4-0.6-1c0-0.6,0.3-1,0.7-1C67.9,14,68.1,14.5,68.1,15 M67,17.5h1v8.8
		h-1V17.5z"/>
	<path class="st0" d="M75.5,21.9c0,3.3-1.5,4.7-2.9,4.7c-1.6,0-2.7-1.7-2.7-4.5c0-2.9,1.3-4.7,2.8-4.7
		C74.4,17.3,75.5,19.2,75.5,21.9 M71,21.9c0,1.9,0.7,3.4,1.7,3.4c1,0,1.7-1.4,1.7-3.4c0-1.5-0.5-3.4-1.7-3.4
		C71.5,18.5,71,20.3,71,21.9 M74.3,13.7l-1.4,2.6h-0.7l1-2.6H74.3z"/>
	<path class="st0" d="M77.5,19.9c0-0.9,0-1.7,0-2.4h0.9l0.1,1.5h0c0.3-0.8,0.9-1.7,1.9-1.7c0.8,0,2,0.7,2,3.7v5.3h-1v-5.1
		c0-1.4-0.3-2.6-1.3-2.6c-0.7,0-1.2,0.7-1.4,1.6c0,0.2-0.1,0.5-0.1,0.7v5.3h-1V19.9z"/>
	<path class="st0" d="M102.8,25.9c-0.4,0.3-1.1,0.6-2.1,0.6c-2.2,0-3.9-2.2-3.9-6.2c0-3.8,1.7-6.4,4.2-6.4c1,0,1.6,0.3,1.9,0.5
		l-0.2,1.3c-0.4-0.3-0.9-0.5-1.6-0.5c-1.9,0-3.1,1.8-3.1,5.1c0,3,1.1,4.9,3.1,4.9c0.6,0,1.3-0.2,1.7-0.5L102.8,25.9z"/>
	<path class="st0" d="M109.3,21.8c0,3.3-1.5,4.7-2.9,4.7c-1.6,0-2.7-1.7-2.7-4.5c0-2.9,1.3-4.7,2.8-4.7
		C108.2,17.3,109.3,19.2,109.3,21.8 M104.7,21.9c0,1.9,0.7,3.4,1.7,3.4c1,0,1.7-1.4,1.7-3.4c0-1.5-0.5-3.4-1.7-3.4
		C105.3,18.5,104.7,20.3,104.7,21.9"/>
	<path class="st0" d="M110,19.9c0-0.9,0-1.7,0-2.4h0.9l0.1,1.5h0c0.3-0.8,0.9-1.7,1.9-1.7c0.8,0,2,0.7,2,3.7v5.3h-1v-5.1
		c0-1.4-0.3-2.6-1.3-2.6c-0.7,0-1.2,0.7-1.4,1.6c0,0.2-0.1,0.5-0.1,0.7v5.3h-1V19.9z"/>
	<path class="st0" d="M117.1,15v2.5h1.5v1.2h-1.5v4.7c0,1.1,0.2,1.7,0.8,1.7c0.3,0,0.5-0.1,0.6-0.1l0,1.2c-0.2,0.1-0.5,0.2-0.9,0.2
		c-0.5,0-0.9-0.2-1.1-0.7c-0.3-0.5-0.4-1.3-0.4-2.3v-4.8h-0.9v-1.2h0.9v-2.1L117.1,15z"/>
	<path class="st0" d="M119.9,20.3c0-1,0-1.9,0-2.7h0.9l0,1.7h0c0.3-1.2,0.9-1.9,1.6-1.9c0.1,0,0.2,0,0.3,0.1v1.5
		c-0.1,0-0.2-0.1-0.4-0.1c-0.7,0-1.3,0.9-1.4,2.1c0,0.2,0,0.5,0,0.7v4.7h-1V20.3z"/>
	<path class="st0" d="M129,21.8c0,3.3-1.5,4.7-2.9,4.7c-1.6,0-2.7-1.7-2.7-4.5c0-2.9,1.3-4.7,2.8-4.7C127.9,17.3,129,19.2,129,21.8
		 M124.5,21.9c0,1.9,0.7,3.4,1.7,3.4c1,0,1.7-1.4,1.7-3.4c0-1.5-0.5-3.4-1.7-3.4C125,18.5,124.5,20.3,124.5,21.9"/>
	<rect x="130.5" y="13.4" class="st0" width="1" height="12.9"/>
	<path class="st0" d="M88.8,26.8v-4l-1.9-5.4h0.9l0.9,2.6c0.2,0.7,0.4,1.3,0.6,1.9h0c0.2-0.6,0.4-1.2,0.6-1.9l0.9-2.6h0.9l-2,5.4v4
		H88.8z"/>
	<polygon class="st0" points="51.9,43.7 45.5,43.7 45.5,52.8 52.6,52.8 52.6,55.5 43.4,55.5 43.4,30.3 52.3,30.3 52.3,33 45.5,33 
		45.5,41 51.9,41 	"/>
	<path class="st0" d="M69.5,44.4c-0.1-3.5-0.3-7.8-0.2-10.9h-0.1c-0.6,3-1.2,6.1-2.1,9.6l-2.9,12.2h-1.6l-2.7-12
		c-0.8-3.6-1.4-6.8-1.9-9.8h0c0,3.1-0.2,7.4-0.3,11.2l-0.4,10.8h-2l1.1-25.2h2.7l2.8,12.2c0.7,3.1,1.2,5.9,1.7,8.5h0.1
		c0.4-2.5,1-5.3,1.7-8.5l2.9-12.2H71l1,25.2h-2.1L69.5,44.4z"/>
	<path class="st0" d="M75.6,30.6c1-0.3,2.4-0.5,4.1-0.5c2.1,0,3.6,0.7,4.6,2.1c0.9,1.2,1.4,3,1.4,5.3c0,2.3-0.4,4.1-1.3,5.4
		c-1.1,1.8-3,2.8-5,2.8c-0.6,0-1.2,0-1.7-0.2v10.1h-2.1V30.6z M77.7,42.8c0.5,0.2,1,0.3,1.8,0.3c2.6,0,4.1-1.9,4.1-5.4
		c0-3.3-1.5-4.9-3.9-4.9c-0.9,0-1.6,0.1-2,0.3V42.8z"/>
	<path class="st0" d="M88.8,30.6c1.1-0.3,2.6-0.5,4.1-0.5c2.3,0,3.7,0.6,4.8,2.1C98.5,33.3,99,35,99,37c0,3.3-1.4,5.5-3.1,6.4v0.1
		c1.3,0.7,2,2.5,2.4,5.1c0.5,3.5,0.9,6,1.3,6.9h-2.2c-0.3-0.7-0.6-2.9-1.1-6c-0.5-3.5-1.4-4.8-3.3-4.9h-2v10.9h-2.1V30.6z M91,42.1
		h2.2c2.3,0,3.7-1.9,3.7-4.8c0-3.3-1.5-4.7-3.8-4.7c-1,0-1.8,0.1-2.1,0.3V42.1z"/>
	<polygon class="st0" points="110.8,43.7 104.4,43.7 104.4,52.8 111.5,52.8 111.5,55.5 102.3,55.5 102.3,30.3 111.1,30.3 111.1,33 
		104.4,33 104.4,41 110.8,41 	"/>
	<path class="st0" d="M114.3,51.6c1,0.9,2.3,1.6,3.8,1.6c2.2,0,3.4-1.8,3.4-4.3c0-2.4-0.9-3.7-3.1-5c-2.7-1.5-4.3-3.6-4.3-7.2
		c0-3.9,2.1-6.9,5.3-6.9c1.7,0,2.9,0.6,3.6,1.2l-0.6,2.7c-0.5-0.4-1.6-1.2-3.1-1.2c-2.2,0-3.1,2.1-3.1,3.8c0,2.4,1,3.5,3.3,4.9
		c2.8,1.6,4.2,3.7,4.2,7.4c0,3.9-1.9,7.3-5.8,7.3c-1.6,0-3.3-0.7-4.2-1.6L114.3,51.6z"/>
	<path class="st0" d="M129.5,47.6l-1.7,7.9h-2.2l5.6-25.2h2.6l5.6,25.2h-2.3l-1.8-7.9H129.5z M134.9,45l-1.6-7.3
		c-0.4-1.6-0.6-3.1-0.9-4.6h0c-0.2,1.5-0.5,3-0.8,4.6L130,45H134.9z"/>
	<path class="st0" d="M142.1,30.6c1.1-0.3,2.6-0.5,4.1-0.5c2.3,0,3.7,0.6,4.8,2.1c0.8,1.1,1.3,2.8,1.3,4.8c0,3.3-1.4,5.5-3.1,6.4
		v0.1c1.3,0.7,2,2.5,2.4,5.1c0.5,3.5,0.9,6,1.3,6.9h-2.2c-0.3-0.7-0.6-2.9-1.1-6c-0.5-3.5-1.4-4.8-3.3-4.9h-2v10.9h-2.1V30.6z
		 M144.2,42.1h2.2c2.3,0,3.7-1.9,3.7-4.8c0-3.3-1.5-4.7-3.8-4.7c-1,0-1.8,0.1-2.1,0.3V42.1z"/>
	<rect x="155.5" y="30.3" class="st0" width="2.1" height="25.2"/>
	<path class="st0" d="M164.3,47.6l-1.7,7.9h-2.2l5.6-25.2h2.6l5.6,25.2h-2.3l-1.8-7.9H164.3z M169.7,45l-1.6-7.3
		c-0.4-1.6-0.6-3.1-0.9-4.6h0c-0.2,1.5-0.5,3-0.8,4.6l-1.6,7.3H169.7z"/>
	<polygon class="st0" points="176.9,30.3 179,30.3 179,52.8 186,52.8 186,55.5 176.9,55.5 	"/>
	<path class="st0" d="M190.7,53.7c1,0.4,1.5,0.8,2.4,0.8c1,0,1.7-0.6,1.7-1.5c0-1.2-1.1-1.7-2.2-2.3c-1-0.5-2.1-1.1-2.1-2.3
		c0-1.3,0.9-2.2,2.4-2.2h0.4c0.8,0,1.5,0.2,2,0.4l-0.2,0.6c-0.7-0.3-1.2-0.6-1.9-0.6c-1.1,0-1.8,0.6-1.8,1.3c0,0.9,0.9,1.4,2,1.9
		c1.2,0.6,2.5,1.2,2.5,2.7c0,1.4-1,2.3-2.5,2.3h-0.3c-1,0-2-0.4-2.5-0.6L190.7,53.7z"/>
	<path class="st0" d="M198.2,54.9c0,0.2,0,0.2-0.3,0.2h-0.5c-0.3,0-0.3-0.1-0.3-0.2v-0.8c0-0.1,0-0.2,0.3-0.2h0.5
		c0.3,0,0.3,0.1,0.3,0.2V54.9z"/>
	<path class="st0" d="M205.2,54.9l-1,0.1l-0.8-2.8h-3.1c-0.3,1.4-0.4,2.6-0.4,2.8l-0.8-0.1l2.4-8.6c0,0,0.3,0.1,0.5,0.1h0.8
		L205.2,54.9z M201.7,47.3l-1,3.6c-0.1,0.3-0.1,0.6-0.2,0.9h2.9l-1.3-4.5H201.7z"/>
	<path class="st0" d="M207.3,54.9c0,0.2,0,0.2-0.3,0.2h-0.5c-0.3,0-0.3-0.1-0.3-0.2v-0.8c0-0.1,0-0.2,0.3-0.2h0.5
		c0.3,0,0.3,0.1,0.3,0.2V54.9z"/>
	<path class="st0" d="M208.9,53.7c1,0.4,1.5,0.8,2.4,0.8c1,0,1.7-0.6,1.7-1.5c0-1.2-1.1-1.7-2.2-2.3c-1-0.5-2.1-1.1-2.1-2.3
		c0-1.3,0.9-2.2,2.4-2.2h0.4c0.8,0,1.5,0.2,2,0.4l-0.2,0.6c-0.7-0.3-1.2-0.6-1.9-0.6c-1.1,0-1.8,0.6-1.8,1.3c0,0.9,0.9,1.4,2,1.9
		c1.2,0.6,2.5,1.2,2.5,2.7c0,1.4-1,2.3-2.5,2.3h-0.3c-1,0-2-0.4-2.5-0.6L208.9,53.7z"/>
	<path class="st0" d="M216.4,54.9c0,0.2,0,0.2-0.3,0.2h-0.5c-0.3,0-0.3-0.1-0.3-0.2v-0.8c0-0.1,0-0.2,0.3-0.2h0.5
		c0.3,0,0.3,0.1,0.3,0.2V54.9z"/>
	<path class="st1" d="M37.4,31.6c0,3.8-3.1,6.8-6.8,6.8c-3.8,0-6.8-3.1-6.8-6.8s3.1-6.8,6.8-6.8C34.4,24.7,37.4,27.8,37.4,31.6"/>
	<path class="st2" d="M32.4,5.6c0,1.5-1.2,2.8-2.8,2.8s-2.8-1.2-2.8-2.8c0-1.5,1.2-2.8,2.8-2.8S32.4,4.1,32.4,5.6"/>
	<path class="st2" d="M13.4,13.2c0,1.5-1.2,2.8-2.8,2.8c-1.5,0-2.8-1.2-2.8-2.8c0-1.5,1.2-2.8,2.8-2.8
		C12.1,10.4,13.4,11.6,13.4,13.2"/>
	<path class="st2" d="M6.3,33.5c0,1.5-1.2,2.8-2.8,2.8c-1.5,0-2.8-1.2-2.8-2.8c0-1.5,1.2-2.8,2.8-2.8C5,30.7,6.3,32,6.3,33.5"/>
	<path class="st2" d="M14,51c0,1.5-1.2,2.8-2.8,2.8c-1.5,0-2.8-1.2-2.8-2.8c0-1.5,1.2-2.8,2.8-2.8C12.7,48.2,14,49.5,14,51"/>
	<path class="st0" d="M33.4,58.6c0,1.5-1.2,2.8-2.8,2.8c-1.5,0-2.8-1.2-2.8-2.8c0-1.5,1.2-2.8,2.8-2.8
		C32.1,55.9,33.4,57.1,33.4,58.6"/>
	<path class="st2" d="M25.8,24.4c-3-16.4,4.7-14.1,7.7-12.3c3,1.8,0.4,8.2-0.3,8C32.4,19.9,28.6,20.1,25.8,24.4"/>
	<path class="st2" d="M21.5,28.8c-13.8-9.3-6.7-13.3-3.3-14.1c3.3-0.9,6.2,5.5,5.5,5.9C23,20.9,20.5,23.8,21.5,28.8"/>
	<path class="st2" d="M22.3,35.4C6.4,40.3,7.8,32.3,9.2,29.1c1.4-3.2,8.1-1.4,8-0.6C17.1,29.3,17.8,33,22.3,35.4"/>
	<path class="st2" d="M27.6,39.7c-10.9,16.3-15.6,8-16.7,4c-1-3.9,6.4-7.3,6.9-6.5C18.3,38,21.7,40.9,27.6,39.7"/>
	<path class="st0" d="M33.7,39.4c4.1,16.1-3.8,14.4-6.9,12.8c-3.1-1.6-1-8.2-0.2-8C27.3,44.3,31.1,43.8,33.7,39.4"/>
	<g>
		<path class="st0" d="M133.3,14.8c0-0.3,0.1-0.5,0.2-0.8c0.1-0.2,0.3-0.5,0.4-0.6s0.4-0.3,0.6-0.4c0.2-0.1,0.5-0.2,0.8-0.2
			c0.3,0,0.5,0.1,0.8,0.2c0.2,0.1,0.5,0.2,0.6,0.4c0.2,0.2,0.3,0.4,0.4,0.6s0.2,0.5,0.2,0.8c0,0.3-0.1,0.6-0.2,0.8
			c-0.1,0.2-0.3,0.5-0.4,0.6c-0.2,0.2-0.4,0.3-0.6,0.4c-0.2,0.1-0.5,0.2-0.8,0.2c-0.3,0-0.5-0.1-0.8-0.2c-0.2-0.1-0.5-0.2-0.6-0.4
			c-0.2-0.2-0.3-0.4-0.4-0.6C133.3,15.3,133.3,15.1,133.3,14.8z M133.6,14.8c0,0.2,0,0.5,0.1,0.7c0.1,0.2,0.2,0.4,0.3,0.5
			c0.1,0.2,0.3,0.3,0.5,0.4c0.2,0.1,0.4,0.1,0.7,0.1c0.2,0,0.4,0,0.6-0.1c0.2-0.1,0.4-0.2,0.5-0.4c0.1-0.2,0.3-0.3,0.3-0.5
			c0.1-0.2,0.1-0.4,0.1-0.7c0-0.2,0-0.5-0.1-0.7c-0.1-0.2-0.2-0.4-0.3-0.5c-0.1-0.2-0.3-0.3-0.5-0.4c-0.2-0.1-0.4-0.1-0.6-0.1
			c-0.2,0-0.5,0-0.7,0.1c-0.2,0.1-0.4,0.2-0.5,0.4c-0.1,0.2-0.3,0.3-0.3,0.5C133.7,14.3,133.6,14.5,133.6,14.8z M134.5,13.6h0.9
			c0.3,0,0.5,0.1,0.6,0.2c0.1,0.1,0.2,0.3,0.2,0.5c0,0.2-0.1,0.4-0.2,0.5c-0.1,0.1-0.3,0.2-0.4,0.2l0.7,1h-0.4l-0.6-1h-0.4v1h-0.4
			V13.6z M134.9,14.6h0.4c0.1,0,0.2,0,0.2,0c0.1,0,0.1,0,0.2,0c0.1,0,0.1-0.1,0.1-0.1c0-0.1,0.1-0.1,0.1-0.2c0-0.1,0-0.1,0-0.2
			c0,0-0.1-0.1-0.1-0.1c0,0-0.1,0-0.2-0.1c-0.1,0-0.1,0-0.2,0h-0.5V14.6z"/>
	</g>
</g>
</svg>
