<svg id="Capa_1" data-name="Capa 1" xmlns="http://www.w3.org/2000/svg" viewBox="0 0 512 512"><defs><style>.cls-1{fill:#fff;}.cls-2{fill:#316d38;}.cls-3{fill:#e08000;}.cls-4{fill:#999395;}.cls-5{fill:#333;}
#plan {
	stroke-dashoffset: 1000;
	animation: dash 3s linear forwards;
	stroke: #333;
	fill-opacity: 0
}

</style></defs><title>control-facturas</title><path class="cls-1" d="M0,70.6V441.4H476.7A35.29,35.29,0,0,0,512,406.1V70.6Z"/><polygon class="cls-2" points="423.7 512 220.7 512 194.2 494.3 220.7 476.7 423.7 476.7 423.7 512"/><rect class="cls-3" x="379.6" y="476.7" width="17.7" height="35.3"/><path class="cls-4" d="M419.9,70.6c-80,204.8-217.8,314.7-319.1,370.8H476.7A35.29,35.29,0,0,0,512,406.1V70.6Z"/><path class="cls-1" d="M459,0V370.8h17.7A35.29,35.29,0,0,1,512,406.1V35.3A35.29,35.29,0,0,0,476.7,0Z"/><g id="plan"><path class="cls-5" d="M423.7,273.7H379.6V247.2a8.81,8.81,0,0,0-8.8-8.8h-106V220.7H309a8.81,8.81,0,0,0,8.8-8.8v-53a8.81,8.81,0,0,0-8.8-8.8H203a8.81,8.81,0,0,0-8.8,8.8v53a8.81,8.81,0,0,0,8.8,8.8h44.1v17.7H141.2a8.81,8.81,0,0,0-8.8,8.8v26.5H88.3a8.81,8.81,0,0,0-8.8,8.8v53a8.81,8.81,0,0,0,8.8,8.8H194.2a8.81,8.81,0,0,0,8.8-8.8v-53a8.81,8.81,0,0,0-8.8-8.8H150.1V256H362v17.7H317.9a8.81,8.81,0,0,0-8.8,8.8v53a8.81,8.81,0,0,0,8.8,8.8H423.8a8.81,8.81,0,0,0,8.8-8.8v-53A8.83,8.83,0,0,0,423.7,273.7Zm-211.8-106h88.3V203H211.9V167.7ZM185.4,326.6H97.1V291.3h88.3Zm229.5,0H326.6V291.3h88.3v35.3Z"/><rect class="cls-5" x="79.4" y="361.9" width="35.3" height="17.7"/><rect class="cls-5" x="132.4" y="361.9" width="70.6" height="17.7"/><rect class="cls-5" x="309" y="361.9" width="70.6" height="17.7"/><rect class="cls-5" x="397.2" y="361.9" width="35.3" height="17.7"/><rect class="cls-5" x="167.7" y="114.8" width="114.8" height="17.7"/><rect class="cls-5" x="300.1" y="114.8" width="44.1" height="17.7"/>
<animate id="dash" attributeType="CSS" attributeName="stroke-dasharray" from="1000" to="0" dur="3s" begin="0s;op.end" />
<animate id="op" attributeType="CSS" attributeName="fill-opacity" from="0" to="1" dur="10s" begin="dash.end - 3s" end="" /></g></svg>