<?xml version="1.0" encoding="utf-8"?>
<!-- Generator: Adobe Illustrator 22.1.0, SVG Export Plug-In . SVG Version: 6.00 Build 0)  -->
<svg version="1.1" id="Capa_1" xmlns="http://www.w3.org/2000/svg" xmlns:xlink="http://www.w3.org/1999/xlink" x="0px" y="0px"
	 viewBox="0 0 229.4 229.4" style="enable-background:new 0 0 229.4 229.4;" xml:space="preserve">
<style type="text/css">
	.st0{fill:#FFFFFF;}
	.st1{fill:#E30518;}
	.st2{fill:#007AC0;}
	.st3{fill:#FFE000;}
	.st4{fill:#F49800;}
	.st5{fill:#007AC0;stroke:#1D1D1B;stroke-width:0.4145;stroke-miterlimit:3.8637;}
	.st6{fill:#1D1D1B;}
</style>
<circle class="st0" cx="114.7" cy="114.7" r="114.7"/>
<title>pse</title>
<path class="st1" d="M88.2,98.3c0.2,1.4,0,7.1-5.3,15c-5.5,8.7,3.2,23.2,20.7,19.6c3.4,1.1,7.1,1.7,10.7,1.6
	c3.6,0.1,7.3-0.4,10.7-1.5c17.5,3.7,26.2-10.9,20.7-19.6c-5.3-7.9-5.4-13.6-5.3-15L88.2,98.3z"/>
<path class="st2" d="M114.3,134.3c-17.1-0.4-20.3-8.3-15.5-10c2.7-1,6.4-2.6,6.4-2.6c-1.8-8.9,1.2-20.3,9.2-20.2s10.9,11.7,9.1,20.5
	c0,0,3.7,1.3,6.4,2.4C134.3,126,131.5,133.8,114.3,134.3z"/>
<path class="st3" d="M107.9,128.1c-4.6-12.7-0.6-24.7,6.5-24.6c6.7,0.1,11.2,11.6,6.5,24.6c-2.2-0.4-4.5-0.6-6.7-0.5
	C112,127.5,109.9,127.7,107.9,128.1z"/>
<path class="st4" d="M114.3,134.4c6.9,0,12.3-1.5,12.3-3.6c0-2.1-5.4-3.6-12.3-3.6c-6.9,0-12.3,1.5-12.3,3.6
	C102,132.9,107.4,134.4,114.3,134.4z"/>
<path class="st5" d="M91.5,104.5h8.3c1.3,0,2.4,1.1,2.4,2.4v5.6c0,1.3-1.1,2.4-2.4,2.4h-8.3c-1.3,0-2.4-1.1-2.4-2.4v-5.6
	C89.1,105.6,90.2,104.5,91.5,104.5z"/>
<path class="st6" d="M92.5,105.9H99c1,0,1.8,0.8,1.8,1.8v4.1c0,1-0.8,1.8-1.8,1.8h-6.6c-1,0-1.8-0.8-1.8-1.8v-4.1
	C90.7,106.7,91.5,105.9,92.5,105.9C92.4,105.9,92.5,105.9,92.5,105.9z"/>
<path class="st3" d="M100.8,110.7c-3-0.3-4-3.8-4.3-4.8H99c1,0,1.8,0.8,1.8,1.8L100.8,110.7z"/>
<path class="st3" d="M94.9,105.9c-0.2,1-1.1,4.7-4.3,4.9v-3.1c0-1,0.8-1.8,1.8-1.8L94.9,105.9z"/>
<path class="st5" d="M128.8,104.5h8.3c1.3,0,2.4,1.1,2.4,2.4v5.6c0,1.3-1.1,2.4-2.4,2.4h-8.3c-1.3,0-2.4-1.1-2.4-2.4v-5.6
	C126.5,105.6,127.5,104.5,128.8,104.5z"/>
<path class="st6" d="M129.8,105.9h6.5c1,0,1.8,0.8,1.8,1.8v4.1c0,1-0.8,1.8-1.8,1.8h-6.6c-1,0-1.8-0.8-1.8-1.8v-4.1
	C128,106.7,128.8,105.9,129.8,105.9C129.8,105.9,129.8,105.9,129.8,105.9z"/>
<path class="st3" d="M138.1,110.7c-3-0.3-4-3.8-4.2-4.8h2.4c1,0,1.8,0.8,1.8,1.8L138.1,110.7z"/>
<path class="st3" d="M132.3,105.9c-0.2,1-1.1,4.7-4.3,4.9v-3.1c0-1,0.8-1.8,1.8-1.8L132.3,105.9z"/>
<path class="st1" d="M131.5,76.7c-0.9-3-1-4.4,1.7-4.4h6c3.6-0.1,2.1,2.8,1.8,5.5c-0.2,1.6-0.4,3.2-0.5,4.8
	C140.5,82.6,131.5,76.8,131.5,76.7z"/>
<path class="st4" d="M114.3,98c-8.9,0-21.2,0.8-29.1,1.4c-6.1,0.5-10.7-4.1-6.7-8.5c8.6-9.3,29.5-21,35.9-21
	c6.8,0,27.3,11.7,35.9,21c4,4.4,0,8.5-6.1,8.5C137.3,99.4,123.2,98,114.3,98z"/>
<path class="st6" d="M119.1,118.8c0-0.6,0.5-1.2,1.2-1.1c0.6,0,1.2,0.5,1.1,1.2c0,0.6-0.5,1.1-1.2,1.1
	C119.6,120,119.1,119.5,119.1,118.8z"/>
<g id="XMLID_1_">
	<g>
		<path class="st4" d="M148.7,90.5c4,4.4,0.4,8.7-6,8.3c-10.3-0.7-19.1-1.3-28.4-1.5h0c-9.3,0.1-18.1,0.8-28.4,1.5
			c-6.4,0.4-10-3.9-6-8.3c6-6.5,26.3-19.9,34.4-19.9S142.7,84,148.7,90.5z"/>
		<path class="st6" d="M148.4,88.2c8.6,7.2,3,12-5.2,11.6l-2.4-0.1c0.1,2.4,0.8,6.9,4.5,11.9c9.5,11.4-3.1,25.6-20.9,21.6
			c-6.6,1.9-13.7,1.9-20.3,0c-17.7,4-30.3-10.2-20.8-21.6c3.8-5.1,4.4-9.5,4.5-11.9l-2.4,0.2c-8.2,0.4-13.8-4.3-5.2-11.6
			c12.7-10.7,28.2-18.7,34.1-18.8c3.3,0,9.4,2.4,16.4,6.3c0,0,0,0,0,0h0c0,0,0,0,0,0c-0.1-0.3-0.1-0.5-0.2-0.8
			c-0.4-1.6-0.1-3.4,2.7-3.4h6c3.6,0,3.1,2.4,2.5,4.8c-0.5,1.9-0.8,3.9-0.9,5.8C140.8,82.4,145.7,86,148.4,88.2z M142.7,98.8
			c6.4,0.4,10-3.9,6-8.3c-6-6.5-26.3-19.9-34.4-19.9S85.9,84,79.9,90.5c-4,4.4-0.4,8.7,6,8.3c10.3-0.7,19.1-1.3,28.4-1.5h0
			C123.6,97.5,132.4,98.1,142.7,98.8z M125.9,132.7c16.5,2.8,24.5-11,19.2-19.4c-4.1-6-5-11.1-5.2-13.7c-10.8-0.6-18.2-1.1-25.6-1.2
			c0,0,0,0-0.1,0c-7.4,0.1-14.8,0.6-25.6,1.2c-0.2,2.6-1.1,7.7-5.2,13.7c-5.3,8.3,2.8,22.1,19.2,19.4c-7-2.7-7.8-7.1-4.1-8.6
			c2.7-1,6.4-2.4,6.4-2.4c-1.8-8.9,1.3-20.6,9.3-20.6s11.2,11.7,9.3,20.6c0,0,3.6,1.3,6.4,2.4C133.7,125.5,132.9,130.1,125.9,132.7
			L125.9,132.7z M140.4,78c0.3-2.6,1.7-5.3-1.7-5.2h-5.1c-2.3,0-2.3,1.2-1.6,3.8c2.7,1.5,5.4,3.3,8.1,5.2
			C140.1,80.8,140.2,79.6,140.4,78z M126.2,132c5.8-2.6,6.2-6.7,3.1-7.8c-2.8-0.9-6.1-2.3-6.1-2.3c1.8-8.7-1-20.2-8.9-20.2
			s-10.7,11.6-8.9,20.2c0,0-3.3,1.3-6.1,2.3c-3.2,1.1-2.6,5.3,3.2,7.8c-0.4-0.3-0.6-0.7-0.7-1.2c0-1.4,2.3-2.5,5.7-3.1
			c-4.5-12.8-0.1-24.6,6.8-24.6c5.9,0,9.9,8.4,8.3,18.8c-0.3,1.9-0.8,3.9-1.5,5.8c3.4,0.7,5.7,1.8,5.7,3.1
			C126.8,131.3,126.5,131.7,126.2,132z M126.5,130.9c0-1.2-2.3-2.2-5.9-2.8c0,0-3.8-0.5-6.3-0.5s-6.3,0.5-6.3,0.5
			c-3.5,0.6-5.9,1.6-5.9,2.8c0,1.8,5.5,3.2,12.2,3.2S126.5,132.6,126.5,130.9z M120.8,127.7c4.2-12.3,0.3-24-6.4-24
			s-10.7,11.6-6.4,24c2.1-0.4,4.3-0.5,6.4-0.5C116.5,127.1,118.6,127.3,120.8,127.7z"/>
		<path class="st1" d="M138.7,72.7c3.4-0.1,2,2.6,1.7,5.2c-0.2,1.6-0.3,2.9-0.4,3.9c-2.7-1.9-5.5-3.7-8.1-5.2
			c-0.7-2.7-0.7-3.8,1.6-3.8H138.7z"/>
		<path class="st6" d="M130.7,75.9L130.7,75.9C130.7,75.9,130.7,75.9,130.7,75.9C130.7,75.9,130.7,75.9,130.7,75.9z"/>
		<path class="st2" d="M129.3,124.3c3.1,1,2.7,5.2-3.1,7.8c0.4-0.3,0.6-0.7,0.6-1.2c0.1-1.3-2.2-2.5-5.7-3.1c0.7-2,1.2-3.9,1.5-5.8
			l0.6,0.1C123.2,122,126.5,123.3,129.3,124.3z"/>
		<path class="st4" d="M120.6,128.1c3.6,0.6,5.9,1.6,5.9,2.8c0,1.8-5.4,3.2-12.1,3.2s-12.2-1.5-12.2-3.2c0-1.2,2.3-2.2,5.9-2.8
			c0,0,3.8-0.5,6.3-0.5S120.6,128.1,120.6,128.1z"/>
		<path class="st2" d="M114.3,101.7c7.9,0,10.7,11.6,8.9,20.2l-0.6-0.1c1.6-10.4-2.4-18.8-8.3-18.8c-6.9,0-11.3,11.8-6.8,24.6
			c-3.4,0.7-5.7,1.8-5.7,3.1c0,0.5,0.3,0.9,0.7,1.2c-5.8-2.5-6.3-6.7-3.2-7.8c2.7-1,6.1-2.3,6.1-2.3
			C103.6,113.3,106.4,101.7,114.3,101.7z"/>
		<path class="st3" d="M114.3,103.6c6.8,0,10.7,11.7,6.4,24c-2.1-0.4-4.3-0.5-6.4-0.5c-2.2,0-4.3,0.2-6.4,0.5
			C103.6,115.3,107.5,103.6,114.3,103.6z"/>
	</g>
	<g>
	</g>
</g>
<path class="st1" d="M23.7,157.3c3.6,0.8,12.5,0.5,12.7-5.3c0-2.3-3-4.5-5.9-5.2c-3.1-0.8-6.3-0.8-9.3,0c-2.2,0.9-2.9-1.3-0.9-2
	c3.8-1.4,18.6-1.7,19.3,7.2c-0.6,8.8-13.5,8.1-16.4,7.6c-1.1-0.2-2-0.8-2-2.2V150c0-0.7,0.6-1.3,1.3-1.3s1.3,0.6,1.3,1.3L23.7,157.3
	z"/>
<path class="st1" d="M51.5,147c-2.9,0-7.7,8.8-9.2,11.9c-0.9,1.9-3.6,0.5-2.7-1.3c1.5-3.4,7.3-13.6,11.8-13.5
	c4.5-0.1,10.3,10.1,11.8,13.5c0.8,1.9-1.9,3.2-2.7,1.3C59.2,155.8,54.4,147,51.5,147z"/>
<path class="st1" d="M71.7,156.9c2.9,0,7.7-8.8,9.2-11.9c0.9-1.9,3.6-0.6,2.7,1.3c-1.5,3.4-7.3,13.6-11.8,13.5
	c-4.5,0.1-10.3-10.1-11.8-13.5c-0.9-1.9,1.9-3.2,2.7-1.3C64,148.2,68.8,156.9,71.7,156.9z"/>
<path class="st1" d="M88.4,145.6v12.8c0,1.9-2.9,1.8-2.9-0.1v-12.8c-0.1-0.8,0.6-1.5,1.4-1.5c0.8-0.1,1.5,0.6,1.5,1.4
	C88.4,145.5,88.4,145.5,88.4,145.6z"/>
<path class="st1" d="M102.2,156.9c2.9,0,7.7-8.8,9.2-11.9c0.9-1.9,3.6-0.6,2.7,1.3c-1.5,3.4-7.3,13.6-11.8,13.5
	c-4.5,0.1-10.3-10.1-11.8-13.5c-0.9-1.9,1.8-3.2,2.7-1.3C94.5,148.2,99.3,156.9,102.2,156.9z"/>
<path class="st1" d="M124.5,153.3c0.9,1.8,3.3,3.3,5.6,3.8c3.1,0.8,6.3,0.8,9.3,0c2.1-0.7,2.9,1.4,0.9,2.1c-4,1.3-18.5,1.8-19.3-7.1
	c0.5-8.5,12.1-8.3,16.5-7.7c2.2,0.3,1.7,2.6-0.5,2.1c-3-0.4-11-0.9-12.6,4.4h8.3c1.3,0,1.3,2.4,0,2.4L124.5,153.3z"/>
<path class="st1" d="M170.5,157.3c3.6,0.8,12.5,0.5,12.7-5.3c0-2.3-3-4.5-5.9-5.2c-3.1-0.8-6.3-0.8-9.3,0c-2.2,0.9-2.9-1.3-0.9-2
	c3.8-1.4,18.6-1.7,19.3,7.2c-0.6,8.8-13.5,8.1-16.4,7.6c-1.2-0.2-2-0.8-2-2.2V150c-0.1-0.7,0.5-1.3,1.2-1.4c0.7-0.1,1.3,0.5,1.4,1.2
	c0,0.1,0,0.1,0,0.2L170.5,157.3z"/>
<path class="st1" d="M198.3,147c-2.9,0-7.7,8.8-9.2,11.9c-0.9,1.9-3.6,0.5-2.7-1.3c1.5-3.4,7.3-13.6,11.8-13.5
	c4.5-0.1,10.3,10.1,11.8,13.5c0.9,1.9-1.8,3.2-2.7,1.3C206,155.8,201.2,147,198.3,147z"/>
<path class="st1" d="M118.9,145.6v12.8c0,1.9-2.9,1.8-2.9-0.1v-12.8c-0.1-0.8,0.6-1.5,1.4-1.5c0.8-0.1,1.5,0.6,1.5,1.4
	C118.9,145.5,118.9,145.5,118.9,145.6z"/>
<path class="st1" d="M153.7,154.6c-1.8-3.3-3.8-7.6-5.1-7.7c-3.3,0-1.8,6.6-1.9,11.7c0,1.8-2.9,1.8-2.9-0.2c0-6.5-1.4-14.4,4.8-14.4
	c1.8,0,3.6,2.7,5.1,5.3c1.8,3.3,3.9,7.6,5.3,7.7c3.3,0,1.8-6.4,1.8-11.6c0-1.8,2.9-1.8,2.9,0.2c0,6.5,1.5,14.2-4.8,14.2
	C157.2,159.9,155.3,157.2,153.7,154.6z"/>
</svg>
