<svg id="_163c103f-8a04-4c08-a469-8365f7336974" data-name="163c103f-8a04-4c08-a469-8365f7336974" xmlns="http://www.w3.org/2000/svg" viewBox="0 0 150 150"><defs><style>.cls-1{fill:#316d38;}.cls-2{fill:#44914a;}.cls-3{fill:#ffca5d;}.cls-4{fill:#f6b545;}.cls-5{fill:#ffcb5b;}.cls-6{fill:#ffe27a;}.cls-7{fill:#e08000;}.cls-8{fill:#f19920;}.cls-9{fill:#e78825;}
#dolar {
    animation-name: squish;
    animation-duration: 5s;
    animation-timing-function: ease-in-out;
    animation-direction: alternate;
    animation-iteration-count: infinite;
    transform-origin: 50% 35%;
}
@keyframes squish {
	0% {transform: rotate(0deg);}
50% {transform: rotate(180deg);}
	100% {transform: rotate(360deg);}
}
</style></defs><title>dinero</title><path class="cls-1" d="M142.5,95.3H7.5A6.87,6.87,0,0,1,.7,88.5V14.3A6.87,6.87,0,0,1,7.5,7.5h135a6.87,6.87,0,0,1,6.8,6.8V88.6A7,7,0,0,1,142.5,95.3Z"/><path class="cls-1" d="M125.6,68.3a22.71,22.71,0,0,0-18.9,9.8,25.56,25.56,0,0,0-11.5-3A23.54,23.54,0,0,0,72,95.3h70.5a7,7,0,0,0,6.8-5.7A24.07,24.07,0,0,0,125.6,68.3Z"/><path class="cls-2" d="M129,88.5H21A13.57,13.57,0,0,0,7.5,75V27.8A13.57,13.57,0,0,0,21,14.3H129a13.57,13.57,0,0,0,13.5,13.5V75A13.57,13.57,0,0,0,129,88.5Z"/><circle class="cls-1" cx="34.5" cy="51.4" r="6.8"/><circle class="cls-1" cx="115.5" cy="51.4" r="6.8"/><g id="dolar" data-name="$"><ellipse class="cls-1" cx="75" cy="51.4" rx="27" ry="30.4"/><path id="S" class="cls-2" d="M78.4,48H71.6a3.38,3.38,0,0,1-3.2-3.6,3.44,3.44,0,0,1,3.2-3.2H81.7a3.17,3.17,0,0,0,3.4-3v-.4a3.17,3.17,0,0,0-3-3.4H78.3a3.38,3.38,0,0,0-3.6-3.2,3.44,3.44,0,0,0-3.2,3.2,10.1,10.1,0,0,0,0,20.2h6.8a3.38,3.38,0,0,1,3.2,3.6,3.44,3.44,0,0,1-3.2,3.2h-10A3.38,3.38,0,0,0,65.1,65a3.44,3.44,0,0,0,3.2,3.2h3.4a3.38,3.38,0,0,0,3.6,3.2,3.44,3.44,0,0,0,3.2-3.2,10,10,0,0,0,10.4-9.8A10.29,10.29,0,0,0,79,48Z"/></g><circle class="cls-3" cx="88.5" cy="98.6" r="23.6"/><circle class="cls-4" cx="118.9" cy="91.9" r="23.6"/><path class="cls-5" d="M118.9,68.3a23.6,23.6,0,1,0,23.6,23.6h0a23.45,23.45,0,0,0-23.3-23.6A.19.19,0,0,0,118.9,68.3Zm0,40.5a16.9,16.9,0,1,1,16.9-16.9h0a16.73,16.73,0,0,1-16.5,16.9Z"/><path class="cls-4" d="M118.9,115.2h0a23.14,23.14,0,0,0,23.6-22.7V92h-.3a3.62,3.62,0,0,0-3.4,3,20.51,20.51,0,0,1-6.4,12.2,19.61,19.61,0,0,1-10.5,5.1,2.93,2.93,0,0,0-3,2.9Z"/><path class="cls-6" d="M118.9,68.6h0A23.22,23.22,0,0,0,95.3,91.4v.5h.3a3.62,3.62,0,0,0,3.4-3,20.51,20.51,0,0,1,6.4-12.2,19.61,19.61,0,0,1,10.5-5.1,3,3,0,0,0,3-3Z"/><path class="cls-7" d="M104.4,94.2A16.75,16.75,0,0,1,121,77.3h.3a15.9,15.9,0,0,1,10.8,4,16.75,16.75,0,0,0-23.6-2.7,17.19,17.19,0,0,0-6.4,13.2,16,16,0,0,0,6.1,12.8A14.9,14.9,0,0,1,104.4,94.2Z"/><path class="cls-5" d="M129,102.3a1.69,1.69,0,0,1-1-.3,1.6,1.6,0,0,1-.1-2.3l.1-.1a11.21,11.21,0,0,0,3-7.8,1.7,1.7,0,0,1,3.4,0,15.53,15.53,0,0,1-3.7,10.1A2.54,2.54,0,0,1,129,102.3Z"/><path class="cls-7" d="M118.9,102a3.17,3.17,0,0,1-3.4-3V85.1a3.41,3.41,0,1,1,6.8-.4V98.6a3.17,3.17,0,0,1-3,3.4Z"/><path class="cls-8" d="M131.4,111.8a27.31,27.31,0,0,0-16.2-18.2A28.63,28.63,0,0,0,102.4,75a24.47,24.47,0,0,0-6.8,16.5,23.45,23.45,0,0,0,23.3,23.6h.3A19.61,19.61,0,0,0,131.4,111.8Z"/><path class="cls-9" d="M108.1,104.7a18,18,0,0,1-4-10.8,16.83,16.83,0,0,1,5.4-12.2,23.13,23.13,0,0,0-2-2.4A16.88,16.88,0,0,0,102,91.8,16,16,0,0,0,108.1,104.7Z"/><path class="cls-9" d="M115.5,93.9v4.7a3.38,3.38,0,0,0,3.6,3.2,3.44,3.44,0,0,0,3.2-3.2V98A28,28,0,0,0,115.5,93.9Z"/><path class="cls-4" d="M131.4,111.8a21.26,21.26,0,0,0-2.7-6.4,16.39,16.39,0,0,1-9.8,3.4A16.73,16.73,0,0,1,102,92.3V92a16.58,16.58,0,0,1,5.4-12.5,21,21,0,0,0-5.4-4A24.47,24.47,0,0,0,95.2,92a23.45,23.45,0,0,0,23.3,23.6h.3A24.18,24.18,0,0,0,131.4,111.8Z"/><path class="cls-8" d="M130.4,108.8a23.62,23.62,0,0,1-8.4,3.4,3.62,3.62,0,0,0-3,3.4h0a23.13,23.13,0,0,0,12.5-3.7A23.26,23.26,0,0,1,130.4,108.8Z"/><path class="cls-5" d="M102,75.3a24.47,24.47,0,0,0-6.8,16.5h.3a3.62,3.62,0,0,0,3.4-3,21.54,21.54,0,0,1,6-11.9A9.24,9.24,0,0,1,102,75.3Z"/><circle class="cls-4" cx="88.5" cy="98.6" r="23.6"/><path class="cls-8" d="M85.1,115.5a22.4,22.4,0,0,0,1,6.8h2.4a23.6,23.6,0,0,0,22.6-30.4h-2.4a23.39,23.39,0,0,0-23.6,23.3Z"/><path class="cls-5" d="M88.5,75a23.6,23.6,0,1,0,23.6,23.6h0A23.45,23.45,0,0,0,88.8,75Zm0,40.5a16.9,16.9,0,1,1,16.9-16.9h0a16.75,16.75,0,0,1-16.6,16.9Z"/><path class="cls-4" d="M88.5,121.9h0a23.22,23.22,0,0,0,23.6-22.8v-.5h-.3a3.62,3.62,0,0,0-3.4,3,20.51,20.51,0,0,1-6.4,12.2,19.61,19.61,0,0,1-10.5,5.1,3,3,0,0,0-3,3Z"/><path class="cls-6" d="M88.5,75.3h0A23.22,23.22,0,0,0,64.9,98.1v.5h.3a3.62,3.62,0,0,0,3.4-3A20.51,20.51,0,0,1,75,83.4a19.61,19.61,0,0,1,10.5-5.1,2.89,2.89,0,0,0,3-3Z"/><path class="cls-7" d="M74,101A16.73,16.73,0,0,1,90.5,84.1h.3a15.9,15.9,0,0,1,10.8,4A16.75,16.75,0,0,0,78,85.4a17.19,17.19,0,0,0-6.4,13.2,16,16,0,0,0,6.1,12.8A16.33,16.33,0,0,1,74,101Z"/><path class="cls-5" d="M98.6,109.1a1.69,1.69,0,0,1-1-.3,1.52,1.52,0,0,1,0-2.3h0a11.21,11.21,0,0,0,3-7.8,1.83,1.83,0,0,1,1.8-1.6,1.81,1.81,0,0,1,1.6,1.6,15.53,15.53,0,0,1-3.7,10.1A4.67,4.67,0,0,1,98.6,109.1Z"/><path class="cls-7" d="M88.5,108.8a3.17,3.17,0,0,1-3.4-3V91.9a3.41,3.41,0,0,1,6.8-.4v13.9a3.17,3.17,0,0,1-3,3.4Z"/><path class="cls-4" d="M104,92.2a17.41,17.41,0,0,1,1.3,6.4,16.73,16.73,0,0,1-16.5,16.9h-.3a13.05,13.05,0,0,1-3.4-.3v.3a22.4,22.4,0,0,0,1,6.8h2.4a23.41,23.41,0,0,0,23.6-23.4,22.59,22.59,0,0,0-1-6.9h-2.4A15,15,0,0,0,104,92.2Z"/><circle class="cls-4" cx="105.4" cy="118.9" r="23.6"/><path class="cls-5" d="M105.4,95.3A23.6,23.6,0,1,0,129,118.9h0a23.45,23.45,0,0,0-23.3-23.6A.19.19,0,0,0,105.4,95.3Zm0,40.5a16.9,16.9,0,1,1,16.9-16.9h0a16.73,16.73,0,0,1-16.5,16.9Z"/><path class="cls-4" d="M105.4,142.2h0A23.14,23.14,0,0,0,129,119.5V119h-.3a3.62,3.62,0,0,0-3.4,3,20.51,20.51,0,0,1-6.4,12.2,19.61,19.61,0,0,1-10.5,5.1,3,3,0,0,0-3,3Z"/><path class="cls-6" d="M105.4,95.6h0a23.22,23.22,0,0,0-23.6,22.8v.5h.3a3.62,3.62,0,0,0,3.4-3,20.51,20.51,0,0,1,6.4-12.2,19.61,19.61,0,0,1,10.5-5.1,3,3,0,0,0,3-3Z"/><path class="cls-7" d="M90.9,121.2a16.75,16.75,0,0,1,16.6-16.9h.3a15.9,15.9,0,0,1,10.8,4A16.75,16.75,0,0,0,95,105.6a17.19,17.19,0,0,0-6.4,13.2,16,16,0,0,0,6.1,12.8A14.9,14.9,0,0,1,90.9,121.2Z"/><path class="cls-5" d="M115.5,129.3a1.69,1.69,0,0,1-1-.3,1.6,1.6,0,0,1-.1-2.3l.1-.1a11.21,11.21,0,0,0,3-7.8,1.7,1.7,0,0,1,3.4,0,15.53,15.53,0,0,1-3.7,10.1A2.54,2.54,0,0,1,115.5,129.3Z"/><path class="cls-7" d="M105.4,129a3.17,3.17,0,0,1-3.4-3V112.1a3.38,3.38,0,0,1,3.6-3.2,3.44,3.44,0,0,1,3.2,3.2v13.5a3.17,3.17,0,0,1-3,3.4Z"/></svg>