<svg id="71160964-e1c5-45b8-96d0-d33ea0d1ad17" data-name="Capa 1" xmlns="http://www.w3.org/2000/svg" viewBox="0 0 1277 59.26"><defs><style>.\32 ee75c94-5b4d-4b46-ac46-7179bdb0311f{fill:#999395;}.\39 7c47197-7285-4229-9fc5-443081680f4b{fill:none;stroke:#999395;stroke-miterlimit:10;}</style></defs><title>prop2</title><path class="2ee75c94-5b4d-4b46-ac46-7179bdb0311f" d="M644.34,12.7A48.1,48.1,0,0,0,638.92,0a13.51,13.51,0,0,1,.61,2.45,38.13,38.13,0,0,1,.11,6.94,28.49,28.49,0,0,1-1.51,7.81,9.76,9.76,0,0,1-.38,1c-1,2.54-3.22,6.76-4.14,9.48-2,5.76-2.54,13-2,20h0a64.69,64.69,0,0,0,1.91,11.53c2.59-9.62,5.35-13.71,8.12-19.7,0-.13.11-.22.16-.36.56-1.27,1.12-2.68,1.64-4.17h0a2,2,0,0,1,.07-.23c.2-.59.4-1.23.6-1.91.36-1.27.7-2.54.95-3.85A39.61,39.61,0,0,0,644.34,12.7Zm-6.61,8.08c-.07.54-.16,1.13-.23,1.68C637.57,21.87,637.66,21.32,637.73,20.78Z"/><path class="2ee75c94-5b4d-4b46-ac46-7179bdb0311f" d="M604.34,12.7A48.1,48.1,0,0,0,598.92,0a13.51,13.51,0,0,1,.61,2.45,38.13,38.13,0,0,1,.11,6.94,28.49,28.49,0,0,1-1.51,7.81,9.76,9.76,0,0,1-.38,1c-1,2.54-3.22,6.76-4.14,9.48-2,5.76-2.54,13-2,20h0a64.69,64.69,0,0,0,1.91,11.53c2.59-9.62,5.35-13.71,8.12-19.7,0-.13.11-.22.16-.36.56-1.27,1.12-2.68,1.64-4.17h0a2,2,0,0,1,.07-.23c.2-.59.4-1.23.6-1.91.36-1.27.7-2.54.95-3.85A39.61,39.61,0,0,0,604.34,12.7Zm-6.61,8.08c-.07.54-.16,1.13-.23,1.68C597.57,21.87,597.66,21.32,597.73,20.78Z"/><path class="2ee75c94-5b4d-4b46-ac46-7179bdb0311f" d="M684.34,12.7A48.1,48.1,0,0,0,678.92,0a13.51,13.51,0,0,1,.61,2.45,38.13,38.13,0,0,1,.11,6.94,28.49,28.49,0,0,1-1.51,7.81,9.76,9.76,0,0,1-.38,1c-1,2.54-3.22,6.76-4.14,9.48-2,5.76-2.54,13-2,20h0a64.69,64.69,0,0,0,1.91,11.53c2.59-9.62,5.35-13.71,8.12-19.7,0-.13.11-.22.16-.36.56-1.27,1.12-2.68,1.64-4.17h0a2,2,0,0,1,.07-.23c.2-.59.4-1.23.6-1.91.36-1.27.7-2.54.95-3.85A39.61,39.61,0,0,0,684.34,12.7Zm-6.61,8.08c-.07.54-.16,1.13-.23,1.68C677.57,21.87,677.66,21.32,677.73,20.78Z"/><line class="97c47197-7285-4229-9fc5-443081680f4b" y1="29.72" x2="497" y2="29.72"/><line class="97c47197-7285-4229-9fc5-443081680f4b" x1="780" y1="30.22" x2="1277" y2="30.22"/></svg>