<?xml version="1.0" encoding="utf-8"?>
<!-- Generator: Adobe Illustrator 22.1.0, SVG Export Plug-In . SVG Version: 6.00 Build 0)  -->
<svg version="1.1" id="Capa_1" xmlns="http://www.w3.org/2000/svg" xmlns:xlink="http://www.w3.org/1999/xlink" x="0px" y="0px"
	 viewBox="0 0 229.4 229.4" style="enable-background:new 0 0 229.4 229.4;" xml:space="preserve">
<style type="text/css">
	.st0{fill:#FFFFFF;}
	.st1{fill:#000100;}
	.st2{fill:#F7AE24;}
	.st3{fill:url(#SVGID_1_);}
	.st4{enable-background:new    ;}
	.st5{clip-path:url(#SVGID_3_);enable-background:new    ;}
	.st6{fill:#DE871E;}
	.st7{fill:#E38A1E;}
	.st8{fill:#E88D1F;}
	.st9{fill:#ED9020;}
	.st10{fill:#F29320;}
	.st11{fill:#F79621;}
	.st12{fill:#F8A33C;}
	.st13{fill:#F8A847;}
	.st14{fill:#F9AC4F;}
	.st15{fill:#F9AF56;}
	.st16{fill:#F9B25D;}
	.st17{fill:#F9B562;}
	.st18{fill:#FAB767;}
	.st19{fill:#FABA6C;}
	.st20{fill:#FABC71;}
	.st21{fill:#FABE75;}
	.st22{fill:#FAC079;}
	.st23{fill:#FAC27D;}
	.st24{fill:#FAC381;}
	.st25{clip-path:url(#SVGID_5_);enable-background:new    ;}
	.st26{fill:#804E11;}
	.st27{fill:#855112;}
	.st28{fill:#8A5412;}
	.st29{fill:#8F5713;}
	.st30{fill:#945A14;}
	.st31{fill:#995D14;}
	.st32{fill:#9E6015;}
	.st33{fill:#A36316;}
	.st34{fill:#A86616;}
	.st35{fill:#AD6917;}
	.st36{fill:#B26C18;}
	.st37{fill:#B76F18;}
	.st38{fill:#BC7219;}
	.st39{fill:#C1751A;}
	.st40{fill:#C6781A;}
	.st41{fill:#CB7B1B;}
	.st42{fill:#CF7E1C;}
	.st43{fill:#D4811C;}
	.st44{fill:#D9841D;}
	.st45{clip-path:url(#SVGID_7_);enable-background:new    ;}
	.st46{clip-path:url(#SVGID_9_);enable-background:new    ;}
	.st47{clip-path:url(#SVGID_11_);enable-background:new    ;}
	.st48{clip-path:url(#SVGID_13_);enable-background:new    ;}
	.st49{clip-path:url(#SVGID_15_);enable-background:new    ;}
	.st50{clip-path:url(#SVGID_17_);enable-background:new    ;}
	.st51{fill:#7C4B11;}
	.st52{fill:#D3801C;}
	.st53{clip-path:url(#SVGID_19_);enable-background:new    ;}
	.st54{clip-path:url(#SVGID_21_);enable-background:new    ;}
	.st55{clip-path:url(#SVGID_23_);enable-background:new    ;}
	.st56{clip-path:url(#SVGID_25_);enable-background:new    ;}
	.st57{clip-path:url(#SVGID_27_);enable-background:new    ;}
	.st58{clip-path:url(#SVGID_29_);enable-background:new    ;}
	.st59{clip-path:url(#SVGID_31_);enable-background:new    ;}
	.st60{clip-path:url(#SVGID_33_);enable-background:new    ;}
	.st61{clip-path:url(#SVGID_35_);enable-background:new    ;}
	.st62{clip-path:url(#SVGID_37_);enable-background:new    ;}
	.st63{clip-path:url(#SVGID_39_);enable-background:new    ;}
	.st64{clip-path:url(#SVGID_41_);enable-background:new    ;}
	.st65{clip-path:url(#SVGID_43_);enable-background:new    ;}
	.st66{clip-path:url(#SVGID_45_);enable-background:new    ;}
	.st67{clip-path:url(#SVGID_47_);enable-background:new    ;}
	.st68{clip-path:url(#SVGID_49_);enable-background:new    ;}
	.st69{clip-path:url(#SVGID_51_);enable-background:new    ;}
	.st70{clip-path:url(#SVGID_53_);enable-background:new    ;}
	.st71{clip-path:url(#SVGID_55_);enable-background:new    ;}
	.st72{clip-path:url(#SVGID_57_);enable-background:new    ;}
	.st73{clip-path:url(#SVGID_59_);enable-background:new    ;}
	.st74{clip-path:url(#SVGID_61_);enable-background:new    ;}
	.st75{clip-path:url(#SVGID_63_);enable-background:new    ;}
	.st76{clip-path:url(#SVGID_65_);enable-background:new    ;}
	.st77{clip-path:url(#SVGID_67_);enable-background:new    ;}
	.st78{clip-path:url(#SVGID_69_);enable-background:new    ;}
	.st79{clip-path:url(#SVGID_71_);enable-background:new    ;}
	.st80{clip-path:url(#SVGID_73_);enable-background:new    ;}
	.st81{clip-path:url(#SVGID_75_);enable-background:new    ;}
	.st82{clip-path:url(#SVGID_77_);enable-background:new    ;}
	.st83{clip-path:url(#SVGID_79_);enable-background:new    ;}
	.st84{clip-path:url(#SVGID_81_);enable-background:new    ;}
	.st85{clip-path:url(#SVGID_83_);enable-background:new    ;}
	.st86{clip-path:url(#SVGID_85_);enable-background:new    ;}
	.st87{clip-path:url(#SVGID_87_);enable-background:new    ;}
	.st88{clip-path:url(#SVGID_89_);enable-background:new    ;}
	.st89{clip-path:url(#SVGID_91_);enable-background:new    ;}
	.st90{clip-path:url(#SVGID_93_);enable-background:new    ;}
	.st91{clip-path:url(#SVGID_95_);enable-background:new    ;}
	.st92{clip-path:url(#SVGID_97_);enable-background:new    ;}
	.st93{clip-path:url(#SVGID_99_);enable-background:new    ;}
	.st94{clip-path:url(#SVGID_101_);enable-background:new    ;}
	.st95{clip-path:url(#SVGID_103_);enable-background:new    ;}
	.st96{clip-path:url(#SVGID_105_);enable-background:new    ;}
	.st97{clip-path:url(#SVGID_107_);enable-background:new    ;}
	.st98{clip-path:url(#SVGID_109_);enable-background:new    ;}
	.st99{clip-path:url(#SVGID_111_);enable-background:new    ;}
	.st100{clip-path:url(#SVGID_113_);enable-background:new    ;}
	.st101{clip-path:url(#SVGID_115_);enable-background:new    ;}
	.st102{clip-path:url(#SVGID_117_);enable-background:new    ;}
	.st103{clip-path:url(#SVGID_119_);enable-background:new    ;}
	.st104{clip-path:url(#SVGID_121_);enable-background:new    ;}
	.st105{clip-path:url(#SVGID_123_);enable-background:new    ;}
	.st106{clip-path:url(#SVGID_125_);enable-background:new    ;}
	.st107{fill:#FBC585;}
	.st108{fill:#FBC788;}
	.st109{fill:#FBC88C;}
	.st110{clip-path:url(#SVGID_127_);enable-background:new    ;}
	.st111{fill:#E68C1F;}
</style>
<circle class="st0" cx="114.7" cy="114.7" r="114.7"/>
<title>pse</title>
<g id="XMLID_1_">
	<g>
		<path class="st1" d="M193.5,162.4L183,191.3c-1.9,5.1-3.6,9.6-6.6,12.9c-3.4,3.7-9.4,4.5-15.1,2.3l1.5-5.4c3,0.7,6.5,2.9,10.3-2.4
			c0.5-0.7,3-5,2.7-6.1l-10.9-24.9h-13.6v14.5c0,2.4-0.1,4.8,1.9,5.4c2.2,0.7,4.1-0.6,5.7-1.2l2.2,4.5c-4.9,3.1-13.3,3.7-15.7-1.6
			c-0.4-1.1-0.7-2.2-0.7-3.4l-0.1-18l-5.4-0.2v-5.4l5.4-0.1v-6.7c2.2-0.9,4.4-1.6,6.7-2.1v8.9c4.2,0,8.4,0,12.5,0
			c4.4,0.1,6.4,1.5,7.9,4.8c1,2.4,6.7,16.7,7.5,17.5l7.4-22.2L193.5,162.4L193.5,162.4z"/>
		<path class="st1" d="M136.7,163.6v5.7c-0.8-0.3-1.5-0.8-2.5-1.3c-2.9-1.2-6.1-1.2-9-0.1c-6.8,3.1-7.3,15.6-0.6,18.8
			c4.3,2.2,7.8,0.5,11.3-1c0.8,1.4,1.4,3,1.9,4.5c-5.2,4.7-24.5,5.7-24.9-12.1l0,0c-0.2-7.6,4.2-14.5,11.8-16.2
			C129.9,161,132.8,162,136.7,163.6z"/>
		<path class="st1" d="M109.6,179.2H90.3c-0.1,3.6,2.1,6.9,5.6,8.2c4.9,1.7,8.3-0.6,11-1.5l1.9,4.7c-1.8,0.6-2.9,1.5-5.2,2.1
			c-10.7,2.5-19.3-2.8-20.1-13.9h-0.1c-0.5-8.8,3.4-17.2,13.4-17C107,161.8,109.6,170.4,109.6,179.2z M90.2,174.4h12.5
			c0-4-2.1-7.5-6.1-7.5C92.4,166.9,90.5,170.3,90.2,174.4z"/>
		<path class="st1" d="M83.8,148.7l-1.2,5.3c-7.6-1.7-7.6-0.3-7.6,8.4h8.3l-2.1,5.3H75v24.8c-2.2,0.2-4.4,0.2-6.6-0.1v-24.6
			l-3.3-0.1l-2.1-5.2h5.4l0.1-6.7c-0.1-2.4,2.1-6,5-7.4C76.2,147.1,81.3,147.1,83.8,148.7z"/>
		<path class="st1" d="M62,179.2H42.7c0.2,6.8,5.5,9.5,11.5,8.5c2.2-0.4,3.4-1.3,5.1-1.8l1.9,4.4l0,0c-2.1,1.9-6.5,2.9-10.1,2.9
			c-18.4,0.2-18.9-23.7-8.5-30c3.3-1.8,7.1-2.1,10.6-1C60.9,164.6,62,172.4,62,179.2z M42.7,174.3l12.6,0.1
			c-0.2-4.2-2.2-7.6-6.3-7.5C44.7,167,43.2,170.3,42.7,174.3z"/>
		<g>
			<g id="XMLID_2_">
				<g>
					<path class="st2" d="M131.1,21.8c34.4,0,56.9,27.6,50.4,61.8s-39.7,61.8-74,61.8s-57-27.6-50.5-61.8S96.7,21.8,131.1,21.8z"/>
				</g>
				<g>
				</g>
			</g>
			<linearGradient id="SVGID_1_" gradientUnits="userSpaceOnUse" x1="113.0346" y1="72.455" x2="89.9568" y2="36.8726">
				<stop  offset="0" style="stop-color:#FCCC80;stop-opacity:0"/>
				<stop  offset="7.029174e-02" style="stop-color:#FCCA79;stop-opacity:0.1682"/>
				<stop  offset="0.2373" style="stop-color:#FBC66E;stop-opacity:0.5677"/>
				<stop  offset="0.4179" style="stop-color:#FBC56A"/>
				<stop  offset="1" style="stop-color:#F7AE24"/>
			</linearGradient>
			<path class="st3" d="M57.4,108C43.9,44.7,127.6-3.4,168,35.8L57.4,108z"/>
			<g>
				<g>
					<g class="st4">
						<g class="st4">
							<defs>
								<path id="SVGID_2_" class="st4" d="M173.5,76.3l-1-0.1c1.6-18.2-5.6-35.4-43.8-52.8l18.6,7.4
									C167.8,40,175.1,57.7,173.5,76.3z"/>
							</defs>
							<clipPath id="SVGID_3_">
								<use xlink:href="#SVGID_2_"  style="overflow:visible;"/>
							</clipPath>
							<g class="st5">
								<path class="st6" d="M173.5,76.3l-1-0.1c0.2-1.9,0.2-3.7,0.2-5.6l1.1,0C173.8,72.5,173.7,74.4,173.5,76.3"/>
								<path class="st7" d="M173.7,70.6l-1.1,0c0-1.3-0.1-2.6-0.3-3.8l1.1-0.1C173.7,68,173.7,69.3,173.7,70.6"/>
								<path class="st8" d="M173.5,66.7l-1.1,0.1c-0.1-0.7-0.2-1.4-0.3-2.1l1.2-0.1C173.4,65.3,173.5,66,173.5,66.7"/>
								<path class="st9" d="M173.3,64.6l-1.2,0.1c-0.1-0.6-0.2-1.1-0.3-1.7l1.3-0.1C173.1,63.5,173.2,64,173.3,64.6"/>
								<path class="st10" d="M173.1,62.9l-1.3,0.1c-0.1-0.5-0.2-0.9-0.3-1.4l1.4-0.1C172.9,62,173,62.5,173.1,62.9"/>
								<path class="st11" d="M172.8,61.6l-1.4,0.1c-0.1-0.4-0.2-0.9-0.4-1.3l1.5-0.1C172.6,60.7,172.7,61.1,172.8,61.6"/>
								<path class="st12" d="M172.5,60.3l-1.5,0.1c-0.1-0.4-0.3-0.8-0.4-1.2l1.6,0C172.3,59.5,172.4,59.9,172.5,60.3"/>
								<path class="st13" d="M172.2,59.1l-1.6,0c-0.1-0.4-0.3-0.8-0.4-1.2l1.7,0C172,58.4,172.1,58.7,172.2,59.1"/>
								<path class="st14" d="M171.9,58l-1.7,0c-0.2-0.4-0.3-0.8-0.5-1.2l1.8,0C171.7,57.3,171.8,57.6,171.9,58"/>
								<path class="st15" d="M171.6,56.9l-1.8,0c-0.2-0.4-0.3-0.8-0.5-1.2l2,0.1C171.4,56.1,171.5,56.5,171.6,56.9"/>
								<path class="st16" d="M171.2,55.8l-2-0.1c-0.2-0.4-0.4-0.8-0.6-1.2l2.2,0.2C170.9,55,171.1,55.4,171.2,55.8"/>
								<path class="st17" d="M170.8,54.6l-2.2-0.2c-0.2-0.4-0.5-0.9-0.7-1.3l2.4,0.2C170.5,53.8,170.6,54.2,170.8,54.6"/>
								<path class="st18" d="M170.3,53.4l-2.4-0.2c-0.3-0.4-0.5-0.9-0.8-1.3l2.7,0.3C170,52.6,170.1,53,170.3,53.4"/>
								<path class="st19" d="M169.8,52.2l-2.7-0.3c-0.3-0.5-0.7-1-1-1.6l3,0.5C169.3,51.2,169.6,51.7,169.8,52.2"/>
								<path class="st20" d="M169.1,50.7l-3-0.5c-0.4-0.6-0.8-1.2-1.3-1.7l3.4,0.6C168.5,49.7,168.8,50.2,169.1,50.7"/>
								<path class="st21" d="M168.3,49.2l-3.4-0.6c-0.5-0.7-1.1-1.3-1.6-2l4,0.9C167.6,48,167.9,48.6,168.3,49.2"/>
								<path class="st22" d="M167.2,47.4l-4-0.9c-0.7-0.9-1.5-1.7-2.4-2.5l4.9,1.2C166.2,45.9,166.7,46.7,167.2,47.4"/>
								<path class="st23" d="M165.7,45.2l-4.9-1.2c-1.4-1.4-3-2.9-4.7-4.3l6.7,2C163.9,42.8,164.8,44,165.7,45.2"/>
								<path class="st24" d="M162.8,41.7l-6.7-2c-2.6-2.2-5.7-4.4-9.1-6.6l10.4,3.7C159.4,38.3,161.2,40,162.8,41.7"/>
								<path class="st23" d="M157.5,36.8L147,33.1c-1.5-0.9-3-1.9-4.7-2.8l12.4,4.6C155.7,35.5,156.6,36.1,157.5,36.8"/>
								<path class="st22" d="M154.8,34.9l-12.4-4.6c-1-0.6-2-1.1-3-1.7l13.8,5.2C153.7,34.2,154.2,34.5,154.8,34.9"/>
								<path class="st21" d="M153.1,33.8l-13.8-5.2c-0.4-0.2-0.9-0.5-1.3-0.7l14.4,5.4C152.6,33.5,152.9,33.7,153.1,33.8"/>
								<path class="st20" d="M152.4,33.4L138,27.9c-0.4-0.2-0.9-0.5-1.3-0.7l15,5.7C151.9,33.1,152.1,33.2,152.4,33.4"/>
								<path class="st19" d="M151.6,33l-15-5.7c-0.4-0.2-0.9-0.5-1.4-0.7l15.6,6C151.1,32.7,151.4,32.8,151.6,33"/>
								<path class="st18" d="M150.9,32.5l-15.6-6c-0.4-0.2-0.8-0.4-1.2-0.6l16.1,6.2C150.5,32.3,150.7,32.4,150.9,32.5"/>
								<path class="st17" d="M150.2,32.2L134.1,26c-0.2-0.1-0.3-0.2-0.5-0.2L150,32C150,32.1,150.1,32.1,150.2,32.2"/>
								<path class="st16" d="M150,32l-16.3-6.3c-0.2-0.1-0.3-0.2-0.5-0.2l16.6,6.4C149.8,32,149.9,32,150,32"/>
								<path class="st15" d="M149.7,31.9l-16.6-6.4c-0.2-0.1-0.3-0.2-0.5-0.2l16.8,6.5C149.5,31.8,149.6,31.9,149.7,31.9"/>
								<path class="st14" d="M149.4,31.8l-16.8-6.5c-0.2-0.1-0.3-0.2-0.5-0.2l17,6.6C149.2,31.7,149.3,31.7,149.4,31.8"/>
								<path class="st13" d="M149.1,31.6l-17-6.6c-0.2-0.1-0.3-0.2-0.5-0.2l17.3,6.8C148.9,31.5,149,31.6,149.1,31.6"/>
								<path class="st12" d="M148.8,31.5l-17.3-6.8c-0.2-0.1-0.4-0.2-0.5-0.2l17.5,6.9C148.6,31.4,148.7,31.4,148.8,31.5"/>
								<path class="st11" d="M148.5,31.3L131,24.5c-0.2-0.1-0.4-0.2-0.5-0.2l17.8,7C148.4,31.3,148.4,31.3,148.5,31.3"/>
								<path class="st10" d="M148.3,31.2l-17.8-7c-0.2-0.1-0.4-0.2-0.5-0.2l18,7.1C148.1,31.1,148.2,31.2,148.3,31.2"/>
								<path class="st9" d="M148,31.1l-18-7.1c-0.2-0.1-0.4-0.2-0.5-0.2l18.3,7.2C147.8,31,147.9,31,148,31.1"/>
								<path class="st8" d="M147.7,30.9l-18.3-7.2c-0.2-0.1-0.4-0.2-0.5-0.2l18.5,7.3C147.5,30.8,147.6,30.9,147.7,30.9"/>
								<path class="st7" d="M147.4,30.8l-18.5-7.3c0,0-0.1,0-0.1-0.1L147.4,30.8C147.3,30.8,147.4,30.8,147.4,30.8"/>
							</g>
						</g>
						<g class="st4">
							<defs>
								<path id="SVGID_4_" class="st4" d="M138.5,27.5c1.3,0.6,4.8,2,11,4.6c10.9,4.5,19.4,12.7,24,23.1c0,0-0.3-0.7-0.8-1.6
									c-0.3-0.5-0.6-1.1-1-1.6C165.5,42.6,154.7,34.4,138.5,27.5z"/>
							</defs>
							<clipPath id="SVGID_5_">
								<use xlink:href="#SVGID_4_"  style="overflow:visible;"/>
							</clipPath>
							<g class="st25">
								<path class="st26" d="M133.2,25.4l16.3,6.7c0.3,0.1,0.5,0.2,0.8,0.3L134.7,26C134.2,25.8,133.7,25.6,133.2,25.4"/>
								<path class="st27" d="M134.7,26l15.6,6.5c0,0,0.1,0,0.1,0.1l-15.5-6.5C134.8,26,134.7,26,134.7,26"/>
								<path class="st28" d="M134.9,26.1l15.5,6.5c0,0,0.1,0,0.1,0.1l-15.4-6.4C135.1,26.1,135,26.1,134.9,26.1"/>
								<path class="st29" d="M135.2,26.2l15.4,6.4c0,0,0.1,0,0.1,0.1l-15.3-6.4C135.3,26.2,135.2,26.2,135.2,26.2"/>
								<path class="st30" d="M135.4,26.3l15.3,6.4c0,0,0.1,0,0.1,0.1l-15.2-6.3C135.6,26.3,135.5,26.3,135.4,26.3"/>
								<path class="st31" d="M135.6,26.3l15.2,6.3c0,0,0.1,0,0.1,0.1l-15.1-6.3C135.8,26.4,135.7,26.4,135.6,26.3"/>
								<path class="st32" d="M135.9,26.4l15.1,6.3c0,0,0.1,0,0.1,0.1l-14.9-6.3C136.1,26.5,136,26.5,135.9,26.4"/>
								<path class="st33" d="M136.1,26.5l14.9,6.3c0,0,0.1,0,0.1,0.1l-14.8-6.2C136.3,26.6,136.2,26.6,136.1,26.5"/>
								<path class="st34" d="M136.4,26.6l14.8,6.2c0,0,0.1,0,0.1,0.1l-14.7-6.2C136.5,26.7,136.5,26.7,136.4,26.6"/>
								<path class="st35" d="M136.6,26.7l14.7,6.2c0,0,0.1,0,0.1,0.1l-14.6-6.1C136.8,26.8,136.7,26.8,136.6,26.7"/>
								<path class="st36" d="M136.9,26.8l14.6,6.1c0,0,0.1,0,0.1,0.1l-14.5-6.1C137,26.9,136.9,26.9,136.9,26.8"/>
								<path class="st37" d="M137.1,26.9l14.5,6.1c0,0,0.1,0,0.1,0.1L137.3,27C137.3,27,137.2,27,137.1,26.9"/>
								<path class="st38" d="M137.3,27l14.4,6.1c0,0,0.1,0,0.1,0.1l-14.3-6C137.5,27.1,137.4,27.1,137.3,27"/>
								<path class="st39" d="M137.6,27.1l14.3,6c0,0,0.1,0,0.1,0.1l-14.2-6C137.8,27.2,137.7,27.2,137.6,27.1"/>
								<path class="st40" d="M137.8,27.2l14.2,6c0,0,0.1,0,0.1,0.1l-14.1-6C138,27.3,137.9,27.3,137.8,27.2"/>
								<path class="st41" d="M138.1,27.3l14.1,6c0,0,0.1,0,0.1,0.1l-14-5.9C138.2,27.4,138.1,27.4,138.1,27.3"/>
								<path class="st42" d="M138.3,27.4l14,5.9c0,0,0.1,0,0.1,0.1l-13.9-5.9C138.5,27.5,138.4,27.5,138.3,27.4"/>
								<path class="st43" d="M138.5,27.5l13.9,5.9c0,0,0.1,0,0.1,0.1l-13.7-5.8C138.7,27.6,138.6,27.6,138.5,27.5"/>
								<path class="st44" d="M138.8,27.6l13.7,5.8c0,0,0.1,0,0.1,0.1L139,27.7C138.9,27.7,138.9,27.7,138.8,27.6"/>
								<path class="st6" d="M139,27.7l13.6,5.8c0,0,0.1,0,0.1,0.1l-13.5-5.8C139.2,27.8,139.1,27.8,139,27.7"/>
								<path class="st7" d="M139.3,27.8l13.5,5.8c0,0,0.1,0,0.1,0.1l-13.4-5.7C139.4,27.9,139.3,27.9,139.3,27.8"/>
								<path class="st8" d="M139.5,27.9l13.4,5.7c0,0,0.1,0,0.1,0.1L139.7,28C139.6,28,139.6,28,139.5,27.9"/>
								<path class="st9" d="M139.7,28l13.3,5.7c0.1,0,0.1,0.1,0.2,0.1l-13.2-5.6C140,28.2,139.9,28.1,139.7,28"/>
								<path class="st10" d="M140.1,28.2l13.2,5.6c0.1,0.1,0.3,0.1,0.4,0.2l-12.8-5.5C140.6,28.4,140.3,28.3,140.1,28.2"/>
								<path class="st11" d="M140.8,28.5l12.8,5.5c0.1,0.1,0.3,0.1,0.4,0.2l-12.5-5.4C141.3,28.7,141,28.6,140.8,28.5"/>
								<path class="st12" d="M141.5,28.8l12.5,5.4c0.1,0.1,0.3,0.1,0.4,0.2l-12.2-5.3C141.9,29,141.7,28.9,141.5,28.8"/>
								<path class="st13" d="M142.1,29.1l12.2,5.3c0.1,0.1,0.2,0.1,0.4,0.2l-12-5.2C142.6,29.3,142.4,29.2,142.1,29.1"/>
								<path class="st14" d="M142.8,29.4l12,5.2c0.1,0.1,0.2,0.1,0.4,0.2l-11.7-5.1C143.3,29.7,143,29.6,142.8,29.4"/>
								<path class="st15" d="M143.5,29.8l11.7,5.1c0.1,0.1,0.2,0.1,0.4,0.2l-11.4-5C143.9,30,143.7,29.9,143.5,29.8"/>
								<path class="st16" d="M144.1,30.1l11.4,5c0.1,0.1,0.2,0.1,0.4,0.2l-11.1-4.9C144.6,30.3,144.3,30.2,144.1,30.1"/>
								<path class="st17" d="M144.8,30.4l11.1,4.9c0.2,0.1,0.4,0.2,0.6,0.3l-10.7-4.8C145.4,30.7,145.1,30.5,144.8,30.4"/>
								<path class="st18" d="M145.8,30.9l10.7,4.8c0.2,0.1,0.4,0.3,0.6,0.4l-10.2-4.6C146.5,31.2,146.1,31.1,145.8,30.9"/>
								<path class="st19" d="M146.8,31.4l10.2,4.6c0.2,0.1,0.4,0.3,0.6,0.4l-9.8-4.5C147.6,31.8,147.2,31.6,146.8,31.4"/>
								<path class="st20" d="M147.9,32l9.8,4.5c0.2,0.1,0.4,0.3,0.6,0.4l-9.3-4.3C148.6,32.4,148.3,32.2,147.9,32"/>
								<path class="st21" d="M149,32.6l9.3,4.3c0.3,0.2,0.6,0.4,0.9,0.7l-8.7-4.1C150,33.1,149.5,32.8,149,32.6"/>
								<path class="st22" d="M150.5,33.4l8.7,4.1c0.5,0.4,1,0.7,1.4,1.1l-7.7-3.8C152.2,34.4,151.4,33.9,150.5,33.4"/>
								<path class="st23" d="M153,34.9l7.7,3.8c1.4,1.1,2.8,2.4,4.1,3.7l-5.1-2.9C157.6,37.9,155.4,36.3,153,34.9"/>
								<path class="st22" d="M159.7,39.5l5.1,2.9c0.5,0.5,0.9,1,1.4,1.4l-4.3-2.6C161.1,40.6,160.4,40,159.7,39.5"/>
								<path class="st21" d="M161.8,41.2l4.3,2.6c0.2,0.3,0.5,0.5,0.7,0.8l-3.9-2.5C162.6,41.8,162.2,41.5,161.8,41.2"/>
								<path class="st20" d="M162.9,42.1l3.9,2.5c0.2,0.3,0.4,0.5,0.7,0.8L164,43C163.6,42.7,163.3,42.4,162.9,42.1"/>
								<path class="st19" d="M164,43l3.5,2.3c0.2,0.2,0.4,0.5,0.6,0.7l-3.2-2.2C164.5,43.6,164.2,43.3,164,43"/>
								<path class="st18" d="M164.8,43.8l3.2,2.2c0.1,0.2,0.3,0.3,0.4,0.5l-3-2.2C165.2,44.2,165,44,164.8,43.8"/>
								<path class="st17" d="M165.4,44.4l3,2.2c0.1,0.2,0.3,0.3,0.4,0.5L166,45C165.8,44.8,165.6,44.6,165.4,44.4"/>
								<path class="st16" d="M166,45l2.8,2.1c0.1,0.2,0.3,0.3,0.4,0.5l-2.6-2C166.4,45.4,166.2,45.2,166,45"/>
								<path class="st15" d="M166.6,45.6l2.6,2c0.1,0.2,0.2,0.3,0.4,0.5l-2.4-1.9C166.9,46,166.7,45.8,166.6,45.6"/>
								<path class="st14" d="M167.1,46.2l2.4,1.9c0.1,0.2,0.2,0.3,0.4,0.5l-2.2-1.9C167.5,46.6,167.3,46.4,167.1,46.2"/>
								<path class="st13" d="M167.6,46.7l2.2,1.9c0.1,0.2,0.2,0.3,0.3,0.5l-2.1-1.8C168,47.1,167.8,46.9,167.6,46.7"/>
								<path class="st12" d="M168.1,47.3l2.1,1.8c0.1,0.2,0.2,0.3,0.3,0.5l-1.9-1.8C168.5,47.7,168.3,47.5,168.1,47.3"/>
								<path class="st11" d="M168.6,47.9l1.9,1.8c0.1,0.2,0.2,0.3,0.3,0.5l-1.8-1.7C168.9,48.3,168.8,48.1,168.6,47.9"/>
								<path class="st10" d="M169.1,48.5l1.8,1.7c0.1,0.2,0.2,0.3,0.3,0.5l-1.6-1.6C169.4,48.8,169.3,48.6,169.1,48.5"/>
								<path class="st9" d="M169.6,49l1.6,1.6c0.1,0.2,0.2,0.3,0.3,0.5l-1.5-1.6C169.8,49.4,169.7,49.2,169.6,49"/>
								<path class="st8" d="M170,49.5l1.5,1.6c0,0.1,0.1,0.1,0.1,0.2l-1.4-1.6C170.1,49.7,170,49.6,170,49.5"/>
								<path class="st7" d="M170.1,49.8l1.4,1.6c0,0.1,0.1,0.1,0.1,0.2l-1.4-1.6C170.3,49.9,170.2,49.9,170.1,49.8"/>
								<path class="st6" d="M170.3,50l1.4,1.6c0,0.1,0.1,0.1,0.1,0.2l-1.3-1.5C170.4,50.2,170.4,50.1,170.3,50"/>
								<path class="st44" d="M170.5,50.3l1.3,1.5c0,0.1,0.1,0.1,0.1,0.2l-1.2-1.5C170.6,50.4,170.6,50.3,170.5,50.3"/>
								<path class="st43" d="M170.7,50.5l1.2,1.5c0,0.1,0.1,0.1,0.1,0.2l-1.2-1.5C170.8,50.7,170.7,50.6,170.7,50.5"/>
								<path class="st42" d="M170.9,50.7l1.2,1.5c0,0.1,0.1,0.1,0.1,0.2L171,51C171,50.9,170.9,50.8,170.9,50.7"/>
								<path class="st41" d="M171,51l1.1,1.5c0,0.1,0.1,0.1,0.1,0.2l-1.1-1.5C171.1,51.1,171.1,51.1,171,51"/>
								<path class="st40" d="M171.2,51.2l1.1,1.5c0,0.1,0.1,0.1,0.1,0.2l-1-1.4C171.3,51.4,171.2,51.3,171.2,51.2"/>
								<path class="st39" d="M171.4,51.5l1,1.4c0,0.1,0.1,0.1,0.1,0.2l-1-1.4C171.5,51.6,171.4,51.6,171.4,51.5"/>
								<path class="st38" d="M171.5,51.7l1,1.4c0,0.1,0.1,0.1,0.1,0.2l-0.9-1.4C171.6,51.9,171.6,51.8,171.5,51.7"/>
								<path class="st37" d="M171.7,52l0.9,1.4c0,0.1,0.1,0.1,0.1,0.2l-0.9-1.4C171.8,52.1,171.7,52,171.7,52"/>
								<path class="st36" d="M171.9,52.2l0.9,1.4c0,0.1,0.1,0.1,0.1,0.2l-0.8-1.4C172,52.4,171.9,52.3,171.9,52.2"/>
								<path class="st35" d="M172,52.4l0.8,1.4c0,0.1,0.1,0.2,0.1,0.3l-0.8-1.3C172.1,52.6,172.1,52.5,172,52.4"/>
								<path class="st34" d="M172.2,52.7l0.8,1.3c0,0.1,0.1,0.2,0.1,0.3l-0.7-1.3C172.3,52.9,172.3,52.8,172.2,52.7"/>
								<path class="st33" d="M172.4,53.1l0.7,1.3c0,0.1,0.1,0.2,0.1,0.3l-0.7-1.3C172.5,53.3,172.5,53.2,172.4,53.1"/>
								<path class="st32" d="M172.6,53.4l0.7,1.3c0,0.1,0.1,0.2,0.1,0.3l-0.6-1.3C172.7,53.6,172.7,53.5,172.6,53.4"/>
								<path class="st31" d="M172.8,53.7l0.6,1.3c0,0.1,0.1,0.2,0.1,0.3L173,54C172.9,53.9,172.9,53.8,172.8,53.7"/>
							</g>
						</g>
						<g class="st4">
							<defs>
								<path id="SVGID_6_" class="st4" d="M136.9,26.5c4.7,1.9,9.3,3.8,12.4,5c-0.7-0.3-1.3-0.5-2-0.8l-18.6-7.4
									C131.6,24.4,134.3,25.4,136.9,26.5z"/>
							</defs>
							<clipPath id="SVGID_7_">
								<use xlink:href="#SVGID_6_"  style="overflow:visible;"/>
							</clipPath>
							<g class="st45">
								<path class="st15" d="M147.3,30.8l-18.6-7.4c0.1,0,0.1,0,0.2,0.1L147.3,30.8C147.4,30.8,147.3,30.8,147.3,30.8"/>
								<path class="st14" d="M147.4,30.8l-18.5-7.3c0.1,0,0.2,0.1,0.3,0.1l18.4,7.3C147.5,30.8,147.4,30.8,147.4,30.8"/>
								<path class="st13" d="M147.5,30.8l-18.4-7.3c0.1,0,0.2,0.1,0.3,0.1l18.3,7.2C147.6,30.9,147.6,30.9,147.5,30.8"/>
								<path class="st12" d="M147.7,30.9l-18.3-7.2c0.1,0,0.2,0.1,0.3,0.1l18.1,7.2C147.8,30.9,147.7,30.9,147.7,30.9"/>
								<path class="st11" d="M147.8,30.9l-18.1-7.2c0.1,0,0.2,0.1,0.3,0.1l18,7.2C147.9,31,147.9,31,147.8,30.9"/>
								<path class="st10" d="M147.9,31l-18-7.2c0.1,0,0.2,0.1,0.3,0.1l17.9,7.1C148,31,148,31,147.9,31"/>
								<path class="st9" d="M148.1,31l-17.9-7.1c0.1,0,0.2,0.1,0.3,0.1l17.8,7.1C148.2,31.1,148.1,31.1,148.1,31"/>
								<path class="st8" d="M148.2,31.1L130.5,24c0.1,0,0.2,0.1,0.3,0.1l17.6,7C148.3,31.1,148.3,31.1,148.2,31.1"/>
								<path class="st7" d="M148.4,31.2l-17.6-7c0.1,0,0.2,0.1,0.3,0.1l17.5,7C148.5,31.2,148.4,31.2,148.4,31.2"/>
								<path class="st6" d="M148.5,31.2l-17.5-7c0.1,0,0.2,0.1,0.3,0.1l17.4,6.9C148.6,31.2,148.5,31.2,148.5,31.2"/>
								<path class="st44" d="M148.6,31.3l-17.4-6.9c0.1,0,0.2,0.1,0.3,0.1l17.3,6.9C148.7,31.3,148.7,31.3,148.6,31.3"/>
								<path class="st43" d="M148.8,31.3l-17.3-6.9c0.1,0,0.2,0.1,0.3,0.1l17.1,6.9C148.9,31.3,148.8,31.3,148.8,31.3"/>
								<path class="st42" d="M148.9,31.4l-17.1-6.9c0.1,0,0.2,0.1,0.3,0.1l17,6.8C149,31.4,149,31.4,148.9,31.4"/>
								<path class="st41" d="M149.1,31.4l-17-6.8c0.1,0,0.2,0.1,0.3,0.1l16.9,6.8C149.1,31.5,149.1,31.4,149.1,31.4"/>
								<path class="st40" d="M149.2,31.5l-16.9-6.8c0.1,0,0.2,0.1,0.3,0.1l16.8,6.7C149.3,31.5,149.2,31.5,149.2,31.5"/>
								<path class="st39" d="M149.3,31.5l-16.8-6.7c0.1,0,0.2,0.1,0.3,0.1l16.7,6.7C149.4,31.6,149.4,31.5,149.3,31.5"/>
								<path class="st38" d="M149.5,31.6l-16.7-6.7c0.1,0,0.2,0.1,0.3,0.1l16.5,6.6C149.6,31.6,149.5,31.6,149.5,31.6"/>
								<path class="st37" d="M149.6,31.6L133.1,25c0.1,0,0.2,0.1,0.3,0.1l16.4,6.6C149.7,31.7,149.6,31.7,149.6,31.6"/>
								<path class="st36" d="M149.7,31.7l-16.4-6.6c0.1,0,0.2,0.1,0.3,0.1l16.3,6.6C149.8,31.7,149.8,31.7,149.7,31.7"/>
								<path class="st35" d="M149.9,31.7l-16.3-6.6c0.1,0,0.2,0.1,0.3,0.1l16.2,6.5C150,31.8,149.9,31.8,149.9,31.7"/>
								<path class="st34" d="M150,31.8l-16.2-6.5c0.1,0,0.2,0.1,0.3,0.1l16.1,6.5C150.1,31.8,150.1,31.8,150,31.8"/>
								<path class="st33" d="M150.1,31.9l-16.1-6.5c0.1,0,0.2,0.1,0.3,0.1l16,6.4C150.2,31.9,150.2,31.9,150.1,31.9"/>
								<path class="st32" d="M150.3,31.9l-16-6.4c0.1,0,0.2,0.1,0.3,0.1l15.8,6.4C150.4,32,150.3,31.9,150.3,31.9"/>
								<path class="st31" d="M150.4,32l-15.8-6.4c0.3,0.1,0.6,0.2,0.9,0.4l15.4,6.3C150.7,32.1,150.6,32,150.4,32"/>
								<path class="st30" d="M150.9,32.2l-15.4-6.3c0.3,0.1,0.6,0.3,0.9,0.4l15,6.1C151.2,32.3,151.1,32.3,150.9,32.2"/>
								<path class="st29" d="M151.4,32.4l-15-6.1c0.2,0.1,0.3,0.1,0.5,0.2l14.8,6C151.6,32.5,151.5,32.5,151.4,32.4"/>
							</g>
						</g>
						<g class="st4">
							<defs>
								<path id="SVGID_8_" class="st4" d="M125.9,28.1l0.2-0.9c1.7,1,1.9,1.2,2.7,3l-0.9,0.3C127.2,28.8,127.1,28.7,125.9,28.1z"/>
							</defs>
							<clipPath id="SVGID_9_">
								<use xlink:href="#SVGID_8_"  style="overflow:visible;"/>
							</clipPath>
							<g class="st46">
								<path class="st18" d="M125.9,28.1l0.2-0.9c0.6,0.3,0.9,0.5,1.2,0.8l-0.6,0.7C126.6,28.4,126.3,28.3,125.9,28.1"/>
								<path class="st19" d="M126.8,28.6l0.6-0.7c0.1,0.1,0.2,0.2,0.3,0.3l-0.6,0.6C127,28.7,126.9,28.7,126.8,28.6"/>
								<path class="st20" d="M127,28.8l0.6-0.6c0.1,0.1,0.2,0.2,0.2,0.3l-0.7,0.6C127.1,28.9,127.1,28.8,127,28.8"/>
								<path class="st21" d="M127.2,29l0.7-0.6c0.1,0.2,0.2,0.3,0.4,0.6l-0.8,0.5C127.4,29.3,127.3,29.1,127.2,29"/>
								<path class="st22" d="M127.5,29.5l0.8-0.5c0.2,0.3,0.3,0.7,0.5,1.1l-0.9,0.3C127.7,30,127.6,29.7,127.5,29.5"/>
							</g>
						</g>
						<g class="st4">
							<defs>
								<path id="SVGID_10_" class="st4" d="M127.4,41.5l1-0.7c5.2,1,11,2.8,16,6.9l-0.9,0.4C138.9,44.3,133.4,42.7,127.4,41.5z"/>
							</defs>
							<clipPath id="SVGID_11_">
								<use xlink:href="#SVGID_10_"  style="overflow:visible;"/>
							</clipPath>
							<g class="st47">
								<path class="st15" d="M127.4,41.5l1-0.7c0.3,0.1,0.7,0.1,1,0.2l-0.9,0.7C128.2,41.6,127.8,41.5,127.4,41.5"/>
								<path class="st16" d="M128.6,41.7l0.9-0.7c2.1,0.5,4.3,1.1,6.6,1.9l-0.5,0.8C133.3,42.8,131,42.2,128.6,41.7"/>
								<path class="st17" d="M135.5,43.6l0.5-0.8c2.1,0.8,4.2,1.8,6.2,3.2l-0.7,0.6C139.6,45.4,137.6,44.4,135.5,43.6"/>
								<path class="st18" d="M141.5,46.6l0.7-0.6c0.7,0.4,1.3,0.9,1.9,1.4l-0.9,0.4C142.7,47.4,142.1,47,141.5,46.6"/>
								<path class="st19" d="M143.2,47.9l0.9-0.4c0.1,0.1,0.2,0.2,0.3,0.2l-0.9,0.4C143.4,48,143.3,47.9,143.2,47.9"/>
							</g>
						</g>
						<g class="st4">
							<defs>
								<path id="SVGID_12_" class="st4" d="M127.9,30.4l0.9-0.3c-0.2,4-0.3,7.8-0.4,10.6l-1,0.7C127.6,37.7,127.7,34,127.9,30.4z"
									/>
							</defs>
							<clipPath id="SVGID_13_">
								<use xlink:href="#SVGID_12_"  style="overflow:visible;"/>
							</clipPath>
							<g class="st48">
								<path class="st21" d="M127.9,30.4l0.9-0.3c0,0.5,0,1-0.1,1.5l-0.9,0.1C127.8,31.3,127.9,30.9,127.9,30.4"/>
								<path class="st22" d="M127.8,31.8l0.9-0.1c-0.1,1.9-0.1,3.7-0.2,5.4l-1,0.1C127.7,35.3,127.7,33.5,127.8,31.8"/>
								<path class="st23" d="M127.6,37l1-0.1c-0.1,1.4-0.1,2.6-0.2,3.8l-1,0.7C127.5,40,127.5,38.5,127.6,37"/>
							</g>
						</g>
						<g class="st4">
							<defs>
								<path id="SVGID_14_" class="st4" d="M172.5,76.2l-0.2,0.3c1.6-18.2-5.6-35.4-43.8-52.8l0.2-0.3
									C167,40.8,174.1,58,172.5,76.2z"/>
							</defs>
							<clipPath id="SVGID_15_">
								<use xlink:href="#SVGID_14_"  style="overflow:visible;"/>
							</clipPath>
							<g class="st49">
								<path class="st26" d="M172.5,76.2l-0.2,0.3c1.6-18.2-5.6-35.4-43.8-52.8l0.2-0.3C167,40.8,174.1,58,172.5,76.2"/>
							</g>
						</g>
						<g class="st4">
							<defs>
								<path id="SVGID_16_" class="st4" d="M134.3,59.4c-0.2,0.1-0.4,0.1-0.7,0.2c0,0,0,0,0,0C133.5,59.6,134.3,59.4,134.3,59.4z"
									/>
							</defs>
							<clipPath id="SVGID_17_">
								<use xlink:href="#SVGID_16_"  style="overflow:visible;"/>
							</clipPath>
							<g class="st50">
								<polyline class="st38" points="133.5,59.6 134.3,59.4 134.3,59.4 133.5,59.6 133.5,59.6 								"/>
								<polyline class="st37" points="133.5,59.6 134.3,59.4 134.3,59.4 133.5,59.6 133.5,59.6 								"/>
								<polyline class="st36" points="133.5,59.6 134.3,59.4 134.3,59.4 133.5,59.6 133.5,59.6 								"/>
								<polyline class="st35" points="133.5,59.6 134.3,59.4 134.3,59.4 133.5,59.6 133.5,59.6 								"/>
								<polyline class="st34" points="133.5,59.6 134.3,59.4 134.3,59.4 133.5,59.6 133.5,59.6 								"/>
								<polyline class="st33" points="133.5,59.6 134.3,59.4 134.3,59.4 133.5,59.6 133.5,59.6 								"/>
								<polyline class="st32" points="133.5,59.6 134.3,59.4 134.3,59.4 133.5,59.6 133.5,59.6 								"/>
								<polyline class="st31" points="133.5,59.6 134.3,59.4 134.3,59.3 133.5,59.6 133.5,59.6 								"/>
								<polyline class="st30" points="133.5,59.6 134.3,59.3 134.3,59.3 133.5,59.6 133.5,59.6 								"/>
								<polyline class="st29" points="133.5,59.6 134.3,59.3 134.3,59.3 133.5,59.6 133.5,59.6 								"/>
								<polyline class="st28" points="133.5,59.6 134.3,59.3 134.3,59.3 133.5,59.6 133.5,59.6 								"/>
							</g>
						</g>
						<g>
							<polygon class="st51" points="111.2,41.7 111,42 111,39.7 111.1,39.5 							"/>
						</g>
						<g>
							<polygon class="st52" points="112.2,42.5 111.2,41.7 111.1,39.5 112.1,38.1 							"/>
						</g>
						<g class="st4">
							<defs>
								<path id="SVGID_18_" class="st4" d="M142.4,56.2l-0.2,0.3c-1.7,2.6-4.2,3.9-6.2,4c-0.8,0.1-1.1-0.1-2.5-0.8l0.2-0.3
									c1.4,0.7,1.7,0.9,2.5,0.8C138.2,60.1,140.7,58.8,142.4,56.2z"/>
							</defs>
							<clipPath id="SVGID_19_">
								<use xlink:href="#SVGID_18_"  style="overflow:visible;"/>
							</clipPath>
							<g class="st53">
								<path class="st26" d="M142.4,56.2l-0.2,0.3c-1.7,2.6-4.2,3.9-6.2,4c-0.8,0.1-1.1-0.1-2.5-0.8l0.2-0.3
									c1.4,0.7,1.7,0.9,2.5,0.8C138.2,60.1,140.7,58.8,142.4,56.2"/>
							</g>
						</g>
						<g class="st4">
							<defs>
								<path id="SVGID_20_" class="st4" d="M143.5,48.1l0.9-0.4c0.4,8.4-4.8,12.4-8.2,12.4c-0.8,0.1-1.1-0.1-2.5-0.8l1.4-0.5
									c0.3,0.2,0.7,0.3,1.2,0.3C139.1,59.1,143.9,55.5,143.5,48.1z"/>
							</defs>
							<clipPath id="SVGID_21_">
								<use xlink:href="#SVGID_20_"  style="overflow:visible;"/>
							</clipPath>
							<g class="st54">
								<path class="st22" d="M143.5,48.1l0.9-0.4c0.1,1,0,2-0.1,2.8l-0.9,0.1C143.5,49.8,143.5,49,143.5,48.1"/>
								<path class="st21" d="M143.4,50.6l0.9-0.1c-0.1,1.3-0.4,2.4-0.8,3.4l-0.9-0.3C143,52.7,143.3,51.7,143.4,50.6"/>
								<path class="st20" d="M142.7,53.6l0.9,0.3c-0.4,1-0.8,1.8-1.3,2.5l-0.7-0.6C141.9,55.2,142.3,54.5,142.7,53.6"/>
								<path class="st19" d="M141.5,55.9l0.7,0.6c-0.4,0.5-0.7,0.9-1.1,1.3l-0.6-0.8C140.8,56.7,141.1,56.3,141.5,55.9"/>
								<path class="st18" d="M140.4,57l0.6,0.8c-0.3,0.3-0.7,0.6-1,0.9l-0.5-0.9C139.8,57.6,140.1,57.3,140.4,57"/>
								<path class="st17" d="M139.5,57.8l0.5,0.9c-0.3,0.2-0.6,0.4-0.9,0.5l-0.4-0.9C139,58.2,139.3,58,139.5,57.8"/>
								<path class="st16" d="M138.8,58.3l0.4,0.9c-0.3,0.1-0.5,0.3-0.8,0.4l-0.3-1C138.3,58.5,138.6,58.4,138.8,58.3"/>
								<path class="st15" d="M138.1,58.6l0.3,1c-0.2,0.1-0.5,0.2-0.7,0.2l-0.2-1C137.7,58.8,137.9,58.7,138.1,58.6"/>
								<path class="st14" d="M137.5,58.9l0.2,1c-0.2,0.1-0.4,0.1-0.6,0.1l-0.1-1C137.1,59,137.3,58.9,137.5,58.9"/>
								<path class="st13" d="M137,59l0.1,1c-0.3,0.1-0.6,0.1-0.9,0.1c-0.1,0-0.2,0-0.3,0l0.1-1.1c0.1,0,0.1,0,0.2,0
									C136.5,59.1,136.7,59,137,59"/>
								<path class="st12" d="M136.1,59.1l-0.1,1.1c-0.1,0-0.3,0-0.4,0l0.3-1.1C135.9,59,136,59.1,136.1,59.1"/>
								<path class="st11" d="M135.8,59l-0.3,1.1c-0.1,0-0.2,0-0.3-0.1l0.4-1C135.7,59,135.8,59,135.8,59"/>
								<path class="st10" d="M135.7,59l-0.4,1c-0.1,0-0.2-0.1-0.3-0.1l0.5-1C135.5,59,135.6,59,135.7,59"/>
								<path class="st9" d="M135.5,59l-0.5,1c-0.2-0.1-0.3-0.1-0.5-0.2l0.8-0.8C135.3,58.9,135.4,59,135.5,59"/>
								<path class="st8" d="M135.3,58.9l-0.8,0.8c-0.2-0.1-0.5-0.2-0.8-0.4l1.4-0.5C135.1,58.8,135.2,58.9,135.3,58.9"/>
							</g>
						</g>
						<g class="st4">
							<defs>
								<path id="SVGID_22_" class="st4" d="M133.7,59.3l-0.2,0.3c0,0.1-8.7-2.6-10.7-3l0.2-0.3C125,56.7,133.7,59.4,133.7,59.3z"/>
							</defs>
							<clipPath id="SVGID_23_">
								<use xlink:href="#SVGID_22_"  style="overflow:visible;"/>
							</clipPath>
							<g class="st55">
								<path class="st26" d="M133.7,59.3l-0.2,0.3c0,0.1-8.7-2.6-10.7-3l0.2-0.3C125,56.7,133.7,59.4,133.7,59.3"/>
							</g>
						</g>
						<g class="st4">
							<defs>
								<path id="SVGID_24_" class="st4" d="M134.5,59c-0.2,0.1-0.4,0.2-0.8,0.3c-0.1,0-8.7-2.6-10.7-3l0.2-1
									c2.1,0.5,12,3.2,11.8,3.6C135.1,58.8,134.5,59,134.5,59z"/>
							</defs>
							<clipPath id="SVGID_25_">
								<use xlink:href="#SVGID_24_"  style="overflow:visible;"/>
							</clipPath>
							<g class="st56">
								<polyline class="st26" points="135.1,58.8 133.7,59.3 133.7,59.3 135.1,58.8 135.1,58.8 								"/>
								<polyline class="st27" points="135.1,58.8 133.7,59.3 133.7,59.3 135.1,58.8 135.1,58.8 								"/>
								<polyline class="st28" points="135.1,58.8 133.7,59.3 133.7,59.3 135.1,58.8 135.1,58.8 								"/>
								<polyline class="st29" points="135.1,58.8 133.7,59.3 133.7,59.3 135.1,58.8 135.1,58.8 								"/>
								<polyline class="st30" points="135.1,58.8 133.7,59.3 133.7,59.3 135.1,58.8 135.1,58.8 								"/>
								<polyline class="st31" points="135.1,58.8 133.7,59.3 133.7,59.3 135.1,58.8 135.1,58.8 								"/>
								<polyline class="st32" points="135.1,58.8 133.7,59.3 133.7,59.3 135.1,58.8 135.1,58.8 								"/>
								<polyline class="st33" points="135.1,58.8 133.7,59.3 133.7,59.3 135.1,58.8 135.1,58.8 								"/>
								<polyline class="st34" points="135.1,58.8 133.7,59.3 133.7,59.3 135.1,58.8 135.1,58.8 								"/>
								<polyline class="st35" points="135.1,58.8 133.7,59.3 133.7,59.3 135,58.8 135.1,58.8 								"/>
								<polyline class="st36" points="135,58.8 133.7,59.3 133.7,59.3 135,58.8 135,58.8 								"/>
								<polyline class="st37" points="135,58.8 133.7,59.3 133.7,59.3 135,58.8 135,58.8 								"/>
								<polyline class="st38" points="135,58.8 133.7,59.3 133.7,59.3 135,58.8 135,58.8 								"/>
								<polyline class="st39" points="135,58.8 133.7,59.3 133.7,59.3 135,58.8 135,58.8 								"/>
								<polyline class="st40" points="135,58.8 133.7,59.3 133.7,59.3 135,58.8 135,58.8 								"/>
								<polyline class="st41" points="135,58.8 133.7,59.3 133.7,59.3 135,58.8 135,58.8 								"/>
								<polyline class="st42" points="135,58.8 133.7,59.3 133.7,59.3 135,58.8 135,58.8 								"/>
								<polyline class="st43" points="135,58.8 133.7,59.3 133.7,59.3 135,58.8 135,58.8 								"/>
								<polyline class="st44" points="135,58.8 133.7,59.3 133.7,59.3 135,58.7 135,58.8 								"/>
								<polyline class="st6" points="135,58.7 133.7,59.3 133.7,59.3 135,58.7 135,58.7 								"/>
								<polyline class="st7" points="135,58.7 133.7,59.3 133.7,59.3 135,58.7 135,58.7 								"/>
								<polyline class="st8" points="135,58.7 133.7,59.3 133.7,59.3 135,58.7 135,58.7 								"/>
								<polyline class="st9" points="135,58.7 133.7,59.3 133.7,59.3 135,58.7 135,58.7 								"/>
								<path class="st10" d="M135,58.7l-1.3,0.6c0,0,0,0,0,0L135,58.7C135,58.7,135,58.7,135,58.7"/>
								<path class="st9" d="M135,58.7l-1.3,0.6c0,0-0.2,0-0.3-0.1l1.1-0.7C134.7,58.6,134.9,58.6,135,58.7"/>
								<path class="st10" d="M134.5,58.5l-1.1,0.7c-0.2-0.1-0.4-0.1-0.8-0.2l1-0.8C134,58.3,134.3,58.4,134.5,58.5"/>
								<path class="st11" d="M133.6,58.2l-1,0.8c-1.6-0.4-4.4-1.3-6.7-2l0.4-1C128.7,56.7,131.8,57.6,133.6,58.2"/>
								<path class="st10" d="M126.3,56l-0.4,1c-1.3-0.4-2.3-0.7-2.9-0.8l0.2-1C123.8,55.4,125,55.7,126.3,56"/>
							</g>
						</g>
						<g class="st4">
							<defs>
								<path id="SVGID_26_" class="st4" d="M123,56.3l-0.2,0.3c-0.6-0.1-1.2-0.1-1.9-0.1c-1.7,0-3.3,0.3-4.8,0.9l0.2-0.3
									c1.5-0.6,3.1-1,4.8-0.9C121.8,56.1,122.4,56.2,123,56.3z"/>
							</defs>
							<clipPath id="SVGID_27_">
								<use xlink:href="#SVGID_26_"  style="overflow:visible;"/>
							</clipPath>
							<g class="st57">
								<path class="st26" d="M123,56.3l-0.2,0.3c-0.6-0.1-1.2-0.1-1.9-0.1c-1.7,0-3.3,0.3-4.8,0.9l0.2-0.3c1.5-0.6,3.1-1,4.8-0.9
									C121.8,56.1,122.4,56.2,123,56.3"/>
							</g>
						</g>
						<g class="st4">
							<defs>
								<path id="SVGID_28_" class="st4" d="M123.3,55.2l-0.2,1c-0.6-0.1-1.2-0.1-1.9-0.1c-1.7,0-3.3,0.3-4.8,0.9l-0.4-1
									c1.6-0.7,3.4-1,5.2-1C121.8,55.1,122.6,55.1,123.3,55.2z"/>
							</defs>
							<clipPath id="SVGID_29_">
								<use xlink:href="#SVGID_28_"  style="overflow:visible;"/>
							</clipPath>
							<g class="st58">
								<path class="st11" d="M123.3,55.2l-0.2,1c-0.4-0.1-0.9-0.1-1.4-0.1l0.1-1C122.2,55.1,122.8,55.2,123.3,55.2"/>
								<path class="st12" d="M121.7,55.1l-0.1,1c-0.2,0-0.4,0-0.5,0c-0.3,0-0.6,0-0.8,0l0-1c0.3,0,0.6,0,0.9,0
									C121.3,55.1,121.5,55.1,121.7,55.1"/>
								<path class="st13" d="M120.2,55.1l0,1c-0.4,0-0.9,0.1-1.3,0.1l-0.2-1C119.3,55.2,119.8,55.1,120.2,55.1"/>
								<path class="st14" d="M118.9,55.3l0.2,1c-0.4,0.1-0.8,0.2-1.2,0.3l-0.2-1C118,55.4,118.4,55.3,118.9,55.3"/>
								<path class="st15" d="M117.6,55.5l0.2,1c-0.4,0.1-0.7,0.2-1.1,0.4l-0.3-1C116.8,55.8,117.2,55.6,117.6,55.5"/>
								<path class="st16" d="M116.4,55.9l0.3,1c-0.1,0.1-0.3,0.1-0.4,0.2l-0.4-1C116.1,56,116.3,56,116.4,55.9"/>
							</g>
						</g>
						<g class="st4">
							<defs>
								<path id="SVGID_30_" class="st4" d="M167.5,93.3l-0.2,0.3c2.6-5.4,4.3-11.2,5-17.2l0.2-0.3
									C171.8,82.1,170.1,87.9,167.5,93.3z"/>
							</defs>
							<clipPath id="SVGID_31_">
								<use xlink:href="#SVGID_30_"  style="overflow:visible;"/>
							</clipPath>
							<g class="st59">
								<path class="st26" d="M167.5,93.3l-0.2,0.3c2.6-5.4,4.3-11.2,5-17.2l0.2-0.3C171.8,82.1,170.1,87.9,167.5,93.3"/>
							</g>
						</g>
						<g class="st4">
							<defs>
								<path id="SVGID_32_" class="st4" d="M113.9,59.1l0.2-0.3c0.5-0.7,1.2-1.3,2.3-1.8l-0.2,0.3
									C115.1,57.9,114.4,58.4,113.9,59.1z"/>
							</defs>
							<clipPath id="SVGID_33_">
								<use xlink:href="#SVGID_32_"  style="overflow:visible;"/>
							</clipPath>
							<g class="st60">
								<path class="st26" d="M116.3,57.1l-0.2,0.3c-1,0.5-1.8,1.1-2.3,1.8l0.2-0.3C114.5,58.1,115.3,57.6,116.3,57.1"/>
							</g>
						</g>
						<g class="st4">
							<defs>
								<path id="SVGID_34_" class="st4" d="M168.4,93.7l-1-0.3c2.6-5.4,4.3-11.2,5-17.2l1,0.1C172.8,82.3,171.1,88.2,168.4,93.7z"
									/>
							</defs>
							<clipPath id="SVGID_35_">
								<use xlink:href="#SVGID_34_"  style="overflow:visible;"/>
							</clipPath>
							<g class="st61">
								<path class="st7" d="M168.4,93.7l-1-0.3c2.6-5.4,4.3-11.1,5-17l1,0.1C172.8,82.4,171.1,88.2,168.4,93.7"/>
								<path class="st6" d="M173.5,76.4l-1-0.1c0,0,0-0.1,0-0.1l1,0.1C173.5,76.3,173.5,76.3,173.5,76.4"/>
							</g>
						</g>
						<g class="st4">
							<defs>
								<path id="SVGID_36_" class="st4" d="M116,56.1l0.4,1c-2.4,1.2-3.4,2.7-2.2,5.3l-0.9,0.3C111.8,59.5,113.1,57.5,116,56.1z"/>
							</defs>
							<clipPath id="SVGID_37_">
								<use xlink:href="#SVGID_36_"  style="overflow:visible;"/>
							</clipPath>
							<g class="st62">
								<path class="st16" d="M116,56.1l0.4,1c0,0-0.1,0-0.1,0.1l-0.4-1C115.9,56.2,115.9,56.1,116,56.1"/>
								<path class="st17" d="M115.8,56.2l0.4,1c-0.3,0.1-0.5,0.3-0.7,0.4l-0.5-0.9C115.2,56.5,115.5,56.3,115.8,56.2"/>
								<path class="st18" d="M115,56.7l0.5,0.9c-0.2,0.1-0.4,0.2-0.5,0.4l-0.6-0.8C114.5,56.9,114.7,56.8,115,56.7"/>
								<path class="st19" d="M114.3,57.1l0.6,0.8c-0.1,0.1-0.3,0.2-0.4,0.3l-0.7-0.7C114,57.4,114.2,57.2,114.3,57.1"/>
								<path class="st20" d="M113.9,57.5l0.7,0.7c-0.1,0.1-0.2,0.2-0.3,0.3l-0.8-0.6C113.6,57.8,113.7,57.6,113.9,57.5"/>
								<path class="st21" d="M113.5,57.9l0.8,0.6c-0.1,0.1-0.2,0.2-0.3,0.4l-0.9-0.5C113.3,58.2,113.4,58.1,113.5,57.9"/>
								<path class="st22" d="M113.2,58.4l0.9,0.5c-0.1,0.2-0.2,0.3-0.2,0.5l-0.9-0.4C113,58.8,113.1,58.6,113.2,58.4"/>
								<path class="st23" d="M112.9,59l0.9,0.4c-0.2,0.5-0.2,1-0.1,1.6l-1,0C112.6,60.3,112.7,59.6,112.9,59"/>
								<path class="st22" d="M112.7,61l1,0c0.1,0.3,0.2,0.7,0.3,1.1l-0.9,0.3C112.9,61.9,112.8,61.4,112.7,61"/>
								<path class="st21" d="M113.2,62.4l0.9-0.3c0,0.1,0.1,0.1,0.1,0.2l-0.9,0.3C113.2,62.6,113.2,62.5,113.2,62.4"/>
							</g>
						</g>
						<g class="st4">
							<defs>
								<path id="SVGID_38_" class="st4" d="M113.3,62.7l0.9-0.3c1.1,1.9,2.9,3.6,4.9,4.7c6.2,3.2,12.4,6.6,18.8,9.9
									c5.2,2.7,9.5,6.8,12.3,11.9l-0.8,0.4c-2.7-4.9-6.9-8.9-11.9-11.5c-6.3-3.3-12.6-6.7-18.8-9.9
									C116.4,66.7,114.5,64.8,113.3,62.7z"/>
							</defs>
							<clipPath id="SVGID_39_">
								<use xlink:href="#SVGID_38_"  style="overflow:visible;"/>
							</clipPath>
							<g class="st63">
								<path class="st21" d="M113.3,62.7l0.9-0.3c0.1,0.2,0.2,0.3,0.3,0.5l-0.8,0.4C113.5,63,113.4,62.8,113.3,62.7"/>
								<path class="st20" d="M113.6,63.2l0.8-0.4c0.4,0.6,0.8,1.1,1.3,1.7L115,65C114.5,64.5,114,63.9,113.6,63.2"/>
								<path class="st19" d="M115,65l0.7-0.6c0.5,0.5,1,1,1.5,1.4l-0.6,0.7C116.1,66.1,115.6,65.6,115,65"/>
								<path class="st18" d="M116.7,66.6l0.6-0.7c0.5,0.4,1,0.7,1.5,1l-0.4,0.8C117.8,67.4,117.3,67,116.7,66.6"/>
								<path class="st17" d="M118.4,67.7l0.4-0.8c0.1,0,0.2,0.1,0.2,0.1c6.2,3.2,12.4,6.6,18.8,9.9c0.4,0.2,0.7,0.4,1.1,0.6
									l-0.4,0.8c-0.3-0.2-0.7-0.4-1-0.6c-6.3-3.3-12.6-6.7-18.8-9.9C118.6,67.8,118.5,67.8,118.4,67.7"/>
								<path class="st18" d="M138.4,78.3l0.4-0.8c1.2,0.7,2.4,1.5,3.5,2.3l-0.6,0.7C140.8,79.8,139.6,79,138.4,78.3"/>
								<path class="st19" d="M141.8,80.6l0.6-0.7c1.2,0.9,2.3,1.9,3.3,2.9l-0.7,0.6C144,82.4,142.9,81.4,141.8,80.6"/>
								<path class="st20" d="M145,83.4l0.7-0.6c1.1,1.2,2.2,2.5,3.1,3.8l-0.8,0.5C147.1,85.8,146.1,84.6,145,83.4"/>
								<path class="st21" d="M148,87.1l0.8-0.5c0.5,0.7,1,1.5,1.4,2.3l-0.8,0.4C148.9,88.5,148.4,87.8,148,87.1"/>
							</g>
						</g>
						<g class="st4">
							<defs>
								<path id="SVGID_40_" class="st4" d="M163.8,100.4l-0.2,0.3c1.5-2.2,2.7-4.6,3.7-7.1l0.2-0.3
									C166.5,95.9,165.2,98.2,163.8,100.4z"/>
							</defs>
							<clipPath id="SVGID_41_">
								<use xlink:href="#SVGID_40_"  style="overflow:visible;"/>
							</clipPath>
							<g class="st64">
								<path class="st26" d="M163.8,100.4l-0.2,0.3c1.5-2.2,2.7-4.6,3.7-7.1l0.2-0.3C166.5,95.9,165.2,98.2,163.8,100.4"/>
							</g>
						</g>
						<g class="st4">
							<defs>
								<path id="SVGID_42_" class="st4" d="M149.3,89.3l0.8-0.4c2,4.8,2.6,9.9,1.7,14.7l-0.9-0.3C151.7,98.7,151.2,93.8,149.3,89.3
									z"/>
							</defs>
							<clipPath id="SVGID_43_">
								<use xlink:href="#SVGID_42_"  style="overflow:visible;"/>
							</clipPath>
							<g class="st65">
								<path class="st21" d="M149.3,89.3l0.8-0.4c0.1,0.3,0.3,0.6,0.4,1l-0.8,0.3C149.5,89.9,149.4,89.6,149.3,89.3"/>
								<path class="st22" d="M149.7,90.2l0.8-0.3c1.2,3.1,1.7,6.2,1.7,9.4l-0.9-0.1C151.3,96.1,150.8,93.1,149.7,90.2"/>
								<path class="st23" d="M151.3,99.1l0.9,0.1c0,1.1-0.1,2.3-0.3,3.4l-0.9-0.2C151.2,101.3,151.3,100.2,151.3,99.1"/>
								<path class="st22" d="M151,102.4l0.9,0.2c0,0.3-0.1,0.7-0.2,1l-0.9-0.3C150.9,103.1,151,102.7,151,102.4"/>
							</g>
						</g>
						<g class="st4">
							<defs>
								<path id="SVGID_44_" class="st4" d="M77.5,65.8l0.2-0.3c2.2-3.4,4.9-6.6,7.9-9.6c7.5-7.4,15.8-13.7,25.6-16.5l-0.2,0.3
									c-9.8,2.9-18.2,9.1-25.6,16.5C82.3,59.2,79.7,62.4,77.5,65.8z"/>
							</defs>
							<clipPath id="SVGID_45_">
								<use xlink:href="#SVGID_44_"  style="overflow:visible;"/>
							</clipPath>
							<g class="st66">
								<path class="st26" d="M111.1,39.5l-0.2,0.3c-9.8,2.9-18.2,9.1-25.6,16.5c-3,3-5.6,6.2-7.9,9.6l0.2-0.3
									c2.2-3.4,4.9-6.6,7.9-9.6C93,48.6,101.3,42.3,111.1,39.5"/>
							</g>
						</g>
						<g class="st4">
							<defs>
								<path id="SVGID_46_" class="st4" d="M129.1,100.2l-0.2,0.3c-2.2-4.5-13.5-8.5-18.7-10.9l0.2-0.3
									C115.6,91.7,126.9,95.7,129.1,100.2z"/>
							</defs>
							<clipPath id="SVGID_47_">
								<use xlink:href="#SVGID_46_"  style="overflow:visible;"/>
							</clipPath>
							<g class="st67">
								<path class="st26" d="M129.1,100.2l-0.2,0.3c-2.2-4.5-13.5-8.5-18.7-10.9l0.2-0.3C115.6,91.7,126.9,95.7,129.1,100.2"/>
							</g>
						</g>
						<g class="st4">
							<defs>
								<path id="SVGID_48_" class="st4" d="M130.1,99.7l-0.9,0.5c-2.2-4.5-13.5-8.5-18.7-10.9l0.4-0.9
									C116.1,90.7,127.6,94.8,130.1,99.7z"/>
							</defs>
							<clipPath id="SVGID_49_">
								<use xlink:href="#SVGID_48_"  style="overflow:visible;"/>
							</clipPath>
							<g class="st68">
								<path class="st6" d="M130.1,99.7l-0.9,0.5c-0.3-0.6-0.8-1.3-1.4-1.9l0.8-0.6C129.2,98.3,129.7,99,130.1,99.7"/>
								<path class="st7" d="M128.5,97.7l-0.8,0.6c-0.8-0.8-1.9-1.5-3-2.3l0.7-0.8C126.6,96,127.6,96.8,128.5,97.7"/>
								<path class="st8" d="M125.3,95.2l-0.7,0.8c-1.5-1-3.3-1.9-5.1-2.7l0.5-0.9C121.9,93.3,123.7,94.2,125.3,95.2"/>
								<path class="st9" d="M120.1,92.4l-0.5,0.9c-3.3-1.6-6.7-2.9-9-4l0.4-0.9C113.3,89.4,116.7,90.8,120.1,92.4"/>
								<path class="st8" d="M111,88.3l-0.4,0.9c-0.1,0-0.1,0-0.2-0.1l0.4-0.9C110.9,88.3,111,88.3,111,88.3"/>
							</g>
						</g>
						<g class="st4">
							<defs>
								<path id="SVGID_50_" class="st4" d="M148.6,111.3l-0.2,0.3c-0.5,0.8-1.1,1.6-1.8,2.2l0.2-0.3
									C147.5,112.9,148.1,112.1,148.6,111.3z"/>
							</defs>
							<clipPath id="SVGID_51_">
								<use xlink:href="#SVGID_50_"  style="overflow:visible;"/>
							</clipPath>
							<g class="st69">
								<path class="st26" d="M148.6,111.3l-0.2,0.3c-0.5,0.8-1.1,1.6-1.8,2.2l0.2-0.3C147.5,112.9,148.1,112.1,148.6,111.3"/>
							</g>
						</g>
						<g class="st4">
							<defs>
								<path id="SVGID_52_" class="st4" d="M150.9,103.4l0.9,0.3c-1.1,4.1-2.6,7.6-5,9.9l-0.7-0.8
									C148.4,110.6,149.8,107.3,150.9,103.4z"/>
							</defs>
							<clipPath id="SVGID_53_">
								<use xlink:href="#SVGID_52_"  style="overflow:visible;"/>
							</clipPath>
							<g class="st70">
								<path class="st22" d="M150.9,103.4l0.9,0.3c-0.6,2.1-1.3,4.1-2.1,5.8l-0.8-0.5C149.6,107.3,150.3,105.4,150.9,103.4"/>
								<path class="st21" d="M148.8,108.9l0.8,0.5c-0.5,0.9-1,1.8-1.5,2.5l-0.8-0.7C147.9,110.6,148.4,109.8,148.8,108.9"/>
								<path class="st20" d="M147.4,111.3l0.8,0.7c-0.4,0.5-0.7,0.9-1.1,1.3l-0.7-0.8C146.7,112.2,147.1,111.8,147.4,111.3"/>
								<path class="st19" d="M146.3,112.6l0.7,0.8c-0.1,0.1-0.1,0.1-0.2,0.2l-0.7-0.8C146.2,112.7,146.3,112.6,146.3,112.6"/>
							</g>
						</g>
						<g class="st4">
							<defs>
								<path id="SVGID_54_" class="st4" d="M129.2,104.4l-0.2,0.3c0.8-1.2,0.7-2.5-0.1-4.3l0.2-0.3
									C129.9,101.9,130,103.3,129.2,104.4z"/>
							</defs>
							<clipPath id="SVGID_55_">
								<use xlink:href="#SVGID_54_"  style="overflow:visible;"/>
							</clipPath>
							<g class="st71">
								<path class="st26" d="M129.2,104.4l-0.2,0.3c0.8-1.2,0.7-2.5-0.1-4.3l0.2-0.3C129.9,101.9,130,103.3,129.2,104.4"/>
							</g>
						</g>
						<g class="st4">
							<defs>
								<path id="SVGID_56_" class="st4" d="M150.2,116.7l-0.6-0.7c7.4-6.7,14.4-13.6,17.9-22.6l1,0.3
									C164.8,102.8,157.8,109.9,150.2,116.7z"/>
							</defs>
							<clipPath id="SVGID_57_">
								<use xlink:href="#SVGID_56_"  style="overflow:visible;"/>
							</clipPath>
							<g class="st72">
								<path class="st9" d="M150.2,116.7l-0.6-0.7c3.9-3.5,7.6-7.1,10.8-11l0.8,0.5C158,109.5,154.2,113.1,150.2,116.7"/>
								<path class="st8" d="M161.2,105.5l-0.8-0.5c2.3-2.9,4.4-5.9,6-9.2l0.9,0.4C165.7,99.6,163.6,102.6,161.2,105.5"/>
								<path class="st7" d="M167.3,96.2l-0.9-0.4c0.4-0.8,0.8-1.6,1.1-2.5l1,0.3C168.1,94.5,167.7,95.4,167.3,96.2"/>
							</g>
						</g>
						<g class="st4">
							<defs>
								<path id="SVGID_58_" class="st4" d="M94.9,52.3l0.2-0.3c-1.5,2.3-2.6,5-3.1,7.8c-1.9,13,5.6,24,18.3,29.4l-0.2,0.3
									C97.4,84.1,90,73.1,91.9,60.1C92.3,57.3,93.4,54.6,94.9,52.3z"/>
							</defs>
							<clipPath id="SVGID_59_">
								<use xlink:href="#SVGID_58_"  style="overflow:visible;"/>
							</clipPath>
							<g class="st73">
								<path class="st26" d="M110.4,89.2l-0.2,0.3C97.4,84.1,90,73.1,91.9,60.1c0.4-2.8,1.5-5.5,3.1-7.8l0.2-0.3
									c-1.5,2.3-2.6,5-3.1,7.8C90.1,72.8,97.6,83.9,110.4,89.2"/>
							</g>
						</g>
						<g class="st4">
							<defs>
								<path id="SVGID_60_" class="st4" d="M110.9,88.3l-0.4,0.9c-12.8-5.4-20.3-16.4-18.3-29.4c1.5-9.7,10.4-17,19.1-18.1l1.1,0.8
									c-9.2,1.2-17.7,8.3-19.2,17.4C91.2,72.5,98.4,83,110.9,88.3z"/>
							</defs>
							<clipPath id="SVGID_61_">
								<use xlink:href="#SVGID_60_"  style="overflow:visible;"/>
							</clipPath>
							<g class="st74">
								<path class="st9" d="M110.9,88.3l-0.4,0.9c-0.5-0.2-1-0.5-1.6-0.7l0.5-0.9C109.8,87.8,110.3,88.1,110.9,88.3"/>
								<path class="st8" d="M109.3,87.6l-0.5,0.9c-2.3-1.1-4.3-2.3-6.2-3.7l0.7-0.8C105.1,85.3,107.1,86.6,109.3,87.6"/>
								<path class="st7" d="M103.3,84l-0.7,0.8c-2.3-1.8-4.3-3.8-5.9-6l0.9-0.6C99.1,80.3,101.1,82.3,103.3,84"/>
								<path class="st6" d="M97.6,78.2l-0.9,0.6c-3.8-5.1-5.5-11.3-4.7-18.1l1,0.1C92.2,67.3,93.9,73.3,97.6,78.2"/>
								<path class="st7" d="M93,60.7l-1-0.1c0-0.3,0.1-0.6,0.1-0.8c0.3-1.8,0.8-3.6,1.6-5.2l1,0.3c-0.7,1.6-1.3,3.2-1.5,4.9
									C93,60.2,93,60.5,93,60.7"/>
								<path class="st8" d="M94.6,55l-1-0.3c0.6-1.2,1.2-2.3,2-3.4l0.9,0.5C95.8,52.8,95.2,53.9,94.6,55"/>
								<path class="st9" d="M96.5,51.8l-0.9-0.5c0.6-0.9,1.3-1.7,2.1-2.5l0.9,0.6C97.8,50.1,97.1,50.9,96.5,51.8"/>
								<path class="st10" d="M98.5,49.4l-0.9-0.6c0.7-0.7,1.4-1.4,2.1-2l0.8,0.7C99.9,48.1,99.2,48.7,98.5,49.4"/>
								<path class="st11" d="M100.6,47.5l-0.8-0.7c0.8-0.6,1.5-1.2,2.4-1.7l0.8,0.7C102.2,46.3,101.4,46.9,100.6,47.5"/>
								<path class="st12" d="M103,45.8l-0.8-0.7c0.9-0.6,1.8-1.1,2.8-1.5l0.8,0.8C104.8,44.8,103.9,45.3,103,45.8"/>
								<path class="st13" d="M105.8,44.3l-0.8-0.8c2-0.9,4.1-1.6,6.2-1.9l1.1,0.8C110,42.8,107.9,43.4,105.8,44.3"/>
							</g>
						</g>
						<g class="st4">
							<defs>
								<path id="SVGID_62_" class="st4" d="M128,106.8l-0.5-0.8c2.4-1.5,2.9-3.3,1.6-5.8l0.9-0.5
									C131.5,102.7,130.9,105.1,128,106.8z"/>
							</defs>
							<clipPath id="SVGID_63_">
								<use xlink:href="#SVGID_62_"  style="overflow:visible;"/>
							</clipPath>
							<g class="st75">
								<path class="st10" d="M128,106.8l-0.5-0.8c0.3-0.2,0.5-0.3,0.8-0.5l0.7,0.7C128.6,106.4,128.3,106.6,128,106.8"/>
								<path class="st9" d="M128.9,106.2l-0.7-0.7c0.3-0.2,0.5-0.5,0.7-0.7l0.8,0.5C129.6,105.6,129.3,105.9,128.9,106.2"/>
								<path class="st8" d="M129.8,105.3l-0.8-0.5c0.2-0.3,0.4-0.5,0.5-0.8l1,0.3C130.3,104.6,130.1,105,129.8,105.3"/>
								<path class="st7" d="M130.5,104.3l-1-0.3c0.2-0.4,0.3-0.8,0.3-1.2l1,0C130.8,103.3,130.7,103.8,130.5,104.3"/>
								<path class="st6" d="M130.8,102.7l-1,0c0-0.8-0.2-1.6-0.6-2.5l0.9-0.5C130.6,100.8,130.8,101.8,130.8,102.7"/>
							</g>
						</g>
						<g class="st4">
							<defs>
								<path id="SVGID_64_" class="st4" d="M146.8,113.5l-0.2,0.3c-1.6,2-3.6,3.7-6.2,5l0.2-0.3
									C143.2,117.2,145.2,115.5,146.8,113.5z"/>
							</defs>
							<clipPath id="SVGID_65_">
								<use xlink:href="#SVGID_64_"  style="overflow:visible;"/>
							</clipPath>
							<g class="st76">
								<path class="st26" d="M146.8,113.5l-0.2,0.3c-1.6,2-3.6,3.7-6.2,5l0.2-0.3C143.2,117.2,145.2,115.5,146.8,113.5"/>
							</g>
						</g>
						<g class="st4">
							<defs>
								<path id="SVGID_66_" class="st4" d="M146.1,112.8l0.7,0.8c-1.6,2-3.6,3.7-6.2,5l-0.4-0.9
									C142.5,116.4,144.5,114.7,146.1,112.8z"/>
							</defs>
							<clipPath id="SVGID_67_">
								<use xlink:href="#SVGID_66_"  style="overflow:visible;"/>
							</clipPath>
							<g class="st77">
								<path class="st20" d="M146.1,112.8l0.7,0.8c-0.9,1-1.8,2-2.9,2.9l-0.7-0.8C144.3,114.7,145.3,113.8,146.1,112.8"/>
								<path class="st19" d="M143.3,115.6l0.7,0.8c-0.5,0.4-1,0.8-1.6,1.1l-0.6-0.9C142.3,116.3,142.8,116,143.3,115.6"/>
								<path class="st18" d="M141.7,116.7l0.6,0.9c-0.3,0.2-0.7,0.4-1,0.6l-0.5-0.9C141.1,117.1,141.4,116.9,141.7,116.7"/>
								<path class="st17" d="M140.8,117.2l0.5,0.9c-0.2,0.1-0.5,0.3-0.7,0.4l-0.4-0.9C140.4,117.5,140.6,117.4,140.8,117.2"/>
							</g>
						</g>
						<g class="st4">
							<defs>
								<path id="SVGID_68_" class="st4" d="M130.8,127.1c0.2-0.1,0-0.5,0-0.6c0,0,0,0,0.6,0.1C131.4,126.6,130.8,127.1,130.8,127.1
									z"/>
							</defs>
							<clipPath id="SVGID_69_">
								<use xlink:href="#SVGID_68_"  style="overflow:visible;"/>
							</clipPath>
							<g class="st78">
								<path class="st12" d="M131.4,126.6l-0.6,0.5c0,0,0,0,0,0L131.4,126.6C131.3,126.6,131.3,126.6,131.4,126.6"/>
								<path class="st11" d="M131.3,126.6l-0.5,0.5c0,0,0,0,0,0L131.3,126.6C131.3,126.6,131.3,126.6,131.3,126.6"/>
								<path class="st10" d="M131.3,126.6l-0.5,0.5c0,0,0,0,0,0L131.3,126.6C131.3,126.6,131.3,126.6,131.3,126.6"/>
								<path class="st9" d="M131.3,126.6l-0.4,0.5c0,0,0,0,0,0L131.3,126.6C131.2,126.6,131.2,126.6,131.3,126.6"/>
								<path class="st8" d="M131.2,126.6l-0.4,0.5c0,0,0,0,0,0L131.2,126.6C131.2,126.6,131.2,126.6,131.2,126.6"/>
								<polyline class="st7" points="131.2,126.6 130.8,127.1 130.8,127.1 131.2,126.6 131.2,126.6 								"/>
								<polyline class="st6" points="131.2,126.6 130.8,127.1 130.8,127.1 131.2,126.6 131.2,126.6 								"/>
								<polyline class="st44" points="131.2,126.6 130.8,127.1 130.8,127.1 131.2,126.6 131.2,126.6 								"/>
								<polyline class="st43" points="131.2,126.6 130.8,127.1 130.8,127.1 131.2,126.6 131.2,126.6 								"/>
								<polyline class="st42" points="131.2,126.6 130.8,127.1 130.8,127.1 131.2,126.6 131.2,126.6 								"/>
								<polyline class="st41" points="131.2,126.6 130.8,127.1 130.8,127.1 131.2,126.6 131.2,126.6 								"/>
								<polyline class="st40" points="131.2,126.6 130.8,127.1 130.8,127.1 131.2,126.6 131.2,126.6 								"/>
								<polyline class="st39" points="131.2,126.6 130.8,127.1 130.8,127.1 131.2,126.6 131.2,126.6 								"/>
								<polyline class="st38" points="131.2,126.6 130.8,127.1 130.8,127.1 131.2,126.6 131.2,126.6 								"/>
								<polyline class="st37" points="131.2,126.6 130.8,127.1 130.8,127.1 131.2,126.6 131.2,126.6 								"/>
								<polyline class="st36" points="131.2,126.6 130.8,127.1 130.8,127.1 131.2,126.6 131.2,126.6 								"/>
								<polyline class="st35" points="131.2,126.6 130.8,127.1 130.8,127.1 131.2,126.6 131.2,126.6 								"/>
								<polyline class="st34" points="131.2,126.6 130.8,127.1 130.8,127.1 131.2,126.6 131.2,126.6 								"/>
								<polyline class="st33" points="131.2,126.6 130.8,127.1 130.8,127.1 131.2,126.6 131.2,126.6 								"/>
								<polyline class="st32" points="131.2,126.6 130.8,127.1 130.8,127.1 131.2,126.6 131.2,126.6 								"/>
								<polyline class="st31" points="131.2,126.6 130.8,127.1 130.8,127.1 131.2,126.6 131.2,126.6 								"/>
								<polyline class="st30" points="131.2,126.6 130.8,127.1 130.8,127.1 131.2,126.6 131.2,126.6 								"/>
								<polyline class="st29" points="131.2,126.6 130.8,127.1 130.8,127.1 131.2,126.6 131.2,126.6 								"/>
								<polyline class="st28" points="131.2,126.6 130.8,127.1 130.8,127.1 131.2,126.6 131.2,126.6 								"/>
								<polyline class="st27" points="131.2,126.6 130.8,127.1 130.8,127.1 131.1,126.6 131.2,126.6 								"/>
								<path class="st26" d="M131.1,126.6l-0.3,0.5c0,0,0.1,0,0.1,0l-0.2-0.5C130.8,126.5,130.8,126.5,131.1,126.6"/>
							</g>
						</g>
						<g class="st4">
							<defs>
								<path id="SVGID_70_" class="st4" d="M140.6,118.6l-0.2,0.3c-3,1.7-6.2,3-8.9,3.5l0.2-0.3
									C134.4,121.5,137.6,120.2,140.6,118.6z"/>
							</defs>
							<clipPath id="SVGID_71_">
								<use xlink:href="#SVGID_70_"  style="overflow:visible;"/>
							</clipPath>
							<g class="st79">
								<path class="st26" d="M140.6,118.6l-0.2,0.3c-3,1.7-6.2,3-8.9,3.5l0.2-0.3C134.4,121.5,137.6,120.2,140.6,118.6"/>
							</g>
						</g>
						<g class="st4">
							<defs>
								<path id="SVGID_72_" class="st4" d="M140.1,117.6l0.4,0.9c-3,1.7-6.2,3-8.9,3.5l-0.9-0.9
									C134.1,120.5,137.2,119.3,140.1,117.6z"/>
							</defs>
							<clipPath id="SVGID_73_">
								<use xlink:href="#SVGID_72_"  style="overflow:visible;"/>
							</clipPath>
							<g class="st80">
								<path class="st17" d="M140.1,117.6l0.4,0.9c-0.6,0.3-1.2,0.6-1.8,0.9l-0.4-0.9C139,118.2,139.6,117.9,140.1,117.6"/>
								<path class="st16" d="M138.4,118.5l0.4,0.9c-1.6,0.8-3.2,1.5-4.8,2l-0.5-0.9C135.2,120,136.8,119.3,138.4,118.5"/>
								<path class="st15" d="M133.5,120.5l0.5,0.9c-0.6,0.2-1.2,0.4-1.8,0.5l-0.8-0.9C132.1,120.9,132.8,120.7,133.5,120.5"/>
								<path class="st14" d="M131.5,121l0.8,0.9c-0.2,0-0.4,0.1-0.6,0.1l-0.9-0.9C131,121.2,131.2,121.1,131.5,121"/>
							</g>
						</g>
						<g class="st4">
							<defs>
								<path id="SVGID_74_" class="st4" d="M99.4,101.9l-0.2-0.9c3.9,0,5.7,1.8,8.9,3.4c3.6,1.7,8.2,3,12.5,3
									c2.4,0,4.8-0.4,6.8-1.4l0.5,0.8c-2.2,1-4.7,1.5-7.3,1.4c-4.5,0-9.1-1.3-12.9-3.1C104.5,103.7,102.9,101.9,99.4,101.9z"/>
							</defs>
							<clipPath id="SVGID_75_">
								<use xlink:href="#SVGID_74_"  style="overflow:visible;"/>
							</clipPath>
							<g class="st81">
								<path class="st14" d="M99.4,101.9l-0.2-0.9c0.5,0,0.9,0,1.3,0.1l0,0.9C100.2,102,99.8,101.9,99.4,101.9"/>
								<path class="st15" d="M100.6,102l0-0.9c0.4,0.1,0.9,0.1,1.3,0.2l-0.1,0.9C101.3,102.1,101,102,100.6,102"/>
								<path class="st16" d="M101.7,102.2l0.1-0.9c0.4,0.1,0.8,0.2,1.2,0.4l-0.2,0.9C102.4,102.4,102.1,102.3,101.7,102.2"/>
								<path class="st17" d="M102.8,102.6l0.2-0.9c0.6,0.2,1.2,0.5,1.8,0.9l-0.3,0.8C103.9,103.1,103.4,102.8,102.8,102.6"/>
								<path class="st18" d="M104.5,103.4l0.3-0.8c0.6,0.3,1.1,0.6,1.7,1l-0.4,0.8C105.6,104,105,103.7,104.5,103.4"/>
								<path class="st17" d="M106.2,104.3l0.4-0.8c0.5,0.3,1,0.6,1.6,0.8c0.6,0.3,1.2,0.6,1.9,0.8l-0.3,0.8c-0.7-0.3-1.3-0.5-2-0.8
									C107.2,104.9,106.7,104.6,106.2,104.3"/>
								<path class="st16" d="M109.8,106l0.3-0.8c1.4,0.5,2.9,1,4.4,1.4l-0.2,0.9C112.8,107.1,111.2,106.6,109.8,106"/>
								<path class="st15" d="M114.3,107.5l0.2-0.9c1.3,0.3,2.7,0.5,4,0.7l0,0.9C117.1,108,115.7,107.8,114.3,107.5"/>
								<path class="st14" d="M118.5,108.2l0-0.9c0.7,0.1,1.4,0.1,2.2,0.1c0.4,0,0.7,0,1.1,0l0.1,0.9c-0.4,0-0.8,0-1.1,0
									C120,108.3,119.2,108.2,118.5,108.2"/>
								<path class="st13" d="M121.9,108.2l-0.1-0.9c0.9,0,1.7-0.1,2.6-0.3l0.3,0.9C123.7,108.1,122.8,108.2,121.9,108.2"/>
								<path class="st12" d="M124.6,107.9l-0.3-0.9c0.7-0.1,1.4-0.3,2.1-0.6l0.4,0.9C126.1,107.6,125.4,107.8,124.6,107.9"/>
								<path class="st11" d="M126.8,107.3l-0.4-0.9c0.4-0.1,0.7-0.3,1.1-0.4l0.5,0.8C127.6,107,127.2,107.2,126.8,107.3"/>
							</g>
						</g>
						<g class="st4">
							<defs>
								<path id="SVGID_76_" class="st4" d="M131.5,126.3l-0.2,0.3c-0.5-0.1-0.5-0.1-0.6-0.1l0.2-0.3
									C131,126.2,131,126.2,131.5,126.3z"/>
							</defs>
							<clipPath id="SVGID_77_">
								<use xlink:href="#SVGID_76_"  style="overflow:visible;"/>
							</clipPath>
							<g class="st82">
								<path class="st26" d="M131.5,126.3l-0.2,0.3c-0.5-0.1-0.5-0.1-0.6-0.1l0.2-0.3C131,126.2,131,126.2,131.5,126.3"/>
							</g>
						</g>
						<g class="st4">
							<defs>
								<path id="SVGID_78_" class="st4" d="M113.7,123.2c0.2-0.1,0.4-0.1,0.4-0.2l-0.1,0.4C113.8,123.4,113.7,123.2,113.7,123.2z"
									/>
							</defs>
							<clipPath id="SVGID_79_">
								<use xlink:href="#SVGID_78_"  style="overflow:visible;"/>
							</clipPath>
							<g class="st83">
								<path class="st26" d="M113.7,123.2l0.4-0.1c0-0.1,0-0.1,0-0.1l-0.1,0.4C113.8,123.4,113.7,123.2,113.7,123.2"/>
							</g>
						</g>
						<g class="st4">
							<defs>
								<path id="SVGID_80_" class="st4" d="M131,126.7c0.2-0.1,0-0.5,0-0.5c6.7-2.2,12.7-6,18.6-10.3l0.6,0.7
									c-5.9,4.3-12,8.2-18.8,10.4c-0.1,0-0.3,0.1-0.8,0C130.6,127.1,131,126.7,131,126.7z"/>
							</defs>
							<clipPath id="SVGID_81_">
								<use xlink:href="#SVGID_80_"  style="overflow:visible;"/>
							</clipPath>
							<g class="st84">
								<path class="st26" d="M130.6,127.1l1-0.8c-0.1,0-0.2,0-0.2,0l-0.6,0.8C130.7,127.1,130.6,127.1,130.6,127.1"/>
								<polyline class="st27" points="130.8,127.1 131.3,126.3 131.3,126.3 130.8,127.1 130.8,127.1 								"/>
								<polyline class="st28" points="130.8,127.1 131.3,126.3 131.3,126.3 130.8,127.1 130.8,127.1 								"/>
								<polyline class="st29" points="130.8,127.1 131.3,126.3 131.3,126.3 130.8,127.1 130.8,127.1 								"/>
								<polyline class="st30" points="130.8,127.1 131.3,126.3 131.3,126.3 130.8,127.1 130.8,127.1 								"/>
								<polyline class="st31" points="130.8,127.1 131.3,126.3 131.3,126.3 130.8,127.1 130.8,127.1 								"/>
								<polyline class="st32" points="130.8,127.1 131.3,126.3 131.3,126.3 130.8,127.1 130.8,127.1 								"/>
								<polyline class="st33" points="130.8,127.1 131.3,126.3 131.3,126.3 130.8,127.1 130.8,127.1 								"/>
								<polyline class="st34" points="130.8,127.1 131.3,126.3 131.3,126.3 130.8,127.1 130.8,127.1 								"/>
								<polyline class="st35" points="130.8,127.1 131.3,126.3 131.3,126.3 130.8,127.1 130.8,127.1 								"/>
								<polyline class="st36" points="130.8,127.1 131.3,126.3 131.3,126.3 130.8,127.1 130.8,127.1 								"/>
								<polyline class="st37" points="130.8,127.1 131.3,126.3 131.3,126.3 130.8,127.1 130.8,127.1 								"/>
								<polyline class="st38" points="130.8,127.1 131.3,126.3 131.3,126.3 130.8,127.1 130.8,127.1 								"/>
								<polyline class="st39" points="130.8,127.1 131.3,126.3 131.3,126.3 130.8,127.1 130.8,127.1 								"/>
								<polyline class="st40" points="130.8,127.1 131.3,126.3 131.3,126.3 130.8,127.1 130.8,127.1 								"/>
								<polyline class="st41" points="130.8,127.1 131.3,126.3 131.3,126.3 130.9,127.1 130.8,127.1 								"/>
								<polyline class="st42" points="130.9,127.1 131.3,126.3 131.2,126.3 130.9,127.1 130.9,127.1 								"/>
								<polyline class="st43" points="130.9,127.1 131.2,126.3 131.2,126.3 130.9,127.1 130.9,127.1 								"/>
								<path class="st44" d="M130.9,127.1l0.4-0.9c0,0,0,0,0,0L130.9,127.1C130.9,127.1,130.9,127.1,130.9,127.1"/>
								<path class="st6" d="M130.9,127.1l0.3-0.9c0,0,0,0,0,0L130.9,127.1C130.9,127.1,130.9,127.1,130.9,127.1"/>
								<path class="st7" d="M130.9,127.1l0.3-0.9c0,0,0,0,0,0L130.9,127.1C130.9,127.1,130.9,127.1,130.9,127.1"/>
								<path class="st8" d="M130.9,127.1l0.2-0.9c0,0,0,0,0,0L130.9,127.1C131,127.1,131,127.1,130.9,127.1"/>
								<path class="st9" d="M131,127.1l0.2-0.9c0,0,0,0,0,0L131,127.1C131,127.1,131,127.1,131,127.1"/>
								<path class="st10" d="M131,127.1l0.1-0.9c0,0,0,0,0,0L131,127.1C131.1,127.1,131,127.1,131,127.1"/>
								<path class="st11" d="M131.1,127.1l0-0.9c0,0,0,0-0.1,0l0.2,0.9C131.2,127.1,131.1,127.1,131.1,127.1"/>
								<path class="st12" d="M131.2,127.1l-0.2-0.9c0,0,0,0,0,0c0.5-0.2,0.9-0.3,1.4-0.5l0.4,0.9c-0.5,0.2-0.9,0.3-1.4,0.5
									C131.3,127.1,131.3,127.1,131.2,127.1"/>
								<path class="st11" d="M132.8,126.6l-0.4-0.9c2.6-1,5.2-2.2,7.6-3.5l0.5,0.8C138,124.4,135.5,125.6,132.8,126.6"/>
								<path class="st10" d="M140.5,123l-0.5-0.8c3.3-1.8,6.4-4,9.6-6.3l0.6,0.7C147.1,119,143.9,121.1,140.5,123"/>
							</g>
						</g>
						<g class="st4">
							<defs>
								<path id="SVGID_82_" class="st4" d="M130.7,121.2l0.9,0.9c0,1.2-0.1,3.2-0.1,4.2l-1,0.8
									C130.6,125.1,130.7,123.2,130.7,121.2z"/>
							</defs>
							<clipPath id="SVGID_83_">
								<use xlink:href="#SVGID_82_"  style="overflow:visible;"/>
							</clipPath>
							<g class="st85">
								<path class="st23" d="M130.7,121.2l0.9,0.9c0,1.2-0.1,3.2-0.1,4.2l-1,0.8C130.6,125.1,130.7,123.2,130.7,121.2"/>
							</g>
						</g>
						<g class="st4">
							<defs>
								<path id="SVGID_84_" class="st4" d="M113.7,123.2l0.2-0.3c0,0,0,0,0,0.1L113.7,123.2C113.7,123.3,113.7,123.3,113.7,123.2z"
									/>
							</defs>
							<clipPath id="SVGID_85_">
								<use xlink:href="#SVGID_84_"  style="overflow:visible;"/>
							</clipPath>
							<g class="st86">
								<path class="st26" d="M113.9,123.1l-0.2,0.3c0-0.1,0-0.1,0-0.1L113.9,123.1C113.9,123,113.9,123,113.9,123.1"/>
							</g>
						</g>
						<g class="st4">
							<defs>
								<path id="SVGID_86_" class="st4" d="M95.8,103.7l0.2-0.3c-1.4,2.1-2.1,4.9-2.2,6.6l-0.2,0.3
									C93.7,108.7,94.4,105.8,95.8,103.7z"/>
							</defs>
							<clipPath id="SVGID_87_">
								<use xlink:href="#SVGID_86_"  style="overflow:visible;"/>
							</clipPath>
							<g class="st87">
								<path class="st26" d="M93.7,110l-0.2,0.3c0.2-1.6,0.9-4.5,2.2-6.6l0.2-0.3C94.6,105.5,93.9,108.4,93.7,110"/>
							</g>
						</g>
						<g class="st4">
							<defs>
								<path id="SVGID_88_" class="st4" d="M114.5,122.1l-0.3,1c-2.9-0.3-5.9-1-8.9-1.9l0.3-1C108.5,121.1,111.4,121.8,114.5,122.1
									z"/>
							</defs>
							<clipPath id="SVGID_89_">
								<use xlink:href="#SVGID_88_"  style="overflow:visible;"/>
							</clipPath>
							<g class="st88">
								<path class="st11" d="M114.5,122.1l-0.3,1c-0.7-0.1-1.4-0.2-2.1-0.3l0.3-1C113.1,122,113.8,122.1,114.5,122.1"/>
								<path class="st10" d="M112.4,121.9l-0.3,1c-2.1-0.3-4.3-0.9-6.4-1.5l0.3-1C108.1,121,110.2,121.5,112.4,121.9"/>
								<path class="st9" d="M106,120.4l-0.3,1c-0.1,0-0.3-0.1-0.4-0.1l0.3-1C105.8,120.3,105.9,120.3,106,120.4"/>
							</g>
						</g>
						<g class="st4">
							<defs>
								<path id="SVGID_90_" class="st4" d="M113.9,123c0.2-0.1,0.4-0.1,0.4-0.3l0.2-0.5c0.3,0.1,0.4,0.3,0.4,0.9L113.9,123
									C113.9,123,113.9,123,113.9,123z"/>
							</defs>
							<clipPath id="SVGID_91_">
								<use xlink:href="#SVGID_90_"  style="overflow:visible;"/>
							</clipPath>
							<g class="st89">
								<path class="st6" d="M114.9,123l-1,0c0-0.1,0-0.1,0-0.1l0.9-0.6C114.9,122.5,114.9,122.7,114.9,123"/>
								<path class="st44" d="M114.8,122.4l-0.9,0.6c0,0,0,0,0,0L114.8,122.4C114.8,122.3,114.8,122.3,114.8,122.4"/>
								<path class="st6" d="M114.8,122.3l-0.8,0.7c0,0,0,0,0.1,0L114.8,122.3C114.7,122.3,114.7,122.3,114.8,122.3"/>
								<path class="st7" d="M114.7,122.2L114,123c0,0,0,0,0,0L114.7,122.2C114.7,122.2,114.7,122.2,114.7,122.2"/>
								<path class="st8" d="M114.7,122.2l-0.6,0.9c0,0,0,0,0,0L114.7,122.2C114.6,122.2,114.6,122.2,114.7,122.2"/>
								<path class="st9" d="M114.6,122.2l-0.6,0.9c0,0,0,0,0,0L114.6,122.2C114.6,122.2,114.6,122.2,114.6,122.2"/>
								<path class="st10" d="M114.6,122.2l-0.5,0.9c0,0,0,0,0.1,0L114.6,122.2C114.5,122.1,114.6,122.2,114.6,122.2"/>
								<polyline class="st11" points="114.5,122.1 114.2,123.1 114.2,123.1 114.5,122.1 114.5,122.1 								"/>
							</g>
						</g>
						<g class="st4">
							<defs>
								<path id="SVGID_92_" class="st4" d="M94.8,109.9l-1,0.1c0.3-2.6,2-8.5,5.5-9l0.2,0.9C96.7,102.2,95,107.6,94.8,109.9z"/>
							</defs>
							<clipPath id="SVGID_93_">
								<use xlink:href="#SVGID_92_"  style="overflow:visible;"/>
							</clipPath>
							<g class="st90">
								<path class="st6" d="M94.8,109.9l-1,0.1c0-0.3,0.1-0.7,0.1-1l1,0C94.8,109.4,94.8,109.7,94.8,109.9"/>
								<path class="st7" d="M94.9,109l-1,0c0.2-1.4,0.8-3.1,1.6-4.7l0.9,0.5C95.6,106.2,95.1,107.8,94.9,109"/>
								<path class="st8" d="M96.3,104.8l-0.9-0.5c0.4-0.7,0.8-1.4,1.3-1.9l0.7,0.7C97,103.6,96.6,104.2,96.3,104.8"/>
								<path class="st9" d="M97.4,103.1l-0.7-0.7c0.2-0.3,0.5-0.5,0.8-0.7l0.5,0.8C97.8,102.7,97.6,102.9,97.4,103.1"/>
								<path class="st10" d="M98.1,102.5l-0.5-0.8c0.2-0.1,0.4-0.2,0.6-0.3l0.4,0.8C98.4,102.3,98.2,102.4,98.1,102.5"/>
								<path class="st11" d="M98.5,102.2l-0.4-0.8c0.2-0.1,0.3-0.1,0.5-0.2l0.3,0.9C98.8,102.1,98.7,102.1,98.5,102.2"/>
								<path class="st12" d="M98.9,102l-0.3-0.9c0.1,0,0.3-0.1,0.4-0.1l0.2,0.9C99.1,102,99,102,98.9,102"/>
								<path class="st13" d="M99.2,102l-0.2-0.9c0.1,0,0.2,0,0.2,0l0.2,0.9C99.4,101.9,99.3,101.9,99.2,102"/>
							</g>
						</g>
						<g class="st4">
							<defs>
								<path id="SVGID_94_" class="st4" d="M113.8,135.1l-0.2,0.3c0-4.1,0.1-8.1,0.1-12l0.2-0.3C113.9,127,113.8,131,113.8,135.1z"
									/>
							</defs>
							<clipPath id="SVGID_95_">
								<use xlink:href="#SVGID_94_"  style="overflow:visible;"/>
							</clipPath>
							<g class="st91">
								<path class="st26" d="M113.8,135.1l-0.2,0.3c0-4.1,0.1-8.1,0.1-12l0.2-0.3C113.9,127,113.8,131,113.8,135.1"/>
							</g>
						</g>
						<g class="st4">
							<defs>
								<path id="SVGID_96_" class="st4" d="M114.2,123.1l-0.2,0.3c-2.9-0.3-5.9-1-8.9-1.9l0.2-0.3
									C108.3,122.2,111.2,122.9,114.2,123.1z"/>
							</defs>
							<clipPath id="SVGID_97_">
								<use xlink:href="#SVGID_96_"  style="overflow:visible;"/>
							</clipPath>
							<g class="st92">
								<path class="st26" d="M114.2,123.1l-0.2,0.3c-2.9-0.3-5.9-1-8.9-1.9l0.2-0.3C108.3,122.2,111.2,122.9,114.2,123.1"/>
							</g>
						</g>
						<g class="st4">
							<defs>
								<path id="SVGID_98_" class="st4" d="M105.3,121.2l-0.2,0.3c-3.4-1.4-6.7-3.1-9.8-5.1l0.2-0.3
									C98.6,118.1,101.9,119.8,105.3,121.2z"/>
							</defs>
							<clipPath id="SVGID_99_">
								<use xlink:href="#SVGID_98_"  style="overflow:visible;"/>
							</clipPath>
							<g class="st93">
								<path class="st26" d="M105.3,121.2l-0.2,0.3c-3.4-1.4-6.7-3.1-9.8-5.1l0.2-0.3C98.6,118.1,101.9,119.8,105.3,121.2"/>
							</g>
						</g>
						<g class="st4">
							<defs>
								<path id="SVGID_100_" class="st4" d="M95.5,116.1l-0.2,0.3c-2-1.1-1.8-4.8-1.8-6.1l0.2-0.3
									C93.8,111.3,93.5,115.1,95.5,116.1z"/>
							</defs>
							<clipPath id="SVGID_101_">
								<use xlink:href="#SVGID_100_"  style="overflow:visible;"/>
							</clipPath>
							<g class="st94">
								<path class="st26" d="M95.5,116.1l-0.2,0.3c-2-1.1-1.8-4.8-1.8-6.1l0.2-0.3C93.8,111.3,93.5,115.1,95.5,116.1"/>
							</g>
						</g>
						<g class="st4">
							<defs>
								<path id="SVGID_102_" class="st4" d="M105.6,120.2l-0.3,1c-3.4-1.4-6.7-3.1-9.8-5.1l0.6-0.9
									C99.1,117.2,102.3,118.9,105.6,120.2z"/>
							</defs>
							<clipPath id="SVGID_103_">
								<use xlink:href="#SVGID_102_"  style="overflow:visible;"/>
							</clipPath>
							<g class="st95">
								<path class="st9" d="M105.6,120.2l-0.3,1c-0.6-0.2-1.2-0.5-1.8-0.8l0.4-1C104.5,119.8,105.1,120,105.6,120.2"/>
								<path class="st8" d="M103.9,119.5l-0.4,1c-2.8-1.3-5.5-2.7-8-4.4l0.6-0.9C98.6,116.9,101.2,118.3,103.9,119.5"/>
							</g>
						</g>
						<g class="st4">
							<defs>
								<path id="SVGID_104_" class="st4" d="M96.1,115.2l-0.6,0.9c-2-1.1-1.8-4.8-1.8-6.1l1-0.1C94.8,111.2,94.7,114.5,96.1,115.2z
									"/>
							</defs>
							<clipPath id="SVGID_105_">
								<use xlink:href="#SVGID_104_"  style="overflow:visible;"/>
							</clipPath>
							<g class="st96">
								<path class="st8" d="M96.1,115.2l-0.6,0.9c-0.1-0.1-0.2-0.1-0.3-0.2l0.7-0.8C96,115.2,96,115.2,96.1,115.2"/>
								<path class="st7" d="M95.9,115.1l-0.7,0.8c-0.2-0.2-0.4-0.4-0.6-0.6l0.8-0.7C95.6,114.8,95.7,115,95.9,115.1"/>
								<path class="st6" d="M95.5,114.7l-0.8,0.7c-1.1-1.5-0.9-4.3-0.9-5.3l1-0.1C94.8,111,94.7,113.4,95.5,114.7"/>
							</g>
						</g>
						<g class="st4">
							<defs>
								<path id="SVGID_106_" class="st4" d="M112.1,38.1l-1,1.4C101.3,42.3,93,48.6,85.5,56c-10.7,10.7-16.8,24.1-17,41.4l-0.9-0.1
									c0.1-17.5,6.3-31.2,17.2-42C92.4,47.7,100.8,41.4,112.1,38.1z"/>
							</defs>
							<clipPath id="SVGID_107_">
								<use xlink:href="#SVGID_106_"  style="overflow:visible;"/>
							</clipPath>
							<g class="st97">
								<path class="st15" d="M112.1,38.1l-1,1.4c-0.2,0-0.3,0.1-0.5,0.1l0.9-1.4C111.8,38.2,111.9,38.1,112.1,38.1"/>
								<path class="st14" d="M111.6,38.3l-0.9,1.4c-2.7,0.8-5.3,1.9-7.8,3.2l0-1.1C105.5,40.4,108.5,39.2,111.6,38.3"/>
								<path class="st15" d="M102.8,41.7l0,1.1c-0.9,0.5-1.9,1-2.8,1.6l-0.2-1C100.8,42.8,101.8,42.3,102.8,41.7"/>
								<path class="st16" d="M99.8,43.4l0.2,1c-0.9,0.5-1.7,1.1-2.6,1.6l-0.4-0.9C98,44.5,98.9,43.9,99.8,43.4"/>
								<path class="st17" d="M97.1,45.1l0.4,0.9c-0.9,0.6-1.8,1.3-2.7,1.9L94.2,47C95.2,46.4,96.1,45.7,97.1,45.1"/>
								<path class="st18" d="M94.2,47l0.5,0.9c-1.2,0.9-2.3,1.8-3.5,2.8l-0.6-0.8C91.8,48.9,93,48,94.2,47"/>
								<path class="st19" d="M90.7,49.9l0.6,0.8c-2,1.7-3.9,3.4-5.7,5.3c-0.2,0.2-0.4,0.4-0.7,0.7l-0.7-0.8
									c0.2-0.2,0.4-0.4,0.7-0.7C86.7,53.3,88.6,51.6,90.7,49.9"/>
								<path class="st20" d="M84.2,55.9l0.7,0.8c-1.9,1.9-3.6,4-5.2,6.1l-0.8-0.7C80.5,59.9,82.2,57.9,84.2,55.9"/>
								<path class="st21" d="M78.9,62.1l0.8,0.7c-1.8,2.5-3.5,5-4.9,7.8L73.9,70C75.4,67.2,77,64.6,78.9,62.1"/>
								<path class="st22" d="M73.9,70l0.8,0.5C71.9,76,70,82.1,69.1,88.8l-0.9-0.2C69.1,81.7,71.1,75.6,73.9,70"/>
								<path class="st23" d="M68.2,88.6l0.9,0.2c-0.4,2.7-0.6,5.6-0.6,8.5l-0.9-0.1C67.6,94.2,67.8,91.3,68.2,88.6"/>
							</g>
						</g>
						<g class="st4">
							<defs>
								<path id="SVGID_108_" class="st4" d="M114.8,135l-1,0.1c0-4.1,0.1-8.1,0.1-12l1,0C114.9,126.9,114.8,130.9,114.8,135z"/>
							</defs>
							<clipPath id="SVGID_109_">
								<use xlink:href="#SVGID_108_"  style="overflow:visible;"/>
							</clipPath>
							<g class="st98">
								<path class="st6" d="M114.8,135l-1,0.1c0-4.1,0.1-8.1,0.1-12l1,0C114.9,126.9,114.8,130.9,114.8,135"/>
							</g>
						</g>
						<g class="st4">
							<defs>
								<path id="SVGID_110_" class="st4" d="M168.4,107.8l-0.2,0.3c-11.3,17.2-30.4,29.4-51.1,31.4l0.2-0.3
									C138.1,137.3,157.2,125,168.4,107.8z"/>
							</defs>
							<clipPath id="SVGID_111_">
								<use xlink:href="#SVGID_110_"  style="overflow:visible;"/>
							</clipPath>
							<g class="st99">
								<path class="st26" d="M168.4,107.8l-0.2,0.3c-11.3,17.2-30.4,29.4-51.1,31.4l0.2-0.3C138.1,137.3,157.2,125,168.4,107.8"/>
							</g>
						</g>
						<g class="st4">
							<defs>
								<path id="SVGID_112_" class="st4" d="M174.3,56.1c-0.1-0.3-0.5-1.3-1.3-2.5c5.4,9,6.7,19.1,5,30.1
									c-4.9,29.1-31.2,52.8-60.7,55.6l-0.1-1c29.1-2.7,55-26.1,59.8-54.8C178.8,73.5,177.7,64.2,174.3,56.1z"/>
							</defs>
							<clipPath id="SVGID_113_">
								<use xlink:href="#SVGID_112_"  style="overflow:visible;"/>
							</clipPath>
							<g class="st100">
								<path class="st31" d="M173.7,54.7l-0.7-1.1c0,0.1,0.1,0.2,0.1,0.2l0.6,1.1C173.8,54.8,173.8,54.8,173.7,54.7"/>
								<path class="st32" d="M173.8,54.9l-0.6-1.1c0,0.1,0.1,0.2,0.1,0.3l0.6,1.1C173.9,55.1,173.9,55,173.8,54.9"/>
								<path class="st33" d="M173.9,55.2l-0.6-1.1c0,0.1,0.1,0.2,0.1,0.3l0.5,1.1C174,55.3,174,55.2,173.9,55.2"/>
								<path class="st34" d="M174,55.4l-0.5-1.1c0,0.1,0.1,0.2,0.1,0.3l0.5,1.1C174.1,55.5,174.1,55.5,174,55.4"/>
								<path class="st35" d="M174.1,55.6l-0.5-1.1c0,0.1,0.1,0.2,0.1,0.3l0.5,1C174.2,55.8,174.2,55.7,174.1,55.6"/>
								<path class="st36" d="M174.2,55.9l-0.5-1c0,0.1,0.1,0.2,0.1,0.3l0.4,1C174.3,56,174.3,55.9,174.2,55.9"/>
								<path class="st37" d="M174.3,56.1l-0.4-1c0,0.1,0.1,0.2,0.1,0.3l0.4,1C174.4,56.3,174.4,56.2,174.3,56.1"/>
								<path class="st38" d="M174.4,56.3l-0.4-1c0.1,0.1,0.1,0.2,0.2,0.3l0.3,1C174.5,56.5,174.5,56.4,174.4,56.3"/>
								<path class="st39" d="M174.6,56.6l-0.3-1c0.1,0.1,0.1,0.2,0.2,0.3l0.3,1C174.6,56.8,174.6,56.7,174.6,56.6"/>
								<path class="st40" d="M174.7,56.9l-0.3-1c0.1,0.1,0.1,0.2,0.2,0.3l0.2,0.9C174.8,57.1,174.7,57,174.7,56.9"/>
								<path class="st41" d="M174.8,57.2l-0.2-0.9c0.1,0.1,0.1,0.2,0.2,0.3l0.2,0.9C174.9,57.5,174.8,57.4,174.8,57.2"/>
								<path class="st42" d="M174.9,57.6l-0.2-0.9c0.1,0.1,0.1,0.2,0.2,0.3l0.1,0.9C175,57.8,175,57.7,174.9,57.6"/>
								<path class="st43" d="M175,57.9l-0.1-0.9c0.1,0.1,0.1,0.2,0.2,0.3l0.1,0.9C175.1,58.1,175.1,58,175,57.9"/>
								<path class="st44" d="M175.1,58.2l-0.1-0.9c0.1,0.1,0.1,0.2,0.2,0.3l0.1,0.9C175.2,58.4,175.2,58.3,175.1,58.2"/>
								<path class="st6" d="M175.3,58.5l-0.1-0.9c0.1,0.1,0.1,0.2,0.2,0.3l0,0.8C175.3,58.7,175.3,58.6,175.3,58.5"/>
								<path class="st7" d="M175.4,58.8l0-0.8c0,0.1,0.1,0.2,0.1,0.3l0,0.8C175.4,59,175.4,58.9,175.4,58.8"/>
								<path class="st8" d="M175.5,59.2l0-0.8c0,0.1,0.1,0.2,0.1,0.3l-0.1,0.8C175.5,59.4,175.5,59.3,175.5,59.2"/>
								<path class="st9" d="M175.6,59.5l0.1-0.8c0.1,0.3,0.2,0.5,0.3,0.8l-0.1,0.8C175.7,60,175.7,59.7,175.6,59.5"/>
								<path class="st10" d="M175.8,60.2l0.1-0.8c0.1,0.3,0.2,0.5,0.3,0.8L176,61C176,60.7,175.9,60.5,175.8,60.2"/>
								<path class="st11" d="M176,61l0.2-0.7c0.1,0.3,0.2,0.5,0.3,0.8l-0.3,0.7C176.2,61.5,176.1,61.3,176,61"/>
								<path class="st12" d="M176.3,61.8l0.3-0.7c0.1,0.3,0.2,0.6,0.3,0.8l-0.4,0.6C176.4,62.3,176.3,62,176.3,61.8"/>
								<path class="st13" d="M176.5,62.6l0.4-0.6c0.1,0.3,0.2,0.6,0.3,0.9l-0.4,0.6C176.6,63.1,176.5,62.8,176.5,62.6"/>
								<path class="st14" d="M176.7,63.4l0.4-0.6c0.1,0.3,0.2,0.6,0.2,0.9l-0.5,0.5C176.8,64,176.7,63.7,176.7,63.4"/>
								<path class="st15" d="M176.8,64.2l0.5-0.5c0.1,0.3,0.2,0.6,0.2,0.9l-0.6,0.5C177,64.8,176.9,64.5,176.8,64.2"/>
								<path class="st16" d="M177,65.1l0.6-0.5c0.1,0.3,0.1,0.6,0.2,0.9l-0.6,0.5C177.1,65.7,177.1,65.4,177,65.1"/>
								<path class="st17" d="M177.2,66l0.6-0.5c0.1,0.4,0.2,0.8,0.3,1.2l-0.7,0.4C177.3,66.8,177.2,66.4,177.2,66"/>
								<path class="st18" d="M177.4,67.2l0.7-0.4c0.1,0.4,0.1,0.8,0.2,1.3l-0.7,0.4C177.5,68,177.4,67.6,177.4,67.2"/>
								<path class="st19" d="M177.5,68.4l0.7-0.4c0.1,0.5,0.1,1,0.2,1.5l-0.8,0.3C177.6,69.3,177.6,68.9,177.5,68.4"/>
								<path class="st20" d="M177.7,69.8l0.8-0.3c0.1,0.7,0.2,1.4,0.2,2.2l-0.8,0.2C177.8,71.2,177.7,70.5,177.7,69.8"/>
								<path class="st21" d="M177.8,71.9l0.8-0.2c0.1,1.2,0.1,2.4,0.1,3.6l-0.9,0.1C177.9,74.2,177.9,73,177.8,71.9"/>
								<path class="st22" d="M177.9,75.4l0.9-0.1c0,2.7-0.3,5.5-0.7,8.4c-1,6-2.9,11.8-5.6,17.2l-0.9-0.5c2.6-5.3,4.5-11,5.5-16.9
									C177.5,80.7,177.8,78,177.9,75.4"/>
								<path class="st21" d="M171.6,100.3l0.9,0.5c-1.7,3.5-3.7,6.8-6,9.9l-0.8-0.6C167.9,107,169.9,103.7,171.6,100.3"/>
								<path class="st20" d="M165.7,110.1l0.8,0.6c-1.9,2.6-3.9,5-6.1,7.3l-0.7-0.7C161.8,115,163.8,112.6,165.7,110.1"/>
								<path class="st19" d="M159.7,117.2l0.7,0.7c-2,2.1-4.2,4.1-6.5,6l-0.6-0.8C155.5,121.3,157.7,119.3,159.7,117.2"/>
								<path class="st18" d="M153.3,123.1l0.6,0.8c-2,1.7-4.2,3.2-6.4,4.7l-0.5-0.9C149.1,126.3,151.2,124.8,153.3,123.1"/>
								<path class="st17" d="M146.9,127.7l0.5,0.9c-2.1,1.3-4.2,2.5-6.4,3.7l-0.4-0.9C142.8,130.2,144.9,129,146.9,127.7"/>
								<path class="st16" d="M140.7,131.3l0.4,0.9c-2.1,1.1-4.3,2-6.5,2.9l-0.3-1C136.4,133.3,138.6,132.4,140.7,131.3"/>
								<path class="st15" d="M134.2,134.2l0.3,1c-2.1,0.8-4.3,1.5-6.5,2.1l-0.2-1C130,135.7,132.2,135,134.2,134.2"/>
								<path class="st14" d="M127.9,136.3l0.2,1c-2.1,0.6-4.3,1.1-6.5,1.4l-0.1-1C123.6,137.3,125.7,136.8,127.9,136.3"/>
								<path class="st13" d="M121.4,137.7l0.1,1c-1.4,0.2-2.8,0.4-4.2,0.5l-0.1-1C118.7,138.1,120.1,137.9,121.4,137.7"/>
							</g>
						</g>
						<g class="st4">
							<defs>
								<path id="SVGID_114_" class="st4" d="M117.4,139.2l-0.2,0.3c-3.4-0.2-3.4-2.1-3.6-4.2l0.2-0.3
									C113.9,137.1,114,139.1,117.4,139.2z"/>
							</defs>
							<clipPath id="SVGID_115_">
								<use xlink:href="#SVGID_114_"  style="overflow:visible;"/>
							</clipPath>
							<g class="st101">
								<path class="st26" d="M117.4,139.2l-0.2,0.3c-3.4-0.2-3.4-2.1-3.6-4.2l0.2-0.3C113.9,137.1,114,139.1,117.4,139.2"/>
							</g>
						</g>
						<g class="st4">
							<defs>
								<path id="SVGID_116_" class="st4" d="M117.3,138.2l0.1,1c-3.4-0.2-3.4-2.1-3.6-4.2l1-0.1C115,136.8,115,138.1,117.3,138.2z"
									/>
							</defs>
							<clipPath id="SVGID_117_">
								<use xlink:href="#SVGID_116_"  style="overflow:visible;"/>
							</clipPath>
							<g class="st102">
								<path class="st11" d="M117.3,138.2l0.1,1c-0.2,0-0.5,0-0.7-0.1l0.1-1C117,138.2,117.1,138.2,117.3,138.2"/>
								<path class="st10" d="M116.8,138.2l-0.1,1c-0.3,0-0.5-0.1-0.7-0.2l0.4-1C116.5,138.1,116.7,138.1,116.8,138.2"/>
								<path class="st9" d="M116.3,138l-0.4,1c-0.3-0.1-0.5-0.2-0.7-0.3l0.6-0.9C116,137.9,116.2,138,116.3,138"/>
								<path class="st8" d="M115.9,137.8l-0.6,0.9c-0.2-0.1-0.4-0.3-0.6-0.5l0.8-0.8C115.6,137.6,115.7,137.8,115.9,137.8"/>
								<path class="st7" d="M115.5,137.5l-0.8,0.8c-0.2-0.3-0.4-0.6-0.5-0.9l1-0.5C115.2,137.1,115.3,137.3,115.5,137.5"/>
								<path class="st6" d="M115.1,136.8l-1,0.5c-0.2-0.7-0.3-1.5-0.3-2.3l1-0.1C114.9,135.7,114.9,136.3,115.1,136.8"/>
							</g>
						</g>
						<g class="st4">
							<defs>
								<path id="SVGID_118_" class="st4" d="M91.5,135.6c-1.1-0.6-2.5-1.3-3.5-1.8c-7.7-3.9-14-9.6-18.3-16.8
									c0.3,0.5,1.1,1.8,2.6,3.6C77,126.3,83.4,131.3,91.5,135.6z"/>
							</defs>
							<clipPath id="SVGID_119_">
								<use xlink:href="#SVGID_118_"  style="overflow:visible;"/>
							</clipPath>
							<g class="st103">
								<path class="st26" d="M96.1,137.8l-8.1-4.1c-1-0.5-2-1.1-3-1.6l6.6,3.5C93,136.4,94.5,137.1,96.1,137.8"/>
								<path class="st27" d="M91.6,135.6l-6.6-3.5c-0.5-0.3-0.9-0.5-1.3-0.8l6,3.3C90.3,134.9,90.9,135.3,91.6,135.6"/>
								<path class="st28" d="M89.7,134.6l-6-3.3c-0.2-0.1-0.4-0.2-0.6-0.4l5.8,3.2C89.1,134.3,89.4,134.4,89.7,134.6"/>
								<path class="st29" d="M88.8,134.1l-5.8-3.2c-0.2-0.1-0.4-0.3-0.6-0.4l5.5,3.1C88.3,133.8,88.6,134,88.8,134.1"/>
								<path class="st30" d="M88,133.6l-5.5-3.1c-0.2-0.1-0.4-0.3-0.6-0.4l5.3,3C87.5,133.3,87.7,133.5,88,133.6"/>
								<path class="st31" d="M87.2,133.2l-5.3-3c-0.2-0.1-0.4-0.3-0.5-0.4l5,2.9C86.7,132.8,86.9,133,87.2,133.2"/>
								<path class="st32" d="M86.4,132.7l-5-2.9c-0.4-0.3-0.8-0.6-1.2-0.9l4.5,2.7C85.3,131.9,85.8,132.3,86.4,132.7"/>
								<path class="st33" d="M84.7,131.6l-4.5-2.7c-1-0.8-2.1-1.7-3-2.6l3.3,2.2C81.8,129.5,83.2,130.6,84.7,131.6"/>
								<path class="st32" d="M80.5,128.5l-3.3-2.2c-0.4-0.4-0.8-0.8-1.2-1.1l2.9,2.1C79.4,127.6,79.9,128.1,80.5,128.5"/>
								<path class="st31" d="M78.8,127.2l-2.9-2.1c-0.2-0.2-0.4-0.5-0.7-0.7l2.6,2C78.2,126.7,78.5,126.9,78.8,127.2"/>
								<path class="st30" d="M77.9,126.4l-2.6-2c-0.2-0.2-0.4-0.5-0.6-0.7l2.4,1.9C77.4,125.9,77.6,126.1,77.9,126.4"/>
								<path class="st29" d="M77.1,125.6l-2.4-1.9c-0.2-0.2-0.4-0.5-0.6-0.7l2.2,1.8C76.5,125.1,76.8,125.4,77.1,125.6"/>
								<path class="st28" d="M76.2,124.8l-2.2-1.8c-0.2-0.2-0.4-0.5-0.6-0.7l2,1.7C75.7,124.3,75.9,124.6,76.2,124.8"/>
								<path class="st27" d="M75.4,124l-2-1.7c-0.2-0.2-0.4-0.5-0.6-0.7l1.8,1.7C74.9,123.5,75.1,123.8,75.4,124"/>
								<path class="st26" d="M74.6,123.2l-1.8-1.7c-1.1-1.4-2.2-3-3.2-4.5l0.8,1.3C71.7,120,73.1,121.6,74.6,123.2"/>
							</g>
						</g>
						<g class="st4">
							<defs>
								<path id="SVGID_120_" class="st4" d="M72.5,59l0.2-0.3c-4.8,7.3-8.1,15.5-9.6,24.2c-4.1,25.1,8.3,45.4,39.8,57.4l-0.2,0.3
									c-31.5-12-43.8-32.3-39.8-57.4C64.3,74.5,67.7,66.3,72.5,59z"/>
							</defs>
							<clipPath id="SVGID_121_">
								<use xlink:href="#SVGID_120_"  style="overflow:visible;"/>
							</clipPath>
							<g class="st104">
								<path class="st26" d="M102.8,140.3l-0.2,0.3c-31.5-12-43.8-32.3-39.8-57.4c1.4-8.7,4.8-16.9,9.6-24.2l0.2-0.3
									c-4.8,7.3-8.1,15.5-9.6,24.2C59,108,71.3,128.3,102.8,140.3"/>
							</g>
						</g>
						<g class="st4">
							<defs>
								<path id="SVGID_122_" class="st4" d="M71.2,118.5c0.5,0.7,1.8,2.6,4.3,5.1c-11.1-11.1-15-25-12.4-40.7
									c5-29.8,32.5-54.1,63.1-55.8l-0.2,0.9c-29.8,1.7-57,25.6-61.9,55C61.8,96.5,64.6,108.8,71.2,118.5z"/>
							</defs>
							<clipPath id="SVGID_123_">
								<use xlink:href="#SVGID_122_"  style="overflow:visible;"/>
							</clipPath>
							<g class="st105">
								<path class="st26" d="M73.6,121.8l1.8,1.8c-1.7-1.7-3.2-3.5-4.6-5.3l-0.7-1.4C71.2,118.6,72.3,120.2,73.6,121.8"/>
								<path class="st27" d="M70.1,116.9l0.7,1.4c-0.3-0.4-0.5-0.7-0.8-1.1l-0.5-1.3C69.7,116.2,69.9,116.5,70.1,116.9"/>
								<path class="st28" d="M69.5,115.8l0.5,1.3c-0.2-0.3-0.4-0.6-0.6-0.9L69,115C69.2,115.3,69.3,115.6,69.5,115.8"/>
								<path class="st29" d="M69,115l0.4,1.3c-0.1-0.2-0.2-0.4-0.4-0.5l-0.3-1.2C68.8,114.7,68.9,114.8,69,115"/>
								<path class="st30" d="M68.8,114.5l0.3,1.2c-0.1-0.2-0.2-0.4-0.3-0.5l-0.3-1.2C68.6,114.2,68.7,114.3,68.8,114.5"/>
								<path class="st31" d="M68.5,114l0.3,1.2c-0.1-0.2-0.2-0.4-0.3-0.5l-0.2-1.2C68.3,113.6,68.4,113.8,68.5,114"/>
								<path class="st32" d="M68.2,113.5l0.2,1.2c-0.1-0.2-0.2-0.4-0.3-0.6L68,113C68.1,113.1,68.1,113.3,68.2,113.5"/>
								<path class="st33" d="M68,113l0.1,1.1c-0.1-0.2-0.2-0.4-0.3-0.6l-0.1-1.1C67.8,112.6,67.9,112.8,68,113"/>
								<path class="st34" d="M67.7,112.4l0.1,1.1c-0.1-0.3-0.3-0.5-0.4-0.8l0-1.1C67.5,111.9,67.6,112.2,67.7,112.4"/>
								<path class="st35" d="M67.4,111.7l0,1.1c-0.1-0.3-0.3-0.5-0.4-0.8l0.1-1C67.2,111.2,67.3,111.4,67.4,111.7"/>
								<path class="st36" d="M67,110.9l-0.1,1c-0.1-0.3-0.3-0.5-0.4-0.8l0.2-1C66.8,110.4,66.9,110.7,67,110.9"/>
								<path class="st37" d="M66.7,110.1l-0.2,1c-0.1-0.3-0.3-0.6-0.4-0.9l0.3-0.9C66.5,109.6,66.6,109.9,66.7,110.1"/>
								<path class="st38" d="M66.4,109.3l-0.3,0.9c-0.2-0.4-0.4-0.8-0.5-1.2l0.4-0.9C66.1,108.5,66.2,108.9,66.4,109.3"/>
								<path class="st39" d="M66,108.2l-0.4,0.9c-0.2-0.4-0.3-0.8-0.5-1.2l0.5-0.8C65.7,107.4,65.8,107.8,66,108.2"/>
								<path class="st40" d="M65.6,107l-0.5,0.8c-0.2-0.5-0.4-1-0.5-1.5l0.6-0.8C65.3,106,65.4,106.5,65.6,107"/>
								<path class="st41" d="M65.1,105.6l-0.6,0.8c-0.2-0.6-0.4-1.1-0.5-1.7l0.7-0.7C64.8,104.5,65,105,65.1,105.6"/>
								<path class="st42" d="M64.7,103.9l-0.7,0.7c-0.2-0.7-0.4-1.5-0.6-2.2l0.8-0.6C64.4,102.5,64.5,103.2,64.7,103.9"/>
								<path class="st43" d="M64.2,101.8l-0.8,0.6c-0.2-1-0.4-1.9-0.6-2.9l0.9-0.5C63.9,99.9,64.1,100.9,64.2,101.8"/>
								<path class="st44" d="M63.8,99l-0.9,0.5c-0.3-1.6-0.4-3.2-0.5-4.9l1-0.3C63.4,95.9,63.6,97.4,63.8,99"/>
								<path class="st6" d="M63.3,94.3l-1,0.3c-0.2-3.4,0-7,0.5-10.7l1,0.1C63.4,87.5,63.2,90.9,63.3,94.3"/>
								<path class="st7" d="M63.9,84l-1-0.1c0-0.3,0.1-0.7,0.2-1c1-6.1,3-12,5.8-17.5l0.9,0.4C67,71.2,65.1,77,64.1,83
									C64,83.4,64,83.7,63.9,84"/>
								<path class="st8" d="M69.7,65.8l-0.9-0.4c2.8-5.6,6.4-10.8,10.6-15.4l0.8,0.6C76.1,55.1,72.5,60.3,69.7,65.8"/>
								<path class="st9" d="M80.2,50.6L79.4,50c3.9-4.3,8.3-8.1,13.1-11.3l0.5,0.8C88.4,42.6,84,46.3,80.2,50.6"/>
								<path class="st10" d="M93.1,39.4l-0.5-0.8c3.8-2.5,7.7-4.7,11.9-6.4l0.3,0.8C100.7,34.8,96.8,36.9,93.1,39.4"/>
								<path class="st11" d="M104.8,33.1l-0.3-0.8c2.9-1.2,6-2.3,9.1-3.1l0.1,0.9C110.7,30.8,107.7,31.8,104.8,33.1"/>
								<path class="st12" d="M113.7,30l-0.1-0.9c2.3-0.6,4.7-1.1,7.1-1.4l0,0.9C118.3,28.9,116,29.4,113.7,30"/>
								<path class="st13" d="M120.6,28.6l0-0.9c1.8-0.3,3.6-0.4,5.5-0.6l-0.2,0.9C124.2,28.2,122.4,28.3,120.6,28.6"/>
							</g>
						</g>
						<g class="st4">
							<defs>
								<path id="SVGID_124_" class="st4" d="M67.6,97.2l0.9,0.1c1.4,20.9,12.7,30.2,34.3,43l-10.3-5C80.6,128.2,69,118.7,67.6,97.2
									z"/>
							</defs>
							<clipPath id="SVGID_125_">
								<use xlink:href="#SVGID_124_"  style="overflow:visible;"/>
							</clipPath>
							<g class="st106">
								<path class="st22" d="M67.6,97.2l0.9,0.1c0.2,3,0.6,5.7,1.2,8.2l-0.9,0.1C68.2,103,67.8,100.3,67.6,97.2"/>
								<path class="st23" d="M68.8,105.6l0.9-0.1c0.4,1.7,0.9,3.4,1.5,4.9l-1,0.2C69.7,109,69.2,107.4,68.8,105.6"/>
								<path class="st24" d="M70.2,110.6l1-0.2c0.4,1.1,0.9,2.1,1.3,3.1l-1.1,0.1C71,112.7,70.6,111.7,70.2,110.6"/>
								<path class="st107" d="M71.4,113.7l1.1-0.1c0.5,1,1.1,2,1.7,3l-1.3,0.1C72.4,115.7,71.9,114.7,71.4,113.7"/>
								<path class="st108" d="M72.9,116.7l1.3-0.1c0.9,1.4,1.9,2.8,2.9,4.1l-1.8-0.1C74.5,119.4,73.7,118.1,72.9,116.7"/>
								<path class="st109" d="M75.4,120.6l1.8,0.1c1.9,2.3,4.1,4.5,6.6,6.7l-3.3-1C78.6,124.7,76.9,122.7,75.4,120.6"/>
								<path class="st108" d="M80.4,126.4l3.3,1c1.5,1.2,3,2.5,4.7,3.7l-4.7-1.8C82.6,128.4,81.5,127.4,80.4,126.4"/>
								<path class="st107" d="M83.7,129.3l4.7,1.8c0.9,0.7,1.9,1.3,2.9,2l-5.7-2.3C85,130.3,84.4,129.8,83.7,129.3"/>
								<path class="st24" d="M85.6,130.7l5.7,2.3c0.8,0.5,1.5,1,2.3,1.5l-6.5-2.8C86.6,131.5,86.1,131.1,85.6,130.7"/>
								<path class="st23" d="M87.1,131.8l6.5,2.8c0.6,0.4,1.2,0.8,1.9,1.2l-7.2-3.2C87.9,132.3,87.5,132.1,87.1,131.8"/>
								<path class="st22" d="M88.3,132.6l7.2,3.2c0.6,0.4,1.2,0.7,1.8,1.1l-7.9-3.6C89,133.1,88.6,132.8,88.3,132.6"/>
								<path class="st21" d="M89.3,133.3l7.9,3.6c0.5,0.3,1,0.6,1.6,1l-8.5-4C90,133.7,89.6,133.5,89.3,133.3"/>
								<path class="st20" d="M90.3,133.9l8.5,4c0.5,0.3,1,0.6,1.5,0.9l-9.2-4.4C90.8,134.2,90.6,134.1,90.3,133.9"/>
								<path class="st19" d="M91.1,134.4l9.2,4.4c0.5,0.3,0.9,0.5,1.4,0.8l-9.8-4.7C91.6,134.7,91.4,134.6,91.1,134.4"/>
								<path class="st18" d="M91.9,134.9l9.8,4.7c0.4,0.2,0.8,0.5,1.2,0.7l-10.3-5C92.3,135.1,92.1,135,91.9,134.9"/>
							</g>
						</g>
						<g class="st4">
							<defs>
								<path id="SVGID_126_" class="st4" d="M88.3,133.4C88.4,133.5,88.4,133.4,88.3,133.4c-0.1,0-0.2-0.1-0.3-0.2
									c-0.3-0.1-0.5-0.3-0.8-0.4c1.7,0.9,3.5,1.7,5.3,2.4l10.3,5C97.4,138.3,92.6,136,88.3,133.4z"/>
							</defs>
							<clipPath id="SVGID_127_">
								<use xlink:href="#SVGID_126_"  style="overflow:visible;"/>
							</clipPath>
							<g class="st110">
								<path class="st9" d="M92.5,135.3l10.3,5c-0.1,0-0.1,0-0.2-0.1l-10.2-5C92.5,135.2,92.5,135.3,92.5,135.3"/>
								<path class="st8" d="M92.4,135.2l10.2,5c-0.1-0.1-0.3-0.1-0.4-0.2l-10.1-5C92.3,135.2,92.3,135.2,92.4,135.2"/>
								<path class="st7" d="M92.2,135.1l10.1,5c-0.1-0.1-0.3-0.1-0.4-0.2l-9.9-4.9C92,135.1,92.1,135.1,92.2,135.1"/>
								<path class="st6" d="M91.9,135l9.9,4.9c-0.1-0.1-0.3-0.1-0.4-0.2l-9.8-4.9C91.7,135,91.8,135,91.9,135"/>
								<path class="st44" d="M91.7,134.9l9.8,4.9c-0.1-0.1-0.3-0.1-0.4-0.2l-9.6-4.8C91.5,134.8,91.6,134.9,91.7,134.9"/>
								<path class="st43" d="M91.4,134.8l9.6,4.8c-0.1-0.1-0.3-0.1-0.4-0.2l-9.5-4.8C91.2,134.7,91.3,134.8,91.4,134.8"/>
								<path class="st42" d="M91.1,134.7l9.5,4.8c-0.1-0.1-0.3-0.1-0.4-0.2l-9.4-4.7C91,134.6,91.1,134.7,91.1,134.7"/>
								<path class="st41" d="M90.9,134.6l9.4,4.7c-0.1-0.1-0.3-0.1-0.4-0.2l-9.2-4.7C90.7,134.5,90.8,134.6,90.9,134.6"/>
								<path class="st40" d="M90.6,134.5l9.2,4.7c-0.1-0.1-0.3-0.1-0.4-0.2l-9.1-4.6C90.5,134.4,90.6,134.5,90.6,134.5"/>
								<path class="st39" d="M90.4,134.4l9.1,4.6c-0.1-0.1-0.3-0.1-0.4-0.2l-9-4.6C90.2,134.3,90.3,134.3,90.4,134.4"/>
								<path class="st38" d="M90.1,134.3l9,4.6c-0.1-0.1-0.3-0.1-0.4-0.2l-8.9-4.5C90,134.2,90.1,134.2,90.1,134.3"/>
								<path class="st37" d="M89.9,134.2l8.9,4.5c-0.1-0.1-0.3-0.1-0.4-0.2l-8.7-4.5C89.7,134.1,89.8,134.1,89.9,134.2"/>
								<path class="st36" d="M89.6,134l8.7,4.5c-0.1-0.1-0.3-0.1-0.4-0.2l-8.6-4.4C89.5,134,89.6,134,89.6,134"/>
								<path class="st35" d="M89.4,133.9l8.6,4.4c-0.1-0.1-0.3-0.1-0.4-0.2l-8.4-4.3C89.2,133.8,89.3,133.9,89.4,133.9"/>
								<path class="st34" d="M89.1,133.8l8.4,4.3c-0.1-0.1-0.3-0.1-0.4-0.2l-8.3-4.3C88.9,133.7,89,133.8,89.1,133.8"/>
								<path class="st33" d="M88.8,133.7l8.3,4.3c-0.1-0.1-0.3-0.1-0.4-0.2l-8.2-4.2C88.6,133.6,88.7,133.6,88.8,133.7"/>
								<path class="st32" d="M88.6,133.5l8.2,4.2c-0.1-0.1-0.3-0.1-0.4-0.2l-8-4.2C88.4,133.4,88.5,133.5,88.6,133.5"/>
								<path class="st31" d="M88.3,133.4l8,4.2c-0.1-0.1-0.3-0.1-0.4-0.2l-7.9-4.1C88.1,133.3,88.2,133.4,88.3,133.4"/>
								<path class="st30" d="M88,133.3l7.9,4.1c-0.1-0.1-0.3-0.1-0.4-0.2l-7.8-4.1C87.8,133.2,87.9,133.2,88,133.3"/>
								<path class="st29" d="M87.7,133.1l7.8,4.1c-0.1-0.1-0.3-0.1-0.4-0.2l-7.6-4C87.6,133,87.7,133.1,87.7,133.1"/>
								<path class="st28" d="M87.5,133l7.6,4c-0.1-0.1-0.3-0.1-0.4-0.2l-7.5-4C87.3,132.9,87.4,132.9,87.5,133"/>
								<path class="st27" d="M87.2,132.8l7.5,4c-0.1-0.1-0.3-0.1-0.4-0.2l-7.4-3.9C87,132.8,87.1,132.8,87.2,132.8"/>
								<path class="st26" d="M86.9,132.7l7.4,3.9c-2.1-1-4.1-2.1-6-3.2l-5.5-3.2C84.2,131.1,85.5,131.9,86.9,132.7"/>
							</g>
						</g>
						<g>
							<path class="st111" d="M147.3,30.8c21.2,7.4,33.9,28.2,29.8,52.6c-4.8,28.7-30.7,52-59.8,54.8c-2.3-0.1-2.3-1.4-2.5-3.2
								c0-4,0.1-8,0.1-11.9c0-0.6-0.1-0.8-0.4-0.9c-3.1-0.3-6-1-8.9-1.9c-3.3-1.4-6.5-3.1-9.5-5c-1.4-0.7-1.3-4-1.3-5.3
								c0.2-2.4,1.9-7.7,4.6-8c3.5,0,5.1,1.7,8.4,3.3c3.8,1.7,8.4,3.1,12.9,3.1c2.6,0,5.1-0.4,7.3-1.4c2.9-1.8,3.6-4.1,2.1-7.1
								c-2.5-4.9-14-8.9-19.2-11.4C98.4,83,91.2,72.5,93.1,59.9c1.4-9.2,10-16.2,19.2-17.4l-0.1-4.4c-11.3,3.3-19.8,9.6-27.3,17.1
								C73.9,66,67.7,79.7,67.6,97.2c1.4,21.4,13,31,24.9,38C72.2,127.5,60,107,64.1,83c4.9-29.3,32.1-53.3,61.9-55
								c1.2,0.7,1.3,0.8,1.9,2.4c-0.2,3.6-0.3,7.3-0.5,11.1c6,1.2,11.6,2.9,16.1,6.6c0.4,7.4-4.4,11-7.3,11c-0.4,0-0.8-0.1-1.2-0.3
								c0.2-0.4-9.7-3.1-11.8-3.6c-0.7-0.1-1.4-0.2-2.1-0.2c-1.8,0-3.6,0.3-5.2,1c-2.8,1.4-4.2,3.4-2.7,6.6c1.2,2.2,3.2,4,5.4,5.2
								c6.2,3.2,12.4,6.6,18.8,9.9c5,2.6,9.2,6.6,11.9,11.5c1.9,4.5,2.4,9.4,1.6,14.1c-1.1,3.9-2.5,7.2-4.7,9.4
								c-1.6,1.9-3.7,3.6-6,4.9c-2.9,1.7-6.1,2.9-9.4,3.6c-0.1,2-0.1,3.9-0.2,5.9c0.5,0.1,0.6,0.1,0.8,0c6.9-2.2,12.9-6.1,18.8-10.4
								c7.6-6.8,14.6-13.8,18.2-23c2.6-5.5,4.4-11.3,5.1-17.4C175.1,57.7,167.8,40,147.3,30.8z"/>
						</g>
					</g>
				</g>
			</g>
		</g>
	</g>
</g>
</svg>
