<svg id="0db9ca42-f326-4a4e-8ac0-9748172d0881" data-name="Capa 1" xmlns="http://www.w3.org/2000/svg" viewBox="0 0 61.47 61.47"><defs><style>.\39 c233a2a-6251-44f1-8f9d-1372c504bf21{fill:#fff;}.\36 bf472ea-4368-43ac-bd6c-0c3ac8fba122{fill:#999395;}</style></defs><title>prop2</title><circle class="9c233a2a-6251-44f1-8f9d-1372c504bf21" cx="30.73" cy="30.73" r="30.73"/><rect class="6bf472ea-4368-43ac-bd6c-0c3ac8fba122" x="15.73" y="18.24" width="30" height="25" rx="1.03" ry="1.03"/><path class="9c233a2a-6251-44f1-8f9d-1372c504bf21" d="M33.91,30.73l8.54-7.12a.5.5,0,0,0,.07-.7.52.52,0,0,0-.71-.07L30.73,32.08,19.65,22.84a.5.5,0,0,0-.7.07.49.49,0,0,0,.06.7l8.54,7.12L19,37.85a.5.5,0,0,0,.32.88.52.52,0,0,0,.32-.11l8.68-7.24,2.08,1.73a.51.51,0,0,0,.32.12.47.47,0,0,0,.32-.12l2.09-1.73,8.67,7.24a.56.56,0,0,0,.32.11.5.5,0,0,0,.39-.18.5.5,0,0,0-.07-.7Z"/></svg>