<svg xmlns="http://www.w3.org/2000/svg" viewBox="0 0 259.54 327.41"><defs><style>.c749b8fb-201f-41df-ae86-51316911ed1d{isolation:isolate;}.\34 29504cc-70d2-42fd-9a1b-586383089160{opacity:0.75;}.\34 29504cc-70d2-42fd-9a1b-586383089160,.dcaae1cb-5e99-4ed0-b81d-bf78993503c1{mix-blend-mode:multiply;}.\31 28c528c-9408-49be-a6fe-a85d7dc432ab,.\34 d6eb798-4e04-470c-883a-b0892c8d585e,.\38 b8b1524-a86c-410c-b55a-5668b56d8384{fill:#abbec6;}.\32 dd3dfa5-6f99-497b-9328-d259b2b8f015,.d85f61e8-7c01-4d9d-84e3-4942f13c72f1{fill:#375a64;}.e9461efc-e065-486b-b7cd-c938def7b201{fill:#eaeef1;}.c642e1fb-a97e-4f0b-aafd-298a23275b9d{fill:#49cbc4;}.\34 6bce42f-7a5d-4740-aca5-055b9bf0d4c5{fill:#ff490b;}.\35 7debec0-5e5d-474b-a3b7-8ab5921c0c47{font-size:14.74px;letter-spacing:0.04em;}.\35 7debec0-5e5d-474b-a3b7-8ab5921c0c47,.\38 70bf6c0-7829-487d-a17b-77df7a19f3aa,.ee2d579b-adf8-411b-9ded-083d1cd8a097{fill:#fff;}.\31 28c528c-9408-49be-a6fe-a85d7dc432ab,.\32 ee23239-1132-4580-8c6b-92bc071af17f,.\35 7debec0-5e5d-474b-a3b7-8ab5921c0c47,.d85f61e8-7c01-4d9d-84e3-4942f13c72f1{font-family:Aller-Bold, Aller;}.\31 28c528c-9408-49be-a6fe-a85d7dc432ab,.\32 1dec052-59f0-4b59-a23f-f8bb019d3256,.\32 ee23239-1132-4580-8c6b-92bc071af17f,.\34 d6eb798-4e04-470c-883a-b0892c8d585e,.\35 7debec0-5e5d-474b-a3b7-8ab5921c0c47,.\36 c72e2ab-c6a9-415e-bd01-7a8682dd0996,.d85f61e8-7c01-4d9d-84e3-4942f13c72f1,.ea1659e1-5784-4417-aa63-3a5f5dff9fe4,.ee2d579b-adf8-411b-9ded-083d1cd8a097{font-weight:700;}.\33 b6a0d81-9041-4e19-b4be-db3f127f0a55{letter-spacing:0.1em;}.d85f61e8-7c01-4d9d-84e3-4942f13c72f1{font-size:11.47px;}.ee2d579b-adf8-411b-9ded-083d1cd8a097{font-size:7.51px;}.\32 1dec052-59f0-4b59-a23f-f8bb019d3256,.\34 d6eb798-4e04-470c-883a-b0892c8d585e,.\36 c72e2ab-c6a9-415e-bd01-7a8682dd0996,.ea1659e1-5784-4417-aa63-3a5f5dff9fe4,.ee2d579b-adf8-411b-9ded-083d1cd8a097{font-family:Roboto-Bold, Roboto;}.e5c2ab23-ce14-402f-8a17-7fac1561bddb{fill:#00c6db;}.\32 ee23239-1132-4580-8c6b-92bc071af17f,.\33 af5488c-cd75-4e8b-9863-6fadaf925131,.dcaae1cb-5e99-4ed0-b81d-bf78993503c1{fill:#ccd8dc;}.\37 4bdaad1-06be-49de-9afa-bfd793672048,.df2b7b22-ca6a-468a-a85c-3a7beebfff07,.f5aaea86-d0b1-47b0-9c1e-8bbb020d93ca{fill:none;stroke-linecap:round;stroke-linejoin:round;}.f5aaea86-d0b1-47b0-9c1e-8bbb020d93ca{stroke:#2b454e;stroke-width:3px;}.cca12682-eecf-4fa5-9c1c-c6b8f6a122a7,.ea1659e1-5784-4417-aa63-3a5f5dff9fe4{fill:#a6a6a6;}.\32 1dec052-59f0-4b59-a23f-f8bb019d3256,.ea1659e1-5784-4417-aa63-3a5f5dff9fe4{font-size:21.09px;}.\31 cfc8bdd-d77c-418c-acd3-8d6ac72a7e71{fill:#ffd80a;}.edac1322-c1db-4e94-9ca6-05643f501c6b{fill:#ffee47;}.\32 1dec052-59f0-4b59-a23f-f8bb019d3256,.\36 c72e2ab-c6a9-415e-bd01-7a8682dd0996{fill:#ffc000;}.\34 d6eb798-4e04-470c-883a-b0892c8d585e,.\36 c72e2ab-c6a9-415e-bd01-7a8682dd0996{font-size:29.34px;}.\31 28c528c-9408-49be-a6fe-a85d7dc432ab,.\32 ee23239-1132-4580-8c6b-92bc071af17f{font-size:13.14px;}.df2b7b22-ca6a-468a-a85c-3a7beebfff07{stroke:#abbec6;}.\37 4bdaad1-06be-49de-9afa-bfd793672048,.df2b7b22-ca6a-468a-a85c-3a7beebfff07{stroke-width:2px;}.\37 4bdaad1-06be-49de-9afa-bfd793672048{stroke:#ccd8dc;}.a89d821b-c6cd-46cc-b5ec-334c80a00e2e{fill:#1fdeea;opacity:0.36;}.\35 3c2f9f6-3eb2-4c3a-9c7d-041bd29a5686{fill:#6d909d;}.\35 a2f1e3a-8bd6-4115-8f90-d1f831cbd290{fill:#fdcb80;}.\37 a07c1ab-cb45-4b47-96cd-5b4e2fcfb882{fill:#ffe9e7;}.\39 f2f382f-0e28-4178-bf20-0331cd6ae95a{fill:#87a4af;}</style></defs><title>prop2</title><g class="c749b8fb-201f-41df-ae86-51316911ed1d"><g id="cad6d212-e886-442f-b35b-9a041cb6c1dc" data-name="Capa 1"><g class="429504cc-70d2-42fd-9a1b-586383089160"><path class="8b8b1524-a86c-410c-b55a-5668b56d8384" d="M248.62,208.74H19.8V65.91A12.26,12.26,0,0,1,32.06,53.65H236.35a12.27,12.27,0,0,1,12.27,12.26Z"/><path class="8b8b1524-a86c-410c-b55a-5668b56d8384" d="M248.92,221.58H19.49A12.83,12.83,0,0,1,6.66,208.74H261.75A12.83,12.83,0,0,1,248.92,221.58Z"/><rect class="8b8b1524-a86c-410c-b55a-5668b56d8384" x="26.38" y="65.66" width="211.34" height="131.07"/><path class="8b8b1524-a86c-410c-b55a-5668b56d8384" d="M159.36,215.16H109.05a6.41,6.41,0,0,1-6.42-6.42h63.15A6.41,6.41,0,0,1,159.36,215.16Z"/></g><path class="2dd3dfa5-6f99-497b-9328-d259b2b8f015" d="M245.62,205.74H16.8V62.91A12.26,12.26,0,0,1,29.06,50.65H233.35a12.27,12.27,0,0,1,12.27,12.26Z"/><path class="e9461efc-e065-486b-b7cd-c938def7b201" d="M245.92,218.58H16.49A12.83,12.83,0,0,1,3.66,205.74H258.75A12.83,12.83,0,0,1,245.92,218.58Z"/><rect class="c642e1fb-a97e-4f0b-aafd-298a23275b9d" x="23.38" y="62.66" width="211.34" height="131.07"/><path class="8b8b1524-a86c-410c-b55a-5668b56d8384" d="M156.36,212.16H106.05a6.41,6.41,0,0,1-6.42-6.42h63.15A6.41,6.41,0,0,1,156.36,212.16Z"/><rect class="46bce42f-7a5d-4740-aca5-055b9bf0d4c5" x="99.44" y="161.64" width="63.52" height="22.39" rx="9.02" ry="9.02"/><text class="57debec0-5e5d-474b-a3b7-8ab5921c0c47" transform="translate(116.36 177.75)">PA<tspan class="3b6a0d81-9041-4e19-b4be-db3f127f0a55" x="19.15" y="0">Y</tspan></text><rect class="2dd3dfa5-6f99-497b-9328-d259b2b8f015" x="162.26" y="70.94" width="8.19" height="74.62" rx="2.93" ry="2.93"/><path class="e9461efc-e065-486b-b7cd-c938def7b201" d="M167.12,78.78h87.14A5.27,5.27,0,0,1,259.54,84v48.4a5.27,5.27,0,0,1-5.27,5.27H167.12a0,0,0,0,1,0,0V78.78A0,0,0,0,1,167.12,78.78Z"/><rect class="8b8b1524-a86c-410c-b55a-5668b56d8384" x="167.12" y="111.52" width="92.41" height="14.12"/><text class="d85f61e8-7c01-4d9d-84e3-4942f13c72f1" transform="translate(175.02 96.66)">BANK</text><text class="ee2d579b-adf8-411b-9ded-083d1cd8a097" transform="translate(175.14 121.03)">1234 5678 1234 5678</text><circle class="46bce42f-7a5d-4740-aca5-055b9bf0d4c5" cx="244.87" cy="94.2" r="8.19" transform="translate(30.67 245.7) rotate(-56.31)"/><circle class="e5c2ab23-ce14-402f-8a17-7fac1561bddb" cx="236.68" cy="94.2" r="8.19" transform="matrix(0.94, -0.33, 0.33, 0.94, -17.82, 83.16)"/><rect class="dcaae1cb-5e99-4ed0-b81d-bf78993503c1" x="167.12" y="78.78" width="4.06" height="58.94"/><line class="f5aaea86-d0b1-47b0-9c1e-8bbb020d93ca" x1="166.36" y1="76.66" x2="166.36" y2="139.53"/><g class="429504cc-70d2-42fd-9a1b-586383089160"><circle class="cca12682-eecf-4fa5-9c1c-c6b8f6a122a7" cx="155.59" cy="51.96" r="17.43"/><circle class="cca12682-eecf-4fa5-9c1c-c6b8f6a122a7" cx="155.59" cy="51.96" r="14.55" transform="translate(80.73 197.92) rotate(-81.31)"/><text class="ea1659e1-5784-4417-aa63-3a5f5dff9fe4" transform="translate(149.54 59.94)">$</text></g><circle class="1cfc8bdd-d77c-418c-acd3-8d6ac72a7e71" cx="151.59" cy="47.96" r="17.43"/><circle class="edac1322-c1db-4e94-9ca6-05643f501c6b" cx="151.59" cy="47.96" r="14.55" transform="translate(81.29 190.57) rotate(-81.31)"/><text class="21dec052-59f0-4b59-a23f-f8bb019d3256" transform="translate(145.54 55.94)">$</text><g class="429504cc-70d2-42fd-9a1b-586383089160"><circle class="8b8b1524-a86c-410c-b55a-5668b56d8384" cx="178.84" cy="27.25" r="24.25"/><circle class="8b8b1524-a86c-410c-b55a-5668b56d8384" cx="178.84" cy="27.25" r="20.24" transform="translate(123.07 199.34) rotate(-80.71)"/><text class="4d6eb798-4e04-470c-883a-b0892c8d585e" transform="translate(170.42 38.36)">$</text></g><circle class="1cfc8bdd-d77c-418c-acd3-8d6ac72a7e71" cx="175.84" cy="24.25" r="24.25"/><circle class="edac1322-c1db-4e94-9ca6-05643f501c6b" cx="175.84" cy="24.25" r="20.24" transform="translate(123.51 193.86) rotate(-80.71)"/><text class="6c72e2ab-c6a9-415e-bd01-7a8682dd0996" transform="translate(167.42 35.36)">$</text><g class="429504cc-70d2-42fd-9a1b-586383089160"><path class="8b8b1524-a86c-410c-b55a-5668b56d8384" d="M118.86,131.45h-61V17.34a.49.49,0,0,1,.88-.31l2.93,3.61,3.18-3.92a.82.82,0,0,1,1.27,0l3.18,3.92,3.18-3.92a.81.81,0,0,1,1.26,0l3.18,3.92,3.18-3.92a.82.82,0,0,1,1.27,0l3.18,3.92,3.18-3.92a.82.82,0,0,1,1.27,0l3.18,3.92,3.18-3.92a.81.81,0,0,1,1.26,0l3.18,3.92L103,16.72a.82.82,0,0,1,1.27,0l3.18,3.92,3.18-3.92a.82.82,0,0,1,1.27,0l3.18,3.92L118,17a.49.49,0,0,1,.88.31V131.45Z"/><rect class="8b8b1524-a86c-410c-b55a-5668b56d8384" x="57.85" y="123.36" width="61.01" height="8.09"/><text class="128c528c-9408-49be-a6fe-a85d7dc432ab" transform="translate(76.01 49.27)">BILL</text><line class="df2b7b22-ca6a-468a-a85c-3a7beebfff07" x1="66.29" y1="62.88" x2="110.41" y2="62.88"/><line class="df2b7b22-ca6a-468a-a85c-3a7beebfff07" x1="66.29" y1="69.92" x2="110.41" y2="69.92"/><line class="df2b7b22-ca6a-468a-a85c-3a7beebfff07" x1="66.29" y1="76.96" x2="110.41" y2="76.96"/><line class="df2b7b22-ca6a-468a-a85c-3a7beebfff07" x1="66.29" y1="84" x2="110.41" y2="84"/><line class="df2b7b22-ca6a-468a-a85c-3a7beebfff07" x1="66.29" y1="91.04" x2="110.41" y2="91.04"/><line class="df2b7b22-ca6a-468a-a85c-3a7beebfff07" x1="66.29" y1="98.08" x2="110.41" y2="98.08"/><line class="df2b7b22-ca6a-468a-a85c-3a7beebfff07" x1="66.29" y1="105.12" x2="84.13" y2="105.12"/></g><path class="e9461efc-e065-486b-b7cd-c938def7b201" d="M115.86,128.45h-61V14.34a.49.49,0,0,1,.88-.31l2.93,3.61,3.18-3.92a.82.82,0,0,1,1.27,0l3.18,3.92,3.18-3.92a.81.81,0,0,1,1.26,0l3.18,3.92,3.18-3.92a.82.82,0,0,1,1.27,0l3.18,3.92,3.18-3.92a.82.82,0,0,1,1.27,0l3.18,3.92,3.18-3.92a.81.81,0,0,1,1.26,0l3.18,3.92L100,13.72a.82.82,0,0,1,1.27,0l3.18,3.92,3.18-3.92a.82.82,0,0,1,1.27,0l3.18,3.92L115,14a.49.49,0,0,1,.88.31V128.45Z"/><rect class="3af5488c-cd75-4e8b-9863-6fadaf925131" x="54.85" y="120.36" width="61.01" height="8.09"/><text class="2ee23239-1132-4580-8c6b-92bc071af17f" transform="translate(73.01 46.27)">BILL</text><line class="74bdaad1-06be-49de-9afa-bfd793672048" x1="63.29" y1="59.88" x2="107.41" y2="59.88"/><line class="74bdaad1-06be-49de-9afa-bfd793672048" x1="63.29" y1="66.92" x2="107.41" y2="66.92"/><line class="74bdaad1-06be-49de-9afa-bfd793672048" x1="63.29" y1="73.96" x2="107.41" y2="73.96"/><line class="74bdaad1-06be-49de-9afa-bfd793672048" x1="63.29" y1="81" x2="107.41" y2="81"/><line class="74bdaad1-06be-49de-9afa-bfd793672048" x1="63.29" y1="88.04" x2="107.41" y2="88.04"/><line class="74bdaad1-06be-49de-9afa-bfd793672048" x1="63.29" y1="95.08" x2="107.41" y2="95.08"/><line class="74bdaad1-06be-49de-9afa-bfd793672048" x1="63.29" y1="102.12" x2="81.13" y2="102.12"/><circle class="a89d821b-c6cd-46cc-b5ec-334c80a00e2e" cx="67.3" cy="119.2" r="28.31"/><path class="2dd3dfa5-6f99-497b-9328-d259b2b8f015" d="M93.09,93.41a36.47,36.47,0,1,0,0,51.58A36.48,36.48,0,0,0,93.09,93.41ZM47.28,139.22a28.31,28.31,0,1,1,40,0A28.32,28.32,0,0,1,47.28,139.22Z"/><path class="53c2f9f6-3eb2-4c3a-9c7d-041bd29a5686" d="M89.42,97.08a31.28,31.28,0,1,0,0,44.23A31.28,31.28,0,0,0,89.42,97.08ZM47.28,139.22a28.31,28.31,0,1,1,40,0A28.32,28.32,0,0,1,47.28,139.22Z"/><rect class="2dd3dfa5-6f99-497b-9328-d259b2b8f015" x="37.14" y="139.82" width="6.23" height="12.83" transform="translate(115.2 14.36) rotate(45)"/><path class="1cfc8bdd-d77c-418c-acd3-8d6ac72a7e71" d="M1.69,184.81h0a5.79,5.79,0,0,1,0-8.17l31.15-31.16L41,153.65,9.86,184.81A5.79,5.79,0,0,1,1.69,184.81Z"/><path class="5a2f1e3a-8bd6-4115-8f90-d1f831cbd290" d="M140.92,200.25a5.16,5.16,0,0,1,5.16,5.16v14.75a.74.74,0,0,0,.74.74h0a.74.74,0,0,0,.74-.74V171.33a5.17,5.17,0,0,1,5.17-5.17h0a5.17,5.17,0,0,1,5.16,5.17v31.41a.74.74,0,0,0,.74.74h0a.74.74,0,0,0,.74-.74v-8.87a3.15,3.15,0,0,1,3.15-3.14h4a3.15,3.15,0,0,1,3.15,3.14v8.87a.74.74,0,0,0,.74.74h0a.74.74,0,0,0,.74-.74V196a3.15,3.15,0,0,1,3.15-3.14h4a3.15,3.15,0,0,1,3.15,3.14v6.77a.74.74,0,0,0,.74.74h0a.74.74,0,0,0,.74-.74v-4.51a3.14,3.14,0,0,1,3.15-3.14h5a2.2,2.2,0,0,1,2.2,2.19l.77,34.31a16.78,16.78,0,0,1-3.55,10.32l-2.25,2.87V267.7h-38V253.5l-9.65-8.36a14.13,14.13,0,0,1-4.88-10.68h0V205.41a5.17,5.17,0,0,1,5.17-5.16Z"/><path class="7a07c1ab-cb45-4b47-96cd-5b4e2fcfb882" d="M152.73,167.07h0a3.89,3.89,0,0,0-3.89,3.89v4.28a1.66,1.66,0,0,0,1.67,1.66H155a1.66,1.66,0,0,0,1.66-1.66V171A3.89,3.89,0,0,0,152.73,167.07Z"/><path class="7a07c1ab-cb45-4b47-96cd-5b4e2fcfb882" d="M137.72,201.36h0a5.15,5.15,0,0,0-2,4v6.7h4.32a1.22,1.22,0,0,0,1.22-1.23v-5.94A3.57,3.57,0,0,0,137.72,201.36Z"/><rect class="870bf6c0-7829-487d-a17b-77df7a19f3aa" x="150.28" y="259.17" width="38.01" height="13.76" transform="translate(338.56 532.1) rotate(180)"/><rect class="2dd3dfa5-6f99-497b-9328-d259b2b8f015" x="147.92" y="263.96" width="42.72" height="63.45" transform="translate(338.56 591.38) rotate(180)"/><circle class="9f2f382f-0e28-4178-bf20-0331cd6ae95a" cx="183.85" cy="274.42" r="2.72"/><circle class="9f2f382f-0e28-4178-bf20-0331cd6ae95a" cx="183.85" cy="283.54" r="2.72"/></g></g></svg>