<?xml version="1.0" encoding="utf-8"?>
<!-- Generator: Adobe Illustrator 22.1.0, SVG Export Plug-In . SVG Version: 6.00 Build 0)  -->
<svg version="1.1" id="d2d18c0d-7a51-4676-9c31-61a4e45ade55"
	 xmlns="http://www.w3.org/2000/svg" xmlns:xlink="http://www.w3.org/1999/xlink" x="0px" y="0px" viewBox="0 0 948 278"
	 style="enable-background:new 0 0 948 278;" xml:space="preserve">
<style type="text/css">
	.st0{fill:#316D38;}
	.st1{fill:#E08000;}
	.st2{fill:#D22300;}
	.st3{fill:#7CB342;}
	.st4{fill:#FBC02D;}
	.st5{fill:#FFFFFF;}
	.st6{fill:#262626;}
	.st7{fill:#C8C8C8;}
	.st8{fill:#939393;}
	.st9{fill:#3F3F3F;}
	.st10{fill:#8A8A8A;}
	.st11{fill:#2C823C;}
	.st12{fill:#2B943C;}
	.st13{fill:#4CB84B;}
	.st14{fill:#9EFA72;}
	.st15{fill:#C3C7F5;}
	.st16{fill:#333333;}
	.st17{fill:#E3E3DF;}
	.st18{fill:#999395;}
	.st19{fill:#ECF0F8;}
	.st20{enable-background:new    ;}
</style>
<title>tutorial</title>
<path class="st0" d="M117,34.8c-58.3,0-105.6,47.3-105.7,105.6l0,0H44c0-40.3,32.7-73,73-73s73,32.7,73,73h32.6
	C222.6,82.1,175.3,34.8,117,34.8z"/>
<path class="st1" d="M474.3,34.8c-58.3,0-105.6,47.3-105.6,105.6l0,0h32.6c0-40.3,32.7-73,73-73s73,32.7,73,73H580
	C579.9,82.1,532.6,34.8,474.3,34.8L474.3,34.8z"/>
<path class="st2" d="M831.6,34.8C773.3,34.8,726,82.1,726,140.4h32.6c0-40.3,32.7-73,73-73s73,32.7,73,73h32.6
	C937.2,82.1,889.9,34.8,831.6,34.8L831.6,34.8z"/>
<path class="st3" d="M295.6,246.1c58.3,0,105.6-47.3,105.6-105.6l0,0h-32.6c0,40.3-32.7,73-73,73s-73-32.7-73-73H190
	C190,198.8,237.3,246.1,295.6,246.1L295.6,246.1z"/>
<path class="st4" d="M652.9,246.1c58.3,0,105.6-47.3,105.6-105.6l0,0h-32.6c0,40.3-32.7,73-73,73s-73-32.7-73-73h-32.6
	C547.3,198.8,594.6,246.1,652.9,246.1L652.9,246.1z"/>
<circle class="st0" cx="117" cy="140.7" r="61.1"/>
<circle class="st5" cx="117" cy="140.7" r="50.1"/>
<circle class="st3" cx="295.6" cy="140.7" r="61.1"/>
<path class="st5" d="M295.6,190.8c-27.6,0-50.1-22.4-50.1-50.1s22.4-50.1,50.1-50.1s50.1,22.4,50.1,50.1l0,0
	C345.7,168.4,323.3,190.7,295.6,190.8z"/>
<path class="st1" d="M535.4,140.7c0,33.8-27.4,61.1-61.1,61.1s-61.1-27.4-61.1-61.1s27.4-61.1,61.1-61.1
	C508,79.6,535.4,107,535.4,140.7L535.4,140.7z"/>
<path class="st5" d="M474.3,190.8c-27.6,0-50.1-22.4-50.1-50s22.4-50.1,50-50.1s50.1,22.4,50.1,50c0,0,0,0,0,0.1
	C524.2,168.3,501.9,190.7,474.3,190.8z"/>
<circle class="st4" cx="652.9" cy="140.7" r="61.1"/>
<ellipse transform="matrix(1.999605e-02 -0.9998 0.9998 1.999605e-02 501.2885 793.5524)" class="st5" cx="655.4" cy="141.1" rx="50.1" ry="50.1"/>
<circle class="st2" cx="831.5" cy="140.7" r="61.1"/>
<ellipse transform="matrix(0.1108 -0.9938 0.9938 0.1108 599.4053 951.675)" class="st5" cx="831.5" cy="140.9" rx="50" ry="50.1"/>
<g id="money">
	<path class="st6" d="M867.9,155.9v-0.1l0,0c-0.2-1.4-1-2.6-2.3-3.1l-36.4-21c-3.5-1.8-7.6-1.8-11.1,0l-22.2,12.9
		c-1.6,0.9-2.3,2.2-2.3,3.4v2.7c-0.1,1.2,0.7,2.5,2.3,3.4l36.4,21c3.5,1.8,7.6,1.8,11.1,0l22.2-12.9c1.3-0.6,2.2-1.8,2.3-3.3V155.9z
		 M824.9,132.4l3.2,1.8c-1.6-0.6-3.2-0.9-4.9-0.8L824.9,132.4z" />
	<polygon class="st7" points="829.2,134.8 829.3,166.7 797.5,148.3 824.9,132.4 	" />
	<polygon class="st8" points="861.7,153.6 834.3,169.5 797.5,148.3 824.9,132.4 797.5,148.3 829.3,166.7 829.2,134.8 	" />
	<path class="st9" d="M865.6,152.6c3.1,1.8,3.1,4.6,0,6.4l-22.2,13c-3.5,1.8-7.6,1.8-11.1,0l-36.4-21c-3.1-1.8-3.1-4.6,0-6.4
		l22.2-12.9c3.5-1.8,7.6-1.8,11.1,0L865.6,152.6z M834.3,169.5l27.4-15.9l-32.5-18.8l-4.2-2.4l-27.4,15.9L834.3,169.5z M849.4,164.7
		c1.1,0.6,2.5,0.6,3.6,0c0.6-0.2,0.9-0.8,0.7-1.4c-0.1-0.3-0.4-0.6-0.7-0.7c-1.1-0.6-2.5-0.6-3.6,0c-0.6,0.2-0.9,0.8-0.7,1.4
		C848.9,164.3,849.1,164.5,849.4,164.7z" />
	<path class="st10" d="M853,162.6c0.6,0.2,0.9,0.8,0.7,1.4c-0.1,0.3-0.4,0.6-0.7,0.7c-1.1,0.6-2.5,0.6-3.6,0
		c-0.6-0.2-0.9-0.8-0.7-1.4c0.1-0.3,0.4-0.6,0.7-0.7C850.5,162,851.9,162,853,162.6z" />
	<g style="transform-origin: 0% 50%">
	<path class="st11" d="M813.3,149.1c0,2.6,7.9,4.6,17.3,4.6c7.4,0,13.7-1.3,16.1-3.1l-6-39.3c-0.1-0.9-0.9-1.5-1.8-1.3l-29.4,4.5
		c-0.9,0.1-1.5,0.9-1.3,1.8l0,0l4.9,32C813.1,148.5,813.2,148.8,813.3,149.1z" />
	<path class="st12" d="M830.4,153.9c9.5,0,17.2-2.1,17.2-4.7l0,0l0.1-1.3v0.1l2-32.8c0.1-0.9-0.6-1.6-1.5-1.7l-29.7-1.9
		c-0.9-0.1-1.6,0.6-1.7,1.5l-2.3,37.8C817,152.6,823.2,153.9,830.4,153.9z" />
	<path class="st13" d="M830.4,153.9c9,0,16.4-1.9,17.1-4.4V116c0-0.9-0.7-1.6-1.6-1.6l0,0h-30.6c-0.9,0-1.6,0.7-1.6,1.6l0,0v34.1
		C815.3,152.3,822.2,153.9,830.4,153.9z" />
	<path class="st14" d="M830.4,153.9c4.6,0.1,9.2-0.5,13.7-1.9v-29.8c-1.5,1-3.6,0.6-4.6-0.9c-0.4-0.5-0.5-1.2-0.5-1.8
		c0-0.7,0.2-1.4,0.6-1.9h-17.4c0.4,0.6,0.6,1.2,0.6,1.9c0,1.8-1.5,3.3-3.3,3.3c-0.9,0-1.7-0.4-2.4-1v30.3
		C821.4,153.4,825.9,154,830.4,153.9z" />
	<path class="st13" d="M830.7,129.5c6.5,0,11.8,4.3,11.8,9.5s-5.3,9.5-11.8,9.5s-11.8-4.3-11.8-9.5S824.2,129.5,830.7,129.5z" />
	<path class="st13" d="M830.6,120.5c1.7,0,3,1.3,3,3s-1.3,3-3,3s-3-1.3-3-3S828.9,120.5,830.6,120.5z" />
	<path class="st14" d="M840.8,138.8c0,0.7-0.6,1.4-1.4,1.4h-0.3c0,1.3-0.4,2.6-1,3.8c-0.3,0.4-0.9,0.6-1.3,0.4l-1.7-0.7
		c-0.3-0.1-0.5-0.4-0.6-0.6c-0.1-0.3-0.1-0.6,0-0.9c0.3-0.6,0.5-1.3,0.6-2h-2.8c-1,2-2.4,4-4.9,4c-2.3-0.1-4.3-1.7-4.7-4H822
		c-0.7,0.1-1.4-0.5-1.5-1.2s0.5-1.4,1.2-1.5c0.1,0,0.2,0,0.2,0h0.4c0.1-1,0.4-2.1,0.8-3c0.3-0.5,0.9-0.8,1.5-0.5l1.7,0.8
		c0.3,0.1,0.5,0.4,0.6,0.6c0.1,0.3,0.1,0.6-0.1,0.9c-0.2,0.4-0.3,0.8-0.4,1.2h2.2c1-1.9,2.5-4,5.1-4c2.4,0,4.5,1.6,5,4h0.7
		C840.2,137.4,840.8,138,840.8,138.8L840.8,138.8z M837.9,139h1.5c0.1,0,0.2,0,0.2-0.2s0-0.2-0.2-0.2h-0.1h-1.6l-0.1-0.5
		c-0.5-2.3-1.9-3.6-3.9-3.6s-3.3,1.9-4.2,3.6l-0.2,0.4H829h-3.8V138c0-0.8,0.2-1.6,0.6-2.3l-1.6-0.7c-0.4,0.9-0.7,2-0.7,3v0.6h-1.6
		c-0.1,0-0.2,0-0.2,0.2s0,0.2,0.2,0.2h0.1h1.6l0.1,0.5c0.4,2.1,1.9,3.5,3.7,3.5s3-1.8,3.9-3.5l0.2-0.4h0.4h4.3v0.6
		c0,0.1,0,0.1,0,0.2c0,1-0.3,2-0.7,2.8l1.6,0.6c0.5-1.1,0.8-2.3,0.8-3.4L837.9,139z M836.6,138.6h-5.3l1.4-1
		c0.4-0.3,0.9-0.4,1.4-0.4s0.9,0.2,1.3,0.5L836.6,138.6z M829.5,139l-1.2,1c-0.3,0.3-0.8,0.5-1.2,0.4c-0.4,0-0.8-0.1-1.1-0.4l-1.1-1
		H829.5z" />
	<path class="st13" d="M830.4,153.9c1,0,2,0,3-0.1c-0.5-1.6-2.2-2.5-3.7-2c-1,0.3-1.7,1-2,2C828.6,153.9,829.5,153.9,830.4,153.9z"
		/>
		<animateTransform attributeName="transform"
						  id="bill"
                          attributeType="XML"
                          type="scale"
                          from="1 0"
                          to="1 1"
                          dur="2s"
						  begin="port.end"
						  fill="freeze"
                          />
	</g>
	<g style="transform-origin: 86% 55%;">
	<path class="st5" d="M847.8,146.4v0.6c1.8,0.8,2.9,1.8,2.9,2.9c0,3-8.9,5.5-19.9,5.5s-19.9-2.5-19.9-5.5c0-0.9,0.8-1.7,2.1-2.5
		l-0.1-0.6c-1.6,0.9-2.6,1.9-2.6,3.1c0,4,10.6,6.1,20.5,6.1s20.5-2.1,20.5-6.1C851.3,148.5,849.9,147.3,847.8,146.4z" />
	<path class="st5" d="M847.7,147.8l-0.1,1.3l0,0c0,2.6-7.7,4.7-17.2,4.7s-17.2-2.1-17.2-4.7L813,148c-0.2,0.3-0.4,0.7-0.4,1.1
		c0,3.5,9.2,5.4,17.8,5.4s17.8-1.9,17.8-5.4C848.2,148.7,848,148.2,847.7,147.8z" />
		<animateTransform attributeName="transform"
						  id="port"
                          attributeType="XML"
                          type="scale"
                          from="0 0"
                          to="1 1"
                          dur="2s"
						  begin="0s"
						  fill="freeze"
                          />
	</g>
</g>

<g id="Register">
	<path class="st15" d="M133.3,119.9H126c-1,0-1.8,0.8-1.8,1.8l0,0v7.3c0,1,0.8,1.8,1.8,1.8l0,0h7.3c1,0,1.8-0.8,1.8-1.8l0,0v-7.3
		C135.1,120.7,134.3,119.9,133.3,119.9L133.3,119.9z" />
	<path class="st16" d="M142.4,132.6v31.1H87.6v-31.1c0-3,2.4-5.4,5.4-5.4l0,0h43.8C139.9,127.2,142.4,129.6,142.4,132.6L142.4,132.6
		z" />
	<path class="st17" d="M133.3,149h-14.5c-1,0-1.8-0.8-1.8-1.8v-10.9c0-1,0.8-1.8,1.8-1.8l0,0h14.5c1,0,1.8,0.8,1.8,1.8l0,0v10.9
		C135.1,148.2,134.3,149,133.3,149z" />
	<path class="st17" d="M100.3,141.7h-3.6c-1,0-1.8-0.8-1.8-1.8s0.8-1.8,1.8-1.8h3.6c1,0,1.8,0.8,1.8,1.8
		C102.2,140.9,101.4,141.7,100.3,141.7z" />
	<path class="st17" d="M100.3,149h-3.6c-1,0.1-1.9-0.7-1.9-1.7s0.7-1.9,1.7-1.9c0.1,0,0.2,0,0.3,0h3.6c1,0.1,1.8,0.9,1.7,1.9
		C102,148.2,101.2,148.9,100.3,149z" />
	<path class="st17" d="M111.3,141.7h-3.6c-1,0-1.8-0.8-1.8-1.8s0.8-1.8,1.8-1.8h3.6c1,0,1.8,0.8,1.8,1.8
		C113.1,140.9,112.3,141.7,111.3,141.7z"/>
	<path class="st17" d="M111.3,149h-3.6c-1-0.1-1.8-0.9-1.7-1.9c0.1-0.9,0.8-1.6,1.7-1.7h3.6c1,0.1,1.8,0.9,1.7,1.9
		C112.9,148.2,112.1,148.9,111.3,149z"/>
	<path class="st1" d="M111.9,109.2c-0.7-0.3-1.5-0.2-2,0.4l-2.4,2.3l-2.4-2.3c-0.7-0.7-1.8-0.7-2.5-0.1l-0.1,0.1l-2.4,2.3l-2.3-2.3
		c-0.5-0.6-1.3-0.7-2-0.4c-0.7,0.3-1.1,0.9-1.1,1.7v23.6H113v-23.6C113,110.1,112.6,109.4,111.9,109.2z" style="transform-origin: 50% 50%">
		<animateTransform attributeName="transform"
						  id="print"
                          attributeType="XML"
                          type="scale"
                          from="1 0"
                          to="1 1"
                          dur="2s"
						  begin="blink3.end"
                          />
		</path>
	<path class="st18" d="M140.6,156.2H89.4c-3,0-5.4,2.4-5.4,5.4l0,0v7.5c0,1,0.8,1.8,1.8,1.8l0,0h58.4c1,0,1.8-0.8,1.8-1.8l0,0v-7.5
		C146,158.7,143.6,156.2,140.6,156.2L140.6,156.2z"/>
	<path class="st0" d="M127.8,156.2v5.4c0,3.1-2.4,5.6-5.4,5.7h-14.8c-3.1-0.1-5.5-2.6-5.4-5.7v-5.4H127.8z" />
	<path class="st16" d="M136.9,109h-14.5c-3,0-5.4,2.4-5.4,5.4l0,0v3.6c0,3,2.4,5.4,5.4,5.4l0,0h14.5c3,0,5.4-2.4,5.4-5.4l0,0v-3.6
		C142.4,111.4,139.9,109,136.9,109z" />
	<path class="st1" d="M122.4,119.9c-1,0-1.8-0.8-1.8-1.8v-3.6c0-1,0.8-1.8,1.8-1.8h14.5c1,0,1.8,0.8,1.8,1.8v3.6
		c0,1-0.8,1.8-1.8,1.8l0,0H122.4z">
		<animate attributeName="display"
						  id="blink"
                          attributeType="CSS"
                          from="none"
                          to="block"
                          dur="0.5s"
						  begin="0s; print.end + 5s"
                          />
		<animate attributeName="display"
						  id="blink1"
                          attributeType="CSS"
                          from="none"
                          to="block"
                          dur="0.1s"
						  begin="blink.end"
                          />
		<animate attributeName="display"
						  id="blink2"
                          attributeType="CSS"
                          from="none"
                          to="block"
                          dur="0.5s"
						  begin="blink1.end"
                          />
		<animate attributeName="display"
						  id="blink3"
                          attributeType="CSS"
                          from="none"
                          to="block"
                          dur="0.5s"
						  begin="blink2.end"
                          />
		</path>
</g>

<g id="folders">
	<g id="folder2">
	<path class="st1" d="M302.8,172h-16.4c-0.9,0-1.6-0.7-1.6-1.6v-60.2c0-0.9,0.7-1.6,1.6-1.6l0,0h16.4c0.9,0,1.6,0.7,1.6,1.6l0,0
		v60.2C304.4,171.3,303.7,172,302.8,172L302.8,172z" />
	<path class="st17" d="M300,146.8h-10.9c-0.6,0-1.1-0.5-1.1-1.1l0,0v-27.4c0-0.6,0.5-1.1,1.1-1.1l0,0H300c0.6,0,1.1,0.5,1.1,1.1l0,0
		v27.4C301.1,146.3,300.6,146.8,300,146.8z" />
	<path class="st18" d="M297.8,127.1h-6.6c-0.6,0-1.1-0.5-1.1-1.1s0.5-1.1,1.1-1.1h6.6c0.6,0,1.1,0.5,1.1,1.1
		S298.4,127.1,297.8,127.1z"/>
	<path class="st18" d="M297.8,131.5h-6.6c-0.6,0.1-1.1-0.4-1.2-1s0.4-1.1,1-1.2c0.1,0,0.1,0,0.2,0h6.6c0.6,0.1,1,0.6,1,1.2
		C298.8,131,298.4,131.4,297.8,131.5z"/>
	<path class="st18" d="M297.8,135.9h-6.6c-0.6,0.1-1.1-0.4-1.2-1s0.4-1.1,1-1.2c0.1,0,0.1,0,0.2,0h6.6c0.6,0.1,1,0.6,1,1.2
		C298.8,135.4,298.4,135.8,297.8,135.9z"/>
	<path class="st18" d="M297.8,144.6h-6.6c-0.6,0.1-1.1-0.4-1.2-1s0.4-1.1,1-1.2c0.1,0,0.1,0,0.2,0h6.6c0.6,0.1,1,0.6,1,1.2
		S298.4,144.6,297.8,144.6z"/>
	<rect x="288" y="138.1" class="st18" width="13.1" height="2.2"/>
	<path class="st18" d="M301.1,121.7H288v-4.4c0-0.6,0.5-1.1,1.1-1.1l0,0H300c0.6,0,1.1,0.5,1.1,1.1l0,0V121.7z"/>
	<circle class="st16" cx="294.5" cy="156.7" r="2.7"/>
	<path class="st19" d="M294.5,161.6c-2.7,0-4.9-2.2-4.9-4.9s2.2-4.9,4.9-4.9c2.7,0,4.9,2.2,4.9,4.9l0,0
		C299.5,159.4,297.3,161.6,294.5,161.6z M294.5,153.9c-1.5,0-2.7,1.2-2.7,2.7s1.2,2.7,2.7,2.7s2.7-1.2,2.7-2.7l0,0
		C297.3,155.2,296.1,153.9,294.5,153.9z" />
		<animateTransform attributeName="transform"
						  id="f2"
                          attributeType="XML"
                          type="translate"
                          from="0 0"
                          to="0 -10"
                          dur="0.3s"
						  fill="freeze"
						  begin="f1a.end"
                          />
		<animateTransform attributeName="transform"
						  id="f2a"
                          attributeType="XML"
                          type="translate"
                          from="0 -10"
                          to="0 0"
                          dur="0.3s"
						  fill="freeze"
						  begin="f2.end + 1s"
                          /> 
	</g>
	<g id="folder3">
	<path class="st0" d="M322.5,172H306c-0.9,0-1.6-0.7-1.6-1.6v-60.2c0-0.9,0.7-1.6,1.6-1.6l0,0h16.4c0.9,0,1.6,0.7,1.6,1.6l0,0v60.2
		C324.1,171.3,323.4,172,322.5,172z" />
	<path class="st17" d="M319.7,146.8h-11c-0.6,0-1.1-0.5-1.1-1.1l0,0v-27.4c0-0.6,0.5-1.1,1.1-1.1l0,0h11c0.6,0,1.1,0.5,1.1,1.1l0,0
		v27.4C320.8,146.3,320.3,146.8,319.7,146.8L319.7,146.8z"/>
	<path class="st18" d="M317.5,127.1H311c-0.6,0-1.1-0.5-1.1-1.1s0.5-1.1,1.1-1.1h6.6c0.6,0,1.1,0.5,1.1,1.1S318.2,127.1,317.5,127.1
		L317.5,127.1z"/>
	<path class="st18" d="M317.5,131.5H311c-0.6-0.1-1-0.6-1-1.2c0.1-0.5,0.5-0.9,1-1h6.6c0.6,0.1,1,0.6,1,1.2
		C318.5,131,318.1,131.4,317.5,131.5L317.5,131.5z"/>
	<path class="st18" d="M317.5,135.9H311c-0.6-0.1-1-0.6-1-1.2c0.1-0.5,0.5-0.9,1-1h6.6c0.6,0.1,1,0.6,1,1.2
		C318.5,135.4,318.1,135.8,317.5,135.9L317.5,135.9z"/>
	<path class="st18" d="M317.5,144.6H311c-0.6-0.1-1-0.6-1-1.2c0.1-0.5,0.5-0.9,1-1h6.6c0.6,0.1,1,0.6,1,1.2
		C318.5,144.2,318.1,144.6,317.5,144.6L317.5,144.6z"/>
	<rect x="307.7" y="138.1" class="st18" width="13.1" height="2.2"/>
	<path class="st18" d="M320.8,121.7h-13.1v-4.4c0-0.6,0.5-1.1,1.1-1.1h11c0.6,0,1.1,0.5,1.1,1.1L320.8,121.7L320.8,121.7z"/>
	<circle class="st16" cx="314.3" cy="156.7" r="2.7"/>
	<path class="st19" d="M314.3,161.6c-2.7,0-4.9-2.2-4.9-4.9s2.2-4.9,4.9-4.9c2.7,0,4.9,2.2,4.9,4.9l0,0
		C319.2,159.4,317,161.6,314.3,161.6z M314.3,153.9c-1.5,0-2.7,1.2-2.7,2.7s1.2,2.7,2.7,2.7s2.7-1.2,2.7-2.7l0,0
		C317,155.2,315.8,153.9,314.3,153.9z"/>
		<animateTransform attributeName="transform"
						  id="f3"
                          attributeType="XML"
                          type="translate"
                          from="0 0"
                          to="0 -10"
                          dur="0.3s"
						  fill="freeze"
						  begin="f2a.end"
                          />
		<animateTransform attributeName="transform"
						  id="f3a"
                          attributeType="XML"
                          type="translate"
                          from="0 -10"
                          to="0 0"
                          dur="0.3s"
						  fill="freeze"
						  begin="f3.end + 1s"
                          /> 
	</g>
	<g id="folder1">
	<path class="st2" d="M283.1,172h-16.4c-0.9,0-1.6-0.7-1.6-1.6v-60.2c0-0.9,0.7-1.6,1.6-1.6l0,0h16.4c0.9,0,1.6,0.7,1.6,1.6l0,0
		v60.2C284.7,171.3,284,172,283.1,172L283.1,172z"/>
	<path class="st17" d="M280.3,146.8h-10.9c-0.6,0-1.1-0.5-1.1-1.1l0,0v-27.4c0-0.6,0.5-1.1,1.1-1.1l0,0h10.9c0.6,0,1.1,0.5,1.1,1.1
		l0,0v27.4C281.4,146.3,280.9,146.8,280.3,146.8z"/>
	<path class="st18" d="M278.1,127.1h-6.6c-0.6,0-1.1-0.5-1.1-1.1s0.5-1.1,1.1-1.1h6.6c0.6,0,1.1,0.5,1.1,1.1
		S278.7,127.1,278.1,127.1z"/>
	<path class="st18" d="M278.1,131.5h-6.6c-0.6,0.1-1.1-0.4-1.2-1s0.4-1.1,1-1.2c0.1,0,0.1,0,0.2,0h6.6c0.6-0.1,1.1,0.4,1.2,1
		s-0.4,1.1-1,1.2C278.3,131.5,278.2,131.5,278.1,131.5z"/>
	<path class="st18" d="M278.1,135.9h-6.6c-0.6,0.1-1.1-0.4-1.2-1s0.4-1.1,1-1.2c0.1,0,0.1,0,0.2,0h6.6c0.6-0.1,1.1,0.4,1.2,1
		s-0.4,1.1-1,1.2C278.3,135.9,278.2,135.9,278.1,135.9z"/>
	<path class="st18" d="M278.1,144.6h-6.6c-0.6,0.1-1.1-0.4-1.2-1s0.4-1.1,1-1.2c0.1,0,0.1,0,0.2,0h6.6c0.6-0.1,1.1,0.4,1.2,1
		s-0.4,1.1-1,1.2C278.3,144.6,278.2,144.6,278.1,144.6z"/>
	<rect x="268.3" y="138.1" class="st18" width="13.1" height="2.2"/>
	<path class="st18" d="M281.4,121.7h-13.1v-4.4c0-0.6,0.5-1.1,1.1-1.1l0,0h10.9c0.6,0,1.1,0.5,1.1,1.1l0,0V121.7z"/>
	<circle class="st16" cx="274.9" cy="156.7" r="2.7"/>
	<path class="st19" d="M274.9,161.6c-2.7,0-4.9-2.2-4.9-4.9s2.2-4.9,4.9-4.9c2.7,0,4.9,2.2,4.9,4.9l0,0
		C279.8,159.4,277.6,161.6,274.9,161.6L274.9,161.6z M274.9,153.9c-1.5,0-2.7,1.2-2.7,2.7s1.2,2.7,2.7,2.7s2.7-1.2,2.7-2.7l0,0
		C277.6,155.2,276.4,153.9,274.9,153.9z"/>
		<animateTransform attributeName="transform"
						  id="f1"
                          attributeType="XML"
                          type="translate"
                          from="0 0"
                          to="0 -10"
                          dur="0.3s"
						  fill="freeze"
						  begin="0s;f3a.end + 5s"
                          />
		<animateTransform attributeName="transform"
						  id="f1a"
                          attributeType="XML"
                          type="translate"
                          from="0 -10"
                          to="0 0"
                          dur="0.3s"
						  fill="freeze"
						  begin="f1.end + 1s"
                          /> 
	</g>
</g>

<g id="upload">
	<path class="st18" d="M502.6,127.7c0.2-1,0.2-1.9,0.2-2.9c0-9.1-7.4-16.5-16.5-16.5l0,0c-6.8,0-12.9,4.1-15.4,10.4
		c-5.9-5.5-15.1-5.2-20.6,0.6c-2.5,2.7-4,6.3-4,10c0,0.7,0.1,1.4,0.1,2.1c-0.7-0.1-1.4-0.2-2.1-0.1c-7-0.2-12.9,5.3-13.1,12.4
		c-0.2,7,5.3,12.9,12.4,13.1c0.2,0,0.5,0,0.7,0h55.5c8.1,0.1,14.7-6.4,14.8-14.5C514.6,135,509.6,128.9,502.6,127.7L502.6,127.7z"/>
	<polygon class="st0" points="464.6,173 481.4,173 481.4,151.6 490.6,151.6 473,130.9 455.4,151.6 464.6,151.6">
	<animateTransform attributeName="transform"
						  id="up"
                          attributeType="XML"
                          type="translate"
                          from="0 0"
                          to="0 -10"
                          dur="1s"
						  begin="0s;down.end + 5s"
                          />
	<animateTransform attributeName="transform"
						  id="down"
                          attributeType="XML"
                          type="translate"
                          from="0 -10"
                          to="0 0"
                          dur="1s"
						  begin="up.end"
                          /> 
	</polygon>
</g>

<g id="pens">
	<g>
	<polygon class="st0" points="647.7,137 657.8,137 657.8,115.4 647.7,115.4 	"/>
	<path class="st18" d="M652.8,104.1l-1.9,2.4c-2,2.6-3.2,5.7-3.2,9h10.1c0-3.3-1.1-6.4-3.2-9L652.8,104.1z" />
	</g>
	<g style="transform-origin: 71% 50%;">
	<path class="st18" d="M679.8,116.1c-0.1,0-0.2,0-0.3,0l-3.7-1c-0.7-0.2-1.1-0.9-0.9-1.5c0.2-0.7,0.9-1.1,1.5-0.9l3.7,1
		c0.7,0.2,1.1,0.9,0.9,1.6C680.8,115.7,680.3,116.1,679.8,116.1" />
	<polygon class="st16" points="672.2,128.5 662.4,125.9 666.3,111.2 676.1,113.8 	"/>
	<path class="st16" d="M679,127.7l-1.2-0.3c-0.7-0.2-1.1-0.9-0.9-1.6l3.6-13.4c0.2-0.7,0.9-1.1,1.5-0.9l0,0l1.2,0.3
		c0.7,0.2,1.1,0.9,0.9,1.5l0,0l-3.6,13.4C680.4,127.5,679.7,127.9,679,127.7L679,127.7"/>
	<path class="st18" d="M676.1,113.8l-9.8-2.6l1-3.7c0.2-0.7,0.9-1.1,1.5-0.9l7.3,2c0.7,0.2,1.1,0.9,0.9,1.5l0,0L676.1,113.8z"/>
	<polygon class="st18" points="668.6,137 671,128.2 663.6,126.2 660.7,137 	"/>
	<animateTransform attributeName="transform"
						  id="pemov"
                          attributeType="XML"
                          type="rotate"
                          from="0 0 0"
                          to="-10 0 0"
                          dur="0.2s"
						  begin="0; pemov2.end + 5s"
                          />
	<animateTransform attributeName="transform"
						  id="pemov2"
                          attributeType="XML"
                          type="rotate"
                          from="-10 0 0"
                          to="0 0 0"
                          dur="0.2s"
						  begin="pemov.end"
                          />
	</g>
	<g style="transform-origin: 67% 50%;">
	<path class="st2" d="M638.6,114.1l-9.8,2.6l-0.7-2.4c-0.6-2.7,1.1-5.5,3.8-6.1c2.6-0.6,5.2,0.9,6,3.5L638.6,114.1z" />
	<path class="st1" d="M635,137h9.7l-6.1-22.9l-9.8,2.6l5.5,20.4C634.5,137,634.7,137,635,137" />
	<animateTransform attributeName="transform"
						  id="penmov"
                          attributeType="XML"
                          type="rotate"
                          from="0 0 0"
                          to="10 0 0"
                          dur="0.2s"
						  begin="0; penmov2.end + 5s"
                          />
	<animateTransform attributeName="transform"
						  id="penmov2"
                          attributeType="XML"
                          type="rotate"
                          from="10 0 0"
                          to="0 0 0"
                          dur="0.2s"
						  begin="penmov.end"
                          />
	</g>
	<path class="st18" d="M666.7,177.5h-27.9c-2.1,0-3.8-1.7-3.8-3.8v-29.1h35.4v29.1C670.5,175.8,668.8,177.5,666.7,177.5" />
	<path class="st16" d="M670.5,144.6H635c-2.1,0-3.8-1.7-3.8-3.8s1.7-3.8,3.8-3.8h35.4c2.1,0,3.8,1.7,3.8,3.8
		S672.5,144.6,670.5,144.6" />
	<polygon class="st17" points="647.7,168.6 670.5,168.6 670.5,153.4 647.7,153.4 	"/>
	<polygon class="st18" points="652.8,159.8 670.5,159.8 670.5,157.2 652.8,157.2 	"/>
	<polygon class="st18" points="655.3,164.8 670.5,164.8 670.5,162.3 655.3,162.3 	"/>
</g>

<g class="st20">
	<path class="st0" d="M123,268.4h-12.2v-24.2h-9.6v-8.4c6.5-0.1,11.2-2.4,12.5-9.5h9.3C123,226.3,123,268.4,123,268.4z"/>
</g>
<g class="st20">
	<path class="st3" d="M274.7,63.4c-0.2-4.8,1.6-8.4,4.9-11.8c6.9-7.2,17.8-10.1,17.8-16.9c0-2.6-2.5-4.2-5-4.2c-4.7,0-6.1,3.9-6,7.9
		h-11c0.2-12.2,6.8-17.1,17.6-17.1c8.6,0,16.6,3.8,16.6,13.4c0,7.3-5.6,10.3-11,13.6c-3,1.9-6.2,3.5-8.4,5h19.2v10L274.7,63.4
		L274.7,63.4z"/>
</g>
<g class="st20">
	<path class="st4" d="M632.9,44.9l19.3-23h11.4v23.7h5.2v9.1h-5.2v8.6H652v-8.6h-19.1V44.9z M642.1,45.6h9.9V33L642.1,45.6z"/>
</g>
<g class="st20">
	<path class="st1" d="M467,254c-0.1,1.9,0.5,3.4,1.5,4.5s2.5,1.6,4.4,1.6c3.6,0,5.5-2.4,5.5-4.8c0-4.8-4.7-4.6-7.6-4.6v-7.2
		c2.9,0.2,7.3-0.4,7.3-4.2c0-2.7-2.4-3.7-4.8-3.7c-2.9,0-5,1.5-5.4,4.4h-11.1c0.4-9.5,8.1-13.6,16.8-13.6c9.8,0,15.9,4.5,15.9,11.6
		c0,3.8-1.5,6.5-4.8,8.2c3.8,1.5,5.9,4.6,5.9,8.6c0,9.6-7.2,14.5-18.3,14.5c-9.6,0-16.9-5-16.8-15.3L467,254L467,254z"/>
</g>
<g class="st20">
	<path class="st2" d="M817.7,226.9h26.6v10h-18l-1.4,6.2c2.6-1.9,5.5-2.2,8.6-2.2c7.9,0,14.1,4.8,14.1,13.1
		c0,11.5-9.1,15.2-18.6,15.2c-9.1,0-14.9-4.1-17.3-11.7l12.3-1.2c0,0.1,0.1,0.3,0.1,0.4c0.7,2.2,3.1,3.4,5.3,3.4
		c3.6,0,5.9-2.4,5.9-5.5c0-3.4-1.6-6-5.4-6c-1.8,0-4,0.5-4.9,2.3l-11.5-0.4L817.7,226.9z"/>
</g>
<rect x="119.5" y="7.5" class="st0" width="4" height="35"/>
<rect x="474" y="8" class="st1" width="4" height="35"/>
<rect x="837" y="8" class="st2" width="4" height="35"/>
<rect x="292" y="231" class="st3" width="4" height="35"/>
<rect x="653" y="231" class="st4" width="4" height="35"/>
</svg>
