<?xml version="1.0" encoding="utf-8"?>
<!-- Generator: Adobe Illustrator 22.1.0, SVG Export Plug-In . SVG Version: 6.00 Build 0)  -->
<svg version="1.1" id="Capa_1" xmlns="http://www.w3.org/2000/svg" xmlns:xlink="http://www.w3.org/1999/xlink" x="0px" y="0px"
	 viewBox="0 0 378.6 265.6" style="enable-background:new 0 0 378.6 265.6;" xml:space="preserve">
<style type="text/css">
	.st0{opacity:0.17;fill:#999395;enable-background:new    ;}
	.st1{fill:#FDC774;}
	.st2{fill:#D22300;}
	.st3{fill:#333333;}
	.st4{fill:#999395;}
	.st5{fill:#BA4F70;}
	.st6{opacity:0.17;fill:#231F20;enable-background:new    ;}
	.st7{fill:#F6A16A;}
	.st8{fill:#404041;}
	.st9{fill:#F6A78B;}
	.st10{fill:#FFFFFF;}
	.st11{fill:#5F3813;}
	.st12{fill:#F1827F;}
	.st13{fill:#D1736F;}
	.st14{fill:none;stroke:#716558;stroke-width:0.5898;stroke-linecap:round;stroke-miterlimit:10;}
	.st15{fill:#E52505;}
	.st16{fill:#E08000;}
	.st17{fill:#316D38;}
	.st18{fill:#73B694;}
	.st19{fill:#3D8242;}
	.st20{fill:#987D48;}
	.st21{fill:#F17921;}
	.st22{opacity:0.2;fill:#231F20;enable-background:new    ;}
	.st23{fill:#59595B;}
	.st24{fill:#F3901E;}
	
</style>
<title>img-nosotros</title>
<path class="st0" d="M99.5,258.8c0,3.5-22.3,6.3-49.7,6.3S0,262.3,0,258.8c0-3.5,22.3-6.3,49.7-6.3S99.5,255.4,99.5,258.8z"/>
<ellipse class="st0" cx="328.9" cy="259.4" rx="49.7" ry="6.3"/>
<path class="st0" d="M129.8,259.9c0,2.1-6.3,3.9-14,3.9s-14-1.7-14-3.9s6.3-3.9,14-3.9S129.8,257.8,129.8,259.9z"/>
<path class="st0" d="M174.7,259.9c0,2.1-6.3,3.9-14,3.9s-14-1.7-14-3.9s6.3-3.9,14-3.9S174.7,257.8,174.7,259.9z"/>
<path class="st1" d="M117.5,51.2c0.4,1.5,0.9,2.9,1.5,4.3c0.5,0.8-1.8,1.4-1.8,1.4l-2.9-2.3L117.5,51.2z"/>
<path class="st1" d="M112.8,48.2c-0.5,1.3-0.6,2.7-0.2,4.1c0.6,1.8,3.8,3.9,3.8,3.9l1.1-2.2L112.8,48.2z"/>
<path class="st1" d="M205.9,65.4c0,0,1.7-0.2,2.5-0.3s1.6-5.2,2.5-5.6s1.1,4.3,1.1,4.7c1,0.1,2.1,0,3.1-0.2c2.5-0.2,5.8-0.4,5.9-0.2
	c0.2,0.4-0.7,1.1-0.7,1.1c0.1,0.5-0.1,0.9-0.6,1.1h-0.1c0,0,0,1.2-0.8,1.2c-0.2,0.6-0.7,1-1.2,1.1c0,0,0.3,0.6-1,1
	c-1.6,0.4-3.2,0.5-4.8,0.2c-1.7-0.7-3.7-0.7-5.4-0.1L205.9,65.4z"/>
<path class="st2" d="M158.4,50.3c-4.1-1.8-8.4,5.3-6.3,9.1s22.4,14,24,14.3s31.1-2.8,31.1-2.8l-1.1-6.6c0,0-27.7,0.2-28.6,0.2
	S162,51.9,158.4,50.3z"/>
<path class="st3" d="M150.1,174l-1.4,8.7l3.2,0.4l0.4-1.1c0,0,5.2,1.8,13.5,1.1c-2.5-3.9-6.2-6.9-10.6-8.4L150.1,174z"/>
<path class="st3" d="M129.7,173.7l-1.4,8.7l3.2,0.4l0.4-1.1c0,0,5.2,1.8,13.5,1.1c-2.5-3.9-6.2-6.9-10.6-8.4L129.7,173.7z"/>
<path class="st4" d="M158,90.5c0,0,1.6,33.5,1.6,36.4c0,3-2.9,46-3.1,48.2h-7.9c0,0,1.6-39.6,0.8-45.3c-0.9-5.7-1-33.2-1-33.2
	l3-10.1L158,90.5z"/>
<path class="st4" d="M154.6,89.1l-7.2,45.1l-9.1,41.7l-9.3-2.3c0,0,8.6-37.9,8.8-43.1c0,0-5.2-27.4-0.8-47.4L154.6,89.1z"/>
<polygon class="st5" points="148.1,43.7 158.6,46.9 154.6,51.3 "/>
<path class="st1" d="M152.7,36.3L148.1,49c0,0,4,7.1,7.3,4l5.6-13.7L152.7,36.3z"/>
<path class="st6" d="M151.6,39.4c1.2,1.3,4.9,4.9,7.2,5.4l2.3-5.5l-8.4-3L151.6,39.4z"/>
<path class="st1" d="M174.2,14.5c0,0,3.2,26.3-13.1,26.9c-16.3,0.6-17-19-17-23.2s5.4-10.6,15.1-10.6S174.2,12.3,174.2,14.5z"/>
<path class="st7" d="M168.9,28.6c0,0,2.7,5.3,1.4,5.9c-0.8,0.4-1.8,0.4-2.6,0L168.9,28.6z"/>
<ellipse class="st8" cx="162.6" cy="25.1" rx="1.7" ry="2.5"/>
<path class="st8" d="M173.5,25.5c0,1.2-0.5,2.1-1.1,2.1s-1.1-1-1.1-2.1s0.5-2.1,1.1-2.1S173.5,24.3,173.5,25.5z"/>
<path class="st9" d="M163.8,29.6c0,0.7-1.2,1.2-2.6,1.2s-2.6-0.5-2.6-1.2s1.1-1.2,2.6-1.2S163.8,28.9,163.8,29.6z"/>
<path class="st9" d="M171.2,29.6c0,0.5,0.8,1,1.9,1.1c0.2-0.8,0.4-1.5,0.6-2.3C172.3,28.4,171.2,28.9,171.2,29.6z"/>
<path class="st10" d="M163.8,24.4c0,0.4-0.2,0.7-0.3,0.7s-0.3-0.3-0.3-0.7s0.1-0.7,0.3-0.7S163.8,24,163.8,24.4z"/>
<ellipse class="st10" cx="172.7" cy="25.1" rx="0.3" ry="0.7"/>
<path class="st11" d="M150.4,39.3c0,0,2.6-8.4,2.6-12.7c0,0-3.7,0.3-3.8-4s4.3-1.3,4.3-1.3s1.1-1,1.4-4.5c0,0,16.6,6.4,22.8,0
	s-0.1-13.3-7.2-11.1c-2.9-4-7.7-6.2-12.6-5.6c-9,1.1-8.8,6.4-8.8,6.4s-8.6-0.3-9.7,9.7S144.8,36.5,150.4,39.3z"/>
<path class="st12" d="M160.2,36.3c0,0-1.8-3.4,0-3.8c1.8-0.3,1.5,3.4,1.5,3.4L160.2,36.3z"/>
<polygon class="st13" points="160.7,36.1 160.6,34.2 161.2,36 "/>
<path class="st14" d="M166.7,38.8c0,0-3.7-4.5-7.4-2"/>
<path class="st2" d="M147.1,46.9c0,0-13.2,9.1-13.9,46.8c0,0,6.8,7.1,19.8,9.1l0.9-5.3l0.9,5.3c0,0,3-2.1,5.3-3.7l-0.8-47.9
	l-4.7,0.2L147.1,46.9z"/>
<polygon class="st15" points="149,44.8 154.6,51.3 150.5,55 145.6,46.8 148.1,43.7 "/>
<polygon class="st15" points="154.6,51.3 158.6,46.9 160.1,51.2 157,55.5 "/>
<path class="st3" d="M154.6,51.3c0,0-4.6,26.8,2.8,40.4l3.7,0.9l1.2-3.9C162.3,88.7,154.6,75.9,154.6,51.3z"/>
<path class="st2" d="M145.9,47.7c-3.3-1.8-12.9,15.6-13.8,16.3c-0.9,0.7-12-10.2-12-10.2l-5.2,3.7c0,0,10.9,16.3,15.8,16.7
	c1.1,0.1,2.5,0.8,4-0.2c4.8-3.2,11.3-14.5,12.7-16.6C149.1,54.5,150.8,50.3,145.9,47.7z"/>
<rect x="114.3" y="35.7" class="st4" width="3.2" height="226.4"/>
<rect x="159.2" y="35.7" class="st4" width="3.1" height="226.4"/>
<rect x="114.3" y="55.8" class="st4" width="48" height="3.1"/>
<rect x="114.3" y="81.2" class="st4" width="48" height="3.1"/>
<rect x="114.3" y="106.6" class="st4" width="48" height="3.1"/>
<rect x="114.3" y="132.1" class="st4" width="48" height="3.1"/>
<rect x="114.3" y="157.5" class="st4" width="48" height="3.1"/>
<rect x="114.3" y="182.9" class="st4" width="48" height="3.1"/>
<rect x="114.3" y="208.3" class="st4" width="48" height="3.1"/>
<rect x="114.3" y="233.8" class="st4" width="48" height="3.1"/>
<path class="st3" d="M349.9,251.2l0.7,9.8l-3.5,0.1l-0.3-1.3c0,0-5.9,1.5-15-0.1c3.1-4.1,7.5-6.9,12.5-8.2L349.9,251.2z"/>
<path class="st3" d="M340.7,251.9l0.9,9.8l-3.5,0.2l-0.4-1.3c0,0-5.8,1.6-15,0.1c3.1-4.1,7.4-7.1,12.4-8.4L340.7,251.9z"/>
<path class="st1" d="M280.2,194.3c0,0-1.7,0-2.5,0s-2.2-5-3.2-5.2s-0.6,4.4-0.5,4.8c-1,0.2-2,0.3-3.1,0.2c-2.5,0.1-5.8,0.3-5.9,0.5
	c-0.1,0.5,0.8,1,0.8,1c-0.1,0.5,0.2,0.9,0.7,1h0.1c0,0,0.2,1.2,1,1.1c0.3,0.5,0.8,0.9,1.4,0.9c0,0-0.2,0.6,1.1,0.9
	c1.6,0.2,3.3,0.1,4.8-0.4c1.7-0.9,3.6-1.2,5.5-0.8L280.2,194.3z"/>
<path class="st16" d="M325.4,173.5c3.8-2.3,9,4.2,7.3,8.3s-20.5,16.7-22.1,17.2s-31.2,1-31.2,1l0.2-6.7c0,0,27.5-3.2,28.4-3.3
	S322.1,175.5,325.4,173.5z"/>
<path class="st1" d="M122.7,120.2c0,0,1.4-1,2-1.4s-1.1-5.3-0.4-6.1s3.1,3.3,3.3,3.6c0.9-0.4,1.8-1,2.6-1.6c2.1-1.4,4.9-3.1,5.1-3
	s-0.1,1.3-0.1,1.3c0.3,0.3,0.3,0.9,0,1.2l-0.1,0.1c0,0,0.5,1.1-0.1,1.5c0.1,0.6-0.1,1.2-0.6,1.5c0,0,0.6,0.4-0.4,1.4
	c-1.2,1.1-2.6,1.9-4.1,2.5c-1.9,0.2-3.6,1.1-4.9,2.5L122.7,120.2z"/>
<path class="st17" d="M73.7,129.4c-4.4,0.3-4.9,8.7-1.2,11s26.4,1.7,27.9,1.2s26-17.3,26-17.3l-4.1-5.3c0,0-24.3,13.3-25.1,13.7
	S77.6,129.1,73.7,129.4z"/>
<path id="Gear3" class="st3" d="M199,124.5c-1-4.8-2.9-9.4-5.6-13.5l6.1-7.2l-5-5l-5-5l-7.2,6.1c-4.1-2.7-8.7-4.6-13.5-5.6l-0.8-9.4
	h-14.2l-0.8,9.4c-4.8,1-9.4,2.9-13.5,5.6l-7.2-6.1l-5,5l-5,5l6.1,7.2c-2.7,4.1-4.6,8.7-5.6,13.5l-9.4,0.8v14.2l9.4,0.8
	c1,4.8,2.9,9.4,5.6,13.5l-6.1,7.2l5,5l5,5l7.2-6.1c4.1,2.7,8.7,4.6,13.5,5.6l0.8,9.4H168l0.8-9.4c4.8-1,9.4-2.9,13.5-5.6l7.2,6.1
	l5-5l5-5l-6.1-7.2c2.7-4.1,4.6-8.7,5.6-13.5l9.4-0.8v-14.2L199,124.5z M160.9,155.4c-12.7,0-23.1-10.3-23.1-23s10.3-23.1,23-23.1
	s23.1,10.3,23.1,23v0.1C183.9,145.1,173.6,155.4,160.9,155.4L160.9,155.4z" style="transform-origin: 26.6% 23.5%;">
<animateTransform attributeName="transform"
                          attributeType="XML"
                          type="rotate"
                          from="0 60 70"
                          to="360 60 70"
                          dur="10s"
                          repeatCount="indefinite"/>
						  </path>
<path id="Gear1" class="st3" d="M275.2,75.2c-1-4.8-2.9-9.4-5.6-13.5l6.1-7.2l-5-5l-5-5l-7.2,6.1c-4.1-2.7-8.7-4.6-13.5-5.6
	l-0.8-9.4H230l-0.8,9.4c-4.8,1-9.4,2.9-13.5,5.6l-7.2-6.1l-5,5l-5,5l6.1,7.2c-2.7,4.1-4.7,8.7-5.7,13.6l-9.4,0.8v14.1l9.4,0.8
	c1,4.8,2.9,9.4,5.6,13.5l-6.1,7.2l5,5l5,5l7.2-6.1c4.1,2.7,8.7,4.7,13.6,5.7l0.8,9.4h14.1l0.8-9.4c4.8-1,9.4-2.9,13.5-5.6l7.2,6.1
	l5-5l5-5l-6.1-7.2c2.7-4.1,4.6-8.7,5.6-13.5l9.4-0.8V75.9L275.2,75.2z M237.1,106.1c-12.7,0-23-10.3-23-23s10.3-23,23-23
	s23,10.3,23,23C260.1,95.7,249.8,106,237.1,106.1L237.1,106.1z" style="transform-origin: 46.8% 4.7%;">
	<animateTransform attributeName="transform"
                          attributeType="XML"
                          type="rotate"
                          from="0 60 70"
                          to="-360 60 70"
                          dur="10s"
                          repeatCount="indefinite"/>
						  </path>
<path id="Gear2" class="st3" d="M272.1,182.1c-0.5-4.9-1.8-9.7-4.1-14.1l6.9-6.5l-4.4-5.5l-4.4-5.5l-7.9,5.3
	c-3.8-3.2-8.1-5.5-12.8-7.1l0.3-9.5l-7-0.8l-7-0.8l-1.8,9.3c-4.9,0.5-9.7,1.8-14.1,4.1l-6.5-6.9l-5.5,4.4l-5.5,4.4l5.3,7.9
	c-3.1,3.8-5.5,8.1-7,12.8l-9.5-0.3l-0.8,7l-0.8,7l9.3,1.8c0.5,4.9,1.8,9.7,4.1,14.1l-6.9,6.5l4.4,5.5l4.4,5.5l7.9-5.3
	c3.8,3.1,8.1,5.5,12.8,7l-0.3,9.5l7,0.8l7,0.8l1.8-9.3c4.9-0.5,9.7-1.8,14.1-4.1l6.5,6.9l5.5-4.4l5.5-4.4l-5.3-7.9
	c3.2-3.8,5.5-8.1,7.1-12.8l9.5,0.3l0.8-7l0.8-7L272.1,182.1z M230.8,208.6c-12.6-1.4-21.7-12.8-20.3-25.4s12.8-21.7,25.4-20.3
	c12.6,1.4,21.7,12.7,20.3,25.3C254.9,200.9,243.5,210,230.8,208.6C230.9,208.6,230.8,208.6,230.8,208.6z" style="transform-origin: 45.7% 43.5%;">
	<animateTransform attributeName="transform"
                          attributeType="XML"
                          type="rotate"
                          from="0 60 70"
                          to="-360 60 70"
                          dur="10s"
                          repeatCount="indefinite"/>
						  </path>
<path class="st3" d="M311.8,179.1c0,0,13,14,5,32.2l1.6,3.8l4.3-3.3C322.7,211.8,329,189.8,311.8,179.1z"/>
<path class="st1" d="M123.3,144.8c0,0,1.7-0.3,2.5-0.3s1.4-5.2,2.4-5.6c0.9-0.4,1.3,4.3,1.3,4.7c1,0,2.1,0,3.1-0.3
	c2.5-0.3,5.8-0.6,5.9-0.3c0.2,0.4-0.7,1.1-0.7,1.1c0.1,0.5-0.1,0.9-0.6,1.1h-0.1c0,0,0,1.2-0.8,1.3c0,0-0.3,1-1.2,1.1
	c0,0,0.3,0.6-0.9,1.1c-1.6,0.4-3.2,0.5-4.8,0.4c-1.8-0.7-3.7-0.7-5.5,0L123.3,144.8z"/>
<path class="st3" d="M68.8,248.2l-2.2,9.5l3.5,0.7l0.5-1.2c0,0,5.6,2.4,14.8,2.1c-2.5-4.5-6.4-8-11.2-9.9L68.8,248.2z"/>
<path class="st3" d="M16.3,232L9,238.5l2.5,2.6l1.1-0.7c0,0,3.2,5.2,10.9,10.3c0.5-5.1-0.7-10.2-3.4-14.6L16.3,232z"/>
<path class="st4" d="M50.5,165.6c0,0-11.1,38.2-11.7,41s-23.7,25.7-23.7,25.7l6.3,6.3c0,0,23.2-19.2,25.9-23.8s18.8-35.3,19.8-40.8
	S57.3,160.1,50.5,165.6z"/>
<path class="st4" d="M52.6,162.7c0,0-5.6,13.3-2.5,22.6s18.8,28,20.2,28.8s-2.2,34.8-2.2,34.8l8.7,1.9c0,0,6.2-33.4,5.5-39.4
	s-9.7-26.1-10.5-29.3s-1.5-8.7-1.5-8.7L52.6,162.7z"/>
<polygon class="st18" points="74.9,123.3 79.1,123.3 76.2,126 "/>
<polygon class="st19" points="83.8,130.5 84.2,134.2 82.1,133.2 "/>
<path class="st1" d="M78.4,118.2l-4.6,12.7c0,0,3.9,7.1,7.3,3.9l5.6-13.6L78.4,118.2z"/>
<path class="st6" d="M77.3,121.3c1.2,1.3,4.9,4.9,7.2,5.4l2.3-5.5l-8.3-3L77.3,121.3z"/>
<path class="st1" d="M100.2,96.1c0,0,3.2,26.3-13,26.9s-17-19-17-23.2s5.4-10.6,15.2-10.6S100.2,93.8,100.2,96.1z"/>
<path class="st11" d="M82.8,96.2c0,0,9.9,5.3,19.9,3.9c0,0-0.1-11.1-10-14C80.8,82.6,76.5,89,76.5,89s-6.4,0.2-9,7.3
	s1.1,19.3,8.7,24.8c1.6-3.5,2.4-7.2,2.4-11c0,0-5.5-1.6-4.7-6.9c0.6-4.1,5.5-1.8,5.5,1.3C79.5,104.6,82.5,102.2,82.8,96.2z"/>
<path class="st7" d="M94.8,110.2c0,0,2.7,5.3,1.4,5.9c-0.8,0.4-1.8,0.4-2.6,0L94.8,110.2z"/>
<ellipse class="st8" cx="88.5" cy="106.7" rx="1.7" ry="2.5"/>
<path class="st8" d="M99.5,107.1c0,1.2-0.5,2.1-1.2,2.1s-1.1-1-1.1-2.1s0.5-2.1,1.1-2.1S99.5,105.9,99.5,107.1z"/>
<path class="st20" d="M85.3,115.5c0,0,5,2.4,9.8,1.9c0,0-2.2,4.3-6.2,3.3S85.3,115.5,85.3,115.5z"/>
<path class="st9" d="M89.7,111.1c0,0.7-1.2,1.2-2.6,1.2s-2.6-0.5-2.6-1.2s1.2-1.2,2.6-1.2S89.7,110.4,89.7,111.1z"/>
<path class="st9" d="M97.2,111.1c0,0.6,0.8,1,1.9,1.2c0.2-0.8,0.4-1.6,0.6-2.3C98.2,109.9,97.2,110.5,97.2,111.1z"/>
<path class="st10" d="M89.7,106c0,0.4-0.2,0.7-0.3,0.7S89,106.3,89,106s0.2-0.7,0.3-0.7S89.7,105.6,89.7,106z"/>
<ellipse class="st10" cx="98.6" cy="106.7" rx="0.3" ry="0.7"/>
<path class="st10" d="M94.3,117.5c-2.8,0-5.6-0.5-8.2-1.6c-0.1,0.6,0.1,1.3,0.7,1.6c1.9,0.6,4,1,6,1.1
	C93.5,118.6,94.1,118.2,94.3,117.5z"/>
<path class="st17" d="M75.4,124.5c0,0-21,10.4-27.6,40.2c0,0,11.6,14.6,26.2,16c1.1-17.1,4.4-33.9,9.9-50.1L75.4,124.5z"/>
<polygon class="st19" points="74.9,123.3 83.8,130.5 81.4,134.2 72,125.7 "/>
<path class="st3" d="M83.6,130.9c0,0-11.7,36-7.1,45.4l2.6,3.6L81,174C80.9,174,78.3,157,83.6,130.9z"/>
<path class="st17" d="M75.4,130.9c-4.1-1.7-8.3,5.5-6,9.3s22.8,13.5,24.3,13.7s31-3.6,31-3.6l-1.2-6.6c0,0-27.7,0.9-28.6,0.9
	S79,132.4,75.4,130.9z"/>
<path class="st4" d="M337.4,223.1c-0.2,3,13.7,29.6,13.7,29.6h-7.8c0,0-16.1-22.7-15.9-26.2S337.4,223.1,337.4,223.1z"/>
<path class="st4" d="M333.1,204c0,0-15.7,16.4-16.3,20.3s16.5,28.4,16.5,28.4h7.8c0,0-9.8-22.1-9.8-25s31.8-14.5,22.6-31L333.1,204z
	"/>
<polygon class="st21" points="313,170.3 310.4,179.7 314.3,183.4 314.3,178.5 "/>
<path class="st1" d="M305.3,168.6l13,3.4c0,0,3.7,7.3-0.9,8.3l-14.5-3.1L305.3,168.6z"/>
<path class="st22" d="M303,177.1l6.5,1.4c1.7-2.4,2.9-5.1,3.8-7.9l-8-2.1L303,177.1z"/>
<path class="st1" d="M279.9,156.3c0,0,4.3,26.1,20,22.2s11-23,9.9-27s-8.2-8.7-17.5-6S279.2,154.1,279.9,156.3z"/>
<path class="st7" d="M288.9,168.3c0,0-1.1,5.9,0.3,6.1c0.9,0.1,1.8-0.1,2.5-0.7L288.9,168.3z"/>
<path class="st8" d="M292.3,163.7c0.4,1.4,1.5,2.2,2.4,2s1.3-1.6,1-2.9s-1.5-2.2-2.4-2S291.9,162.4,292.3,163.7z"/>
<path class="st8" d="M283.6,166.7c0.3,1.1,1.1,1.9,1.7,1.7s0.8-1.2,0.5-2.4s-1.1-1.9-1.7-1.7S283.3,165.5,283.6,166.7z"/>
<path class="st9" d="M294.1,167.8c0.2,0.6,1.4,0.8,2.8,0.4s2.3-1.2,2.1-1.9s-1.4-0.8-2.8-0.4S293.9,167.2,294.1,167.8z"/>
<path class="st9" d="M286.9,169.9c0.1,0.5-0.5,1.2-1.5,1.6c-0.4-0.7-0.8-1.4-1.2-2.1C285.5,169.1,286.7,169.3,286.9,169.9z"/>
<path class="st10" d="M292.7,162.9c0.1,0.4,0.3,0.6,0.5,0.6s0.2-0.4,0.1-0.8s-0.3-0.6-0.5-0.6S292.6,162.5,292.7,162.9z"/>
<path class="st10" d="M283.9,166.1c0.1,0.4,0.3,0.6,0.5,0.6s0.2-0.4,0.1-0.8s-0.3-0.6-0.5-0.6S283.8,165.8,283.9,166.1z"/>
<path class="st23" d="M293.6,176.4c-0.3,0-0.7,0-1,0c-0.1,0-0.2-0.1-0.2-0.2l0,0c0-0.1,0.1-0.2,0.2-0.2l0,0c0,0,4.1,0.4,6.1-1.4
	c0.7-0.6,1-1.5,1-2.4c0-0.1,0.1-0.2,0.2-0.2l0,0l0,0c0.1,0,0.2,0.1,0.2,0.2c0,1-0.4,2-1.2,2.7C297.5,176.2,295,176.4,293.6,176.4z"
	/>
<path class="st11" d="M281.6,163.3c0,0-5.8-3.4-7.1-8.3l1.3,0.8l-1.3-2.8c1.8,0.9,4,0.1,4.9-1.7c0-0.1,0.1-0.2,0.1-0.3
	c1.7-3.5,5.3-7.3,11.9-9.1s12,1.3,12.6,2.8c3.7,0.3,6.7,3.1,7.4,6.7c1.6,6.5,1.9,16.7-3,21.7c-0.8-3.7-1.9-7.3-3.2-10.9
	c1-1.8,0.9-4.1-0.2-5.9c-1.9-3.3-3.9,1.4-3.9,1.4l-2.7-6.8c0,0-6.9,9.4-17.3,9.1L281.6,163.3z"/>
<path class="st16" d="M313,170.3c0,0,36.7-2.8,42.6,27.2c0,0-3.9,5.3-24.3,8.2c0,0,5.4-16.6-20.1-26L313,170.3z"/>
<polygon class="st24" points="313,170.3 311.2,179.6 317.3,182 317.3,169.7 "/>
<path class="st1" d="M274.4,185.9c0,0-1.7-0.3-2.5-0.3s-1.5-5.2-2.4-5.6s-1.3,4.3-1.3,4.7c-1,0.1-2.1,0-3.1-0.3
	c-2.5-0.3-5.8-0.6-5.9-0.3c-0.2,0.4,0.7,1.1,0.7,1.1c-0.1,0.5,0.1,1,0.6,1.1h0.1c0,0,0,1.2,0.8,1.3c0.2,0.6,0.6,1,1.2,1.1
	c0,0-0.3,0.6,0.9,1.1c1.6,0.4,3.2,0.5,4.8,0.4c1.8-0.7,3.7-0.7,5.5,0L274.4,185.9z"/>
<path class="st16" d="M322.2,172c4.1-1.7,8.3,5.5,6,9.3s-22.8,13.5-24.4,13.7s-31-3.7-31-3.7l1.2-6.6c0,0,27.6,0.9,28.6,0.9
	S318.6,173.5,322.2,172z"/>
<path class="st1" d="M113.3,52c-0.5-1.1-1-2.8-0.5-3.8c0.6-1,1.3-1.9,2-2.8c0.6-0.9,1.1,0,0.6,0.8c0.2,0.4,0.1,1-0.2,1.3
	c0,0,0.3,0.4-0.1,1c0.3,0.4,0.2,0.9-0.1,1.2c-0.6,0.6-0.9,1.4-1,2.3C114,52.6,113.3,52,113.3,52z"/>
<path class="st1" d="M117.5,49.4c0,0-1.5-0.9-1.6-0.3c-0.1,0.6,0.9,2.1,1.6,2.1S118,49.6,117.5,49.4z"/>
<circle class="st3" cx="233.3" cy="185.9" r="16.2"/>
<circle class="st3" cx="237.1" cy="83.2" r="16.2"/>
<circle class="st3" cx="160.6" cy="132.4" r="16.2"/>
</svg>
