<svg xmlns="http://www.w3.org/2000/svg" viewBox="0 0 61.47 61.47"><defs><style>.\32 18de7d1-e79d-4bb6-aa09-13234fa0c2ee{isolation:isolate;}.\35 4cbc8ad-dfcb-48ee-ac3b-d98772dd407f{fill:#fff;}.\35 b2fa6dd-77fd-40e6-b3a2-a80cd20a3aed{fill:#999395;}.\36 d44812f-a2f1-4530-bb22-5b18cc4539a4{fill:#004d96;opacity:0.1;mix-blend-mode:multiply;}</style></defs><title>prop2</title><g class="218de7d1-e79d-4bb6-aa09-13234fa0c2ee"><g id="00c13191-7011-461a-abbf-99e458bd3431" data-name="Capa 1"><circle class="54cbc8ad-dfcb-48ee-ac3b-d98772dd407f" cx="30.73" cy="30.73" r="30.73"/><path class="5b2fa6dd-77fd-40e6-b3a2-a80cd20a3aed" d="M30.73,15.73l-.64,0c-7.21.42-11.5,8.33-8.26,14.81l7,14a2.17,2.17,0,0,0,3.89,0l7-14c3.23-6.48-1-14.39-8.27-14.81Z"/><path class="6d44812f-a2f1-4530-bb22-5b18cc4539a4" d="M37.23,26.63a6.5,6.5,0,1,1-6.5-6.5A6.5,6.5,0,0,1,37.23,26.63Z"/><path class="54cbc8ad-dfcb-48ee-ac3b-d98772dd407f" d="M35.73,26.63a5,5,0,1,1-5-5A5,5,0,0,1,35.73,26.63Z"/></g></g></svg>