<svg id="14f701c0-180f-4bbd-9f91-1ad71153ee99" data-name="Capa 1" xmlns="http://www.w3.org/2000/svg" viewBox="0 0 32 32"><defs><style>.\31 9a34b48-312b-4831-9fd1-2b30828fc395{fill:#878787;}.\34 80d17ac-5098-4cdd-96ed-1dc5fdc4b795{fill:#fff;}</style></defs><title>prop2</title><path class="19a34b48-312b-4831-9fd1-2b30828fc395" d="M16,0A16,16,0,1,1,0,16,16,16,0,0,1,16,0ZM30.78,16A14.78,14.78,0,1,0,16,30.78,14.78,14.78,0,0,0,30.78,16Z"/><path class="480d17ac-5098-4cdd-96ed-1dc5fdc4b795" d="M16,1.22A14.78,14.78,0,1,1,1.22,16,14.78,14.78,0,0,1,16,1.22ZM29.39,16A13.39,13.39,0,1,0,16,29.39,13.4,13.4,0,0,0,29.39,16Z"/><path class="480d17ac-5098-4cdd-96ed-1dc5fdc4b795" d="M26.2,24.13H6a3.42,3.42,0,0,1,.43-.42A5,5,0,0,1,8.34,23a4.79,4.79,0,0,1,1.06-.12c.27,0,.35-.24.58-.32.46-.3,1.5-.47,1.69-1a5.91,5.91,0,0,1,1-1.61c.12-.17.19-.26.32-.29,0-.31-.28-.67-.34-1.06s.07-.87-.28-1a2.8,2.8,0,0,0-.1-.91c0-.12-.16-.16-.2-.28a1.44,1.44,0,0,1,0-.66c0-.44-.08-.89-.1-1.33a4.43,4.43,0,0,1-.17-1.18c0-.41,0-.61.06-1H11.7l-.09,0-.08,0a3.26,3.26,0,0,1-.44.15s0,0,0,0a2.53,2.53,0,0,0,.42-.31,1.27,1.27,0,0,1,.13-.19.15.15,0,0,0,0-.1,1.67,1.67,0,0,1-.4.25s0,0,0,0a1.54,1.54,0,0,0,.44-.65l-.14,0a1.4,1.4,0,0,1-.5-.06s0,0,0,0a1.21,1.21,0,0,0,.46-.08,1.59,1.59,0,0,0,.29-.15l0,0a.85.85,0,0,1-.39,0s0,0,0,0a.75.75,0,0,0,.4-.17,1.15,1.15,0,0,0,.14-.17.2.2,0,0,1,.06-.15v0h0c-.19-.2-.44-.07-.62,0,.25-.32.9-.26.94-.82a1.48,1.48,0,0,0-.45-.28s0,0,0,0a1.91,1.91,0,0,1,.58.15l.05,0a1.17,1.17,0,0,0-.42-.27s0,0,0,0a1.4,1.4,0,0,1,.57.13.92.92,0,0,1-.09-.23,1.73,1.73,0,0,1,0-.32s0,0,0,0a1.51,1.51,0,0,0,.09.18,2.45,2.45,0,0,1,0-.27s0,0,0,0a1.55,1.55,0,0,0,.06.31h0a3.2,3.2,0,0,1,0-.69s0,0,0,0a2.14,2.14,0,0,0,.09.34v0c.2.14.16-.05.23-.19a.37.37,0,0,1-.05-.11.41.41,0,0,0,0-.08s0-.07-.05-.1,0,0,0,0l0,0a.59.59,0,0,1,0-.13s0,0,0,0a1,1,0,0,0,.37.34h0a1.13,1.13,0,0,1-.08-.24.94.94,0,0,1,0-.41s0,0,0,0a.88.88,0,0,0,.1.36.76.76,0,0,0,.11.14.64.64,0,0,1,.12-.25,2.86,2.86,0,0,1,.47-.36,1,1,0,0,0,0-.25A5.89,5.89,0,0,0,14,6.88s0,0,0,0a3.87,3.87,0,0,1,.34.55l0,0,.05,0a.77.77,0,0,0,.27-.3v0a.77.77,0,0,0,0-.15h0a.82.82,0,0,0,0-.35s0,0,0,0a.84.84,0,0,1,.1.51h0a1.93,1.93,0,0,0,.28-.36s0,0,0,0A1.87,1.87,0,0,1,15,7h0s.06.06.07.1a1.67,1.67,0,0,0,.28-.25s0,0,0,0a.83.83,0,0,1-.06.21A.56.56,0,0,0,15.67,7a.63.63,0,0,0,.27-.33s0,0,0,0a.82.82,0,0,1-.07.31l.1,0a5.69,5.69,0,0,0,.33-.52s0,0,0,0a2.76,2.76,0,0,1-.06.4l.41-.26s0,0,0,0l-.16.23h.06c0,.12,0,.15.07.13a1.46,1.46,0,0,1,.05-.2s0,0,0,0l.09.17A3.14,3.14,0,0,0,17,6.59h0a.59.59,0,0,0,0,.14.1.1,0,0,1,.1.06.77.77,0,0,0,.18-.18s0,0,0,0a.8.8,0,0,1,0,.15h.14a5,5,0,0,1,.37-.42s0,0,0,0-.05.12-.08.17h0a1.31,1.31,0,0,0-.12.47h0l.16-.13v0l0,0s0,0,0,0a.86.86,0,0,1,0,.16c.09.09.28,0,.29.19a2,2,0,0,0,.33-.32s0,0,0,0a3.65,3.65,0,0,1-.14.35c0,.06,0,.16.07.16s0-.23.07-.43a.62.62,0,0,1,.25.54,1.33,1.33,0,0,1,.41-.33s0,0,0,0l-.08.13h.05c-.08.19,0,.24,0,.36a.88.88,0,0,0,.36-.38s0,0,0,0a1.23,1.23,0,0,1-.08.33,2.88,2.88,0,0,1,.32.57l.15-.33s0,0,0,0l0,.29a.08.08,0,0,1,.05.08.9.9,0,0,1,.29-.38s0,0,0,0a.86.86,0,0,0-.16.38s.05,0,.12,0,0,.13,0,.19a.66.66,0,0,0,.09-.19s0,0,0,0a1.35,1.35,0,0,1-.06.49l.12.14a.33.33,0,0,0,.17,0s0,0,0,0a.24.24,0,0,1-.09.08V9l0,0a1.44,1.44,0,0,0,.42-.36s0,0,0,0a1.48,1.48,0,0,1-.12.29.29.29,0,0,1,0,.08.19.19,0,0,0,0,.09l.37-.19s0,0,0,0a.57.57,0,0,1-.08.13h0c0,.09-.08.09-.08.18h.23a1,1,0,0,1,.35,0s0,0,0,0a.73.73,0,0,0-.19.07l-.07,0h0a.09.09,0,0,0-.06.06c-.09.2.14,0,.15,0s.05.11.11.18a2.11,2.11,0,0,0,.71,0s0,0,0,0a1.42,1.42,0,0,1-.33.11s-.07.09-.07.07.15.15.2.19h.2s0,0,0,0a.7.7,0,0,1-.19.06v0l.19.06s0,0,0,0a3.62,3.62,0,0,1-.47,0,.92.92,0,0,0,.33.35s0,0,0,0a1,1,0,0,1-.37-.14l-.05,0a.2.2,0,0,0,0,.13l0,0,.09,0,0,0,.26.17s0,0,0,0a1.06,1.06,0,0,1-.31-.05.53.53,0,0,0,0,.28,1.07,1.07,0,0,0,.25,0,1.25,1.25,0,0,0,.43-.07s0,0,0,0a1.07,1.07,0,0,1-.41.21l-.16,0a.91.91,0,0,1,.07.14,2.66,2.66,0,0,0,.67.23s0,0,0,0a2.9,2.9,0,0,1-.51,0l.16.1s0,0,0,0a.69.69,0,0,1-.28-.08.28.28,0,0,0,0,.09l0,.11a1,1,0,0,0,.3.27s0,0,0,0a1.21,1.21,0,0,1-.25-.08c0,.05,0,.09,0,.13a1.79,1.79,0,0,0,.51.27c.05,0,.05,0,0,0l-.19,0h0l-.22,0a0,0,0,0,1,0,0,.73.73,0,0,0,.34.26s0,0,0,0a.78.78,0,0,1-.22,0,.83.83,0,0,0,.21.16s0,0,0,0l-.17-.09.06.1s0,.05,0,0l-.14-.16,0,0v.07c-.09-.06-.09,0-.12.06a1.34,1.34,0,0,0,.21.2s0,0,0,0A1,1,0,0,1,22,13c.06.76-.1,1.5,0,2.18-.21,0-.1-.18-.21-.23-.11.39.21.84,0,1.48-.06,0-.07.06-.08.13-.4-.11-.09.42-.4.38,0-.11,0-.23.05-.34a1.44,1.44,0,0,1-.47.45s0,.05,0,.07.06-.15.21-.07-.12.26-.18.47-.07-.09-.23-.09c-.07.22.18.21.3.3s-.24.07-.32.14a11.67,11.67,0,0,0-.43,1.66c0,.15.13.28.13.42v0a6,6,0,0,1,.46.7c.25.37.49.73.7,1.11s.6.4.91.53a6.45,6.45,0,0,1,.94.49c.25.17.66.15,1,.28s.79.26,1.16.43A2.18,2.18,0,0,1,26.2,24.13Zm-4.66-7.77-.09,0s0,0,0,.05A.41.41,0,0,1,21.54,16.36Z"/><path class="19a34b48-312b-4831-9fd1-2b30828fc395" d="M16,2.61A13.39,13.39,0,1,1,2.61,16,13.4,13.4,0,0,1,16,2.61ZM6,24.13H26.2a2.18,2.18,0,0,0-.71-.64c-.37-.17-.78-.26-1.16-.43s-.72-.11-1-.28a6.45,6.45,0,0,0-.94-.49c-.31-.13-.74-.22-.91-.53s-.45-.74-.7-1.11a6,6,0,0,0-.46-.7v0c0-.14-.14-.27-.13-.42a11.67,11.67,0,0,1,.43-1.66c.08-.07.32.07.32-.14s-.37-.08-.3-.3c.16,0,.1.19.23.09s.34-.3.18-.47-.06.15-.21.07,0-.05,0-.07a1.44,1.44,0,0,0,.47-.45c0,.11,0,.23-.05.34.31,0,0-.49.4-.38,0-.07,0-.13.08-.13.25-.64-.07-1.09,0-1.48.11.05,0,.26.21.23-.11-.68,0-1.42,0-2.18a1,1,0,0,0,.29.11s0,0,0,0a1.34,1.34,0,0,1-.21-.2s0-.12.12-.06v-.07l0,0,.14.16s0,0,0,0l-.06-.1.17.09s0,0,0,0a.83.83,0,0,1-.21-.16.78.78,0,0,0,.22,0s0,0,0,0a.73.73,0,0,1-.34-.26,0,0,0,0,0,0,0l.22,0h0l.19,0c.05,0,.05,0,0,0a1.79,1.79,0,0,1-.51-.27s0-.08,0-.13a1.21,1.21,0,0,0,.25.08s0,0,0,0a1,1,0,0,1-.3-.27l0-.11a.28.28,0,0,1,0-.09.69.69,0,0,0,.28.08s0,0,0,0l-.16-.1a2.9,2.9,0,0,0,.51,0s0,0,0,0a2.66,2.66,0,0,1-.67-.23.91.91,0,0,0-.07-.14l.16,0a1.07,1.07,0,0,0,.41-.21s0,0,0,0a1.25,1.25,0,0,1-.43.07,1.07,1.07,0,0,1-.25,0,.53.53,0,0,1,0-.28,1.06,1.06,0,0,0,.31.05s0,0,0,0l-.26-.17,0,0-.09,0,0,0a.2.2,0,0,1,0-.13l.05,0a1,1,0,0,0,.37.14s0,0,0,0a.92.92,0,0,1-.33-.35,3.62,3.62,0,0,0,.47,0s0,0,0,0L22,10.15v0a.7.7,0,0,0,.19-.06s0,0,0,0H22c-.05,0-.19-.07-.2-.19s.06,0,.07-.07a1.42,1.42,0,0,0,.33-.11s0,0,0,0a2.11,2.11,0,0,1-.71,0c-.06-.07-.06-.15-.11-.18s-.24.17-.15,0a.09.09,0,0,1,.06-.06h0l.07,0a.73.73,0,0,1,.19-.07s0,0,0,0a1,1,0,0,0-.35,0H21c0-.09.07-.09.08-.18h0a.57.57,0,0,0,.08-.13s0,0,0,0l-.37.19a.19.19,0,0,1,0-.09.29.29,0,0,0,0-.08A1.48,1.48,0,0,0,21,8.65s0,0,0,0a1.44,1.44,0,0,1-.42.36l0,0v0a.24.24,0,0,0,.09-.08s0,0,0,0a.33.33,0,0,1-.17,0l-.12-.14a1.35,1.35,0,0,0,.06-.49s0,0,0,0a.66.66,0,0,1-.09.19c0-.06,0-.13,0-.19s-.1,0-.12,0a.86.86,0,0,1,.16-.38s0,0,0,0a.9.9,0,0,0-.29.38A.08.08,0,0,0,20,8.15l0-.29s0,0,0,0l-.15.33a2.88,2.88,0,0,0-.32-.57,1.23,1.23,0,0,0,.08-.33s0,0,0,0a.88.88,0,0,1-.36.38c0-.12-.11-.17,0-.36h-.05l.08-.13s0,0,0,0a1.33,1.33,0,0,0-.41.33A.62.62,0,0,0,18.49,7c-.1.2.17.38-.07.43s-.07-.1-.07-.16a3.65,3.65,0,0,0,.14-.35s0,0,0,0a2,2,0,0,1-.33.32c0-.17-.2-.1-.29-.19a.86.86,0,0,0,0-.16s0,0,0,0l0,0v0L17.65,7h0a1.31,1.31,0,0,1,.12-.47h0s.05-.11.08-.17,0,0,0,0a5,5,0,0,0-.37.42h-.14a.8.8,0,0,0,0-.15s0,0,0,0a.77.77,0,0,1-.18.18.1.1,0,0,0-.1-.06.59.59,0,0,1,0-.14h0a3.14,3.14,0,0,1-.18.31l-.09-.17s0,0,0,0a1.46,1.46,0,0,0-.05.2s-.07,0-.07-.13h-.06l.16-.23s0,0,0,0l-.41.26a2.76,2.76,0,0,0,.06-.4s0,0,0,0a5.69,5.69,0,0,1-.33.52l-.1,0A.82.82,0,0,0,16,6.67s0,0,0,0a.63.63,0,0,1-.27.33.56.56,0,0,1-.31.09.83.83,0,0,0,.06-.21s0,0,0,0a1.67,1.67,0,0,1-.28.25s0-.11-.07-.1h0a1.87,1.87,0,0,0,.07-.22s0,0,0,0a1.93,1.93,0,0,1-.28.36h0a.84.84,0,0,0-.1-.51s0,0,0,0a.82.82,0,0,1,0,.35h0a.77.77,0,0,1,0,.15v0a.77.77,0,0,1-.27.3l-.05,0,0,0A3.87,3.87,0,0,0,14,6.88s0,0,0,0a5.89,5.89,0,0,1,.21.59,1,1,0,0,1,0,.25,2.86,2.86,0,0,0-.47.36.64.64,0,0,0-.12.25.76.76,0,0,1-.11-.14.88.88,0,0,1-.1-.36s0,0,0,0a.94.94,0,0,0,0,.41,1.13,1.13,0,0,0,.08.24h0A1,1,0,0,1,13,8.14s0,0,0,0a.59.59,0,0,0,0,.13l0,0s0,0,0,0,0,.07.05.1a.41.41,0,0,1,0,.08.37.37,0,0,0,.05.11c-.07.14,0,.33-.23.19v0a2.14,2.14,0,0,1-.09-.34s0,0,0,0a3.2,3.2,0,0,0,0,.69h0a1.55,1.55,0,0,1-.06-.31s0,0,0,0a2.45,2.45,0,0,0,0,.27,1.51,1.51,0,0,1-.09-.18s0,0,0,0a1.73,1.73,0,0,0,0,.32.92.92,0,0,0,.09.23,1.4,1.4,0,0,0-.57-.13s0,0,0,0a1.17,1.17,0,0,1,.42.27l-.05,0a1.91,1.91,0,0,0-.58-.15s0,0,0,0a1.48,1.48,0,0,1,.45.28c0,.56-.69.5-.94.82.18-.08.43-.21.62,0h0v0a.2.2,0,0,0-.06.15,1.15,1.15,0,0,1-.14.17.75.75,0,0,1-.4.17s0,0,0,0a.85.85,0,0,0,.39,0l0,0a1.59,1.59,0,0,1-.29.15,1.21,1.21,0,0,1-.46.08s0,0,0,0a1.4,1.4,0,0,0,.5.06l.14,0a1.54,1.54,0,0,1-.44.65s0,0,0,0a1.67,1.67,0,0,0,.4-.25.15.15,0,0,1,0,.1,1.27,1.27,0,0,0-.13.19,2.53,2.53,0,0,1-.42.31s0,0,0,0a3.26,3.26,0,0,0,.44-.15l.08,0,.09,0h.08c0,.37,0,.57-.06,1a4.43,4.43,0,0,0,.17,1.18c0,.44.07.89.1,1.33a1.44,1.44,0,0,0,0,.66c0,.12.16.16.2.28a2.8,2.8,0,0,1,.1.91c.35.12.22.59.28,1s.31.75.34,1.06c-.13,0-.2.12-.32.29a5.91,5.91,0,0,0-1,1.61c-.19.58-1.23.75-1.69,1-.23.08-.31.32-.58.32A4.79,4.79,0,0,0,8.34,23a5,5,0,0,0-1.92.71A3.42,3.42,0,0,0,6,24.13Z"/><path d="M21.45,16.38l.09,0a.41.41,0,0,0-.11.07S21.45,16.4,21.45,16.38Z"/></svg>