<svg xmlns="http://www.w3.org/2000/svg" xmlns:xlink="http://www.w3.org/1999/xlink" viewBox="0 0 113.7 65.65"><defs><style>.e937c10f-fca4-487c-8b41-574de5a93ce0{isolation:isolate;}.\37 7015c7c-68b6-4a03-9746-cf6c1a3d4de9{fill:#00b565;}.\39 0c78ebc-1ba9-4dbc-9b65-9cfd5b13e75e{fill:#008c2f;}.\30 539a177-0b9a-470d-a9d9-29c8e250da9c,.\30 939d516-47dd-458f-a722-bb9ceae359e5,.\31 52fb428-9a24-4fb2-980e-9c2e2be75274,.\32 c3677c9-b108-4a5c-b47a-153372297fc6,.\37 6a7b403-403a-4f50-8292-d59b9ca1192f,.\38 5b054da-0e06-4384-8cf3-4f3de09a4b5e,.\39 816da8c-9eb0-47e5-aaf0-04953e7af371,.ecff04a0-46eb-4de3-81bd-ba720e4ea3bf,.fa032d1d-d763-442a-9f86-39099e44e116{mix-blend-mode:multiply;}.\32 c3677c9-b108-4a5c-b47a-153372297fc6{fill:url(#04ef9cb2-4359-4d52-8e27-a8223e047a82);}.\30 539a177-0b9a-470d-a9d9-29c8e250da9c,.\37 6a7b403-403a-4f50-8292-d59b9ca1192f,.\38 5b054da-0e06-4384-8cf3-4f3de09a4b5e,.fa032d1d-d763-442a-9f86-39099e44e116{opacity:0.5;}.\30 539a177-0b9a-470d-a9d9-29c8e250da9c{fill:url(#782ff28b-1206-47bb-9481-486636c6eb97);}.\36 66233bc-3e05-424e-818d-3e4bb1336f62{fill:#f2b000;}.ecff04a0-46eb-4de3-81bd-ba720e4ea3bf{fill:url(#0ed3d57f-e796-4de3-b093-173a5a4e589c);}.a5b93e18-b133-4759-a1ea-caa473f4c41d{fill:#ffc700;}.\33 7f0652c-3d70-4c97-9444-a0fceaf01816{fill:#f0ae00;}.fa032d1d-d763-442a-9f86-39099e44e116{fill:url(#3a68fc23-eca1-434f-815e-4fee39602ced);}.\39 816da8c-9eb0-47e5-aaf0-04953e7af371{fill:url(#5badcbfe-a4a0-4ac0-93a0-8c15e1f8f3d9);}.\38 5b054da-0e06-4384-8cf3-4f3de09a4b5e{fill:url(#f65a76ce-04bf-417e-a3f7-19771c4139df);}.\31 52fb428-9a24-4fb2-980e-9c2e2be75274{fill:url(#7bf6cace-e07a-4611-8801-a5eb427825a0);}.\37 6a7b403-403a-4f50-8292-d59b9ca1192f{fill:url(#4596f39d-3659-4152-a654-3c4c0333ee7d);}.\30 939d516-47dd-458f-a722-bb9ceae359e5{fill:url(#227e51ba-7d99-4c9f-b06f-edff98a8a1eb);}</style><linearGradient id="04ef9cb2-4359-4d52-8e27-a8223e047a82" x1="-7840.47" y1="44.9" x2="-7803.03" y2="-3.62" gradientTransform="matrix(-1, 0, 0, 1, -7774.3, 0)" gradientUnits="userSpaceOnUse"><stop offset="0" stop-color="#fff" stop-opacity="0"/><stop offset="1" stop-color="#00b565"/></linearGradient><linearGradient id="782ff28b-1206-47bb-9481-486636c6eb97" x1="4691.46" y1="67.58" x2="4709.55" y2="39.84" gradientTransform="translate(-4658.64)" gradientUnits="userSpaceOnUse"><stop offset="0.06" stop-color="#fff" stop-opacity="0"/><stop offset="0.17" stop-color="#c7cbcf" stop-opacity="0.36"/><stop offset="0.27" stop-color="#9aa3aa" stop-opacity="0.64"/><stop offset="0.36" stop-color="#7b8690" stop-opacity="0.84"/><stop offset="0.45" stop-color="#687480" stop-opacity="0.96"/><stop offset="0.53" stop-color="#616e7a"/></linearGradient><linearGradient id="0ed3d57f-e796-4de3-b093-173a5a4e589c" x1="33.32" y1="46.57" x2="70.84" y2="46.57" gradientUnits="userSpaceOnUse"><stop offset="0" stop-color="#fff" stop-opacity="0"/><stop offset="1" stop-color="#f2b000"/></linearGradient><linearGradient id="3a68fc23-eca1-434f-815e-4fee39602ced" x1="4684.71" y1="58.31" x2="4702.17" y2="31.54" xlink:href="#782ff28b-1206-47bb-9481-486636c6eb97"/><linearGradient id="5badcbfe-a4a0-4ac0-93a0-8c15e1f8f3d9" x1="20.66" y1="38.95" x2="63.78" y2="38.95" xlink:href="#0ed3d57f-e796-4de3-b093-173a5a4e589c"/><linearGradient id="f65a76ce-04bf-417e-a3f7-19771c4139df" x1="4684.5" y1="52.16" x2="4701.96" y2="25.39" xlink:href="#782ff28b-1206-47bb-9481-486636c6eb97"/><linearGradient id="7bf6cace-e07a-4611-8801-a5eb427825a0" x1="29.6" y1="33.1" x2="69.04" y2="33.1" xlink:href="#0ed3d57f-e796-4de3-b093-173a5a4e589c"/><linearGradient id="4596f39d-3659-4152-a654-3c4c0333ee7d" x1="27.24" y1="44.67" x2="44.3" y2="18.51" gradientTransform="matrix(1, 0, 0, 1, 0, 0)" xlink:href="#782ff28b-1206-47bb-9481-486636c6eb97"/><linearGradient id="227e51ba-7d99-4c9f-b06f-edff98a8a1eb" x1="21.92" y1="26.08" x2="68.54" y2="26.08" xlink:href="#0ed3d57f-e796-4de3-b093-173a5a4e589c"/></defs><title>prop2</title><g class="e937c10f-fca4-487c-8b41-574de5a93ce0"><g id="7e5499db-7b48-46a6-9021-1ad49f5636ee" data-name="Capa 1"><g id="a05ac149-d99f-4303-8d3d-9479a5debe6a" data-name="&lt;Grupo&gt;"><polygon id="31b4559c-daa3-4e4a-904c-80f537f7a6ec" data-name="&lt;Trazado&gt;" class="77015c7c-68b6-4a03-9746-cf6c1a3d4de9" points="37.55 65.65 113.7 21.68 76.16 0 0 43.97 37.55 65.65"/><g id="8389b6e7-65b0-4e83-9e71-ba771d6fedad" data-name="&lt;Grupo&gt;"><path id="bfcabcd6-a01b-442b-ab40-d8d4babf933e" data-name="&lt;Trazado compuesto&gt;" class="90c78ebc-1ba9-4dbc-9b65-9cfd5b13e75e" d="M5.06,44,76.21,2.92,109,21.83,37.8,62.9ZM76.21,4.34,7.52,44,37.8,61.48l68.69-39.65Z"/></g><g id="92c9a8e4-ee11-48b1-b245-a6c50466bc95" data-name="&lt;Grupo&gt;"><path id="ac54aabd-11a4-4ebf-8e8c-3ffc32f869fe" data-name="&lt;Trazado&gt;" class="90c78ebc-1ba9-4dbc-9b65-9cfd5b13e75e" d="M55,32.61c1.09-1.54,1.14-2.14.26-2.65a3.66,3.66,0,0,0-3.6.22A3.93,3.93,0,0,0,49.91,32l-.07.15-2.28-.6,0-.11a4.76,4.76,0,0,1,1.84-1.89l-2-1.15,1.61-.93,2.07,1.19a7.76,7.76,0,0,1,6.46.21c2,1.19,1.32,2.69.23,4.13-.92,1.27-.9,2,.08,2.58A4.3,4.3,0,0,0,62,35.35a4.22,4.22,0,0,0,2-2.12l.06-.16,2.27.62,0,.1a4.79,4.79,0,0,1-2.1,2.28l2,1.17-1.61.93-2.14-1.23a8.23,8.23,0,0,1-6.81-.22C53.87,35.69,53.69,34.47,55,32.61Z"/><g id="598329a1-2a8d-4674-ad1a-1c3d1d8803c0" data-name="&lt;Grupo&gt;"><path id="9198eb54-44aa-4cf7-b57c-36946eeb4afc" data-name="&lt;Trazado compuesto&gt;" class="90c78ebc-1ba9-4dbc-9b65-9cfd5b13e75e" d="M44.5,40c-6.81-3.93-6.81-10.32,0-14.26s17.89-3.93,24.7,0S76,36,69.2,40,51.31,43.88,44.5,40Zm1.23-.71c6.13,3.54,16.11,3.54,22.24,0s6.14-9.3,0-12.84-16.11-3.54-22.24,0S39.6,35.7,45.73,39.24Z"/></g></g><polygon id="47dbdde1-b77d-4be3-8073-08d18d608f84" data-name="&lt;Trazado&gt;" class="2c3677c9-b108-4a5c-b47a-153372297fc6" points="37.55 65.65 113.7 21.68 76.16 0 0 43.97 37.55 65.65"/></g><g id="c856e465-a6bf-4a75-9be9-0a62eb2b1592" data-name="&lt;Grupo&gt;"><path id="1f767eab-f2e3-4a05-9c24-96a95d57c94c" data-name="&lt;Trazado&gt;" class="0539a177-0b9a-470d-a9d9-29c8e250da9c" d="M66,49.28C66,43,56,38,43.68,38a41.93,41.93,0,0,0-7.52.66C28.89,40.51,23.9,44.32,23.9,48.73,23.9,55,33.88,60,46.19,60a42.86,42.86,0,0,0,7.52-.66C61,57.51,66,53.69,66,49.28Z"/><g id="e59cbbad-7f6a-426e-922f-5b38322117ec" data-name="&lt;Grupo&gt;"><g id="ef354f7d-2e41-44b8-b797-da7391ccbec4" data-name="&lt;Grupo&gt;"><path id="b4493203-47b3-4f9f-8a66-266a39a6c304" data-name="&lt;Trazado&gt;" class="666233bc-3e05-424e-818d-3e4bb1336f62" d="M57.2,42.13c-3.36-3.8-10.89-6.46-19.64-6.46s-16.29,2.66-19.64,6.46H16.05v4.44c0,6,9.63,10.9,21.51,10.9s21.51-4.88,21.51-10.9V42.13Z"/><path id="cafa1ead-b37f-4fa9-976e-6c6a6a20a2c9" data-name="&lt;Trazado&gt;" class="ecff04a0-46eb-4de3-81bd-ba720e4ea3bf" d="M57.2,42.13c-3.36-3.8-10.89-6.46-19.64-6.46s-16.29,2.66-19.64,6.46H16.05v4.44c0,6,9.63,10.9,21.51,10.9s21.51-4.88,21.51-10.9V42.13Z"/><ellipse id="b6e704e5-b89b-4d83-8417-60e2a3088804" data-name="&lt;Trazado&gt;" class="a5b93e18-b133-4759-a1ea-caa473f4c41d" cx="37.56" cy="42.13" rx="21.51" ry="10.9"/><ellipse id="60c738df-1039-4053-914d-03eb13e6104f" data-name="&lt;Trazado&gt;" class="37f0652c-3d70-4c97-9444-a0fceaf01816" cx="37.56" cy="41.6" rx="16.65" ry="7.41"/><path id="4cf7df82-3c60-477f-8667-215b607fb306" data-name="&lt;Trazado&gt;" class="a5b93e18-b133-4759-a1ea-caa473f4c41d" d="M35.83,41.39c1-1.45,1.07-2,.24-2.49a3.47,3.47,0,0,0-3.38.21A3.71,3.71,0,0,0,31,40.83l-.07.15-2.14-.56.05-.11a4.62,4.62,0,0,1,1.73-1.78l-1.86-1.07,1.51-.87,1.93,1.11a7.28,7.28,0,0,1,6.07.2c1.93,1.11,1.24,2.52.22,3.88-.87,1.18-.85,1.89.07,2.42A4.05,4.05,0,0,0,42.35,44a3.87,3.87,0,0,0,1.85-2l.06-.16,2.14.58,0,.1a4.5,4.5,0,0,1-2,2.13l1.91,1.11-1.51.87-2-1.16a7.69,7.69,0,0,1-6.39-.21C34.73,44.28,34.57,43.13,35.83,41.39Z"/></g><path id="f7974b11-74ca-40c0-9168-48a69ffc437c" data-name="&lt;Trazado&gt;" class="fa032d1d-d763-442a-9f86-39099e44e116" d="M58.06,40.65c0-6-9.63-10.9-21.51-10.9a41,41,0,0,0-7.26.64c-7,1.8-11.83,5.48-11.83,9.73,0,6,9.63,10.9,21.51,10.9a41,41,0,0,0,7.26-.63C53.25,48.59,58.06,44.91,58.06,40.65Z"/><g id="691e0214-ac42-412e-a425-ad0c3f47e00f" data-name="&lt;Grupo&gt;"><path id="4d873522-9c0a-4c74-912c-f8327e46d1a4" data-name="&lt;Trazado&gt;" class="666233bc-3e05-424e-818d-3e4bb1336f62" d="M56,34.5c-3.36-3.8-10.89-6.45-19.65-6.45S20.06,30.7,16.7,34.5H14.83V39c0,6,9.63,10.9,21.51,10.9S57.86,45,57.86,39V34.5Z"/><path id="d24bfa12-5dcb-49dd-b47b-b684b46c915f" data-name="&lt;Trazado&gt;" class="9816da8c-9eb0-47e5-aaf0-04953e7af371" d="M56,34.5c-3.36-3.8-10.89-6.45-19.65-6.45S20.06,30.7,16.7,34.5H14.83V39c0,6,9.63,10.9,21.51,10.9S57.86,45,57.86,39V34.5Z"/><ellipse id="b230c9f6-1a39-4a8f-b0d6-b692608eff61" data-name="&lt;Trazado&gt;" class="a5b93e18-b133-4759-a1ea-caa473f4c41d" cx="36.34" cy="34.5" rx="21.51" ry="10.9"/><ellipse id="724837d3-aa86-468a-817b-7296843b9c36" data-name="&lt;Trazado&gt;" class="37f0652c-3d70-4c97-9444-a0fceaf01816" cx="36.34" cy="33.97" rx="16.65" ry="7.41"/><path id="c16448b2-238b-45c1-8548-a4f3991a43a0" data-name="&lt;Trazado&gt;" class="a5b93e18-b133-4759-a1ea-caa473f4c41d" d="M34.62,33.77c1-1.46,1.07-2,.24-2.49a3.44,3.44,0,0,0-3.38.21,3.61,3.61,0,0,0-1.68,1.72l-.07.14-2.14-.56.05-.1a4.52,4.52,0,0,1,1.72-1.78l-1.85-1.08L29,29,31,30.08a7.32,7.32,0,0,1,6.07.19c1.92,1.12,1.24,2.52.22,3.88-.87,1.19-.85,1.89.06,2.42a4.07,4.07,0,0,0,3.84-.23,3.91,3.91,0,0,0,1.85-2l.06-.16,2.13.59,0,.09a4.59,4.59,0,0,1-2,2.14l1.92,1.1L43.59,39l-2-1.17a7.71,7.71,0,0,1-6.4-.2C33.52,36.66,33.35,35.51,34.62,33.77Z"/></g><path id="0bc51367-7f4b-457f-b980-76dbcba1f2f8" data-name="&lt;Trazado&gt;" class="85b054da-0e06-4384-8cf3-4f3de09a4b5e" d="M57.86,34.5c0-6-9.63-10.9-21.52-10.9a40.92,40.92,0,0,0-7.25.64c-7,1.8-11.83,5.48-11.83,9.73,0,6,9.63,10.9,21.51,10.9A41,41,0,0,0,46,44.24C53,42.44,57.86,38.76,57.86,34.5Z"/><g id="9d3624bd-8e9c-4350-b702-7275ad849fe6" data-name="&lt;Grupo&gt;"><path id="c90cd305-514a-4089-aa96-6eae67e51e48" data-name="&lt;Trazado&gt;" class="666233bc-3e05-424e-818d-3e4bb1336f62" d="M58.41,28.66c-3.36-3.8-10.89-6.46-19.64-6.46s-16.28,2.66-19.64,6.46H17.26V33.1c0,6,9.63,10.9,21.51,10.9s21.51-4.88,21.51-10.9V28.66Z"/><path id="0612240a-4f03-4855-b417-f1f472d3239d" data-name="&lt;Trazado&gt;" class="152fb428-9a24-4fb2-980e-9c2e2be75274" d="M58.41,28.66c-3.36-3.8-10.89-6.46-19.64-6.46s-16.28,2.66-19.64,6.46H17.26V33.1c0,6,9.63,10.9,21.51,10.9s21.51-4.88,21.51-10.9V28.66Z"/><ellipse id="8fb77539-5685-4423-81e1-a26ce8518dbe" data-name="&lt;Trazado&gt;" class="a5b93e18-b133-4759-a1ea-caa473f4c41d" cx="38.77" cy="28.66" rx="21.51" ry="10.9"/><ellipse id="584c90ca-9ec2-40d9-865c-c8c4864a8bf2" data-name="&lt;Trazado&gt;" class="37f0652c-3d70-4c97-9444-a0fceaf01816" cx="38.77" cy="28.13" rx="16.65" ry="7.41"/><path id="ff68a5bd-705a-4e7f-b314-6270e88758c2" data-name="&lt;Trazado&gt;" class="a5b93e18-b133-4759-a1ea-caa473f4c41d" d="M37,27.92c1-1.45,1.07-2,.24-2.49a3.47,3.47,0,0,0-3.38.21,3.71,3.71,0,0,0-1.68,1.72l-.06.14L30,27l.05-.11a4.51,4.51,0,0,1,1.72-1.78L29.93,24l1.51-.87,1.94,1.11a7.26,7.26,0,0,1,6.06.2c1.93,1.11,1.25,2.52.22,3.88-.87,1.18-.85,1.89.07,2.42a4.07,4.07,0,0,0,3.84-.24,4,4,0,0,0,1.85-2l0-.16,2.14.58,0,.1a4.5,4.5,0,0,1-2,2.13l1.91,1.11L46,33.14,44,32a7.69,7.69,0,0,1-6.39-.21C36,30.81,35.78,29.66,37,27.92Z"/></g><path id="89040f60-434c-4c86-9fd4-15e0afa6ffc9" data-name="&lt;Trazado&gt;" class="76a7b403-403a-4f50-8292-d59b9ca1192f" d="M58.11,23.89c-3.49-3.63-10.84-6.13-19.34-6.13-9,0-16.69,2.8-19.91,6.76a5.84,5.84,0,0,0-.39,2.06c0,6,9.63,10.9,21.51,10.9a41,41,0,0,0,7.26-.64c7-1.79,11.83-5.48,11.83-9.73A6.16,6.16,0,0,0,58.11,23.89Z"/><g id="310054f0-c7f2-4ace-9589-2cb785a6c7ea" data-name="&lt;Grupo&gt;"><path id="9083cdfd-629b-4969-b39f-0724e9bc47d8" data-name="&lt;Trazado&gt;" class="666233bc-3e05-424e-818d-3e4bb1336f62" d="M55.74,21.64c-3.36-3.8-10.89-6.46-19.64-6.46s-16.29,2.66-19.64,6.46H14.59v4.44c0,6,9.63,10.9,21.51,10.9s21.51-4.88,21.51-10.9V21.64Z"/><path id="c3390d1c-d273-4340-9655-d8643d178196" data-name="&lt;Trazado&gt;" class="0939d516-47dd-458f-a722-bb9ceae359e5" d="M55.74,21.64c-3.36-3.8-10.89-6.46-19.64-6.46s-16.29,2.66-19.64,6.46H14.59v4.44c0,6,9.63,10.9,21.51,10.9s21.51-4.88,21.51-10.9V21.64Z"/><ellipse id="fc054f3d-6b5f-4bd3-a66a-755fe3cc67ef" data-name="&lt;Trazado&gt;" class="a5b93e18-b133-4759-a1ea-caa473f4c41d" cx="36.1" cy="21.64" rx="21.51" ry="10.9"/><ellipse id="2214565c-91a8-45ab-96a7-f1131507c373" data-name="&lt;Trazado&gt;" class="37f0652c-3d70-4c97-9444-a0fceaf01816" cx="36.1" cy="21.11" rx="16.65" ry="7.41"/><path id="44faab9b-9184-4415-b41a-c053e7178193" data-name="&lt;Trazado&gt;" class="a5b93e18-b133-4759-a1ea-caa473f4c41d" d="M34.37,20.9c1-1.45,1.07-2,.24-2.49a3.47,3.47,0,0,0-3.38.21,3.76,3.76,0,0,0-1.68,1.72l-.07.15-2.13-.56,0-.1A4.57,4.57,0,0,1,29.12,18L27.26,17l1.51-.87,1.93,1.12a7.28,7.28,0,0,1,6.07.19c1.93,1.11,1.24,2.52.22,3.88-.87,1.18-.85,1.89.07,2.42a4.07,4.07,0,0,0,3.84-.23,4,4,0,0,0,1.85-2l0-.16,2.14.58,0,.1a4.56,4.56,0,0,1-2,2.14l1.91,1.1-1.51.87-2-1.16a7.69,7.69,0,0,1-6.39-.21C33.27,23.8,33.11,22.64,34.37,20.9Z"/></g></g></g></g></g></svg>