<svg id="fe167902-9bc5-4a44-8d06-7109914a47d1" data-name="6253cec9-ce39-4fc0-a948-8accbbd58b86" xmlns="http://www.w3.org/2000/svg" viewBox="0 0 816.08 69.95"><defs><style>.\33 64c93a1-70df-4a88-9d9b-915b5a8e62ce{fill:#fff;}.\36 68771d2-89f6-4fe4-8bda-cca18feaba35,.\37 292665a-b54f-4635-85b7-165822d14d82{fill:#316d38;}.\37 17f16ec-1fa4-4ee0-85d4-00ae52f0adda{fill:#302e30;}.\35 f4ec08f-4502-4abf-8a26-69ec62c92b51{fill:#e1e1dd;}.\33 3e0ee38-a586-4fd7-af73-45d8db90401e,.\39 fd0c95a-5b80-4216-9142-790f2a6fd37c{fill:#7cb342;}.\38 771a0e5-d65d-4b12-8470-52581187112b,.a19bbe36-f0b8-4d78-8f5e-9dfa6fdd82bb{fill:#fbc02d;}.\37 edbc089-1770-4105-bfff-52a974480aec,.d39ece66-ef29-4c79-b115-561dbfe3a48a{fill:#dd8001;}.\34 e7e73a3-7965-42c9-b45e-65d8e1d71c8e,.\37 12223ce-dcd9-4aa0-89a5-44a7b9690eba{fill:#b22808;}.\36 68771d2-89f6-4fe4-8bda-cca18feaba35,.\37 12223ce-dcd9-4aa0-89a5-44a7b9690eba,.\37 edbc089-1770-4105-bfff-52a974480aec,.\38 771a0e5-d65d-4b12-8470-52581187112b,.\39 fd0c95a-5b80-4216-9142-790f2a6fd37c{font-size:61.26px;font-family:Calibri, Calibri;}</style></defs><title>paso-a-paso</title><path class="364c93a1-70df-4a88-9d9b-915b5a8e62ce" d="M755.31,4.32a31.16,31.16,0,1,1-31.15,31.51h37.41v-.7H724.16A31.19,31.19,0,0,1,755.31,4.32Z"/><path class="364c93a1-70df-4a88-9d9b-915b5a8e62ce" d="M761.57,35.13v.7H724.16c0-.11,0-.24,0-.36s0-.23,0-.34Z"/><path class="7292665a-b54f-4635-85b7-165822d14d82" d="M755.31,2.92a32.56,32.56,0,1,1-32.55,32.91h.7a31.85,31.85,0,1,0,0-.7h-.7A32.59,32.59,0,0,1,755.31,2.92Z"/><path class="7292665a-b54f-4635-85b7-165822d14d82" d="M786.47,35.47a31.16,31.16,0,0,0-62.31-.34h-.7a31.85,31.85,0,1,1,0,.7h.7a31.16,31.16,0,0,0,62.31-.36Z"/><path class="7292665a-b54f-4635-85b7-165822d14d82" d="M724.15,35.47c0,.12,0,.25,0,.36h-.7c0-.11,0-.24,0-.36s0-.23,0-.34h.7C724.15,35.24,724.15,35.36,724.15,35.47Z"/><path class="7292665a-b54f-4635-85b7-165822d14d82" d="M723.45,35.47c0,.12,0,.25,0,.36h-.7v-.7h.7C723.45,35.24,723.45,35.36,723.45,35.47Z"/><path class="717f16ec-1fa4-4ee0-85d4-00ae52f0adda" d="M722.76,35.47v.36h-46v-.7h46Z"/><path class="5f4ec08f-4502-4abf-8a26-69ec62c92b51" d="M668.5,28.13a7.35,7.35,0,1,1-7.36,7.34A7.35,7.35,0,0,1,668.5,28.13Z"/><path class="717f16ec-1fa4-4ee0-85d4-00ae52f0adda" d="M675.85,35.47a7.36,7.36,0,1,0-7.35,7.36A7.35,7.35,0,0,0,675.85,35.47Zm-7.35-8a8.06,8.06,0,1,1-8,8.41h.33v-.7h-.33A8.06,8.06,0,0,1,668.5,27.42Z"/><path class="717f16ec-1fa4-4ee0-85d4-00ae52f0adda" d="M660.79,35.13v.7h-.33c0-.11,0-.24,0-.36s0-.23,0-.34Z"/><path class="717f16ec-1fa4-4ee0-85d4-00ae52f0adda" d="M660.45,35.47c0,.12,0,.25,0,.36H614.24v-.7h46.22C660.45,35.24,660.45,35.36,660.45,35.47Z"/><path class="33e0ee38-a586-4fd7-af73-45d8db90401e" d="M614.24,35.83h-.72c0-.11,0-.24,0-.36s0-.23,0-.34h.72v.7Z"/><path class="33e0ee38-a586-4fd7-af73-45d8db90401e" d="M613.53,35.47c0,.12,0,.25,0,.36h-.7c0-.11,0-.24,0-.36s0-.23,0-.34h.7C613.53,35.24,613.53,35.36,613.53,35.47Z"/><path class="364c93a1-70df-4a88-9d9b-915b5a8e62ce" d="M612.82,35.13c0,.11,0,.23,0,.34s0,.25,0,.36H550.53c0-.11,0-.24,0-.36s0-.23,0-.34Z"/><path class="364c93a1-70df-4a88-9d9b-915b5a8e62ce" d="M612.82,35.13H550.53a31.15,31.15,0,0,1,62.29,0Z"/><path class="364c93a1-70df-4a88-9d9b-915b5a8e62ce" d="M550.53,35.83h62.29a31.15,31.15,0,0,1-62.29,0Z"/><path class="33e0ee38-a586-4fd7-af73-45d8db90401e" d="M549.12,35.13a32.56,32.56,0,0,1,65.12,0h-.72a31.84,31.84,0,0,0-63.68,0Z"/><path class="33e0ee38-a586-4fd7-af73-45d8db90401e" d="M549.84,35.83a31.84,31.84,0,0,0,63.68,0h.72a32.56,32.56,0,0,1-65.12,0Z"/><path class="33e0ee38-a586-4fd7-af73-45d8db90401e" d="M581.67,67.33a31.82,31.82,0,0,1-31.83-31.5h.69a31.15,31.15,0,0,0,62.29,0h.7A31.84,31.84,0,0,1,581.67,67.33Z"/><path class="33e0ee38-a586-4fd7-af73-45d8db90401e" d="M581.67,4.32a31.19,31.19,0,0,0-31.14,30.81h-.69a31.84,31.84,0,0,1,63.68,0h-.7A31.18,31.18,0,0,0,581.67,4.32Z"/><path class="33e0ee38-a586-4fd7-af73-45d8db90401e" d="M550.52,35.47c0,.12,0,.25,0,.36h-.69a2.11,2.11,0,0,1,0-.36,1.94,1.94,0,0,1,0-.34h.69C550.52,35.24,550.52,35.36,550.52,35.47Z"/><path class="33e0ee38-a586-4fd7-af73-45d8db90401e" d="M549.12,35.83v-.7h.72a1.94,1.94,0,0,0,0,.34,2.11,2.11,0,0,0,0,.36Z"/><path class="717f16ec-1fa4-4ee0-85d4-00ae52f0adda" d="M549.12,35.47v.36H502.9c0-.11,0-.24,0-.36s0-.23,0-.34h46.22Z"/><path class="717f16ec-1fa4-4ee0-85d4-00ae52f0adda" d="M502.56,35.83v-.7h.34c0,.11,0,.23,0,.34s0,.25,0,.36Z"/><path class="5f4ec08f-4502-4abf-8a26-69ec62c92b51" d="M494.86,28.13a7.35,7.35,0,1,1-7.36,7.34A7.35,7.35,0,0,1,494.86,28.13Z"/><path class="717f16ec-1fa4-4ee0-85d4-00ae52f0adda" d="M502.21,35.47a7.36,7.36,0,1,0-7.35,7.36A7.35,7.35,0,0,0,502.21,35.47Zm-7.35-8a8.06,8.06,0,0,1,8,7.71h-.34v.7h.34a8,8,0,0,1-16.08,0h.34v-.7h-.34A8.07,8.07,0,0,1,494.86,27.42Z"/><path class="717f16ec-1fa4-4ee0-85d4-00ae52f0adda" d="M487.16,35.13v.7h-.34c0-.11,0-.24,0-.36s0-.23,0-.34Z"/><path class="717f16ec-1fa4-4ee0-85d4-00ae52f0adda" d="M486.81,35.47c0,.12,0,.25,0,.36H440.6v-.7h46.22C486.81,35.24,486.81,35.36,486.81,35.47Z"/><path class="a19bbe36-f0b8-4d78-8f5e-9dfa6fdd82bb" d="M440.6,35.83h-.71c0-.11,0-.24,0-.36s0-.23,0-.34h.71v.7Z"/><path class="a19bbe36-f0b8-4d78-8f5e-9dfa6fdd82bb" d="M439.9,35.47c0,.12,0,.25,0,.36h-.71c0-.11,0-.24,0-.36s0-.23,0-.34h.71C439.9,35.24,439.9,35.36,439.9,35.47Z"/><path class="364c93a1-70df-4a88-9d9b-915b5a8e62ce" d="M439.18,35.13c0,.11,0,.23,0,.34s0,.25,0,.36H376.89c0-.11,0-.24,0-.36s0-.23,0-.34Z"/><path class="364c93a1-70df-4a88-9d9b-915b5a8e62ce" d="M439.18,35.13H376.89a31.15,31.15,0,0,1,62.29,0Z"/><path class="364c93a1-70df-4a88-9d9b-915b5a8e62ce" d="M376.89,35.83h62.29a31.15,31.15,0,0,1-62.29,0Z"/><path class="a19bbe36-f0b8-4d78-8f5e-9dfa6fdd82bb" d="M408,2.92A32.61,32.61,0,0,1,440.6,35.13h-.71a31.85,31.85,0,0,0-63.69,0h-.72A32.6,32.6,0,0,1,408,2.92Z"/><path class="a19bbe36-f0b8-4d78-8f5e-9dfa6fdd82bb" d="M440.6,35.83a32.56,32.56,0,0,1-65.12,0h.72a31.85,31.85,0,0,0,63.69,0Z"/><path class="a19bbe36-f0b8-4d78-8f5e-9dfa6fdd82bb" d="M408,66.64a31.18,31.18,0,0,0,31.14-30.81h.71a31.85,31.85,0,0,1-63.69,0h.69A31.19,31.19,0,0,0,408,66.64Z"/><path class="a19bbe36-f0b8-4d78-8f5e-9dfa6fdd82bb" d="M408,3.63a31.84,31.84,0,0,1,31.85,31.5h-.71a31.15,31.15,0,0,0-62.29,0h-.69A31.83,31.83,0,0,1,408,3.63Z"/><path class="a19bbe36-f0b8-4d78-8f5e-9dfa6fdd82bb" d="M376.88,35.47c0,.12,0,.25,0,.36h-.69c0-.11,0-.24,0-.36s0-.23,0-.34h.69C376.88,35.24,376.88,35.36,376.88,35.47Z"/><path class="a19bbe36-f0b8-4d78-8f5e-9dfa6fdd82bb" d="M376.19,35.47c0,.12,0,.25,0,.36h-.72v-.7h.72C376.19,35.24,376.19,35.36,376.19,35.47Z"/><path class="717f16ec-1fa4-4ee0-85d4-00ae52f0adda" d="M375.48,35.47v.36H329.26a2.11,2.11,0,0,0,0-.36,1.94,1.94,0,0,0,0-.34h46.22Z"/><path class="717f16ec-1fa4-4ee0-85d4-00ae52f0adda" d="M328.92,35.83v-.7h.34a1.94,1.94,0,0,1,0,.34,2.11,2.11,0,0,1,0,.36Z"/><path class="5f4ec08f-4502-4abf-8a26-69ec62c92b51" d="M321.22,28.13a7.35,7.35,0,1,1-7.35,7.34A7.35,7.35,0,0,1,321.22,28.13Z"/><path class="717f16ec-1fa4-4ee0-85d4-00ae52f0adda" d="M313.87,35.47a7.35,7.35,0,1,0,7.35-7.34A7.36,7.36,0,0,0,313.87,35.47Zm-.69-.34a8,8,0,0,1,16.08,0h-.34v.7h.34a8,8,0,0,1-16.08,0h.34v-.7Z"/><path class="717f16ec-1fa4-4ee0-85d4-00ae52f0adda" d="M313.52,35.13v.7h-.34c0-.11,0-.24,0-.36s0-.23,0-.34Z"/><path class="717f16ec-1fa4-4ee0-85d4-00ae52f0adda" d="M313.17,35.47c0,.12,0,.25,0,.36H267v-.7h46.22C313.17,35.24,313.17,35.36,313.17,35.47Z"/><path class="d39ece66-ef29-4c79-b115-561dbfe3a48a" d="M267,35.83h-.71c0-.11,0-.24,0-.36s0-.23,0-.34H267v.7Z"/><path class="d39ece66-ef29-4c79-b115-561dbfe3a48a" d="M266.26,35.47c0,.12,0,.25,0,.36h-.7c0-.11,0-.24,0-.36s0-.23,0-.34h.7C266.26,35.24,266.26,35.36,266.26,35.47Z"/><path class="364c93a1-70df-4a88-9d9b-915b5a8e62ce" d="M265.55,35.13c0,.11,0,.23,0,.34s0,.25,0,.36h-62.3c0-.11,0-.24,0-.36s0-.23,0-.34Z"/><path class="364c93a1-70df-4a88-9d9b-915b5a8e62ce" d="M265.55,35.13h-62.3a31.15,31.15,0,0,1,62.3,0Z"/><path class="364c93a1-70df-4a88-9d9b-915b5a8e62ce" d="M203.25,35.83h62.3a31.15,31.15,0,0,1-62.3,0Z"/><path class="d39ece66-ef29-4c79-b115-561dbfe3a48a" d="M234.4,3.63a31.83,31.83,0,0,0-31.84,31.5h-.71a32.56,32.56,0,0,1,65.11,0h-.71A31.84,31.84,0,0,0,234.4,3.63Z"/><path class="d39ece66-ef29-4c79-b115-561dbfe3a48a" d="M202.56,35.83a31.85,31.85,0,0,0,63.69,0H267a32.56,32.56,0,0,1-65.11,0Z"/><path class="d39ece66-ef29-4c79-b115-561dbfe3a48a" d="M203.25,35.83a31.15,31.15,0,0,0,62.3,0h.7a31.85,31.85,0,0,1-63.69,0Z"/><path class="d39ece66-ef29-4c79-b115-561dbfe3a48a" d="M234.4,4.32a31.19,31.19,0,0,0-31.15,30.81h-.69a31.85,31.85,0,0,1,63.69,0h-.7A31.18,31.18,0,0,0,234.4,4.32Z"/><path class="d39ece66-ef29-4c79-b115-561dbfe3a48a" d="M203.24,35.47c0,.12,0,.25,0,.36h-.69c0-.11,0-.24,0-.36s0-.23,0-.34h.69C203.24,35.24,203.24,35.36,203.24,35.47Z"/><path class="d39ece66-ef29-4c79-b115-561dbfe3a48a" d="M202.55,35.47c0,.12,0,.25,0,.36h-.71v-.7h.71C202.55,35.24,202.55,35.36,202.55,35.47Z"/><path class="717f16ec-1fa4-4ee0-85d4-00ae52f0adda" d="M201.85,35.47v.36H155.63c0-.11,0-.24,0-.36s0-.23,0-.34h46.22Z"/><path class="717f16ec-1fa4-4ee0-85d4-00ae52f0adda" d="M155.64,35.47c0,.12,0,.25,0,.36h-.34v-.7h.34C155.64,35.24,155.64,35.36,155.64,35.47Z"/><path class="5f4ec08f-4502-4abf-8a26-69ec62c92b51" d="M147.59,28.13a7.35,7.35,0,1,1-7.35,7.34A7.35,7.35,0,0,1,147.59,28.13Z"/><path class="717f16ec-1fa4-4ee0-85d4-00ae52f0adda" d="M154.94,35.47a7.35,7.35,0,1,0-7.35,7.36A7.35,7.35,0,0,0,154.94,35.47Zm-7.35-8a8.07,8.07,0,0,1,8,7.71h-.34v.7h.34a8,8,0,0,1-16.08,0h.33v-.7h-.33A8.06,8.06,0,0,1,147.59,27.42Z"/><path class="717f16ec-1fa4-4ee0-85d4-00ae52f0adda" d="M139.88,35.13v.7h-.33c0-.11,0-.24,0-.36s0-.23,0-.34Z"/><path class="717f16ec-1fa4-4ee0-85d4-00ae52f0adda" d="M139.54,35.47c0,.12,0,.25,0,.36H93.33v-.7h46.22C139.54,35.24,139.54,35.36,139.54,35.47Z"/><path class="4e7e73a3-7965-42c9-b45e-65d8e1d71c8e" d="M93.33,35.83h-.72c0-.11,0-.24,0-.36s0-.23,0-.34h.72v.7Z"/><path class="4e7e73a3-7965-42c9-b45e-65d8e1d71c8e" d="M92.62,35.47c0,.12,0,.25,0,.36h-.7c0-.11,0-.24,0-.36s0-.23,0-.34h.7C92.62,35.24,92.62,35.36,92.62,35.47Z"/><path class="364c93a1-70df-4a88-9d9b-915b5a8e62ce" d="M91.91,35.13c0,.11,0,.23,0,.34s0,.25,0,.36H60.76v-.7Z"/><path class="364c93a1-70df-4a88-9d9b-915b5a8e62ce" d="M91.91,35.13H60.76v.7H91.91a31.16,31.16,0,1,1,0-.7Z"/><path class="4e7e73a3-7965-42c9-b45e-65d8e1d71c8e" d="M60.76,3.63a31.84,31.84,0,0,1,31.85,31.5h-.7a31.16,31.16,0,1,0,0,.7h.7A31.85,31.85,0,1,1,60.76,3.63Z"/><path class="4e7e73a3-7965-42c9-b45e-65d8e1d71c8e" d="M60.76,2.92A32.6,32.6,0,0,1,93.33,35.13h-.72a31.85,31.85,0,1,0,0,.7h.72A32.56,32.56,0,1,1,60.76,2.92Z"/><text class="712223ce-dcd9-4aa0-89a5-44a7b9690eba" transform="translate(45.45 52.08)">1</text><text class="8771a0e5-d65d-4b12-8470-52581187112b" transform="translate(393.73 52.94)">3</text><text class="7edbc089-1770-4105-bfff-52a974480aec" transform="translate(219.16 52.08)">2</text><text class="9fd0c95a-5b80-4216-9142-790f2a6fd37c" transform="translate(564.85 52.94)">4</text><text class="668771d2-89f6-4fe4-8bda-cca18feaba35" transform="translate(741.15 53.81)">5</text></svg>