<svg id="ebf2c782-3b34-4849-bd3d-516d0ac616cc" data-name="Capa 1" xmlns="http://www.w3.org/2000/svg" viewBox="0 0 61.47 61.47"><defs><style>.\30 7a34083-5dd9-4302-ac19-04371d1358ff{fill:#fff;}.\36 e665338-6a4b-4d12-a763-65d470a1a971{fill:#999395;}</style></defs><title>prop2</title><circle class="07a34083-5dd9-4302-ac19-04371d1358ff" cx="30.73" cy="30.73" r="30.73"/><rect class="6e665338-6a4b-4d12-a763-65d470a1a971" x="20.73" y="15.73" width="20" height="30" rx="0.98" ry="0.98"/><path class="07a34083-5dd9-4302-ac19-04371d1358ff" d="M24.73,36.73v-16a1,1,0,0,1,1-1h10a1,1,0,0,1,1,1v16a1,1,0,0,1-1,1h-10A1,1,0,0,1,24.73,36.73Z"/><path class="07a34083-5dd9-4302-ac19-04371d1358ff" d="M33.23,42.65h-5a1,1,0,1,1,0-2h5a1,1,0,0,1,0,2Z"/></svg>