<?xml version="1.0" encoding="utf-8"?>
<!-- Generator: Adobe Illustrator 22.1.0, SVG Export Plug-In . SVG Version: 6.00 Build 0)  -->
<svg version="1.1" id="_x36_c2b9f8f-7c85-4142-9edc-2c42effef23f"
	 xmlns="http://www.w3.org/2000/svg" xmlns:xlink="http://www.w3.org/1999/xlink" x="0px" y="0px" viewBox="0 0 150 150"
	 style="enable-background:new 0 0 150 150;" xml:space="preserve">
<style type="text/css">
	.st0{fill:#E08000;}
	.st1{fill:#316D38;}
	.st2{fill:#333333; stroke-dasharray: 1000;}
	.st3{fill:#1E1E1E;}
</style>
<title>1</title>
<rect x="22.5" y="67.7" class="st0" width="105.1" height="20"/>
<path class="st0" d="M116.4,87.7H33.6l7.1,48.8c0.8,5.5,6,9.5,12,9.5h44.5c6.1,0,11.3-4.1,12.1-9.5L116.4,87.7z" />
<g>
<path class="st1" d="M75,46.2H63.6c-17,0-30.8-13.8-30.8-30.8l0,0V4h11.4C61.2,4,75,17.8,75,34.8l0,0V46.2z"/>
<path class="st1" d="M75,46.2h11.4c17,0,30.8-13.8,30.8-30.8l0,0V4h-11.4C88.8,4,75,17.8,75,34.8l0,0V46.2z"/>
</g>
<path id="cool_shape" class="st2" d="M127.6,64.7H78V49.2h8.4c18.6,0,33.7-15.1,33.7-33.8V4c0-1.6-1.3-2.9-2.9-2.9l0,0h-11.4
	C92.5,1.1,80.5,8.9,75,21C69.6,8.8,57.5,1,44.2,1H32.8c-1.6,0-2.9,1.3-2.9,2.9c0,0,0,0,0,0.1v11.4C29.9,34,45,49.1,63.6,49.2H72
	v15.6H22.5c-1.6,0-3,1.4-3,3v20c0,1.6,1.3,2.9,3,2.9h8.6l6.8,46.3c1,6.9,7.4,12.1,15,12.1h44.4c7.5,0,14-5.2,15-12.1l6.8-46.3h8.6
	c1.6,0,3-1.3,3-2.9v-20C130.6,66.1,129.2,64.7,127.6,64.7L127.6,64.7z M105.8,7h8.4v8.4c0,15.4-12.5,27.8-27.9,27.9H82l15.8-15.8
	c1.1-1.1,1.1-3,0-4.2c-1.1-1.1-3-1.1-4.2,0L78,39.1v-4.3C78,19.5,90.5,7,105.8,7z M35.8,15.4V7h8.4C59.6,7,72,19.5,72.1,34.8v4.3
	L48.2,15.2c-1.2-1.2-3-1.2-4.2,0s-1.2,3,0,4.2l0,0l23.9,23.9h-4.3C48.2,43.2,35.8,30.8,35.8,15.4z M106.3,136c-0.6,4-4.5,7-9.1,7
	H52.8c-4.6,0-8.5-3-9.1-7L37,90.6h76L106.3,136z M25.4,84.7V70.6h99.2v14.1H25.4z">
	<animate id="ini" xlink:href="#cool_shape" attributeType="CSS" begin="0s;stro.end + 4s" attributeName="fill-opacity" from="0" to="1" dur="3s" />
	<animate id="" xlink:href="#cool_shape" attributeType="CSS" begin="0s;stro.end + 4s" attributeName="stroke-dashoffset" from="1000" to="0" dur="3s" />
	<animate id="stro" xlink:href="#cool_shape" attributeType="XML" begin="0s;ini.end + 4s" attributeName="stroke" from="#333" to="transparent" dur="3s" />
	</path>
<path class="st3" d="M102.7,21.4c0.8,0,1.5-0.3,2.1-0.9l1.2-1.2c1.2-1.1,1.2-3,0.1-4.2s-3-1.2-4.2-0.1l-0.1,0.1l-1.2,1.2
	c-1.1,1.2-1.1,3,0.1,4.2C101.3,21.1,102,21.4,102.7,21.4L102.7,21.4z"/>
</svg>
