<?xml version="1.0" encoding="utf-8"?>
<!-- Generator: Adobe Illustrator 22.1.0, SVG Export Plug-In . SVG Version: 6.00 Build 0)  -->
<svg version="1.1" id="_x37_4cf34f2-051d-4c13-aa92-c0500ca9beba"
	 xmlns="http://www.w3.org/2000/svg" xmlns:xlink="http://www.w3.org/1999/xlink" x="0px" y="0px" viewBox="0 0 150 150"
	 style="enable-background:new 0 0 150 150;" xml:space="preserve">
<style type="text/css">
	.st0{fill:#333333;}
	.st1{fill:#999395;}
	.st2{fill:#316D38;}
	.st3{fill:#E08000;}
	.st4{fill:#E3E3DF;}
	#paper {
    transform-origin: 50% 57%;
}
</style>
<title>1</title>
<path class="st0" d="M149.5,105.8H0.5V46.7c0-4.3,3.4-7.7,7.7-7.7l0,0h133.6c4.3,0,7.7,3.5,7.7,7.7l0,0V105.8z"/>
<path class="st1" d="M131.5,72.4h-23.1c-1.4,0-2.6-1.2-2.6-2.6V59.6c0-1.4,1.1-2.6,2.5-2.6l0,0h23.1c1.4,0,2.6,1.2,2.6,2.6l0,0v10.3
	C134.1,71.3,132.9,72.4,131.5,72.4L131.5,72.4z"/>
<path class="st1" d="M59.6,72.4H21c-1.4,0-2.6-1.2-2.6-2.6V59.6c0-1.4,1.1-2.6,2.5-2.6l0,0h38.5c1.4,0,2.6,1.2,2.6,2.6v10.3
	C62.2,71.3,61,72.4,59.6,72.4z"/>
<path class="st1" d="M0.5,82.7v25.7c0,1.4,1.1,2.6,2.5,2.6l0,0h8.7c1,0,1.9-0.6,2.3-1.4l1.9-3.7h118.2l1.9,3.7
	c0.4,0.9,1.3,1.4,2.3,1.4h8.7c1.4,0,2.6-1.2,2.6-2.6l0,0V82.7H0.5z"/>
<path class="st0" d="M129,100.7H21c-1.4,0-2.6-1.2-2.6-2.6v-18c0-1.4,1.2-2.6,2.6-2.6h108c1.4,0,2.6,1.2,2.6,2.6l0,0v18
	C131.6,99.5,130.4,100.7,129,100.7L129,100.7z"/>
<circle class="st2" cx="114.8" cy="64.7" r="3.8"/>
<circle class="st3" cx="125.1" cy="64.7" r="3.9"/>
<path class="st1" d="M129,85.3H21c-1.4,0-2.6-1.2-2.6-2.6v-2.6c0-1.4,1.2-2.6,2.6-2.6h108c1.4,0,2.6,1.2,2.6,2.6l0,0v2.6
	C131.6,84.1,130.4,85.3,129,85.3L129,85.3z"/>
<path class="st1" d="M116.1,123.8H33.9c-2.8,0-5.1-2.3-5.1-5.1V85.3h92.5v33.4C121.2,121.5,118.9,123.8,116.1,123.8L116.1,123.8z"/>
<path id="paper" class="st4" d="M113.5,118.7h-77c-1.4,0-2.6-1.2-2.6-2.6V85.3h82.2v30.8C116.1,117.5,114.9,118.7,113.5,118.7z">
<animateTransform id="print"
	attributeName="transform"
    type="scaleY"
    from="1 0"
    to="1 1"
    begin="0s; print.end + 2s"
    dur="2s"
  />
</path>
<path class="st1" d="M26.2,39l8.7-10.9c1-1.2,2.4-1.9,4-1.9h13c1.4,0,2.6,1.2,2.6,2.6V39H26.2z"/>
<path class="st1" d="M123.8,39l-8.7-10.9c-1-1.2-2.4-1.9-4-1.9h-13c-1.4,0-2.6,1.2-2.6,2.6V39H123.8z"/>
<path class="st0" d="M54.5,39h-5.1V26.2H52c1.4,0,2.6,1.2,2.6,2.6L54.5,39L54.5,39z"/>
<path class="st0" d="M95.6,39h5.1V26.2h-2.6c-1.4,0-2.6,1.2-2.6,2.6L95.6,39L95.6,39z" />
<path class="st4" d="M28.8,67.3h-2.6c-1.4,0-2.6-1.2-2.6-2.6l0,0c0-1.4,1.2-2.6,2.6-2.6h2.6c1.4,0,2.6,1.2,2.6,2.6l0,0
	C31.3,66.1,30.2,67.3,28.8,67.3z"/>
<path class="st4" d="M41.6,67.3H39c-1.4,0-2.6-1.2-2.6-2.6l0,0c0-1.4,1.1-2.6,2.6-2.6h2.6c1.4,0,2.6,1.2,2.6,2.6l0,0
	C44.2,66.1,43,67.3,41.6,67.3z" />
<path class="st4" d="M54.5,67.3h-2.6c-1.4,0-2.6-1.2-2.6-2.6l0,0c0-1.4,1.2-2.6,2.6-2.6h2.6c1.4,0,2.5,1.2,2.5,2.6l0,0
	C57,66.1,55.9,67.3,54.5,67.3z" />
<path class="st1" d="M141.8,39H8.2c-4.3,0-7.7,3.5-7.7,7.7l0,0v5.1h149v-5.1C149.5,42.5,146.1,39,141.8,39L141.8,39z"/>
</svg>
