<?xml version="1.0" encoding="utf-8"?>
<!-- Generator: Adobe Illustrator 22.1.0, SVG Export Plug-In . SVG Version: 6.00 Build 0)  -->
<svg version="1.1" id="Capa_1" xmlns="http://www.w3.org/2000/svg" xmlns:xlink="http://www.w3.org/1999/xlink" x="0px" y="0px"
	 viewBox="0 0 201 44.2" style="enable-background:new 0 0 201 44.2;" xml:space="preserve">
<style type="text/css">
	.st0{fill:#FFFFFF;}
	.st1{clip-path:url(#SVGID_2_);fill:#FFFFFF;}
	.st2{clip-path:url(#SVGID_4_);fill:#FFFFFF;}
</style>
<g>
	<path class="st0" d="M66.5,6.8h-5v14.8h1.8v-7h3.2c3.1,0,4.8-1.1,4.8-4.4C71.3,7.2,69.6,6.8,66.5,6.8 M66.1,13.8h-2.8V7.6h2.8
		c2.4,0,3.3-0.1,3.3,2.6C69.4,13.3,68.5,13.8,66.1,13.8"/>
	<path class="st0" d="M75.9,14.1l0.9-1c0.5-0.6,1.3-0.7,2-0.7h0.5l0.2-2.1c-1.3,0-1.8,0.7-2.8,1.8L75.9,13l-0.6-2.4l-1.2,0.1v10.9
		h1.8V14.1z"/>
	<path class="st0" d="M90.7,16.2c0-3.4-2-5.7-5-5.7s-5,2.3-5,5.7c0,3.4,2,5.6,5,5.6S90.7,19.6,90.7,16.2 M86.2,21
		c-2.3,0-3.5-1.7-3.5-4.8c0-3.2,0.9-4.8,2.7-4.8c2.3,0,3.5,1.7,3.5,4.8C88.8,19.3,87.9,21,86.2,21"/>
	<path class="st0" d="M100.8,20.1l-1.5,0.6C99,20.9,98.4,21,98.2,21c-2,0-3.2-1.7-3.2-4.9c0-3.2,1.2-4.9,3.2-4.9
		c0.2,0,0.8,0.2,1.1,0.3l1.5,0.6l0.4-1.1c-0.6-0.3-2.2-0.6-3.2-0.6c-3,0-5,2.3-5,5.7c0,3.4,2,5.6,5,5.6c1,0,2.6-0.3,3.2-0.6
		L100.8,20.1z"/>
	<path class="st0" d="M108.9,21.8c1.7,0,3.6-0.9,4.2-1.2l-0.4-1.1l-1.9,0.9c-0.5,0.2-1.3,0.5-1.8,0.5c-2.2,0-3.4-1.8-3.4-5v-0.3
		l7.7,0.1V15c0-2.7-1.8-4.5-4.6-4.5c-3,0-5,2.2-5,5.6C103.8,19.5,105.8,21.8,108.9,21.8 M108.6,11.3c1.8,0,2.9,1.3,2.9,3.7l-5.8,0
		C105.9,12.6,106.8,11.3,108.6,11.3"/>
	<path class="st0" d="M119,15.2c-1.5-0.7-2.9-1.3-2.9-2.5c0-0.9,0.8-1.4,2.1-1.4c0.8,0,1.3,0.1,2.9,0.9l0.3-1.1
		c-0.8-0.4-2-0.6-3.3-0.6c-2.1,0-3.4,1-3.4,2.7c0,1.8,1.5,2.6,3,3.4c1.4,0.7,2.8,1.4,2.8,2.7c0,1.1-0.9,1.8-2.5,1.8
		c-0.9,0-1.8-0.4-3.3-1.2l-0.3,1.1c0.8,0.4,2.2,0.8,3.6,0.8c3,0,4.1-1.5,4.1-3C122.1,16.8,120.5,15.9,119,15.2"/>
	<path class="st0" d="M128.8,21.8c3,0,5-2.2,5-5.6c0-3.4-2-5.7-5-5.7c-3,0-5,2.3-5,5.7C123.8,19.6,125.8,21.8,128.8,21.8
		 M128.4,11.3c2.3,0,3.5,1.7,3.5,4.8c0,3.2-0.9,4.8-2.7,4.8c-2.3,0-3.5-1.7-3.5-4.8C125.7,13,126.7,11.3,128.4,11.3"/>
	<path class="st0" d="M140,15.2c-1.5-0.7-2.9-1.3-2.9-2.5c0-0.9,0.8-1.4,2.2-1.4c0.8,0,1.3,0.1,2.9,0.9l0.3-1.1
		c-0.8-0.4-2-0.6-3.3-0.6c-2.1,0-3.4,1-3.4,2.7c0,1.8,1.5,2.6,3,3.4c1.4,0.7,2.8,1.4,2.8,2.7c0,1.1-0.9,1.8-2.5,1.8
		c-0.9,0-1.8-0.4-3.3-1.2l-0.3,1.1c0.8,0.4,2.2,0.8,3.6,0.8c3,0,4.1-1.5,4.1-3C143.2,16.8,141.6,15.9,140,15.2"/>
	<path class="st0" d="M67.9,30.6L67.9,30.6c1.2-0.6,2.1-2,2.1-3.4c0-1.9-1.5-3.2-3.7-3.2h-4.8v15.2H67c2.7,0,4.4-1.7,4.4-4.1
		C71.4,32.5,69.9,31,67.9,30.6 M63.3,24.8h2.6c1.7,0,2.6,0.9,2.6,2.7c0,1.9-1.1,2.9-3,2.9h-2.2V24.8z M66.5,38.4h-3.3v-7.2h3.4
		c1.8,0,3,1.6,3,3.9C69.7,37.3,68.6,38.4,66.5,38.4"/>
	<path class="st0" d="M83.4,30.9c0-2-1.5-3.1-4.1-3.1c-1.6,0-3.3,0.6-3.9,0.9l0.4,1.1l1.4-0.7c0.6-0.3,1.4-0.5,2.1-0.5
		c1.5,0,2.3,0.8,2.3,2.3V33H78c-2.1,0-3.6,1.4-3.6,3.3c0,1.8,1.4,3.1,3.4,3.1c0.3,0,0.8-0.1,1.6-0.5l2.2-1l0.5,1.3l1.6-0.2
		c-0.1-0.2-0.3-1.6-0.3-2.4V30.9z M81.6,37.3L79,38.2c-0.3,0.1-0.7,0.2-0.9,0.2c-1.2,0-1.9-0.8-1.9-2c0-1.6,0.8-2.6,2.4-2.6h3V37.3z
		"/>
	<path class="st0" d="M92.3,28.6c0.2,0,0.8,0.2,1.1,0.3l1.5,0.6l0.4-1.1c-0.6-0.3-2.2-0.6-3.2-0.6c-3,0-5,2.3-5,5.8
		c0,3.5,2,5.8,5,5.8c1,0,2.6-0.3,3.2-0.6l-0.4-1.1l-1.5,0.6c-0.3,0.1-0.8,0.3-1.1,0.3c-2,0-3.2-1.8-3.2-5
		C89.1,30.4,90.3,28.6,92.3,28.6"/>
	<path class="st0" d="M103.7,31.4c1.3-1.4,3.2-2.3,3.6-2.7l-1-1.2l-5.4,5.7V22.6h-1.8v16.6h1.8v-4.9l1.2-1.2c0,0,3.1,4.7,3.2,4.9
		l1.2,1.6l1.6-0.9l-5.1-6.6L103.7,31.4z"/>
	<path class="st0" d="M115.6,27.8c-3,0-5,2.3-5,5.8c0,3.5,2,5.8,5,5.8c3,0,5-2.3,5-5.8C120.6,30.2,118.6,27.8,115.6,27.8
		 M116.1,38.6c-2.3,0-3.5-1.7-3.5-5c0-3.2,0.9-4.9,2.7-4.9c2.3,0,3.5,1.7,3.5,5C118.7,36.9,117.8,38.6,116.1,38.6"/>
	<rect x="139.5" y="28" class="st0" width="1.8" height="11.2"/>
	<path class="st0" d="M140.8,23.6h-0.7c-0.5,0-0.6,0.3-0.6,0.5v1c0,0.2,0.1,0.5,0.6,0.5h0.7c0.5,0,0.6-0.3,0.6-0.5v-1
		C141.4,23.9,141.3,23.6,140.8,23.6"/>
	<path class="st0" d="M130.3,22.6c-3.8-0.4-5.3,2.6-5.3,4.2v1.6h-1.5v0.8h1.5v10h1.8v-10h2.6v-0.8h-2.6c-0.1-0.8-0.1-1.3-0.1-1.5
		c0-1.2,0.6-3.9,3.8-2.9"/>
	<path class="st0" d="M137.7,22.6c-3.8-0.4-5.3,2.6-5.3,4.2v1.6h-1.5v0.8h1.5v10h1.8v-10h2.6v-0.8h-2.6c-0.1-0.8-0.1-1.3-0.1-1.5
		c0-1.2,0.6-3.9,3.8-2.9"/>
	<path class="st0" d="M150.3,28.6c0.2,0,0.8,0.2,1.1,0.3l1.5,0.6l0.4-1.1c-0.6-0.3-2.2-0.6-3.2-0.6c-3,0-5,2.3-5,5.8
		c0,3.5,2,5.8,5,5.8c1,0,2.6-0.3,3.2-0.6l-0.4-1.1l-1.5,0.6c-0.3,0.1-0.8,0.3-1.1,0.3c-2,0-3.2-1.8-3.2-5
		C147.1,30.4,148.3,28.6,150.3,28.6"/>
	<path class="st0" d="M161,27.8c-3,0-5,2.3-5,5.8c0,3.5,2,5.8,5.1,5.8c1.7,0,3.6-0.9,4.2-1.2l-0.4-1.1l-1.9,0.9
		c-0.5,0.2-1.3,0.6-1.8,0.6c-2.2,0-3.4-1.8-3.4-5.1v-0.3l7.7,0.1v-0.9C165.6,29.7,163.8,27.8,161,27.8 M158,32.4
		c0.2-2.5,1.1-3.8,2.9-3.8c1.8,0,2.9,1.3,2.9,3.8L158,32.4z"/>
	<path class="st0" d="M173.7,34c-1-0.5-2-1-2-1.9c0-0.7,0.7-1.3,1.8-1.3c0.7,0,1.2,0.3,1.9,0.6l0.2-0.6c-0.5-0.2-1.2-0.4-2-0.4h-0.4
		c-1.4,0-2.4,0.9-2.4,2.1c0,1.2,1,1.8,2.1,2.3c1.1,0.5,2.2,1.1,2.2,2.2c0,0.9-0.7,1.5-1.7,1.5c-0.9,0-1.5-0.4-2.4-0.8l-0.2,0.6
		c0.5,0.2,1.5,0.6,2.5,0.6h0.3c1.5,0,2.5-0.9,2.5-2.3C176.2,35.3,174.9,34.6,173.7,34"/>
	<path class="st0" d="M178.3,37.9h-0.5c-0.3,0-0.3,0.1-0.3,0.2v0.8c0,0.2,0,0.2,0.3,0.2h0.5c0.3,0,0.3-0.1,0.3-0.2v-0.8
		C178.6,38,178.6,37.9,178.3,37.9"/>
	<path class="st0" d="M182.5,30.5c-0.2,0-0.5-0.1-0.5-0.1l-2.4,8.4l0.8,0.1c0-0.2,0.1-1.4,0.4-2.8h3.1l0.8,2.8l1-0.1l-2.4-8.4H182.5
		z M180.9,35.8c0.1-0.3,0.1-0.6,0.2-0.8l1-3.6h0.4l1.3,4.4H180.9z"/>
	<path class="st0" d="M187.6,37.9h-0.5c-0.3,0-0.3,0.1-0.3,0.2v0.8c0,0.2,0,0.2,0.3,0.2h0.5c0.3,0,0.3-0.1,0.3-0.2v-0.8
		C187.8,38,187.8,37.9,187.6,37.9"/>
	<path class="st0" d="M192.1,34c-1-0.5-2-1-2-1.9c0-0.7,0.7-1.3,1.8-1.3c0.7,0,1.2,0.3,1.9,0.6l0.2-0.6c-0.5-0.2-1.2-0.4-2-0.4h-0.4
		c-1.4,0-2.4,0.9-2.4,2.1c0,1.2,1,1.8,2.1,2.3c1.1,0.5,2.2,1.1,2.2,2.2c0,0.9-0.7,1.5-1.7,1.5c-0.9,0-1.5-0.4-2.4-0.8l-0.2,0.6
		c0.5,0.2,1.5,0.6,2.5,0.6h0.3c1.5,0,2.5-0.9,2.5-2.3C194.5,35.3,193.2,34.6,192.1,34"/>
	<path class="st0" d="M196.7,37.9h-0.5c-0.3,0-0.3,0.1-0.3,0.2v0.8c0,0.2,0,0.2,0.3,0.2h0.5c0.3,0,0.3-0.1,0.3-0.2v-0.8
		C197,38,197,37.9,196.7,37.9"/>
	<path class="st0" d="M162.4,25.9c-1.3-1.4-2.8-2.7-3.9-4.2c0.4-0.6,0.9-1.3,1.3-2c0.4-0.8,0.9-1.5,1.2-2.2c0.4-0.7,0.7-1.3,1-1.8
		c0.3-0.5-1.9-0.3-1.9,0.1c0,1.4-0.8,3.1-2.3,5c-0.6-0.9-1.2-1.8-1.8-2.8c-0.6-1-1.1-2-1.7-3.1c0.8-0.5,1.5-0.9,2-1.3
		c0.5-0.4,1-0.8,1.3-1.2c0.3-0.4,0.6-0.8,0.7-1.3c0.1-0.4,0.2-0.9,0.2-1.4c0-0.5-0.1-0.9-0.3-1.4c-0.2-0.4-0.4-0.8-0.7-1.1
		c-0.3-0.3-0.7-0.6-1.1-0.7c-0.4-0.2-0.9-0.3-1.4-0.3c-0.6,0-1.2,0.1-1.8,0.3c-0.5,0.2-1,0.5-1.4,0.9c-0.4,0.4-0.7,0.9-1,1.5
		c-0.2,0.6-0.4,1.2-0.4,1.9c0,0.3,0,0.6,0,0.9c0,0.3,0.1,0.6,0.2,0.9c0.1,0.3,0.2,0.7,0.3,1.1c0.1,0.4,0.3,0.8,0.5,1.4
		c-1.1,0.6-1.9,1.2-2.6,1.8c-0.7,0.6-1.2,1.2-1.6,1.8c-0.8,1.1-1.1,2.3-1.1,3.4c0,0.6,0.1,1.1,0.3,1.6c0.2,0.5,0.5,1,0.9,1.4
		c0.4,0.4,0.9,0.7,1.5,0.9c0.6,0.2,1.2,0.3,1.9,0.3c0.5,0,1,0,1.4-0.1c0.5-0.1,0.9-0.2,1.3-0.5c0.4-0.2,0.9-0.5,1.4-0.9
		c0.5-0.4,1-0.8,1.5-1.3c0.9,1,1.7,1.7,2.4,2.1H162.4z M153.1,9.1c0.1-0.3,0.2-0.6,0.4-0.8c0.2-0.3,0.4-0.5,0.7-0.6
		c0.3-0.2,0.6-0.2,1-0.2c0.6,0,1.1,0.2,1.4,0.7c0.4,0.4,0.6,1,0.6,1.7c0,1.7-1.1,3.2-3.2,4.3c-0.2-0.6-0.4-1.1-0.5-1.5
		c-0.1-0.4-0.3-0.8-0.3-1.1c-0.1-0.3-0.1-0.6-0.2-0.8c0-0.2,0-0.5,0-0.7C153,9.7,153,9.4,153.1,9.1 M154.9,23.9
		c-0.3,0.2-0.6,0.4-0.9,0.6c-0.3,0.1-0.5,0.2-0.8,0.3c-0.3,0-0.5,0.1-0.8,0.1c-0.5,0-1-0.1-1.4-0.3c-0.4-0.2-0.8-0.5-1-0.9
		c-0.3-0.4-0.5-0.8-0.7-1.2c-0.2-0.5-0.2-0.9-0.2-1.4c0-1.8,1-3.4,3.1-4.7c0.5,1.2,1,2.2,1.4,2.9c0.2,0.4,0.5,0.9,0.9,1.5
		c0.4,0.6,0.9,1.4,1.5,2.2C155.6,23.3,155.2,23.6,154.9,23.9"/>
	<g>
		<g>
			<defs>
				<path id="SVGID_1_" d="M151,24.5c-0.4-0.2-0.8-0.5-1-0.9c-0.3-0.4-0.5-0.8-0.7-1.2c-0.2-0.5-0.2-0.9-0.2-1.4
					c0-1.8,1-3.4,3.1-4.7c0.5,1.2,1,2.2,1.4,2.9c0.2,0.4,0.5,0.9,0.9,1.5c0.4,0.6,0.9,1.4,1.5,2.2c-0.4,0.4-0.8,0.7-1.1,1
					c-0.3,0.2-0.6,0.4-0.9,0.6c-0.3,0.1-0.5,0.2-0.8,0.3c-0.2,0.1-0.5,0.1-0.8,0.1C151.9,24.8,151.5,24.7,151,24.5 M153.5,12.5
					c-0.1-0.4-0.3-0.8-0.3-1.1c-0.1-0.3-0.1-0.6-0.2-0.8c0-0.2,0-0.5,0-0.7c0-0.3,0-0.6,0.1-0.9c0.1-0.3,0.2-0.6,0.4-0.8
					c0.2-0.3,0.4-0.5,0.7-0.6c0.3-0.2,0.6-0.2,1-0.2c0.6,0,1.1,0.2,1.4,0.7c0.4,0.4,0.6,1,0.6,1.7c0,1.7-1.1,3.2-3.2,4.3
					C153.8,13.4,153.6,12.9,153.5,12.5 M153.5,6.7c-0.5,0.2-1,0.5-1.4,0.9c-0.4,0.4-0.7,0.9-1,1.5c-0.2,0.6-0.4,1.2-0.4,1.9
					c0,0.3,0,0.6,0,0.9c0,0.3,0.1,0.6,0.2,0.9c0.1,0.3,0.2,0.7,0.3,1.1c0.1,0.4,0.3,0.8,0.5,1.4c-1.1,0.6-1.9,1.2-2.6,1.8
					c-0.7,0.6-1.2,1.2-1.6,1.8c-0.8,1.1-1.1,2.3-1.1,3.4c0,0.6,0.1,1.1,0.3,1.6c0.2,0.5,0.5,1,0.9,1.4c0.4,0.4,0.9,0.7,1.5,0.9
					c0.6,0.2,1.2,0.3,1.9,0.3c0.5,0,1,0,1.4-0.1c0.5-0.1,0.9-0.2,1.3-0.5c0.4-0.2,0.9-0.5,1.4-0.9c0.5-0.4,1-0.8,1.5-1.3
					c0.9,1,1.7,1.7,2.4,2.1h3.3c-1.3-1.4-2.8-2.7-3.9-4.2c0.4-0.6,0.9-1.3,1.3-2c0.4-0.8,0.9-1.5,1.2-2.2c0.4-0.7,0.7-1.3,1-1.8
					c0.3-0.5-1.9-0.3-1.9,0.1c0,1.4-0.8,3.1-2.3,5c-0.6-0.9-1.2-1.8-1.8-2.8c-0.6-1-1.1-2-1.7-3.1c0.8-0.5,1.5-0.9,2-1.3
					c0.5-0.4,1-0.8,1.3-1.2c0.3-0.4,0.6-0.8,0.7-1.3c0.1-0.4,0.2-0.9,0.2-1.4c0-0.5-0.1-0.9-0.3-1.4c-0.2-0.4-0.4-0.8-0.7-1.1
					c-0.3-0.3-0.7-0.6-1.1-0.7c-0.4-0.2-0.9-0.3-1.4-0.3C154.6,6.3,154,6.4,153.5,6.7"/>
			</defs>
			<clipPath id="SVGID_2_">
				<use xlink:href="#SVGID_1_"  style="overflow:visible;"/>
			</clipPath>
			<polygon class="st1" points="149.2,16.2 149.1,18.9 149.1,16.2 			"/>
			<polygon class="st1" points="149.3,16.2 149.1,22.3 149.1,18.9 149.2,16.2 			"/>
			<polygon class="st1" points="149.4,16.2 149.1,24.8 149.1,24.8 149.1,22.3 149.3,16.2 			"/>
			<polygon class="st1" points="149.5,16.2 149.2,24.8 149.1,24.8 149.4,16.2 			"/>
			<polygon class="st1" points="149.6,16.2 149.3,24.8 149.2,24.8 149.5,16.2 			"/>
			<polygon class="st1" points="149.7,16.2 149.4,24.8 149.3,24.8 149.6,16.2 			"/>
			<polygon class="st1" points="149.8,16.2 149.5,24.8 149.4,24.8 149.7,16.2 			"/>
			<polygon class="st1" points="149.8,16.2 149.6,24.8 149.5,24.8 149.8,16.2 			"/>
			<polygon class="st1" points="149.9,16.2 149.7,24.8 149.6,24.8 149.8,16.2 			"/>
			<polygon class="st1" points="150,16.2 149.8,24.8 149.7,24.8 149.9,16.2 			"/>
			<polygon class="st1" points="150.1,16.2 149.9,24.8 149.8,24.8 150,16.2 			"/>
			<polygon class="st1" points="150.2,16.2 150,24.8 149.9,24.8 150.1,16.2 			"/>
			<polygon class="st1" points="150.3,16.2 150.1,24.8 150,24.8 150.2,16.2 			"/>
			<polygon class="st1" points="150.4,16.2 150.2,24.8 150.1,24.8 150.3,16.2 			"/>
			<polygon class="st1" points="150.5,16.2 150.3,24.8 150.2,24.8 150.4,16.2 			"/>
			<polygon class="st1" points="150.6,16.2 150.4,24.8 150.3,24.8 150.5,16.2 			"/>
			<polygon class="st1" points="150.7,16.2 150.4,24.8 150.4,24.8 150.6,16.2 			"/>
			<polygon class="st1" points="150.8,16.2 150.5,24.8 150.4,24.8 150.7,16.2 			"/>
			<polygon class="st1" points="150.9,16.2 150.6,24.8 150.5,24.8 150.8,16.2 			"/>
			<polygon class="st1" points="151,16.2 150.7,24.8 150.6,24.8 150.9,16.2 			"/>
			<polygon class="st1" points="151.1,16.2 150.8,24.8 150.7,24.8 151,16.2 			"/>
			<polygon class="st1" points="151.1,16.2 150.9,24.8 150.8,24.8 151.1,16.2 			"/>
			<polygon class="st1" points="151.2,16.2 151,24.8 150.9,24.8 151.1,16.2 			"/>
			<polygon class="st1" points="151.3,16.2 151.1,24.8 151,24.8 151.2,16.2 			"/>
			<polygon class="st1" points="151.4,16.2 151.2,24.8 151.1,24.8 151.3,16.2 			"/>
			<polygon class="st1" points="151.5,16.2 151.3,24.8 151.2,24.8 151.4,16.2 			"/>
			<polygon class="st1" points="151.6,16.2 151.4,24.8 151.3,24.8 151.5,16.2 			"/>
			<polygon class="st1" points="151.7,16.2 151.5,24.8 151.4,24.8 151.6,16.2 			"/>
			<polygon class="st1" points="151.8,16.2 151.6,24.8 151.5,24.8 151.7,16.2 			"/>
			<polygon class="st1" points="151.9,16.2 151.7,24.8 151.6,24.8 151.8,16.2 			"/>
			<polygon class="st1" points="152,16.2 151.7,24.8 151.7,24.8 151.9,16.2 			"/>
			<polygon class="st1" points="152.1,16.2 151.8,24.8 151.7,24.8 152,16.2 			"/>
			<polygon class="st1" points="152.2,16.2 151.9,24.8 151.8,24.8 152.1,16.2 			"/>
			<polygon class="st1" points="152.3,16.2 152,24.8 151.9,24.8 152.2,16.2 			"/>
			<polygon class="st1" points="152.4,16.2 152.1,24.8 152,24.8 152.3,16.2 			"/>
			<polygon class="st1" points="152.5,16.2 152.2,24.8 152.1,24.8 152.4,16.2 			"/>
			<polygon class="st1" points="152.5,16.2 152.3,24.8 152.2,24.8 152.5,16.2 			"/>
			<polygon class="st1" points="152.6,16.2 152.4,24.8 152.3,24.8 152.5,16.2 			"/>
			<polygon class="st1" points="152.7,16.2 152.5,24.8 152.4,24.8 152.6,16.2 			"/>
			<polygon class="st1" points="152.8,16.2 152.6,24.8 152.5,24.8 152.7,16.2 			"/>
			<polygon class="st1" points="152.9,16.2 152.7,24.8 152.6,24.8 152.8,16.2 			"/>
			<polygon class="st1" points="153,16.2 152.8,24.8 152.7,24.8 152.9,16.2 			"/>
			<polygon class="st1" points="153.1,16.2 152.9,24.8 152.8,24.8 153,16.2 			"/>
			<polygon class="st1" points="153.2,16.2 153,24.8 152.9,24.8 153.1,16.2 			"/>
			<polygon class="st1" points="153.3,16.2 153.1,24.8 153,24.8 153.2,16.2 			"/>
			<polygon class="st1" points="153.4,16.2 153.1,24.8 153.1,24.8 153.3,16.2 			"/>
			<polygon class="st1" points="153.5,16.2 153.2,24.8 153.1,24.8 153.4,16.2 			"/>
			<polygon class="st1" points="153.6,16.2 153.3,24.8 153.2,24.8 153.5,16.2 			"/>
			<polygon class="st1" points="153.7,16.2 153.4,24.8 153.3,24.8 153.6,16.2 			"/>
			<polygon class="st1" points="153.8,16.2 153.5,24.8 153.4,24.8 153.7,16.2 			"/>
			<polygon class="st1" points="153.8,16.2 153.6,24.8 153.5,24.8 153.8,16.2 			"/>
			<polygon class="st1" points="153.9,16.2 153.7,24.8 153.6,24.8 153.8,16.2 			"/>
			<polygon class="st1" points="154,16.2 153.8,24.8 153.7,24.8 153.9,16.2 			"/>
			<polygon class="st1" points="154.1,16.2 153.9,24.8 153.8,24.8 154,16.2 			"/>
			<polygon class="st1" points="154.2,16.2 154,24.8 153.9,24.8 154.1,16.2 			"/>
			<polygon class="st1" points="154.3,16.2 154.1,24.8 154,24.8 154.2,16.2 			"/>
			<polygon class="st1" points="154.4,16.2 154.2,24.8 154.1,24.8 154.3,16.2 			"/>
			<polygon class="st1" points="154.5,16.2 154.3,24.8 154.2,24.8 154.4,16.2 			"/>
			<polygon class="st1" points="154.6,16.2 154.4,24.8 154.3,24.8 154.5,16.2 			"/>
			<polygon class="st1" points="154.7,16.2 154.5,24.8 154.4,24.8 154.6,16.2 			"/>
			<polygon class="st1" points="154.8,16.2 154.5,24.8 154.5,24.8 154.7,16.2 			"/>
			<polygon class="st1" points="154.9,16.2 154.6,24.8 154.5,24.8 154.8,16.2 			"/>
			<polygon class="st1" points="155,16.2 154.7,24.8 154.6,24.8 154.9,16.2 			"/>
			<polygon class="st1" points="155.1,16.2 154.8,24.8 154.7,24.8 155,16.2 			"/>
			<polygon class="st1" points="155.2,16.2 154.9,24.8 154.8,24.8 155.1,16.2 			"/>
			<polygon class="st1" points="155.2,16.2 155,24.8 154.9,24.8 155.2,16.2 			"/>
			<polygon class="st1" points="155.3,16.2 155.1,24.8 155,24.8 155.2,16.2 			"/>
			<polygon class="st1" points="155.4,16.2 155.2,24.8 155.1,24.8 155.3,16.2 			"/>
			<polygon class="st1" points="155.5,16.2 155.3,24.8 155.2,24.8 155.4,16.2 			"/>
			<polygon class="st1" points="155.6,16.2 155.4,24.8 155.3,24.8 155.5,16.2 			"/>
			<polygon class="st1" points="155.7,16.2 155.5,24.8 155.4,24.8 155.6,16.2 			"/>
			<polygon class="st1" points="155.8,16.2 155.6,24.8 155.5,24.8 155.7,16.2 			"/>
			<polygon class="st1" points="155.9,16.2 155.7,24.8 155.6,24.8 155.8,16.2 			"/>
			<polygon class="st1" points="156,16.2 155.8,24.8 155.7,24.8 155.9,16.2 			"/>
			<polygon class="st1" points="156,17.6 155.8,24.8 155.8,24.8 156,16.2 156,16.2 			"/>
			<polygon class="st1" points="156,21 155.9,24.8 155.8,24.8 156,17.6 			"/>
			<polygon class="st1" points="156,24.3 156,24.8 155.9,24.8 156,21 			"/>
			<polygon class="st1" points="156,24.8 156,24.3 156,24.8 			"/>
			<polygon class="st1" points="153,7.4 153,8 153,7.4 			"/>
			<polygon class="st1" points="153.1,7.4 153,11.4 153,8 153,7.4 			"/>
			<polygon class="st1" points="153.2,7.4 153,14 153,14 153,11.4 153.1,7.4 			"/>
			<polygon class="st1" points="153.3,7.4 153.1,14 153,14 153.2,7.4 			"/>
			<polygon class="st1" points="153.3,7.4 153.2,14 153.1,14 153.3,7.4 			"/>
			<polygon class="st1" points="153.4,7.4 153.3,14 153.2,14 153.4,7.4 			"/>
			<polygon class="st1" points="153.5,7.4 153.4,14 153.3,14 153.4,7.4 			"/>
			<polygon class="st1" points="153.6,7.4 153.4,14 153.4,14 153.5,7.4 			"/>
			<polygon class="st1" points="153.7,7.4 153.5,14 153.4,14 153.6,7.4 			"/>
			<polygon class="st1" points="153.8,7.4 153.6,14 153.5,14 153.7,7.4 			"/>
			<polygon class="st1" points="153.9,7.4 153.7,14 153.6,14 153.8,7.4 			"/>
			<polygon class="st1" points="154,7.4 153.8,14 153.7,14 153.9,7.4 			"/>
			<polygon class="st1" points="154.1,7.4 153.9,14 153.8,14 154,7.4 			"/>
			<polygon class="st1" points="154.2,7.4 154,14 153.9,14 154.1,7.4 			"/>
			<polygon class="st1" points="154.3,7.4 154.1,14 154,14 154.2,7.4 			"/>
			<polygon class="st1" points="154.4,7.4 154.2,14 154.1,14 154.3,7.4 			"/>
			<polygon class="st1" points="154.5,7.4 154.3,14 154.2,14 154.4,7.4 			"/>
			<polygon class="st1" points="154.6,7.4 154.4,14 154.3,14 154.5,7.4 			"/>
			<polygon class="st1" points="154.7,7.4 154.5,14 154.4,14 154.6,7.4 			"/>
			<polygon class="st1" points="154.7,7.4 154.6,14 154.5,14 154.7,7.4 			"/>
			<polygon class="st1" points="154.8,7.4 154.7,14 154.6,14 154.7,7.4 			"/>
			<polygon class="st1" points="154.9,7.4 154.7,14 154.7,14 154.8,7.4 			"/>
			<polygon class="st1" points="155,7.4 154.8,14 154.7,14 154.9,7.4 			"/>
			<polygon class="st1" points="155.1,7.4 154.9,14 154.8,14 155,7.4 			"/>
			<polygon class="st1" points="155.2,7.4 155,14 154.9,14 155.1,7.4 			"/>
			<polygon class="st1" points="155.3,7.4 155.1,14 155,14 155.2,7.4 			"/>
			<polygon class="st1" points="155.4,7.4 155.2,14 155.1,14 155.3,7.4 			"/>
			<polygon class="st1" points="155.5,7.4 155.3,14 155.2,14 155.4,7.4 			"/>
			<polygon class="st1" points="155.6,7.4 155.4,14 155.3,14 155.5,7.4 			"/>
			<polygon class="st1" points="155.7,7.4 155.5,14 155.4,14 155.6,7.4 			"/>
			<polygon class="st1" points="155.8,7.4 155.6,14 155.5,14 155.7,7.4 			"/>
			<polygon class="st1" points="155.9,7.4 155.7,14 155.6,14 155.8,7.4 			"/>
			<polygon class="st1" points="156,7.4 155.8,14 155.7,14 155.9,7.4 			"/>
			<polygon class="st1" points="156.1,7.4 155.9,14 155.8,14 156,7.4 			"/>
			<polygon class="st1" points="156.1,7.4 156,14 155.9,14 156.1,7.4 			"/>
			<polygon class="st1" points="156.2,7.4 156.1,14 156,14 156.1,7.4 			"/>
			<polygon class="st1" points="156.3,7.4 156.1,14 156.1,14 156.2,7.4 			"/>
			<polygon class="st1" points="156.4,7.4 156.2,14 156.1,14 156.3,7.4 			"/>
			<polygon class="st1" points="156.5,7.4 156.3,14 156.2,14 156.4,7.4 			"/>
			<polygon class="st1" points="156.6,7.4 156.4,14 156.3,14 156.5,7.4 			"/>
			<polygon class="st1" points="156.7,7.4 156.5,14 156.4,14 156.6,7.4 			"/>
			<polygon class="st1" points="156.8,7.4 156.6,14 156.5,14 156.7,7.4 			"/>
			<polygon class="st1" points="156.9,7.4 156.7,14 156.6,14 156.8,7.4 			"/>
			<polygon class="st1" points="157,7.4 156.8,14 156.7,14 156.9,7.4 			"/>
			<polygon class="st1" points="157.1,7.4 156.9,14 156.8,14 157,7.4 			"/>
			<polygon class="st1" points="157.2,7.4 157,14 156.9,14 157.1,7.4 			"/>
			<polygon class="st1" points="157.2,8 157.1,14 157,14 157.2,7.4 157.2,7.4 			"/>
			<polygon class="st1" points="157.2,11.4 157.2,14 157.1,14 157.2,8 			"/>
			<polygon class="st1" points="157.2,14 157.2,11.4 157.2,14 			"/>
			<polygon class="st1" points="146.5,6.3 146.4,8.1 146.4,6.3 			"/>
			<polygon class="st1" points="146.6,6.3 146.4,11.5 146.4,8.1 146.5,6.3 			"/>
			<polygon class="st1" points="146.7,6.3 146.4,14.9 146.4,11.5 146.6,6.3 			"/>
			<polygon class="st1" points="146.8,6.3 146.4,18.2 146.4,14.9 146.7,6.3 			"/>
			<polygon class="st1" points="146.9,6.3 146.4,21.6 146.4,18.2 146.8,6.3 			"/>
			<polygon class="st1" points="146.9,6.3 146.4,25 146.4,21.6 146.9,6.3 			"/>
			<polygon class="st1" points="147,6.3 146.5,26.5 146.4,26.5 146.4,25 147,6.3 			"/>
			<polygon class="st1" points="147.1,6.3 146.6,26.5 146.5,26.5 147,6.3 			"/>
			<polygon class="st1" points="147.2,6.3 146.7,26.5 146.6,26.5 147.1,6.3 			"/>
			<polygon class="st1" points="147.3,6.3 146.8,26.5 146.7,26.5 147.2,6.3 			"/>
			<polygon class="st1" points="147.4,6.3 146.9,26.5 146.8,26.5 147.3,6.3 			"/>
			<polygon class="st1" points="147.5,6.3 146.9,26.5 146.9,26.5 147.4,6.3 			"/>
			<polygon class="st1" points="147.6,6.3 147,26.5 146.9,26.5 147.5,6.3 			"/>
			<polygon class="st1" points="147.7,6.3 147.1,26.5 147,26.5 147.6,6.3 			"/>
			<polygon class="st1" points="147.8,6.3 147.2,26.5 147.1,26.5 147.7,6.3 			"/>
			<polygon class="st1" points="147.9,6.3 147.3,26.5 147.2,26.5 147.8,6.3 			"/>
			<polygon class="st1" points="148,6.3 147.4,26.5 147.3,26.5 147.9,6.3 			"/>
			<polygon class="st1" points="148.1,6.3 147.5,26.5 147.4,26.5 148,6.3 			"/>
			<polygon class="st1" points="148.2,6.3 147.6,26.5 147.5,26.5 148.1,6.3 			"/>
			<polygon class="st1" points="148.3,6.3 147.7,26.5 147.6,26.5 148.2,6.3 			"/>
			<polygon class="st1" points="148.3,6.3 147.8,26.5 147.7,26.5 148.3,6.3 			"/>
			<polygon class="st1" points="148.4,6.3 147.9,26.5 147.8,26.5 148.3,6.3 			"/>
			<polygon class="st1" points="148.5,6.3 148,26.5 147.9,26.5 148.4,6.3 			"/>
			<polygon class="st1" points="148.6,6.3 148.1,26.5 148,26.5 148.5,6.3 			"/>
			<polygon class="st1" points="148.7,6.3 148.2,26.5 148.1,26.5 148.6,6.3 			"/>
			<polygon class="st1" points="148.8,6.3 148.3,26.5 148.2,26.5 148.7,6.3 			"/>
			<polygon class="st1" points="148.9,6.3 148.3,26.5 148.3,26.5 148.8,6.3 			"/>
			<polygon class="st1" points="149,6.3 148.4,26.5 148.3,26.5 148.9,6.3 			"/>
			<polygon class="st1" points="149.1,6.3 148.5,26.5 148.4,26.5 149,6.3 			"/>
			<polygon class="st1" points="149.2,6.3 148.6,26.5 148.5,26.5 149.1,6.3 			"/>
			<polygon class="st1" points="149.3,6.3 148.7,26.5 148.6,26.5 149.2,6.3 			"/>
			<polygon class="st1" points="149.4,6.3 148.8,26.5 148.7,26.5 149.3,6.3 			"/>
			<polygon class="st1" points="149.5,6.3 148.9,26.5 148.8,26.5 149.4,6.3 			"/>
			<polygon class="st1" points="149.6,6.3 149,26.5 148.9,26.5 149.5,6.3 			"/>
			<polygon class="st1" points="149.7,6.3 149.1,26.5 149,26.5 149.6,6.3 			"/>
			<polygon class="st1" points="149.7,6.3 149.2,26.5 149.1,26.5 149.7,6.3 			"/>
			<polygon class="st1" points="149.8,6.3 149.3,26.5 149.2,26.5 149.7,6.3 			"/>
			<polygon class="st1" points="149.9,6.3 149.4,26.5 149.3,26.5 149.8,6.3 			"/>
			<polygon class="st1" points="150,6.3 149.5,26.5 149.4,26.5 149.9,6.3 			"/>
			<polygon class="st1" points="150.1,6.3 149.6,26.5 149.5,26.5 150,6.3 			"/>
			<polygon class="st1" points="150.2,6.3 149.7,26.5 149.6,26.5 150.1,6.3 			"/>
			<polygon class="st1" points="150.3,6.3 149.7,26.5 149.7,26.5 150.2,6.3 			"/>
			<polygon class="st1" points="150.4,6.3 149.8,26.5 149.7,26.5 150.3,6.3 			"/>
			<polygon class="st1" points="150.5,6.3 149.9,26.5 149.8,26.5 150.4,6.3 			"/>
			<polygon class="st1" points="150.6,6.3 150,26.5 149.9,26.5 150.5,6.3 			"/>
			<polygon class="st1" points="150.7,6.3 150.1,26.5 150,26.5 150.6,6.3 			"/>
			<polygon class="st1" points="150.8,6.3 150.2,26.5 150.1,26.5 150.7,6.3 			"/>
			<polygon class="st1" points="150.9,6.3 150.3,26.5 150.2,26.5 150.8,6.3 			"/>
			<polygon class="st1" points="151,6.3 150.4,26.5 150.3,26.5 150.9,6.3 			"/>
			<polygon class="st1" points="151,6.3 150.5,26.5 150.4,26.5 151,6.3 			"/>
			<polygon class="st1" points="151.1,6.3 150.6,26.5 150.5,26.5 151,6.3 			"/>
			<polygon class="st1" points="151.2,6.3 150.7,26.5 150.6,26.5 151.1,6.3 			"/>
			<polygon class="st1" points="151.3,6.3 150.8,26.5 150.7,26.5 151.2,6.3 			"/>
			<polygon class="st1" points="151.4,6.3 150.9,26.5 150.8,26.5 151.3,6.3 			"/>
			<polygon class="st1" points="151.5,6.3 151,26.5 150.9,26.5 151.4,6.3 			"/>
			<polygon class="st1" points="151.6,6.3 151,26.5 151,26.5 151.5,6.3 			"/>
			<polygon class="st1" points="151.7,6.3 151.1,26.5 151,26.5 151.6,6.3 			"/>
			<polygon class="st1" points="151.8,6.3 151.2,26.5 151.1,26.5 151.7,6.3 			"/>
			<polygon class="st1" points="151.9,6.3 151.3,26.5 151.2,26.5 151.8,6.3 			"/>
			<polygon class="st1" points="152,6.3 151.4,26.5 151.3,26.5 151.9,6.3 			"/>
			<polygon class="st1" points="152.1,6.3 151.5,26.5 151.4,26.5 152,6.3 			"/>
			<polygon class="st1" points="152.2,6.3 151.6,26.5 151.5,26.5 152.1,6.3 			"/>
			<polygon class="st1" points="152.3,6.3 151.7,26.5 151.6,26.5 152.2,6.3 			"/>
			<polygon class="st1" points="152.4,6.3 151.8,26.5 151.7,26.5 152.3,6.3 			"/>
			<polygon class="st1" points="152.4,6.3 151.9,26.5 151.8,26.5 152.4,6.3 			"/>
			<polygon class="st1" points="152.5,6.3 152,26.5 151.9,26.5 152.4,6.3 			"/>
			<polygon class="st1" points="152.6,6.3 152.1,26.5 152,26.5 152.5,6.3 			"/>
			<polygon class="st1" points="152.7,6.3 152.2,26.5 152.1,26.5 152.6,6.3 			"/>
			<polygon class="st1" points="152.8,6.3 152.3,26.5 152.2,26.5 152.7,6.3 			"/>
			<polygon class="st1" points="152.9,6.3 152.4,26.5 152.3,26.5 152.8,6.3 			"/>
			<polygon class="st1" points="153,6.3 152.4,26.5 152.4,26.5 152.9,6.3 			"/>
			<polygon class="st1" points="153.1,6.3 152.5,26.5 152.4,26.5 153,6.3 			"/>
			<polygon class="st1" points="153.2,6.3 152.6,26.5 152.5,26.5 153.1,6.3 			"/>
			<polygon class="st1" points="153.3,6.3 152.7,26.5 152.6,26.5 153.2,6.3 			"/>
			<polygon class="st1" points="153.4,6.3 152.8,26.5 152.7,26.5 153.3,6.3 			"/>
			<polygon class="st1" points="153.5,6.3 152.9,26.5 152.8,26.5 153.4,6.3 			"/>
			<polygon class="st1" points="153.6,6.3 153,26.5 152.9,26.5 153.5,6.3 			"/>
			<polygon class="st1" points="153.7,6.3 153.1,26.5 153,26.5 153.6,6.3 			"/>
			<polygon class="st1" points="153.8,6.3 153.2,26.5 153.1,26.5 153.7,6.3 			"/>
			<polygon class="st1" points="153.8,6.3 153.3,26.5 153.2,26.5 153.8,6.3 			"/>
			<polygon class="st1" points="153.9,6.3 153.4,26.5 153.3,26.5 153.8,6.3 			"/>
			<polygon class="st1" points="154,6.3 153.5,26.5 153.4,26.5 153.9,6.3 			"/>
			<polygon class="st1" points="154.1,6.3 153.6,26.5 153.5,26.5 154,6.3 			"/>
			<polygon class="st1" points="154.2,6.3 153.7,26.5 153.6,26.5 154.1,6.3 			"/>
			<polygon class="st1" points="154.3,6.3 153.8,26.5 153.7,26.5 154.2,6.3 			"/>
			<polygon class="st1" points="154.4,6.3 153.8,26.5 153.8,26.5 154.3,6.3 			"/>
			<polygon class="st1" points="154.5,6.3 153.9,26.5 153.8,26.5 154.4,6.3 			"/>
			<polygon class="st1" points="154.6,6.3 154,26.5 153.9,26.5 154.5,6.3 			"/>
			<polygon class="st1" points="154.7,6.3 154.1,26.5 154,26.5 154.6,6.3 			"/>
			<polygon class="st1" points="154.8,6.3 154.2,26.5 154.1,26.5 154.7,6.3 			"/>
			<polygon class="st1" points="154.9,6.3 154.3,26.5 154.2,26.5 154.8,6.3 			"/>
			<polygon class="st1" points="155,6.3 154.4,26.5 154.3,26.5 154.9,6.3 			"/>
			<polygon class="st1" points="155.1,6.3 154.5,26.5 154.4,26.5 155,6.3 			"/>
			<polygon class="st1" points="155.1,6.3 154.6,26.5 154.5,26.5 155.1,6.3 			"/>
			<polygon class="st1" points="155.2,6.3 154.7,26.5 154.6,26.5 155.1,6.3 			"/>
			<polygon class="st1" points="155.3,6.3 154.8,26.5 154.7,26.5 155.2,6.3 			"/>
			<polygon class="st1" points="155.4,6.3 154.9,26.5 154.8,26.5 155.3,6.3 			"/>
			<polygon class="st1" points="155.5,6.3 155,26.5 154.9,26.5 155.4,6.3 			"/>
			<polygon class="st1" points="155.6,6.3 155.1,26.5 155,26.5 155.5,6.3 			"/>
			<polygon class="st1" points="155.7,6.3 155.1,26.5 155.1,26.5 155.6,6.3 			"/>
			<polygon class="st1" points="155.8,6.3 155.2,26.5 155.1,26.5 155.7,6.3 			"/>
			<polygon class="st1" points="155.9,6.3 155.3,26.5 155.2,26.5 155.8,6.3 			"/>
			<polygon class="st1" points="156,6.3 155.4,26.5 155.3,26.5 155.9,6.3 			"/>
			<polygon class="st1" points="156.1,6.3 155.5,26.5 155.4,26.5 156,6.3 			"/>
			<polygon class="st1" points="156.2,6.3 155.6,26.5 155.5,26.5 156.1,6.3 			"/>
			<polygon class="st1" points="156.3,6.3 155.7,26.5 155.6,26.5 156.2,6.3 			"/>
			<polygon class="st1" points="156.4,6.3 155.8,26.5 155.7,26.5 156.3,6.3 			"/>
			<polygon class="st1" points="156.5,6.3 155.9,26.5 155.8,26.5 156.4,6.3 			"/>
			<polygon class="st1" points="156.5,6.3 156,26.5 155.9,26.5 156.5,6.3 			"/>
			<polygon class="st1" points="156.6,6.3 156.1,26.5 156,26.5 156.5,6.3 			"/>
			<polygon class="st1" points="156.7,6.3 156.2,26.5 156.1,26.5 156.6,6.3 			"/>
			<polygon class="st1" points="156.8,6.3 156.3,26.5 156.2,26.5 156.7,6.3 			"/>
			<polygon class="st1" points="156.9,6.3 156.4,26.5 156.3,26.5 156.8,6.3 			"/>
			<polygon class="st1" points="157,6.3 156.5,26.5 156.4,26.5 156.9,6.3 			"/>
			<polygon class="st1" points="157.1,6.3 156.5,26.5 156.5,26.5 157,6.3 			"/>
			<polygon class="st1" points="157.2,6.3 156.6,26.5 156.5,26.5 157.1,6.3 			"/>
			<polygon class="st1" points="157.3,6.3 156.7,26.5 156.6,26.5 157.2,6.3 			"/>
			<polygon class="st1" points="157.4,6.3 156.8,26.5 156.7,26.5 157.3,6.3 			"/>
			<polygon class="st1" points="157.5,6.3 156.9,26.5 156.8,26.5 157.4,6.3 			"/>
			<polygon class="st1" points="157.6,6.3 157,26.5 156.9,26.5 157.5,6.3 			"/>
			<polygon class="st1" points="157.7,6.3 157.1,26.5 157,26.5 157.6,6.3 			"/>
			<polygon class="st1" points="157.8,6.3 157.2,26.5 157.1,26.5 157.7,6.3 			"/>
			<polygon class="st1" points="157.9,6.3 157.3,26.5 157.2,26.5 157.8,6.3 			"/>
			<polygon class="st1" points="157.9,6.3 157.4,26.5 157.3,26.5 157.9,6.3 			"/>
			<polygon class="st1" points="158,6.3 157.5,26.5 157.4,26.5 157.9,6.3 			"/>
			<polygon class="st1" points="158.1,6.3 157.6,26.5 157.5,26.5 158,6.3 			"/>
			<polygon class="st1" points="158.2,6.3 157.7,26.5 157.6,26.5 158.1,6.3 			"/>
			<polygon class="st1" points="158.3,6.3 157.8,26.5 157.7,26.5 158.2,6.3 			"/>
			<polygon class="st1" points="158.4,6.3 157.9,26.5 157.8,26.5 158.3,6.3 			"/>
			<polygon class="st1" points="158.5,6.3 157.9,26.5 157.9,26.5 158.4,6.3 			"/>
			<polygon class="st1" points="158.6,6.3 158,26.5 157.9,26.5 158.5,6.3 			"/>
			<polygon class="st1" points="158.7,6.3 158.1,26.5 158,26.5 158.6,6.3 			"/>
			<polygon class="st1" points="158.8,6.3 158.2,26.5 158.1,26.5 158.7,6.3 			"/>
			<polygon class="st1" points="158.9,6.3 158.3,26.5 158.2,26.5 158.8,6.3 			"/>
			<polygon class="st1" points="159,6.3 158.4,26.5 158.3,26.5 158.9,6.3 			"/>
			<polygon class="st1" points="159.1,6.3 158.5,26.5 158.4,26.5 159,6.3 			"/>
			<polygon class="st1" points="159.2,6.3 158.6,26.5 158.5,26.5 159.1,6.3 			"/>
			<polygon class="st1" points="159.2,6.3 158.7,26.5 158.6,26.5 159.2,6.3 			"/>
			<polygon class="st1" points="159.3,6.3 158.8,26.5 158.7,26.5 159.2,6.3 			"/>
			<polygon class="st1" points="159.4,6.3 158.9,26.5 158.8,26.5 159.3,6.3 			"/>
			<polygon class="st1" points="159.5,6.3 159,26.5 158.9,26.5 159.4,6.3 			"/>
			<polygon class="st1" points="159.6,6.3 159.1,26.5 159,26.5 159.5,6.3 			"/>
			<polygon class="st1" points="159.7,6.3 159.2,26.5 159.1,26.5 159.6,6.3 			"/>
			<polygon class="st1" points="159.8,6.3 159.2,26.5 159.2,26.5 159.7,6.3 			"/>
			<polygon class="st1" points="159.9,6.3 159.3,26.5 159.2,26.5 159.8,6.3 			"/>
			<polygon class="st1" points="160,6.3 159.4,26.5 159.3,26.5 159.9,6.3 			"/>
			<polygon class="st1" points="160.1,6.3 159.5,26.5 159.4,26.5 160,6.3 			"/>
			<polygon class="st1" points="160.2,6.3 159.6,26.5 159.5,26.5 160.1,6.3 			"/>
			<polygon class="st1" points="160.3,6.3 159.7,26.5 159.6,26.5 160.2,6.3 			"/>
			<polygon class="st1" points="160.4,6.3 159.8,26.5 159.7,26.5 160.3,6.3 			"/>
			<polygon class="st1" points="160.5,6.3 159.9,26.5 159.8,26.5 160.4,6.3 			"/>
			<polygon class="st1" points="160.6,6.3 160,26.5 159.9,26.5 160.5,6.3 			"/>
			<polygon class="st1" points="160.6,6.3 160.1,26.5 160,26.5 160.6,6.3 			"/>
			<polygon class="st1" points="160.7,6.3 160.2,26.5 160.1,26.5 160.6,6.3 			"/>
			<polygon class="st1" points="160.8,6.3 160.3,26.5 160.2,26.5 160.7,6.3 			"/>
			<polygon class="st1" points="160.9,6.3 160.4,26.5 160.3,26.5 160.8,6.3 			"/>
			<polygon class="st1" points="161,6.3 160.5,26.5 160.4,26.5 160.9,6.3 			"/>
			<polygon class="st1" points="161.1,6.3 160.6,26.5 160.5,26.5 161,6.3 			"/>
			<polygon class="st1" points="161.2,6.3 160.6,26.5 160.6,26.5 161.1,6.3 			"/>
			<polygon class="st1" points="161.3,6.3 160.7,26.5 160.6,26.5 161.2,6.3 			"/>
			<polygon class="st1" points="161.4,6.3 160.8,26.5 160.7,26.5 161.3,6.3 			"/>
			<polygon class="st1" points="161.5,6.3 160.9,26.5 160.8,26.5 161.4,6.3 			"/>
			<polygon class="st1" points="161.6,6.3 161,26.5 160.9,26.5 161.5,6.3 			"/>
			<polygon class="st1" points="161.7,6.3 161.1,26.5 161,26.5 161.6,6.3 			"/>
			<polygon class="st1" points="161.8,6.3 161.2,26.5 161.1,26.5 161.7,6.3 			"/>
			<polygon class="st1" points="161.9,6.3 161.3,26.5 161.2,26.5 161.8,6.3 			"/>
			<polygon class="st1" points="162,6.3 161.4,26.5 161.3,26.5 161.9,6.3 			"/>
			<polygon class="st1" points="162,6.3 161.5,26.5 161.4,26.5 162,6.3 			"/>
			<polygon class="st1" points="162.1,6.3 161.6,26.5 161.5,26.5 162,6.3 			"/>
			<polygon class="st1" points="162.2,6.3 161.7,26.5 161.6,26.5 162.1,6.3 			"/>
			<polygon class="st1" points="162.3,6.3 161.8,26.5 161.7,26.5 162.2,6.3 			"/>
			<polygon class="st1" points="162.4,6.3 161.9,26.5 161.8,26.5 162.3,6.3 			"/>
			<polygon class="st1" points="162.4,8.6 161.9,26.5 161.9,26.5 162.4,6.3 162.4,6.3 			"/>
			<polygon class="st1" points="162.4,11.9 162,26.5 161.9,26.5 162.4,8.6 			"/>
			<polygon class="st1" points="162.4,15.3 162.1,26.5 162,26.5 162.4,11.9 			"/>
			<polygon class="st1" points="162.4,18.7 162.2,26.5 162.1,26.5 162.4,15.3 			"/>
			<polygon class="st1" points="162.4,22 162.3,26.5 162.2,26.5 162.4,18.7 			"/>
			<polygon class="st1" points="162.4,25.4 162.4,26.5 162.3,26.5 162.4,22 			"/>
			<polygon class="st1" points="162.4,26.5 162.4,25.4 162.4,26.5 			"/>
		</g>
		<g>
			<path class="st0" d="M44.7,27.6c0.5,2.8,0.5,5.2-1.5,7.1c-1,0.9-2.1,0.7-3.3,0.8c-1.5,0-2.9,0-4.4,0c-2.9,0-5.9,0-8.8,0h-5V38
				v4.7h21.5c0,0,10.6,0.6,11.9-11.1c0.4-3.7-1.4-7.1-2.5-9.1c0,0-1.2,2-3.6,3.5C46.5,27.5,44.7,27.6,44.7,27.6"/>
		</g>
		<g>
			<defs>
				<path id="SVGID_3_" d="M49,26c-2.5,1.5-4.2,1.6-4.2,1.6c0.5,2.8,0.5,5.2-1.5,7.1c-0.9,0.8-1.8,0.8-2.9,0.8c-0.1,0-0.3,0-0.4,0
					c-1.5,0-2.9,0-4.4,0c-2.9,0-5.9,0-8.8,0h-5V38v4.7h21.5c0,0,10.6,0.6,11.9-11.1c0.4-3.7-1.4-7.1-2.5-9.1
					C52.6,22.5,51.4,24.6,49,26"/>
			</defs>
			<clipPath id="SVGID_4_">
				<use xlink:href="#SVGID_3_"  style="overflow:visible;"/>
			</clipPath>
			<path class="st2" d="M21.6,20.7v22.7V20.7z"/>
			<rect x="21.6" y="20.7" class="st2" width="0.2" height="22.7"/>
			<rect x="21.8" y="20.7" class="st2" width="0.2" height="22.7"/>
			<rect x="22" y="20.7" class="st2" width="0.2" height="22.7"/>
			<rect x="22.1" y="20.7" class="st2" width="0.2" height="22.7"/>
			<rect x="22.3" y="20.7" class="st2" width="0.2" height="22.7"/>
			<rect x="22.5" y="20.7" class="st2" width="0.2" height="22.7"/>
			<rect x="22.7" y="20.7" class="st2" width="0.2" height="22.7"/>
			<rect x="22.8" y="20.7" class="st2" width="0.2" height="22.7"/>
			<rect x="23" y="20.7" class="st2" width="0.2" height="22.7"/>
			<rect x="23.2" y="20.7" class="st2" width="0.2" height="22.7"/>
			<rect x="23.4" y="20.7" class="st2" width="0.2" height="22.7"/>
			<rect x="23.5" y="20.7" class="st2" width="0.2" height="22.7"/>
			<rect x="23.7" y="20.7" class="st2" width="0.2" height="22.7"/>
			<rect x="23.9" y="20.7" class="st2" width="0.2" height="22.7"/>
			<rect x="24.1" y="20.7" class="st2" width="0.2" height="22.7"/>
			<rect x="24.2" y="20.7" class="st2" width="0.2" height="22.7"/>
			<rect x="24.4" y="20.7" class="st2" width="0.2" height="22.7"/>
			<rect x="24.6" y="20.7" class="st2" width="0.2" height="22.7"/>
			<rect x="24.8" y="20.7" class="st2" width="0.2" height="22.7"/>
			<rect x="24.9" y="20.7" class="st2" width="0.2" height="22.7"/>
			<rect x="25.1" y="20.7" class="st2" width="0.2" height="22.7"/>
			<rect x="25.3" y="20.7" class="st2" width="0.2" height="22.7"/>
			<rect x="25.5" y="20.7" class="st2" width="0.2" height="22.7"/>
			<rect x="25.6" y="20.7" class="st2" width="0.2" height="22.7"/>
			<rect x="25.8" y="20.7" class="st2" width="0.2" height="22.7"/>
			<rect x="26" y="20.7" class="st2" width="0.2" height="22.7"/>
			<rect x="26.2" y="20.7" class="st2" width="0.2" height="22.7"/>
			<rect x="26.3" y="20.7" class="st2" width="0.2" height="22.7"/>
			<rect x="26.5" y="20.7" class="st2" width="0.2" height="22.7"/>
			<rect x="26.7" y="20.7" class="st2" width="0.2" height="22.7"/>
			<rect x="26.9" y="20.7" class="st2" width="0.2" height="22.7"/>
			<rect x="27" y="20.7" class="st2" width="0.2" height="22.7"/>
			<rect x="27.2" y="20.7" class="st2" width="0.2" height="22.7"/>
			<rect x="27.4" y="20.7" class="st2" width="0.2" height="22.7"/>
			<rect x="27.6" y="20.7" class="st2" width="0.2" height="22.7"/>
			<rect x="27.8" y="20.7" class="st2" width="0.2" height="22.7"/>
			<rect x="27.9" y="20.7" class="st2" width="0.2" height="22.7"/>
			<rect x="28.1" y="20.7" class="st2" width="0.2" height="22.7"/>
			<rect x="28.3" y="20.7" class="st2" width="0.2" height="22.7"/>
			<rect x="28.5" y="20.7" class="st2" width="0.2" height="22.7"/>
			<rect x="28.6" y="20.7" class="st2" width="0.2" height="22.7"/>
			<rect x="28.8" y="20.7" class="st2" width="0.2" height="22.7"/>
			<rect x="29" y="20.7" class="st2" width="0.2" height="22.7"/>
			<rect x="29.2" y="20.7" class="st2" width="0.2" height="22.7"/>
			<rect x="29.3" y="20.7" class="st2" width="0.2" height="22.7"/>
			<rect x="29.5" y="20.7" class="st2" width="0.2" height="22.7"/>
			<rect x="29.7" y="20.7" class="st2" width="0.2" height="22.7"/>
			<rect x="29.9" y="20.7" class="st2" width="0.2" height="22.7"/>
			<rect x="30" y="20.7" class="st2" width="0.2" height="22.7"/>
			<rect x="30.2" y="20.7" class="st2" width="0.2" height="22.7"/>
			<rect x="30.4" y="20.7" class="st2" width="0.2" height="22.7"/>
			<rect x="30.6" y="20.7" class="st2" width="0.2" height="22.7"/>
			<rect x="30.7" y="20.7" class="st2" width="0.2" height="22.7"/>
			<rect x="30.9" y="20.7" class="st2" width="0.2" height="22.7"/>
			<rect x="31.1" y="20.7" class="st2" width="0.2" height="22.7"/>
			<rect x="31.3" y="20.7" class="st2" width="0.2" height="22.7"/>
			<rect x="31.4" y="20.7" class="st2" width="0.2" height="22.7"/>
			<rect x="31.6" y="20.7" class="st2" width="0.2" height="22.7"/>
			<rect x="31.8" y="20.7" class="st2" width="0.2" height="22.7"/>
			<rect x="32" y="20.7" class="st2" width="0.2" height="22.7"/>
			<rect x="32.1" y="20.7" class="st2" width="0.2" height="22.7"/>
			<rect x="32.3" y="20.7" class="st2" width="0.2" height="22.7"/>
			<rect x="32.5" y="20.7" class="st2" width="0.2" height="22.7"/>
			<rect x="32.7" y="20.7" class="st2" width="0.2" height="22.7"/>
			<rect x="32.8" y="20.7" class="st2" width="0.2" height="22.7"/>
			<rect x="33" y="20.7" class="st2" width="0.2" height="22.7"/>
			<rect x="33.2" y="20.7" class="st2" width="0.2" height="22.7"/>
			<rect x="33.4" y="20.7" class="st2" width="0.2" height="22.7"/>
			<rect x="33.5" y="20.7" class="st2" width="0.2" height="22.7"/>
			<rect x="33.7" y="20.7" class="st2" width="0.2" height="22.7"/>
			<rect x="33.9" y="20.7" class="st2" width="0.2" height="22.7"/>
			<rect x="34.1" y="20.7" class="st2" width="0.2" height="22.7"/>
			<rect x="34.2" y="20.7" class="st2" width="0.2" height="22.7"/>
			<rect x="34.4" y="20.7" class="st2" width="0.2" height="22.7"/>
			<rect x="34.6" y="20.7" class="st2" width="0.2" height="22.7"/>
			<rect x="34.8" y="20.7" class="st2" width="0.2" height="22.7"/>
			<rect x="34.9" y="20.7" class="st2" width="0.2" height="22.7"/>
			<rect x="35.1" y="20.7" class="st2" width="0.2" height="22.7"/>
			<rect x="35.3" y="20.7" class="st2" width="0.2" height="22.7"/>
			<rect x="35.5" y="20.7" class="st2" width="0.2" height="22.7"/>
			<rect x="35.6" y="20.7" class="st2" width="0.2" height="22.7"/>
			<rect x="35.8" y="20.7" class="st2" width="0.2" height="22.7"/>
			<rect x="36" y="20.7" class="st2" width="0.2" height="22.7"/>
			<rect x="36.2" y="20.7" class="st2" width="0.2" height="22.7"/>
			<rect x="36.3" y="20.7" class="st2" width="0.2" height="22.7"/>
			<rect x="36.5" y="20.7" class="st2" width="0.2" height="22.7"/>
			<rect x="36.7" y="20.7" class="st2" width="0.2" height="22.7"/>
			<rect x="36.9" y="20.7" class="st2" width="0.2" height="22.7"/>
			<rect x="37" y="20.7" class="st2" width="0.2" height="22.7"/>
			<rect x="37.2" y="20.7" class="st2" width="0.2" height="22.7"/>
			<rect x="37.4" y="20.7" class="st2" width="0.2" height="22.7"/>
			<rect x="37.6" y="20.7" class="st2" width="0.2" height="22.7"/>
			<rect x="37.8" y="20.7" class="st2" width="0.2" height="22.7"/>
			<rect x="37.9" y="20.7" class="st2" width="0.2" height="22.7"/>
			<rect x="38.1" y="20.7" class="st2" width="0.2" height="22.7"/>
			<rect x="38.3" y="20.7" class="st2" width="0.2" height="22.7"/>
			<rect x="38.5" y="20.7" class="st2" width="0.2" height="22.7"/>
			<rect x="38.6" y="20.7" class="st2" width="0.2" height="22.7"/>
			<rect x="38.8" y="20.7" class="st2" width="0.2" height="22.7"/>
			<rect x="39" y="20.7" class="st2" width="0.2" height="22.7"/>
			<rect x="39.2" y="20.7" class="st2" width="0.2" height="22.7"/>
			<rect x="39.3" y="20.7" class="st2" width="0.2" height="22.7"/>
			<rect x="39.5" y="20.7" class="st2" width="0.2" height="22.7"/>
			<rect x="39.7" y="20.7" class="st2" width="0.2" height="22.7"/>
			<rect x="39.9" y="20.7" class="st2" width="0.2" height="22.7"/>
			<rect x="40" y="20.7" class="st2" width="0.2" height="22.7"/>
			<rect x="40.2" y="20.7" class="st2" width="0.2" height="22.7"/>
			<rect x="40.4" y="20.7" class="st2" width="0.2" height="22.7"/>
			<rect x="40.6" y="20.7" class="st2" width="0.2" height="22.7"/>
			<rect x="40.7" y="20.7" class="st2" width="0.2" height="22.7"/>
			<rect x="40.9" y="20.7" class="st2" width="0.2" height="22.7"/>
			<rect x="41.1" y="20.7" class="st2" width="0.2" height="22.7"/>
			<rect x="41.3" y="20.7" class="st2" width="0.2" height="22.7"/>
			<rect x="41.4" y="20.7" class="st2" width="0.2" height="22.7"/>
			<rect x="41.6" y="20.7" class="st2" width="0.2" height="22.7"/>
			<rect x="41.8" y="20.7" class="st2" width="0.2" height="22.7"/>
			<rect x="42" y="20.7" class="st2" width="0.2" height="22.7"/>
			<rect x="42.1" y="20.7" class="st2" width="0.2" height="22.7"/>
			<rect x="42.3" y="20.7" class="st2" width="0.2" height="22.7"/>
			<rect x="42.5" y="20.7" class="st2" width="0.2" height="22.7"/>
			<rect x="42.7" y="20.7" class="st2" width="0.2" height="22.7"/>
			<rect x="42.8" y="20.7" class="st2" width="0.2" height="22.7"/>
			<rect x="43" y="20.7" class="st2" width="0.2" height="22.7"/>
			<rect x="43.2" y="20.7" class="st2" width="0.2" height="22.7"/>
			<rect x="43.4" y="20.7" class="st2" width="0.2" height="22.7"/>
			<rect x="43.5" y="20.7" class="st2" width="0.2" height="22.7"/>
			<rect x="43.7" y="20.7" class="st2" width="0.2" height="22.7"/>
			<rect x="43.9" y="20.7" class="st2" width="0.2" height="22.7"/>
			<rect x="44.1" y="20.7" class="st2" width="0.2" height="22.7"/>
			<path class="st2" d="M44.3,26.9C44.4,26.9,44.4,26.9,44.3,26.9l0.1-6.1h-0.2v22.7h0.2L44.3,26.9C44.4,26.9,44.4,26.9,44.3,26.9"
				/>
			<path class="st2" d="M44.4,26.9v16.5h0.2V26.9C44.5,26.9,44.5,26.9,44.4,26.9"/>
			<path class="st2" d="M44.6,20.7h-0.2v6.1c0.1,0,0.1,0,0.2,0V20.7z"/>
			<path class="st2" d="M44.8,20.7h-0.2v6.1c0.1,0,0.1,0,0.2,0V20.7z"/>
			<path class="st2" d="M44.6,26.9v16.5h0.2V26.9C44.7,26.9,44.7,26.9,44.6,26.9"/>
			<path class="st2" d="M44.9,20.7h-0.2v6.1c0.1,0,0.1,0,0.2,0V20.7z"/>
			<path class="st2" d="M44.8,26.9v16.5h0.2V26.9C44.9,26.9,44.8,26.9,44.8,26.9"/>
			<path class="st2" d="M45.1,20.7h-0.2v6.1c0.1,0,0.1,0,0.2,0V20.7z"/>
			<path class="st2" d="M44.9,26.9v16.5h0.2V26.8C45.1,26.8,45,26.8,44.9,26.9"/>
			<path class="st2" d="M45.3,20.7h-0.2v6.1c0.1,0,0.1,0,0.2,0V20.7z"/>
			<path class="st2" d="M45.1,26.8v16.6h0.2V26.8C45.2,26.8,45.2,26.8,45.1,26.8"/>
			<path class="st2" d="M45.5,20.7h-0.2v6.1c0.1,0,0.1,0,0.2,0V20.7z"/>
			<path class="st2" d="M45.3,26.8v16.6h0.2V26.8C45.4,26.8,45.4,26.8,45.3,26.8"/>
			<path class="st2" d="M45.6,20.7h-0.2v6.1c0.1,0,0.1,0,0.2,0V20.7z"/>
			<path class="st2" d="M45.5,26.8v16.6h0.2V26.8C45.6,26.8,45.5,26.8,45.5,26.8"/>
			<path class="st2" d="M45.6,26.8v16.6h0.2V26.7C45.8,26.7,45.7,26.8,45.6,26.8"/>
			<path class="st2" d="M45.8,20.7h-0.2v6c0.1,0,0.1,0,0.2,0V20.7z"/>
			<path class="st2" d="M46,20.7h-0.2v6c0.1,0,0.1,0,0.2,0V20.7z"/>
			<path class="st2" d="M45.8,26.7v16.7H46V26.7C45.9,26.7,45.9,26.7,45.8,26.7"/>
			<path class="st2" d="M46,26.7v16.7h0.2V26.7C46.1,26.7,46.1,26.7,46,26.7"/>
			<path class="st2" d="M46.2,20.7H46v6c0.1,0,0.1,0,0.2,0V20.7z"/>
			<path class="st2" d="M46.3,20.7h-0.2v5.9c0.1,0,0.1,0,0.2,0V20.7z"/>
			<path class="st2" d="M46.2,26.7v16.7h0.2V26.6C46.3,26.6,46.2,26.6,46.2,26.7"/>
			<path class="st2" d="M46.3,26.6v16.8h0.2V26.6C46.5,26.6,46.4,26.6,46.3,26.6"/>
			<path class="st2" d="M46.5,20.7h-0.2v5.9c0.1,0,0.1,0,0.2-0.1V20.7z"/>
			<path class="st2" d="M46.7,20.7h-0.2v5.8c0.1,0,0.1,0,0.2-0.1V20.7z"/>
			<path class="st2" d="M46.5,26.6v16.8h0.2V26.5C46.6,26.5,46.6,26.5,46.5,26.6"/>
			<path class="st2" d="M46.9,20.7h-0.2v5.8c0.1,0,0.1,0,0.2-0.1V20.7z"/>
			<path class="st2" d="M46.7,26.5v16.9h0.2V26.5C46.8,26.5,46.8,26.5,46.7,26.5"/>
			<path class="st2" d="M47,20.7h-0.2v5.7c0.1,0,0.1,0,0.2-0.1V20.7z"/>
			<path class="st2" d="M46.9,26.5v16.9H47v-17C47,26.4,46.9,26.4,46.9,26.5"/>
			<path class="st2" d="M47,26.4v17h0.2V26.3C47.2,26.4,47.1,26.4,47,26.4"/>
			<path class="st2" d="M47.2,20.7H47v5.7c0.1,0,0.1,0,0.2-0.1V20.7z"/>
			<path class="st2" d="M47.4,20.7h-0.2v5.6c0.1,0,0.1,0,0.2-0.1V20.7z"/>
			<path class="st2" d="M47.2,26.3v17.1h0.2V26.3C47.3,26.3,47.3,26.3,47.2,26.3"/>
			<path class="st2" d="M47.6,20.7h-0.2v5.5c0.1,0,0.1,0,0.2-0.1V20.7z"/>
			<path class="st2" d="M47.4,26.3v17.1h0.2V26.2C47.5,26.2,47.5,26.2,47.4,26.3"/>
			<path class="st2" d="M47.8,20.7h-0.2v5.4c0.1,0,0.1-0.1,0.2-0.1V20.7z"/>
			<path class="st2" d="M47.6,26.2v17.2h0.2V26.1C47.7,26.1,47.6,26.2,47.6,26.2"/>
			<path class="st2" d="M47.9,20.7h-0.2v5.4c0.1,0,0.1-0.1,0.2-0.1V20.7z"/>
			<path class="st2" d="M47.8,26.1v17.3h0.2V26C47.9,26,47.8,26.1,47.8,26.1"/>
			<path class="st2" d="M48.1,20.7h-0.2V26c0.1,0,0.1-0.1,0.2-0.1V20.7z"/>
			<path class="st2" d="M47.9,26v17.4h0.2V25.9C48,26,48,26,47.9,26"/>
			<path class="st2" d="M48.3,20.7h-0.2v5.2c0.1,0,0.1-0.1,0.2-0.1V20.7z"/>
			<path class="st2" d="M48.1,25.9v17.5h0.2V25.8C48.2,25.9,48.2,25.9,48.1,25.9"/>
			<path class="st2" d="M48.5,20.7h-0.2v5.1c0.1,0,0.1-0.1,0.2-0.1V20.7z"/>
			<path class="st2" d="M48.3,25.8v17.6h0.2V25.7C48.4,25.8,48.3,25.8,48.3,25.8"/>
			<path class="st2" d="M48.6,20.7h-0.2v5c0.1,0,0.1-0.1,0.2-0.1V20.7z"/>
			<path class="st2" d="M48.5,25.7v17.7h0.2V25.6C48.6,25.7,48.5,25.7,48.5,25.7"/>
			<path class="st2" d="M48.8,20.7h-0.2v4.9c0.1,0,0.1-0.1,0.2-0.1V20.7z"/>
			<path class="st2" d="M48.6,25.6v17.8h0.2V25.5C48.7,25.6,48.7,25.6,48.6,25.6"/>
			<path class="st2" d="M49,20.7h-0.2v4.8c0.1,0,0.1-0.1,0.2-0.1V20.7z"/>
			<path class="st2" d="M48.8,25.5v17.9H49v-18C48.9,25.5,48.9,25.5,48.8,25.5"/>
			<path class="st2" d="M49,25.4v18h0.2V25.3C49.1,25.3,49,25.4,49,25.4"/>
			<path class="st2" d="M49.2,20.7H49v4.7c0.1,0,0.1-0.1,0.2-0.1V20.7z"/>
			<path class="st2" d="M49.2,25.3v18.1h0.2V25.2C49.3,25.2,49.2,25.3,49.2,25.3"/>
			<path class="st2" d="M49.3,20.7h-0.2v4.6c0.1,0,0.1-0.1,0.2-0.1V20.7z"/>
			<path class="st2" d="M49.5,20.7h-0.2v4.4c0.1,0,0.1-0.1,0.2-0.1V20.7z"/>
			<path class="st2" d="M49.3,25.2v18.2h0.2V25.1C49.4,25.1,49.4,25.1,49.3,25.2"/>
			<path class="st2" d="M49.7,20.7h-0.2v4.3c0.1,0,0.1-0.1,0.2-0.1V20.7z"/>
			<path class="st2" d="M49.5,25.1v18.3h0.2V24.9C49.6,25,49.6,25,49.5,25.1"/>
			<path class="st2" d="M49.9,20.7h-0.2v4.2c0.1,0,0.1-0.1,0.2-0.1V20.7z"/>
			<path class="st2" d="M49.7,24.9v18.5h0.2V24.8C49.8,24.8,49.7,24.9,49.7,24.9"/>
			<path class="st2" d="M50,20.7h-0.2v4.1c0.1,0,0.1-0.1,0.2-0.1V20.7z"/>
			<path class="st2" d="M49.9,24.8v18.6H50V24.7C50,24.7,49.9,24.8,49.9,24.8"/>
			<path class="st2" d="M50.2,20.7H50v3.9c0.1,0,0.1-0.1,0.2-0.1V20.7z"/>
			<path class="st2" d="M50,24.7v18.7h0.2V24.5C50.1,24.6,50.1,24.6,50,24.7"/>
			<path class="st2" d="M50.4,20.7h-0.2v3.8c0.1,0,0.1-0.1,0.2-0.1V20.7z"/>
			<path class="st2" d="M50.2,24.5v18.9h0.2v-19C50.3,24.4,50.3,24.5,50.2,24.5"/>
			<path class="st2" d="M50.6,20.7h-0.2v3.6c0.1,0,0.1-0.1,0.2-0.1V20.7z"/>
			<path class="st2" d="M50.4,24.4v19h0.2V24.2C50.5,24.3,50.4,24.3,50.4,24.4"/>
			<path class="st2" d="M50.7,20.7h-0.2v3.5c0.1-0.1,0.1-0.1,0.2-0.2V20.7z"/>
			<path class="st2" d="M50.6,24.2v19.2h0.2V24.1C50.7,24.1,50.6,24.2,50.6,24.2"/>
			<path class="st2" d="M50.9,20.7h-0.2v3.3c0.1-0.1,0.1-0.1,0.2-0.2V20.7z"/>
			<path class="st2" d="M50.7,24.1v19.3h0.2V23.9C50.9,24,50.8,24,50.7,24.1"/>
			<path class="st2" d="M51.1,20.7h-0.2v3.2c0.1-0.1,0.1-0.1,0.2-0.2V20.7z"/>
			<path class="st2" d="M50.9,23.9v19.5h0.2V23.8C51,23.8,51,23.9,50.9,23.9"/>
			<path class="st2" d="M51.3,20.7h-0.2v3c0.1-0.1,0.1-0.1,0.2-0.2V20.7z"/>
			<path class="st2" d="M51.1,23.8v19.6h0.2V23.6C51.2,23.7,51.1,23.7,51.1,23.8"/>
			<path class="st2" d="M51.4,20.7h-0.2v2.9c0.1-0.1,0.1-0.1,0.2-0.2V20.7z"/>
			<path class="st2" d="M51.3,23.6v19.8h0.2V23.4C51.4,23.5,51.3,23.6,51.3,23.6"/>
			<path class="st2" d="M51.4,23.4v19.9h0.2V23.3C51.6,23.3,51.5,23.4,51.4,23.4"/>
			<path class="st2" d="M51.6,20.7h-0.2v2.7c0.1-0.1,0.1-0.1,0.2-0.2V20.7z"/>
			<path class="st2" d="M51.8,20.7h-0.2v2.5c0.1-0.1,0.1-0.1,0.2-0.2V20.7z"/>
			<path class="st2" d="M51.6,23.3v20.1h0.2V23.1C51.7,23.2,51.7,23.2,51.6,23.3"/>
			<path class="st2" d="M52,20.7h-0.2v2.4c0.1-0.1,0.1-0.1,0.2-0.2V20.7z"/>
			<path class="st2" d="M51.8,23.1v20.3H52V22.9C51.9,23,51.8,23.1,51.8,23.1"/>
			<path class="st2" d="M52.1,20.7H52v2.2c0.1-0.1,0.1-0.1,0.2-0.2V20.7z"/>
			<path class="st2" d="M52,22.9v20.5h0.2V22.8C52.1,22.8,52,22.9,52,22.9"/>
			<path class="st2" d="M52.3,20.7h-0.2v2c0.1-0.1,0.1-0.1,0.2-0.2V20.7z"/>
			<path class="st2" d="M52.1,22.8v20.6h0.2V22.6C52.3,22.7,52.2,22.7,52.1,22.8"/>
			<path class="st2" d="M52.5,20.7h-0.2v1.9c0.1-0.1,0.1-0.1,0.2-0.2V20.7z"/>
			<path class="st2" d="M52.3,22.6v20.8h0.2v-21C52.4,22.5,52.4,22.5,52.3,22.6"/>
			<path class="st2" d="M52.7,20.7h-0.2v1.7c0.1-0.1,0.1-0.1,0.2-0.2V20.7z"/>
			<path class="st2" d="M52.5,22.4v21h0.2V22.3C52.6,22.3,52.5,22.4,52.5,22.4"/>
			<path class="st2" d="M52.8,20.7h-0.2v1.5c0.1-0.1,0.1-0.1,0.2-0.2V20.7z"/>
			<path class="st2" d="M52.7,22.3v21.1h0.2V22.1C52.8,22.1,52.7,22.2,52.7,22.3"/>
			<path class="st2" d="M52.8,20.7v1.3c0.1-0.1,0.1-0.1,0.2-0.2c-0.1,0.1-0.1,0.1-0.2,0.2v21.3H53V20.7H52.8z"/>
			<rect x="53" y="20.7" class="st2" width="0.2" height="22.7"/>
			<rect x="53.2" y="20.7" class="st2" width="0.2" height="22.7"/>
			<rect x="53.4" y="20.7" class="st2" width="0.2" height="22.7"/>
			<rect x="53.5" y="20.7" class="st2" width="0.2" height="22.7"/>
			<rect x="53.7" y="20.7" class="st2" width="0.2" height="22.7"/>
			<rect x="53.9" y="20.7" class="st2" width="0.2" height="22.7"/>
			<rect x="54.1" y="20.7" class="st2" width="0.2" height="22.7"/>
			<rect x="54.2" y="20.7" class="st2" width="0.2" height="22.7"/>
			<rect x="54.4" y="20.7" class="st2" width="0.2" height="22.7"/>
			<rect x="54.6" y="20.7" class="st2" width="0.2" height="22.7"/>
			<rect x="54.8" y="20.7" class="st2" width="0.2" height="22.7"/>
			<rect x="54.9" y="20.7" class="st2" width="0.2" height="22.7"/>
			<rect x="55.1" y="20.7" class="st2" width="0.5" height="22.7"/>
		</g>
		<path class="st0" d="M52.2,22L52.2,22c1.8-2.3,3-5.2,3-7.7c0-10.9-13-12.2-13-12.2H21.7v18.5L20,21.1c0,0-13,2.6-17.1,9.6
			c8.3-3.9,17.9-3.9,17.9-3.9h0.9v12.4h10.4V26.7h7.1h4.6c0.2,0,0.5,0,0.7,0c0.2,0,0.4,0,0.5-0.1C47.5,26.2,50.2,24.5,52.2,22
			 M32.1,27.3H21.7v-0.6h10.4V27.3z M32.1,20.5H21.7v-0.6h10.4V20.5z M41.1,20.6h-9V8.5h9.7c0,0,3,0.2,3,5.7
			C44.8,20,41.1,20.6,41.1,20.6"/>
		<g>
			<path class="st0" d="M197,25.6c0.3,0,0.6,0.1,0.8,0.2c0.3,0.1,0.5,0.3,0.6,0.6c0.2,0.3,0.2,0.5,0.2,0.8c0,0.3-0.1,0.6-0.2,0.8
				c-0.1,0.3-0.4,0.5-0.6,0.6c-0.3,0.1-0.5,0.2-0.8,0.2c-0.3,0-0.6-0.1-0.8-0.2c-0.3-0.1-0.5-0.4-0.6-0.6c-0.1-0.3-0.2-0.5-0.2-0.8
				c0-0.3,0.1-0.6,0.2-0.8c0.2-0.3,0.4-0.5,0.6-0.6C196.5,25.7,196.7,25.6,197,25.6z M197,25.8c-0.3,0-0.5,0.1-0.8,0.2
				c-0.2,0.1-0.4,0.3-0.6,0.6c-0.1,0.2-0.2,0.5-0.2,0.8c0,0.3,0.1,0.5,0.2,0.8c0.1,0.2,0.3,0.4,0.6,0.6s0.5,0.2,0.8,0.2
				c0.3,0,0.5-0.1,0.8-0.2c0.2-0.1,0.4-0.3,0.6-0.6c0.1-0.2,0.2-0.5,0.2-0.8c0-0.3-0.1-0.5-0.2-0.8c-0.1-0.2-0.3-0.4-0.6-0.6
				C197.5,25.9,197.3,25.8,197,25.8z M196.1,26.3h0.9c0.2,0,0.4,0.1,0.5,0.2c0.1,0.1,0.2,0.2,0.2,0.4c0,0.1,0,0.2-0.1,0.3
				c-0.1,0.1-0.2,0.2-0.4,0.2l0.5,0.7c0.1,0.1,0.1,0.1,0.2,0.2c0,0,0.1,0,0.1,0v0.1h-0.4l-0.7-1h-0.2v0.7c0,0.1,0,0.1,0.1,0.1
				c0,0,0.1,0,0.2,0v0.1h-0.9v-0.1c0.1,0,0.1,0,0.2,0c0,0,0.1,0,0.1-0.1c0,0,0-0.1,0-0.2v-1.2c0-0.1,0-0.2,0-0.2c0,0,0-0.1-0.1-0.1
				C196.2,26.4,196.2,26.4,196.1,26.3L196.1,26.3z M196.6,27.3c0.2,0,0.3,0,0.4-0.1c0.1,0,0.2-0.1,0.2-0.2c0-0.1,0.1-0.1,0.1-0.2
				c0-0.1,0-0.2-0.1-0.3c-0.1-0.1-0.2-0.1-0.3-0.1c-0.1,0-0.1,0-0.2,0V27.3z"/>
		</g>
	</g>
</g>
</svg>
