<?xml version="1.0" encoding="utf-8"?>
<!-- Generator: Adobe Illustrator 22.1.0, SVG Export Plug-In . SVG Version: 6.00 Build 0)  -->
<svg version="1.1" id="_x34_9694cf7-ef37-48a5-8db2-0a99ca52b901"
	 xmlns="http://www.w3.org/2000/svg" xmlns:xlink="http://www.w3.org/1999/xlink" x="0px" y="0px" viewBox="0 0 150 150"
	 style="enable-background:new 0 0 150 150;" xml:space="preserve">
<style type="text/css">
	.st0{fill:#999395;}
	.st1{fill:#333333;}
	.st2{fill:#316D38;}
	.st3{fill:#E3E3DF;}
	.st4{fill:#E08000;}
</style>
<title>1</title>
<circle class="st0" cx="75" cy="75" r="64.5"/>
<rect id="dot1" x="97.8" y="60.5" class="st1" width="4" height="4"/>
<animate id="d1" xlink:href="#dot1" attributeName="display" attributeType="CSS" from="none" to="block" dur="0.5s" begin="0s;d6.end + 5s" />
<rect id="dot2" x="110.1" y="60.5" class="st1" width="4" height="4"/>
<animate id="d2" xlink:href="#dot2" attributeName="display" attributeType="CSS" from="none" to="block" dur="0.5s" begin="d1.end" />
<rect id="dot3" x="122.2" y="60.5" class="st1" width="4" height="4"/>
<animate id="d3" xlink:href="#dot3" attributeName="display" attributeType="CSS" from="none" to="block" dur="0.5s" begin="d2.end" />
<rect id="dot4" x="23.8" y="85.5" class="st1" width="4" height="4"/>
<animate id="d4" xlink:href="#dot4" attributeName="display" attributeType="CSS" from="none" to="block" dur="0.5s" begin="d3.end" />
<rect id="dot5" x="35.9" y="85.5" class="st1" width="4" height="4"/>
<animate id="d5" xlink:href="#dot5" attributeName="display" attributeType="CSS" from="none" to="block" dur="0.5s" begin="d4.end" />
<rect id="dot6" x="48.2" y="85.5" class="st1" width="4" height="4"/>
<animate id="d6" xlink:href="#dot6" attributeName="display" attributeType="CSS" from="none" to="block" dur="0.5s" begin="d5.end" />
<polygon class="st1" points="48,27.2 45.2,24.4 48.8,20.6 45.2,16.8 48,13.9 54.6,20.6 "/>
<rect x="39.1" y="18.6" class="st1" width="12.5" height="4"/>
<rect x="61.7" y="121.2" class="st2" width="26.6" height="16.3"/>
<path class="st1" d="M88.3,139.5H61.7c-1.1,0.1-1.9-0.8-2-1.8c0-0.1,0-0.1,0-0.2v-16.3c-0.1-1.1,0.8-1.9,1.8-2c0.1,0,0.1,0,0.2,0
	h26.6c1.1-0.1,1.9,0.8,2,1.8c0,0.1,0,0.1,0,0.2v16.3c0.1,1.1-0.7,2-1.8,2C88.4,139.5,88.4,139.5,88.3,139.5z M63.7,135.5h22.6v-12.3
	H63.7V135.5z"/>
<rect x="61.7" y="93.9" class="st3" width="26.6" height="16.3"/>
<path class="st1" d="M88.3,112.3H61.7c-1.1,0.1-1.9-0.8-2-1.8c0-0.1,0-0.1,0-0.2V94c-0.1-1.1,0.8-1.9,1.8-2c0.1,0,0.1,0,0.2,0h26.6
	c1.1-0.1,1.9,0.8,2,1.8c0,0.1,0,0.1,0,0.2v16.3c0,1.1-0.8,1.9-1.8,2C88.4,112.3,88.4,112.3,88.3,112.3z M63.7,108.3h22.6V96H63.7
	V108.3z"/>
<rect x="61.7" y="66.9" class="st2" width="26.6" height="16.3"/>
<path class="st1" d="M88.3,85.1H61.7c-1.1,0.1-1.9-0.8-2-1.8c0-0.1,0-0.1,0-0.2V66.7c-0.1-1.1,0.8-1.9,1.8-2c0.1,0,0.1,0,0.2,0h26.6
	c1.1-0.1,1.9,0.8,2,1.8c0,0.1,0,0.1,0,0.2V83c0.1,1.1-0.7,2-1.8,2C88.4,85.1,88.4,85.1,88.3,85.1z M63.7,81.1h22.6V68.8H63.7V81.1z"
	/>
<rect x="61.7" y="39.7" class="st3" width="26.6" height="16.3"/>
<path class="st1" d="M88.3,58.1H61.7c-1.1,0.1-1.9-0.8-2-1.8c0-0.1,0-0.1,0-0.2V39.7c-0.1-1.1,0.8-1.9,1.8-2c0.1,0,0.1,0,0.2,0h26.6
	c1.1-0.1,1.9,0.8,2,1.8c0,0.1,0,0.1,0,0.2V56C90.3,57.2,89.4,58.1,88.3,58.1L88.3,58.1z M63.7,54h22.6V41.7H63.7V54z"/>
<rect x="61.7" y="12.5" class="st2" width="26.6" height="16.3"/>
<path class="st1" d="M88.3,30.9H61.7c-1.1,0.1-1.9-0.8-2-1.8c0-0.1,0-0.1,0-0.2V12.5c-0.1-1.1,0.8-1.9,1.8-2c0.1,0,0.1,0,0.2,0h26.6
	c1.1-0.1,1.9,0.8,2,1.8c0,0.1,0,0.1,0,0.2v16.3C90.3,29.9,89.4,30.8,88.3,30.9L88.3,30.9z M63.7,26.9h22.6V14.5H63.7V26.9z"/>
<polygon class="st1" points="97.2,135.3 94.3,132.4 98,128.8 94.3,125 97.2,122.2 103.6,128.8 "/>
<rect x="88.3" y="126.8" class="st1" width="12.5" height="4"/>
<polygon class="st1" points="49.6,134.5 46.6,131.6 50.4,127.8 46.6,124 49.6,121.2 56,127.8 "/>
<path class="st1" d="M53,129.8H26.8c-8.2,0-14.8-6.7-14.7-14.9c0-8.2,6.7-14.8,14.9-14.7h34.7v4H27c-6,0-10.9,4.9-10.9,10.9
	S21,126,27,126h26.2v3.8H53z"/>
<polygon class="st1" points="49.6,80 46.6,77.2 50.4,73.6 46.6,69.8 49.6,66.9 56,73.6 "/>
<path class="st1" d="M53,75.6H26.8c-8.2,0-14.9-6.6-14.9-14.8c0,0,0,0,0-0.1C12,52.4,18.7,45.8,27,45.8h34.7v4H27
	c-6-0.2-11,4.5-11.2,10.6c-0.2,6,4.5,11,10.6,11.2c0.2,0,0.4,0,0.7,0h26.2v4H53z"/>
<polygon class="st1" points="100.4,108.3 93.9,101.6 100.4,95.2 103.4,98 99.6,101.6 103.4,105.4 "/>
<path class="st1" d="M123,103.6H96.8v-4H123c6,0,10.9-4.8,10.9-10.8v-0.1v-1c0-6-4.8-10.9-10.7-10.9h-0.1H88.3v-4H123
	c8.2,0,14.9,6.7,14.9,14.9l0,0v1C137.9,96.9,131.3,103.6,123,103.6L123,103.6z"/>
<polygon class="st1" points="100.4,54 93.9,47.4 100.4,40.7 103.4,43.6 99.6,47.4 103.4,51.2 "/>
<path class="st1" d="M123,49.4H96.8v-4H123c6,0,10.9-4.8,10.9-10.8v-0.1v-1c0-6-4.8-10.9-10.7-10.9h-0.1H88.3v-4H123
	c8.2,0,14.9,6.6,14.9,14.8v0.1v1C137.9,42.7,131.3,49.4,123,49.4L123,49.4z"/>
<rect id="finishing" x="110.9" y="121.2" class="st4" width="26.6" height="16.3"/>
<animate id="fin" xlink:href="#finishing" attributeName="display" attributeType="CSS" from="none" to="block" dur="0.5s" begin="sta3.end + 2s" />
<animate id="fin1" xlink:href="#finishing" attributeName="display" attributeType="CSS" from="none" to="block" dur="0.1s" begin="fin.end" />
<animate id="fin2" xlink:href="#finishing" attributeName="display" attributeType="CSS" from="none" to="block" dur="0.1s" begin="fin1.end" />
<animate id="fin3" xlink:href="#finishing" attributeName="display" attributeType="CSS" from="none" to="block" dur="0.1s" begin="fin2.end" />
<path class="st1" d="M137.5,139.5h-26.6c-1.1,0.1-1.9-0.8-2-1.8c0-0.1,0-0.1,0-0.2v-16.3c-0.1-1.1,0.8-1.9,1.8-2c0.1,0,0.1,0,0.2,0
	h26.6c1.1-0.1,1.9,0.8,2,1.8c0,0.1,0,0.1,0,0.2v16.3c0.1,1.1-0.7,2-1.8,2C137.6,139.5,137.5,139.5,137.5,139.5z M112.9,135.5h22.6
	v-12.3h-22.6V135.5z"/>
<rect id="starting" x="12.5" y="12.5" class="st4" width="26.6" height="16.3"/>
<animate id="sta" xlink:href="#starting" attributeName="display" attributeType="CSS" from="none" to="block" dur="0.5s" begin="0s; fin3.end + 2s" />
<animate id="sta1" xlink:href="#starting" attributeName="display" attributeType="CSS" from="none" to="block" dur="0.1s" begin="sta.end" />
<animate id="sta2" xlink:href="#starting" attributeName="display" attributeType="CSS" from="none" to="block" dur="0.1s" begin="sta1.end" />
<animate id="sta3" xlink:href="#starting" attributeName="display" attributeType="CSS" from="none" to="block" dur="0.1s" begin="sta2.end" />
<path class="st1" d="M39.1,30.9H12.5c-1.1,0.1-1.9-0.8-2-1.8c0-0.1,0-0.1,0-0.2V12.5c-0.1-1.1,0.8-1.9,1.8-2c0.1,0,0.1,0,0.2,0h26.6
	c1.1-0.1,1.9,0.8,2,1.8c0,0.1,0,0.1,0,0.2v16.3C41.1,29.9,40.2,30.8,39.1,30.9L39.1,30.9z M14.5,26.9h22.6V14.5H14.5V26.9z"/>
</svg>
