<svg id="Capa_1" data-name="Capa 1" xmlns="http://www.w3.org/2000/svg" xmlns:xlink="http://www.w3.org/1999/xlink" viewBox="0 0 319.28 322.38"><defs><radialGradient id="Degradado_sin_nombre_21" cx="159.42" cy="160.75" r="160.08" gradientUnits="userSpaceOnUse"><stop offset="0.52" stop-color="#0056a2"/><stop offset="1" stop-color="#004176"/></radialGradient><clipPath id="clip-path"><ellipse cx="159.86" cy="161.63" rx="159.42" ry="160.75" style="fill:none"/></clipPath></defs><title>pse</title><ellipse cx="159.42" cy="160.75" rx="159.42" ry="160.75" style="fill:url(#Degradado_sin_nombre_21)"/><path d="M70,232.93a3.36,3.36,0,0,1-.63-.06,3.54,3.54,0,0,1-2.86-4.12l3.08-17,6.78-37.35c.64-3.5,1.24-7.09,1.82-10.56.88-5.23,1.79-10.64,2.85-16,.13-.66.25-1.32.36-2a33.86,33.86,0,0,1,1.51-6.24A21,21,0,0,1,87.36,133a29.28,29.28,0,0,1,9.92-7,30.44,30.44,0,0,1,10.23-1.93c6.25-.4,14.82-1,22.14,1.16,4.81,1.38,10.28,5.66,11.44,11.15.63,3,.28,6.36,0,9.32-.09.84-.17,1.67-.23,2.44-.26,3.53-.62,7.22-1.07,11-.86,7.17-1.79,13-2.95,18.24-1.38,6.31-5,10.28-8.56,13.81-5.09,5-10.94,7.2-19.11,7.14-4.07,0-8.25-.24-12.77-.61-.93-.07-1.82-.11-2.69-.15-3.6-.15-7.32-.3-11.19-2.88-.8-.54-1.57-1.06-2.34-1.6q-1.8,10-3.62,20l-3.08,17A3.54,3.54,0,0,1,70,232.93Zm11.6-47.66c1.65,1.32,3.13,2.35,4.85,3.5,2.22,1.48,4.46,1.57,7.56,1.7,1,0,1.94.09,3,.17,4.36.35,8.37.54,12.26.58,6.26.06,10.34-1.42,14.08-5.1s5.73-6.25,6.61-10.27c1.1-5,2-10.64,2.84-17.57.44-3.65.78-7.23,1-10.65.06-.84.16-1.74.25-2.66a25.67,25.67,0,0,0,.14-7.12c-.52-2.47-3.82-5-6.46-5.8-6.14-1.77-14-1.27-19.73-.9-3.1.2-5.65.42-7.92,1.39a22.27,22.27,0,0,0-7.5,5.26,14.9,14.9,0,0,0-3,4.36,27.65,27.65,0,0,0-1.16,5c-.12.72-.25,1.45-.39,2.16-1,5.22-1.94,10.58-2.81,15.76-.58,3.49-1.19,7.1-1.84,10.65Z" style="fill:#fff"/><path d="M175,197.94h-32.4a3.54,3.54,0,0,1,0-7.08H175a21.72,21.72,0,0,0,15-5.46,13.19,13.19,0,0,0,4.89-10c0-10.51-6.79-10.63-7.08-10.63H172c-1.27,0-2.54,0-3.81.05-2.63.05-5.35.1-8.06-.05-8.36-.48-14.84-9.44-14.84-16.83A23.43,23.43,0,0,1,151,132.2,24.48,24.48,0,0,1,169.78,124h32.15a3.55,3.55,0,0,1,0,7.09H169.78a17.34,17.34,0,0,0-13.49,5.84,16.17,16.17,0,0,0-4,11c0,4.06,4,9.51,8.16,9.75,2.44.14,4.91.09,7.52,0,1.32,0,2.64,0,4,0h15.8c4.9,0,14.17,3.7,14.17,17.71a20.19,20.19,0,0,1-7.37,15.42A28.83,28.83,0,0,1,175,197.94Z" style="fill:#fff"/><path d="M225,197.55a22.34,22.34,0,0,1-8.22-1.29,17,17,0,0,1-9-8.33c-1.66-3.4-1.49-6.62-1.34-9.47,0-.43.05-.87.07-1.31a170.83,170.83,0,0,1,2-21c1.39-8.55,4.35-20.8,13.82-28.44,4.46-3.6,10.43-3.57,15.24-3.53h2.31c4.91-.07,9.77,0,14.44.37a22.25,22.25,0,0,1,12.95,4.58,14.48,14.48,0,0,1,4.55,5c2.12,4.27,1.18,9.72.49,13.71l-.17,1c-.4,2.39-.81,4.57-1.25,6.69-.11.49-.19,1-.29,1.6A18.34,18.34,0,0,1,269,163a5.25,5.25,0,0,1-5.36,2.65l-.5,0H214.4c-.4,3.74-.67,7.65-.83,11.81,0,.47,0,.94-.07,1.41-.13,2.46-.23,4.23.62,6a9.81,9.81,0,0,0,5.16,4.84,19.41,19.41,0,0,0,7.43.79c7.61-.22,15.33-.15,22.8-.09,3.62,0,7.25.07,10.87.07a3.54,3.54,0,1,1,0,7.08c-3.64,0-7.29,0-10.93-.06-7.41-.06-15.06-.13-22.54.08C226.27,197.54,225.61,197.55,225,197.55Zm-9.64-39h47.83c.19-.76.34-1.69.47-2.49s.22-1.34.34-1.93c.43-2,.82-4.11,1.2-6.39l.18-1c.52-3,1.23-7.17.14-9.36a8.05,8.05,0,0,0-2.46-2.49,15.33,15.33,0,0,0-9.17-3.17c-4.48-.31-9.14-.42-13.86-.35-.79,0-1.62,0-2.46,0-4.06,0-8.25-.06-10.74,2-7.5,6-10,16-11.28,24.07C215.43,157.74,215.37,158.13,215.31,158.53Z" style="fill:#fff"/><path d="M97.22,116.51a5.6,5.6,0,0,1-.6,0l-.4,0h-6a2.6,2.6,0,0,1-1.1-.18,2.38,2.38,0,0,1-1.17-1.21,5.59,5.59,0,0,1-.48-3.79c.25-1.16,1.25-3.42,3.16-3.68a6.81,6.81,0,0,1,1.1,0l.44,0h6.11c0-.42,0-.84,0-1.26v-.24a9.23,9.23,0,0,0-.1-2.12c-.06-.25-.28-1.07-.83-1.23a1.68,1.68,0,0,0-.42,0h-6.6a.89.89,0,0,1,0-1.78h6.6a3.31,3.31,0,0,1,.94.1,3.19,3.19,0,0,1,2,2.54,9.78,9.78,0,0,1,.15,2.56v.24c0,.57,0,1.15,0,1.73a32.33,32.33,0,0,1-.39,5.7l0,.22a3.94,3.94,0,0,1-.58,1.67A2,2,0,0,1,97.22,116.51Zm-1-1.82.53,0a2.5,2.5,0,0,0,.84,0,3.12,3.12,0,0,0,.27-.94l0-.25a24.54,24.54,0,0,0,.34-4.12H92.15l-.52,0a5,5,0,0,0-.78,0c-.71.09-1.45,1.29-1.68,2.3a3.93,3.93,0,0,0,.34,2.61c.16.32.26.37.28.38a1.67,1.67,0,0,0,.41,0Z" style="fill:#fff"/><path d="M110.71,116h-7.09a3,3,0,0,1-2.67-1.36,5.18,5.18,0,0,1-.71-2.88c0-3.65,2.55-9.93,5.15-9.93h7.09a.89.89,0,0,1,0,1.77h-7.09c-.85,0-3.47,4.61-3.37,8.33,0,2.3,1.18,2.3,1.6,2.3h7.09a.89.89,0,0,1,0,1.77Z" style="fill:#fff"/><path d="M126.31,104.26a4.35,4.35,0,0,0-1.76-1.8c-1.88-1-4.51-1.29-7.8-.75l1-5.91a.88.88,0,0,0-.72-1,.89.89,0,0,0-1,.72l-3.54,20.37a.49.49,0,0,0,0,.17,1,1,0,0,0,0,.17.46.46,0,0,0,.07.16.94.94,0,0,0,.06.15.74.74,0,0,0,.13.12.68.68,0,0,0,.12.12l.16.07.15.06h0l.15,0a.81.81,0,0,0,.31-.06l.1,0,.16-.1a.44.44,0,0,0,.08-.1l.11-.12a.34.34,0,0,0,0-.14.67.67,0,0,0,.06-.15l2.54-12.69c3-.53,5.37-.35,6.91.51a2.52,2.52,0,0,1,1.06,1.06,3.54,3.54,0,0,1-.23,2.06c-.07.25-.14.49-.19.71-.27,1.15-.55,2.29-.85,3.44-.38,1.47-.77,2.93-1.18,4.39l0,.11a.84.84,0,0,0,.63,1,.94.94,0,0,0,1.11-.67c.42-1.47.81-3,1.2-4.43.3-1.16.58-2.31.86-3.48,0-.19.1-.4.17-.62A4.58,4.58,0,0,0,126.31,104.26Z" style="fill:#fff"/><g style="clip-path:url(#clip-path)"><circle cx="31.44" cy="115.58" r="7.53" style="fill:#ffb900"/><circle cx="17.27" cy="93.44" r="7.53" style="fill:#ffb900"/><circle cx="2.21" cy="115.58" r="7.53" style="fill:#ffb900"/><circle cx="31.44" cy="204.14" r="7.53" style="fill:#ffb900"/><circle cx="17.27" cy="227.17" r="7.53" style="fill:#ffb900"/><circle cx="1.33" cy="204.14" r="7.53" style="fill:#ffb900"/><path d="M37.31,156.32,21.7,135.51H1.77v5.31H19l11.63,15.5H.44v5.31H47.3L37,180.23H23.42a7.54,7.54,0,1,0,0,5.31H40.09l13.28-23.91H72.18L74,156.32Z" style="fill:#ffb900"/></g></svg>