<svg id="Capa_1" data-name="Capa 1" xmlns="http://www.w3.org/2000/svg" xmlns:xlink="http://www.w3.org/1999/xlink" viewBox="0 0 229.41 229.41"><defs><radialGradient id="Degradado_sin_nombre_2" cx="114.55" cy="115.29" r="113.92" gradientTransform="matrix(1, 0, 0, -1, 0, 229.68)" gradientUnits="userSpaceOnUse"><stop offset="0.52" stop-color="#0757a2"/><stop offset="1" stop-color="#0f4274"/></radialGradient><clipPath id="clip-path"><ellipse cx="114.86" cy="115.02" rx="113.45" ry="114.39" style="fill:none"/></clipPath></defs><title>pse</title><ellipse cx="114.55" cy="114.39" rx="113.45" ry="114.39" style="fill:url(#Degradado_sin_nombre_2)"/><path d="M50.92,165.76a3.42,3.42,0,0,1-.45,0,2.53,2.53,0,0,1-2-2.93h0l2.19-12.09,4.83-26.58c.46-2.49.88-5,1.29-7.52.63-3.72,1.28-7.57,2-11.38.1-.47.18-.94.26-1.43a25.19,25.19,0,0,1,1.07-4.44,15.12,15.12,0,0,1,3.17-4.69,20.78,20.78,0,0,1,7.06-5,21.8,21.8,0,0,1,7.28-1.37c4.45-.28,10.55-.71,15.76.83,3.42,1,7.31,4,8.14,7.93a23,23,0,0,1,0,6.63c-.07.6-.12,1.19-.17,1.74-.18,2.51-.44,5.14-.76,7.83-.61,5.1-1.27,9.25-2.1,13-1,4.49-3.56,7.31-6.09,9.83-3.62,3.55-7.78,5.12-13.6,5.08-2.9,0-5.87-.17-9.09-.44-.66,0-1.29-.08-1.91-.1-2.56-.11-5.21-.22-8-2l-1.67-1.14q-1.27,7.11-2.58,14.23l-2.19,12.1A2.51,2.51,0,0,1,50.92,165.76Zm8.25-33.92c1.18.94,2.23,1.67,3.45,2.49,1.58,1.06,3.18,1.12,5.38,1.21.71,0,1.38.07,2.14.12,3.1.25,6,.39,8.72.42,4.46,0,7.36-1,10-3.63S93,128,93.59,125.14c.78-3.56,1.42-7.57,2-12.5.31-2.6.55-5.15.71-7.58,0-.6.11-1.24.18-1.9a18.64,18.64,0,0,0,.1-5.06c-.37-1.76-2.72-3.56-4.6-4.13-4.37-1.26-10-.9-14-.64a17,17,0,0,0-5.64,1A15.8,15.8,0,0,0,67,98.06a10.49,10.49,0,0,0-2.14,3.1,20.67,20.67,0,0,0-.83,3.56c-.08.51-.17,1-.27,1.54-.71,3.71-1.38,7.53-2,11.21-.42,2.49-.85,5.06-1.31,7.58Z" style="fill:#fff"/><path d="M125.64,140.86H102.58a2.52,2.52,0,1,1,0-5h23.06a15.43,15.43,0,0,0,10.67-3.88,9.4,9.4,0,0,0,3.48-7.12c0-7.48-4.83-7.57-5-7.57H123.5c-.9,0-1.81,0-2.71,0-1.87,0-3.81.07-5.73,0-6-.34-10.57-6.71-10.57-12a16.66,16.66,0,0,1,4.07-11.2,17.42,17.42,0,0,1,13.36-5.84H144.8a2.53,2.53,0,0,1,0,5.05H121.92a12.33,12.33,0,0,0-9.6,4.15,11.5,11.5,0,0,0-2.84,7.83c0,2.89,2.84,6.77,5.8,6.94,1.74.1,3.5.06,5.35,0h14.09c3.49,0,10.09,2.63,10.09,12.6a14.39,14.39,0,0,1-5.25,11A20.54,20.54,0,0,1,125.64,140.86Z" style="fill:#fff"/><path d="M161.22,140.58a15.94,15.94,0,0,1-5.85-.92,12.13,12.13,0,0,1-6.41-5.92,12.82,12.82,0,0,1-1-6.74c0-.31,0-.62.05-.94a122.78,122.78,0,0,1,1.42-14.94c1-6.08,3.1-14.8,9.84-20.24,3.17-2.56,7.42-2.54,10.84-2.51h1.65c3.49-.05,6.95,0,10.27.26a15.87,15.87,0,0,1,9.22,3.26,10.53,10.53,0,0,1,3.24,3.56c1.51,3,.84,6.92.35,9.76l-.13.71c-.28,1.7-.57,3.25-.89,4.76-.07.35-.13.71-.2,1.14a13.12,13.12,0,0,1-1.14,4.17,3.71,3.71,0,0,1-3.81,1.89h-35c-.29,2.66-.48,5.44-.6,8.4a6.84,6.84,0,0,1-.05,1,8.32,8.32,0,0,0,.45,4.27,7,7,0,0,0,3.67,3.44,13.71,13.71,0,0,0,5.29.56c5.41-.15,10.9-.1,16.22-.06,2.58,0,5.16.05,7.74.05a2.52,2.52,0,0,1,0,5c-2.59,0-5.19,0-7.78,0-5.28-.05-10.72-.1-16,0C162.12,140.57,161.65,140.58,161.22,140.58Zm-6.86-27.75h34c.13-.54.24-1.2.33-1.77s.16-1,.24-1.38c.31-1.42.59-2.92.86-4.54l.12-.72c.37-2.13.88-5.1.1-6.66A5.68,5.68,0,0,0,188.3,96a10.84,10.84,0,0,0-6.52-2.25c-3.19-.23-6.51-.3-9.87-.25h-1.75c-2.89,0-5.87,0-7.64,1.42-5.34,4.27-7.12,11.39-8,17.13a4.66,4.66,0,0,0-.17.77Z" style="fill:#fff"/><path d="M70.29,82.91a3.08,3.08,0,0,1-.43,0H65.31a1.78,1.78,0,0,1-.79-.13,1.66,1.66,0,0,1-.83-.86,3.92,3.92,0,0,1-.34-2.69c.18-.83.89-2.44,2.25-2.62a5.08,5.08,0,0,1,.78,0H71V75.54A6.35,6.35,0,0,0,71,74c0-.18-.2-.76-.59-.88a1.5,1.5,0,0,0-.3,0h-4.7a.63.63,0,0,1,0-1.26h4.7a2.15,2.15,0,0,1,.67.07,2.26,2.26,0,0,1,1.42,1.81,6.94,6.94,0,0,1,.11,1.82V77A23,23,0,0,1,72,81.05v.15a2.65,2.65,0,0,1-.41,1.19A1.42,1.42,0,0,1,70.29,82.91Zm-.71-1.29H70a2,2,0,0,0,.6,0,2.32,2.32,0,0,0,.19-.67v-.18A16,16,0,0,0,71,77.84H66.31a2.62,2.62,0,0,0-.56,0c-.5.06-1,.92-1.19,1.63a2.78,2.78,0,0,0,.24,1.86c.11.23.19.26.2.27a1.41,1.41,0,0,0,.29,0Z" style="fill:#fff"/><path d="M79.89,82.55h-5a2.14,2.14,0,0,1-1.9-1,3.68,3.68,0,0,1-.5-2c0-2.6,1.81-7.07,3.66-7.07h5.05a.64.64,0,0,1,.56.7.63.63,0,0,1-.56.56H76.1c-.6,0-2.47,3.28-2.4,5.93,0,1.64.84,1.64,1.14,1.64h5a.63.63,0,0,1,0,1.26Z" style="fill:#fff"/><path d="M91,74.19a3.14,3.14,0,0,0-1.25-1.28,8.88,8.88,0,0,0-5.55-.53l.71-4.21a.62.62,0,0,0-1.23-.2l-2.52,14.5v.24a.61.61,0,0,0,0,.12.47.47,0,0,0,0,.1.38.38,0,0,0,.09.09.3.3,0,0,0,.08.08l.12.05.1,0h.11a.54.54,0,0,0,.22,0H82l.12-.07a.18.18,0,0,0,0-.07l.08-.08a.17.17,0,0,0,0-.1.25.25,0,0,0,0-.11l1.81-9a7.67,7.67,0,0,1,4.92.36,1.72,1.72,0,0,1,.75.76,2.44,2.44,0,0,1-.16,1.46c-.05.18-.1.35-.13.51-.2.82-.4,1.63-.61,2.45q-.41,1.56-.84,3.12v.08a.6.6,0,0,0,.45.71.67.67,0,0,0,.79-.48c.3-1,.58-2.13.85-3.15.22-.83.42-1.64.61-2.48a1.78,1.78,0,0,1,.13-.44A3.31,3.31,0,0,0,91,74.19Z" style="fill:#fff"/><g style="clip-path:url(#clip-path)"><circle cx="23.48" cy="82.25" r="5.36" style="fill:#fbb811"/><circle cx="13.39" cy="66.49" r="5.36" style="fill:#fbb811"/><circle cx="2.68" cy="82.25" r="5.36" style="fill:#fbb811"/><circle cx="23.48" cy="145.27" r="5.36" style="fill:#fbb811"/><circle cx="13.39" cy="161.66" r="5.36" style="fill:#fbb811"/><circle cx="2.05" cy="145.27" r="5.36" style="fill:#fbb811"/><path d="M27.65,111.24,16.55,96.43H2.36v3.78H14.62l8.28,11H1.42V115H34.76l-7.33,13.24H17.77a5.37,5.37,0,1,0,0,3.77H29.63l9.45-17H52.47l1.29-3.78Z" style="fill:#fbb811"/></g></svg>