<?xml version="1.0" encoding="utf-8"?>
<!-- Generator: Adobe Illustrator 22.1.0, SVG Export Plug-In . SVG Version: 6.00 Build 0)  -->
<svg version="1.1" id="_x37_af112bf-db9f-43bf-8d40-b4a65310ed7b"
	 xmlns="http://www.w3.org/2000/svg" xmlns:xlink="http://www.w3.org/1999/xlink" x="0px" y="0px" viewBox="0 0 150 150"
	 style="enable-background:new 0 0 150 150;" xml:space="preserve">
<style type="text/css">
	.st0{fill:#316D38;}
	.st1{fill:#E3E3DF;}
	.st2{fill:#E08000;}
	#hole {
		transform-origin: center;
		animation: blink 5s ease-in infinite;
		animation-direction: alternate;
	}
	@keyframes blink {
	0% {transform: scale(1)}
	50% {transform: scale(0)}
	100% {transform: scale(1)}
	}
</style>
<title>1</title>
<path class="st0" d="M75,0.5C75,0.5,57.9,21,18.5,21v49c0,25.6,11.1,50.3,31.2,66.1c7.5,6,16.1,10.5,25.3,13.3
	c9.2-2.8,17.8-7.3,25.3-13.3c20.1-15.8,31.2-40.5,31.2-66.1V21C92.1,21.1,75,0.5,75,0.5z"/>
<path class="st1" d="M75,133.2c-5.7-2.3-11-5.3-15.7-9.1C43.4,111.6,34,91.4,34,70.1V35.5c19-2.4,32.5-9,41.1-14.9
	c8.6,5.9,22.1,12.5,41.1,14.9v34.6c0,21.3-9.5,41.5-25.3,54C86,127.9,80.7,130.9,75,133.2z"/>
<path id="hole" class="st2" d="M87.8,98.1l-6.9-27.6c4.6-3.3,5.7-9.7,2.4-14.3c-3.3-4.6-9.7-5.7-14.3-2.4s-5.7,9.7-2.4,14.3
	c0.7,0.9,1.5,1.8,2.4,2.4l-6.9,27.6H87.8z" />
</svg>
