<?xml version="1.0" encoding="utf-8"?>
<!-- Generator: Adobe Illustrator 22.1.0, SVG Export Plug-In . SVG Version: 6.00 Build 0)  -->
<svg version="1.1" id="Capa_1" xmlns="http://www.w3.org/2000/svg" xmlns:xlink="http://www.w3.org/1999/xlink" x="0px" y="0px"
	 viewBox="0 0 512.8 512.8" style="enable-background:new 0 0 512.8 512.8;" xml:space="preserve">
<style type="text/css">
	.st0{fill:#333333;}
	.st1{fill:#999395;}
	.st2{fill:#FFAB5F;}
	.st3{fill:#824100;}
	.st4{fill:#D38A4F;}
	.st5{fill:#415A6B;}
	.st6{fill:#FFFFFF;}
	.st7{fill:#E3E3DF;}
	.st8{fill:#316D38;}
</style>
<g>
	<path class="st0" d="M337.9,302.3c-29.9-7.5-51.2-42.7-71.5-76.8l-3.2-5.3l9.6-5.3l3.2,5.3c19.2,32,39.5,66.1,65.1,72.5
		L337.9,302.3z"/>
	<path class="st0" d="M361.3,308.7c-3.2,7.5-12.8,11.7-20.3,7.5c-7.5-3.2-17.1-14.9-13.9-22.4s18.1-8.5,25.6-5.3
		C360.3,291.6,365.6,301.2,361.3,308.7z"/>
</g>
<path class="st1" d="M258.9,512.4l-20.3-96L98.9,347.1c0,0-12.8,0-39.5,45.9C36,432.4,23.2,494.3,20,512.4H258.9z"/>
<path class="st2" d="M313.3,63.3c0,0,25.6,64,19.2,99.2c0,0-4.3,16-1.1,25.6s22.4,44.8,22.4,44.8s2.1,9.6-4.3,12.8
	s-14.9,2.1-18.1,4.3c-3.2,2.1-6.4,5.3-4.3,10.7c2.1,5.3-1.1,13.9-8.5,9.6c0,0,7.5,6.4,2.1,14.9c0,0-14.9,13.9-12.8,30.9
	c2.1,17.1-11.7,27.7-24.5,25.6c-5.3,0-17.1-2.1-26.7-3.2c-8.5-1.1-18.1,3.2-21.3,11.7l-25.6,61.9l-112-72.5
	c0-1.1,10.7-40.5,10.7-40.5l21.3-222.9L313.3,63.3z"/>
<path class="st0" d="M86.1,330c3.2-7.5,11.7-10.7,18.1-8.5c23.5,8.5,71.5,27.7,97.1,48c34.1,26.7,41.6,44.8,41.6,44.8l-17.1,46.9
	c0,0-45.9-26.7-91.7-44.8C88.3,398.3,68,396.1,68,396.1s4.3-13.9,5.3-29.9C76.5,355.6,81.9,340.7,86.1,330z"/>
<path class="st3" d="M313.3,63.3c0,0-59.7,45.9-71.5,68.3s-18.1,23.5-24.5,57.6s-6.4,34.1-6.4,34.1L180,219l2.1-44.8
	c0,0-33.1,17.1-45.9,59.7c-33.1,112-27.7,65.1-27.7,65.1s2.1-17.1-7.5-29.9c-5.3-6.4-14.9-5.3-18.1,3.2c-1.1,2.1-2.1,5.3-2.1,9.6
	l-24.5-9.6c0,0,8.5-19.2,0-42.7s-24.5-78.9-9.6-131.2S94.7-2.8,165.1,1.5S305.9,36.7,313.3,63.3z"/>
<ellipse transform="matrix(0.9832 -0.1828 0.1828 0.9832 -33.9444 33.7496)" class="st2" cx="166.1" cy="201" rx="26.7" ry="43.7"/>
<g>
	<path class="st3" d="M298.4,47.3C313.3,58,322.9,75.1,324,93.2c-3.2-18.1-14.9-35.2-32-42.7c-14.9-6.4-32-6.4-48-6.4"/>
	<path class="st3" d="M313.3,65.5c0,0-1.1,0-2.1,1.1c-1.1,1.1-3.2,1.1-4.3,2.1c-1.1,1.1-2.1,1.1-3.2,2.1c-1.1,1.1-2.1,1.1-3.2,2.1
		c-1.1,1.1-3.2,2.1-4.3,2.1c-1.1,1.1-3.2,2.1-4.3,3.2c-3.2,2.1-6.4,4.3-9.6,7.5s-6.4,6.4-9.6,9.6s-6.4,7.5-9.6,10.7
		c-3.2,4.3-6.4,8.5-8.5,12.8c-3.2,4.3-5.3,8.5-7.5,13.9c-2.1,4.3-4.3,9.6-5.3,13.9c-1.1,4.3-3.2,8.5-4.3,12.8s-2.1,8.5-2.1,11.7
		c0,2.1-1.1,4.3-1.1,5.3c0,2.1,0,3.2-1.1,5.3c0,1.1,0,3.2,0,4.3s0,2.1,0,3.2c0,2.1,0,4.3,0,5.3s0,2.1,0,2.1s0-1.1,0-2.1s0-3.2,0-5.3
		c0-1.1,0-2.1,0-4.3c0-1.1,0-3.2,0-4.3s0-3.2,0-5.3s0-3.2,1.1-5.3c0-4.3,1.1-8.5,2.1-12.8c1.1-4.3,2.1-8.5,3.2-13.9
		c1.1-4.3,3.2-9.6,5.3-13.9c2.1-4.3,4.3-9.6,6.4-13.9s5.3-8.5,8.5-12.8s6.4-8.5,9.6-11.7s6.4-7.5,9.6-10.7s6.4-6.4,9.6-8.5
		c1.1-1.1,3.2-2.1,4.3-3.2c1.1-1.1,3.2-2.1,4.3-3.2c1.1,1.1,2.1,0,3.2-1.1s2.1-1.1,3.2-2.1c2.1-1.1,3.2-2.1,4.3-3.2
		c1.1,0,2.1,0,2.1,0L313.3,65.5z"/>
	<path class="st3" d="M297.3,74c0,0-1.1,1.1-3.2,2.1c-1.1,0-1.1,1.1-2.1,1.1s-1.1,1.1-2.1,2.1c-1.1,1.1-1.1,1.1-2.1,2.1
		s-2.1,1.1-2.1,2.1c-1.1,1.1-2.1,1.1-2.1,2.1c-1.1,1.1-2.1,2.1-3.2,3.2l-1.1,1.1l-1.1,1.1c-1.1,1.1-2.1,2.1-3.2,3.2
		c-2.1,2.1-3.2,4.3-5.3,7.5c-2.1,2.1-3.2,5.3-5.3,7.5c-1.1,3.2-3.2,5.3-4.3,8.5s-2.1,5.3-3.2,8.5c-1.1,1.1-1.1,3.2-1.1,4.3
		s0,1.1-1.1,2.1c0,1.1,0,1.1-1.1,2.1c0,1.1-1.1,2.1-1.1,4.3c0,1.1-1.1,2.1-1.1,3.2s-1.1,2.1-1.1,3.2s0,2.1,0,3.2s0,2.1,0,2.1
		c0,1.1,0,1.1,0,2.1c0,3.2,0,4.3,0,4.3s0-1.1,0-4.3c0-1.1,0-1.1,0-2.1c0-1.1,0-2.1,0-3.2s0-2.1,0-3.2s0-2.1,1.1-3.2
		c0-1.1,0-2.1,1.1-3.2c0-1.1,1.1-2.1,1.1-4.3c0-1.1,0-1.1,0-2.1s0-1.1,1.1-2.1c0-1.1,1.1-3.2,1.1-4.3c1.1-3.2,2.1-5.3,3.2-8.5
		s2.1-5.3,4.3-8.5c1.1-3.2,3.2-5.3,4.3-8.5c2.1-3.2,3.2-5.3,5.3-7.5c1.1-1.1,2.1-2.1,3.2-3.2c0-1.1,1.1-1.1,1.1-2.1
		c0-1.1,1.1-1.1,1.1-1.1c-1.1,0,0-1.1,1.1-2.1c1.1-1.1,2.1-2.1,2.1-3.2c1.1-1.1,2.1-2.1,2.1-2.1c1.1-1.1,2.1-1.1,2.1-2.1
		c2.1-1.1,2.1-1.1,3.2-2.1C290,73,290,73,291,73c2.1-2.1,3.2-3.2,3.2-3.2L297.3,74z"/>
	<path class="st3" d="M85.1,255.3c-8.5,20.3-5.3,43.7,0,65.1c5.3,21.3,10.7,43.7,4.3,65.1c-4.3,14.9-12.8,26.7-23.5,38.4
		c-9.6,11.7-20.3,22.4-27.7,36.3c-7.5,12.8-10.7,29.9-6.4,43.7C17.9,502.8,7.2,490,2.9,477.2s-3.2-27.7-1.1-41.6
		c6.4-45.9,17.1-90.7,34.1-134.4c3.2-8.5,6.4-17.1,11.7-23.5c5.3-7.5,12.8-13.9,21.3-16"/>
</g>
<path class="st0" d="M82.9,271.3c-9.6-1.1-18.1-5.3-24.5-12.8c-7.5,5.3-11.7,11.7-10.7,21.3c10.7,0,21.3,3.2,33.1,9.6
	C84,284.1,86.1,277.7,82.9,271.3z"/>
<path class="st4" d="M256.8,338.5c0,0-67.2-29.9-114.1-91.7c0,1.1,19.2,50.1,90.7,109.9l2.1-6.4
	C239.7,341.7,248.3,337.5,256.8,338.5L256.8,338.5L256.8,338.5z"/>
<path class="st5" d="M197.1,175.3c-22.4,0-40.5,18.1-40.5,40.5s18.1,40.5,40.5,40.5s40.5-18.1,40.5-40.5
	C238.7,193.5,220.5,175.3,197.1,175.3z M197.1,251.1c-19.2,0-35.2-16-35.2-35.2s16-35.2,35.2-35.2s35.2,16,35.2,35.2
	S217.3,251.1,197.1,251.1z"/>
<path class="st0" d="M197.1,167.9c-26.7,0-49.1,21.3-49.1,49.1c0,26.7,21.3,49.1,49.1,49.1c26.7,0,49.1-21.3,49.1-49.1
	S224.8,167.9,197.1,167.9z M197.1,251.1c-19.2,0-35.2-16-35.2-35.2s16-35.2,35.2-35.2s35.2,16,35.2,35.2S217.3,251.1,197.1,251.1z"
	/>
<circle class="st6" cx="197.1" cy="215.9" r="35.2"/>
<path class="st7" d="M224.8,238.3v-23.5c0-13.9-11.7-25.6-25.6-25.6s-25.6,11.7-25.6,25.6v26.7c-6.4-6.4-10.7-14.9-10.7-24.5
	c0-19.2,16-35.2,35.2-35.2s35.2,16,35.2,35.2C232.3,224.4,229.1,232.9,224.8,238.3z"/>
<path class="st0" d="M217.3,226.5c-6.4,10.7-19.2,13.9-29.9,7.5c-7.5-4.3-10.7-11.7-10.7-19.2c0-6.4,0-12.8-1.1-19.2
	c-1.1-8.5-2.1-18.1-3.2-24.5c-1.1-12.8-11.7-61.9-13.9-71.5c-2.1-8.5-13.9-61.9-16-75.7s-1.1-22.4-1.1-22.4s5.3-1.1,17.1-1.1
	c10.7,0,10.7,2.1,10.7,2.1c-4.3,1.1-7.5,7.5-9.6,23.5c-1.1,16,6.4,44.8,6.4,44.8s16,46.9,20.3,65.1c3.2,11.7,14.9,38.4,22.4,55.5
	c2.1,4.3,4.3,8.5,7.5,12.8C220.5,210.5,221.6,219.1,217.3,226.5z"/>
<path class="st8" d="M512.8,64.4v85.3c0,7.5-5.3,12.8-12.8,12.8h-72.5l-60.8,44.8l23.5-44.8h-13.9c-7.5,0-12.8-5.3-12.8-12.8V64.4
	c0-7.5,5.3-12.8,12.8-12.8H500C507.5,51.6,512.8,58,512.8,64.4z"/>
<g>
	<rect x="383.7" y="75.1" class="st6" width="107.7" height="11.7" style="transform-origin: 75% 50%;">
	<animateTransform attributeName="transform"
						  id="txt1"
                          attributeType="XML"
                          type="scale"
                          from="0 1"
                          to="1 1"
                          dur="1s"
						  begin="0s;txt3.end + 5s"
                          /> 
	</rect>
	<rect x="383.7" y="101.7" class="st6" width="107.7" height="11.7" style="transform-origin: 75% 50%;">
	<animateTransform attributeName="transform"
						  id="txt2"
                          attributeType="XML"
                          type="scale"
                          from="0 1"
                          to="1 1"
                          dur="1s"
						  begin="txt1.end"
                          /> 
	</rect>
	<rect x="383.7" y="128.4" class="st6" width="75.7" height="11.7" style="transform-origin: 75% 50%;">
	<animateTransform attributeName="transform"
						  id="txt3"
                          attributeType="XML"
                          type="scale"
                          from="0 1"
                          to="1 1"
                          dur="1s"
						  begin="txt2.end"
                          /> 
	</rect>
</g>
</svg>
