<?xml version="1.0" encoding="utf-8"?>
<!-- Generator: Adobe Illustrator 22.1.0, SVG Export Plug-In . SVG Version: 6.00 Build 0)  -->
<svg version="1.1" id="_x39_47f6967-a958-43b8-a564-fdc81fd12d95"
	 xmlns="http://www.w3.org/2000/svg" xmlns:xlink="http://www.w3.org/1999/xlink" x="0px" y="0px" viewBox="0 0 176.2 122.2"
	 style="enable-background:new 0 0 176.2 122.2;" xml:space="preserve">
<style type="text/css">
	.st0{fill:#D22300;}
	.st1{fill:#FFFFFF;}
	.st2{fill:#2A2A2A;}
	.st3{fill:#C8C8C8;}
	.st4{fill:#939393;}
	.st5{fill:#414141;}
	.st6{fill:#8A8A8A;}
	.st7{fill:#528243;}
	.st8{fill:#5B9445;}
	.st9{fill:#78B854;}
	.st10{fill:#BEFB7B;}
</style>
<title>tuto</title>
<circle class="st0" cx="61.1" cy="61.1" r="61.1"/>
<circle class="st1" cx="61.1" cy="61.1" r="50.1"/>
<path class="st2" d="M97.4,76.3v-0.1l0,0c-0.2-1.4-1-2.6-2.3-3.2L58.7,52c-3.5-1.8-7.6-1.8-11.1,0L25.4,64.9
	c-1.6,0.9-2.3,2.2-2.3,3.4V71c-0.1,1.2,0.7,2.5,2.3,3.4l36.4,21c3.5,1.8,7.6,1.8,11.1,0l22.2-12.9c1.3-0.6,2.2-1.8,2.3-3.3V76.3z
	 M54.4,52.8l3.2,1.8c-1.6-0.6-3.2-0.9-4.9-0.8L54.4,52.8z"/>
<polygon class="st3" points="58.7,55.2 58.9,87.1 27,68.7 54.5,52.8 "/>
<polygon class="st4" points="91.2,74 63.8,89.9 27,68.7 54.5,52.8 27,68.7 58.9,87.1 58.7,55.2 "/>
<path class="st5" d="M95.1,73c3.1,1.8,3.1,4.7,0,6.4l-22.2,13c-3.5,1.8-7.6,1.8-11.1,0l-36.4-21c-3.1-1.8-3.1-4.7,0-6.4l22.2-13
	c3.5-1.8,7.6-1.8,11.1,0L95.1,73z M63.8,89.9L91.2,74L58.7,55.2l-4.2-2.4L27,68.7L63.8,89.9z M79,85.1c1.1,0.6,2.5,0.6,3.6,0
	c0.6-0.2,0.9-0.8,0.7-1.4c-0.1-0.3-0.4-0.6-0.7-0.7c-1.1-0.6-2.5-0.5-3.6,0C78,83.6,78,84.5,79,85.1L79,85.1z"/>
<path class="st6" d="M82.6,83c0.6,0.2,0.9,0.8,0.7,1.4c-0.1,0.3-0.4,0.6-0.7,0.7c-1.1,0.6-2.5,0.6-3.6,0c-1-0.6-1-1.5,0-2.1
	C80.1,82.4,81.4,82.4,82.6,83z"/>
<path class="st7" d="M42.8,69.5c0,2.6,7.9,4.6,17.3,4.6c7.4,0,13.8-1.3,16.1-3.1l-6-39.3c-0.1-0.9-0.9-1.5-1.8-1.3L39,34.8
	c-0.9,0.1-1.5,1-1.3,1.8l4.9,32C42.6,68.9,42.7,69.2,42.8,69.5z"/>
<path class="st8" d="M60,74.3c9.5,0,17.2-2.1,17.2-4.7l0,0l0.1-1.3v0.1l2-32.8c0.1-0.9-0.6-1.6-1.5-1.7c0,0,0,0,0,0l-29.7-1.9
	c-0.9-0.1-1.6,0.6-1.7,1.5L44,71.3C46.6,73,52.8,74.3,60,74.3z"/>
<path class="st9" d="M60,74.3c9,0,16.4-1.9,17.1-4.4V36.4c0-0.9-0.7-1.6-1.6-1.6c0,0,0,0,0,0H44.8c-0.9,0-1.7,0.7-1.7,1.6v0v34.1
	C44.8,72.7,51.7,74.3,60,74.3z"/>
<path class="st10" d="M60,74.3c4.6,0.1,9.2-0.5,13.6-1.9V42.6c-0.5,0.4-1.2,0.6-1.8,0.6c-1.8,0-3.3-1.5-3.3-3.3
	c0-0.7,0.2-1.4,0.6-1.9H51.7c1,1.5,0.6,3.6-0.9,4.6c-1.3,0.9-3,0.7-4.1-0.3v30.3C51,73.8,55.5,74.4,60,74.3z"/>
<path class="st9" d="M60.2,49.9c6.5,0,11.8,4.2,11.8,9.5s-5.3,9.5-11.8,9.5s-11.8-4.3-11.8-9.5S53.7,49.9,60.2,49.9z"/>
<path class="st9" d="M60.1,40.9c1.7,0,3,1.3,3,3s-1.3,3-3,3s-3-1.3-3-3S58.5,40.9,60.1,40.9z"/>
<path class="st10" d="M70.3,59.2c0,0.7-0.6,1.4-1.3,1.4h-0.3c0,1.3-0.4,2.6-1,3.8c-0.3,0.5-0.9,0.6-1.3,0.4l-1.7-0.7
	c-0.6-0.2-0.8-0.9-0.6-1.5c0,0,0,0,0-0.1c0.3-0.6,0.5-1.3,0.6-2h-2.8c-1,2-2.4,4-4.9,4c-2.3-0.1-4.3-1.7-4.7-4h-0.7
	c-0.8,0-1.4-0.6-1.4-1.4s0.6-1.4,1.4-1.4H52c0.1-1,0.4-2.1,0.8-3c0.3-0.5,0.9-0.8,1.5-0.5l1.7,0.8c0.3,0.1,0.5,0.4,0.6,0.6
	c0.1,0.3,0.1,0.6-0.1,0.9c-0.2,0.4-0.3,0.8-0.4,1.2h2.2c1-1.9,2.5-4,5.1-4c2.4,0,4.5,1.6,5,4H69C69.8,57.8,70.4,58.4,70.3,59.2
	C70.4,59.2,70.4,59.2,70.3,59.2z M67.5,59.4H69c0.1,0,0.2-0.1,0.2-0.2c0-0.1-0.1-0.2-0.2-0.2c0,0,0,0,0,0h-1.6l-0.1-0.5
	c-0.5-2.3-1.9-3.5-3.9-3.5s-3.4,1.9-4.2,3.6L59,59h-0.4h-3.8v-0.6c0-0.8,0.2-1.6,0.6-2.3l-1.6-0.7c-0.4,0.9-0.7,2-0.7,3V59h-1.6
	c-0.1,0-0.2,0.1-0.2,0.2c0,0,0,0,0,0c0,0.1,0.1,0.2,0.2,0.2l0,0h1.6l0.1,0.5c0.4,2.2,1.9,3.5,3.7,3.5s3-1.8,3.9-3.5l0.2-0.4h0.4h4.3
	v0.6c0,0.1,0,0.1,0,0.2c0,1-0.3,2-0.7,2.8l1.6,0.7c0.5-1.1,0.8-2.3,0.8-3.5L67.5,59.4z M66.2,59h-5.3l1.4-1c0.4-0.3,0.9-0.5,1.4-0.4
	c0.5,0,0.9,0.1,1.3,0.4L66.2,59z M59.1,59.4l-1.2,1c-0.3,0.3-0.8,0.5-1.2,0.4c-0.4,0-0.8-0.2-1.1-0.4l-1.1-1L59.1,59.4z"/>
<path class="st1" d="M77.3,66.8v0.7c1.8,0.8,2.9,1.8,2.9,2.9c0,3-8.9,5.5-19.9,5.5s-19.9-2.5-19.9-5.5c0-0.9,0.8-1.7,2.1-2.5
	l-0.1-0.6c-1.6,0.9-2.6,1.9-2.6,3.1c0,4,10.6,6.1,20.5,6.1s20.6-2.2,20.6-6.1C80.8,68.9,79.5,67.7,77.3,66.8z"/>
<path class="st1" d="M77.2,68.2l-0.1,1.3l0,0c0,2.6-7.7,4.7-17.2,4.7s-17.2-2.1-17.2-4.7l-0.2-1.2c-0.2,0.3-0.4,0.7-0.4,1.2
	c0,3.5,9.2,5.3,17.8,5.3s17.8-1.8,17.8-5.3C77.7,69,77.5,68.6,77.2,68.2z"/>
<path class="st9" d="M60,74.3c1,0,2,0,3-0.1c-0.5-1.6-2.2-2.5-3.7-2c-1,0.3-1.7,1-2,2C58.1,74.3,59,74.3,60,74.3z"/>
<path class="st0" d="M146.2,38.1h26.6v10h-18l-1.4,6.2c2.6-1.9,5.5-2.2,8.6-2.2c7.9,0,14.1,4.8,14.1,13.1c0,11.5-9.1,15.2-18.6,15.2
	c-9.1,0-14.9-4.1-17.3-11.7l12.3-1.2c0,0.1,0.1,0.3,0.1,0.4c0.7,2.2,3.1,3.4,5.3,3.4c3.6,0,5.9-2.4,5.9-5.5c0-3.4-1.6-6-5.4-6
	c-1.8,0-4,0.5-4.9,2.3l-11.5-0.4L146.2,38.1z"/>
</svg>
