<?xml version="1.0" encoding="utf-8"?>
<!-- Generator: Adobe Illustrator 22.1.0, SVG Export Plug-In . SVG Version: 6.00 Build 0)  -->
<svg version="1.1" id="_x36_5857fad-6a82-4698-bf92-604184fdf45d"
	 xmlns="http://www.w3.org/2000/svg" xmlns:xlink="http://www.w3.org/1999/xlink" x="0px" y="0px" viewBox="0 0 192.2 122.2"
	 style="enable-background:new 0 0 192.2 122.2;" xml:space="preserve">
<style type="text/css">
	.st0{fill:#ECBF3F;}
	.st1{fill:#FFFFFF;}
	.st2{fill:#999395;}
	.st3{fill:#333333;}
	.st4{fill:#316D38;}
	.st5{fill:#D22300;}
	.st6{fill:#E08000;}
	.st7{fill:#E3E3DF;}
</style>
<title>tuto</title>
<circle class="st0" cx="131.1" cy="61.1" r="61.1"/>
<circle class="st1" cx="131.6" cy="61.3" r="50.1"/>
<path class="st2" d="M157.9,36.5c-0.1,0-0.2,0-0.3,0l-3.7-1c-0.7-0.2-1-0.9-0.8-1.6c0.2-0.6,0.8-1,1.5-0.8l3.7,1
	c0.7,0.2,1.1,0.9,0.9,1.5c0,0,0,0,0,0C159,36.1,158.5,36.5,157.9,36.5"/>
<path class="st2" d="M144.8,97.9H117c-2.1,0-3.8-1.7-3.8-3.8v0V65h35.4v29.1C148.6,96.2,146.9,97.9,144.8,97.9"/>
<path class="st3" d="M148.6,65h-35.4c-2.1,0-3.8-1.7-3.8-3.8c0-2.1,1.7-3.8,3.8-3.8h35.4c2.1,0,3.8,1.7,3.8,3.8
	C152.4,63.3,150.7,65,148.6,65"/>
<polygon class="st4" points="125.8,57.4 136,57.4 136,35.8 125.8,35.8 "/>
<path class="st2" d="M130.9,24.5l-1.9,2.4c-2,2.6-3.2,5.7-3.2,9H136c0-3.3-1.1-6.4-3.2-9L130.9,24.5z"/>
<polygon class="st3" points="150.3,48.9 140.6,46.3 144.5,31.6 154.3,34.2 "/>
<path class="st3" d="M157.1,48.1l-1.2-0.3c-0.7-0.2-1.1-0.9-0.9-1.6l3.6-13.5c0.2-0.7,0.9-1.1,1.5-0.9c0,0,0,0,0,0l1.2,0.3
	c0.7,0.2,1.1,0.9,0.9,1.5c0,0,0,0,0,0l-3.6,13.5C158.5,47.9,157.8,48.3,157.1,48.1C157.1,48.1,157.1,48.1,157.1,48.1"/>
<path class="st2" d="M154.3,34.2l-9.8-2.6l1-3.7c0.2-0.7,0.8-1.1,1.5-0.9c0,0,0,0,0,0l7.3,2c0.7,0.2,1.1,0.9,0.9,1.5c0,0,0,0,0,0
	L154.3,34.2z"/>
<path class="st5" d="M116.8,34.5l-9.8,2.6l-0.7-2.5c-0.9-2.6,0.5-5.5,3.2-6.4c2.6-0.9,5.5,0.5,6.4,3.2c0.1,0.2,0.1,0.4,0.2,0.6
	L116.8,34.5z"/>
<path class="st6" d="M113.2,57.4h9.7l-6.1-22.9l-9.8,2.6l5.5,20.4C112.7,57.4,113,57.4,113.2,57.4"/>
<polygon class="st2" points="146.8,57.4 149.1,48.6 141.8,46.6 138.9,57.4 "/>
<polygon class="st7" points="125.8,89 148.6,89 148.6,73.8 125.8,73.8 "/>
<polygon class="st2" points="130.9,80.2 148.6,80.2 148.6,77.6 130.9,77.6 "/>
<polygon class="st2" points="133.4,85.2 148.6,85.2 148.6,82.7 133.4,82.7 "/>
<path class="st0" d="M0,61.1l19.4-23h11.4v23.7h5.2v9.1h-5.2v8.7H19.1v-8.6H0V61.1z M9.2,61.8h9.9V49.2L9.2,61.8z"/>
</svg>
