<?xml version="1.0" encoding="utf-8"?>
<!-- Generator: Adobe Illustrator 22.1.0, SVG Export Plug-In . SVG Version: 6.00 Build 0)  -->
<svg version="1.1" id="_x38_185ba5d-cd8b-489e-b47f-b4200c87a45c"
	 xmlns="http://www.w3.org/2000/svg" xmlns:xlink="http://www.w3.org/1999/xlink" x="0px" y="0px" viewBox="0 0 168.1 122.2"
	 style="enable-background:new 0 0 168.1 122.2;" xml:space="preserve">
<style type="text/css">
	.st0{fill:#316D38;}
	.st1{fill:#FFFFFF;}
	.st2{fill:#999395;}
	.st3{fill:#333333;}
	.st4{fill:#E3E3DF;}
	.st5{fill:#E08000;}
</style>
<title>tuto</title>
<circle class="st0" cx="61.1" cy="61.1" r="61.1"/>
<circle class="st1" cx="61.1" cy="61.1" r="50.1"/>
<path class="st2" d="M77.4,40.3h-7.3c-1,0-1.8,0.8-1.8,1.8c0,0,0,0,0,0v7.3c0,1,0.8,1.8,1.8,1.8c0,0,0,0,0.1,0h7.3
	c1,0,1.8-0.8,1.8-1.8c0,0,0,0,0,0v-7.3C79.2,41.1,78.4,40.3,77.4,40.3C77.4,40.3,77.4,40.3,77.4,40.3z"/>
<path class="st3" d="M86.5,53v31.1H31.8V53c0-3,2.4-5.4,5.4-5.4c0,0,0,0,0,0h43.8C84.1,47.5,86.5,50,86.5,53
	C86.5,53,86.5,53,86.5,53z"/>
<path class="st4" d="M77.4,69.4H62.9c-1,0-1.8-0.8-1.8-1.8c0,0,0,0,0,0V56.7c0-1,0.8-1.8,1.8-1.8c0,0,0,0,0,0h14.5
	c1,0,1.8,0.8,1.8,1.8c0,0,0,0,0,0v10.9C79.2,68.5,78.4,69.4,77.4,69.4C77.4,69.4,77.4,69.4,77.4,69.4z"/>
<path class="st4" d="M44.5,62.1h-3.6c-1,0-1.8-0.8-1.8-1.8c0-1,0.8-1.8,1.8-1.8h3.6c1,0,1.8,0.8,1.8,1.8
	C46.3,61.3,45.5,62.1,44.5,62.1C44.5,62.1,44.5,62.1,44.5,62.1z"/>
<path class="st4" d="M44.5,69.4h-3.6c-1,0.1-1.9-0.7-1.9-1.7s0.7-1.9,1.7-1.9c0.1,0,0.2,0,0.3,0h3.6c1-0.1,1.9,0.7,1.9,1.7
	s-0.7,1.9-1.7,1.9C44.7,69.4,44.6,69.4,44.5,69.4z"/>
<path class="st4" d="M55.4,62.1h-3.6c-1,0-1.8-0.8-1.8-1.8c0-1,0.8-1.8,1.8-1.8c0,0,0,0,0,0h3.6c1,0,1.8,0.8,1.8,1.8
	C57.2,61.3,56.4,62.1,55.4,62.1z"/>
<path class="st4" d="M55.4,69.4h-3.6c-1,0.1-1.9-0.7-1.9-1.7s0.7-1.9,1.7-1.9c0.1,0,0.2,0,0.3,0h3.6c1,0.1,1.8,0.9,1.7,1.9
	C57,68.6,56.3,69.3,55.4,69.4z"/>
<path class="st5" d="M56.1,29.5c-0.7-0.3-1.5-0.2-2,0.4l-2.4,2.3l-2.4-2.3c-0.7-0.7-1.8-0.7-2.5-0.1c0,0,0,0-0.1,0.1l-2.4,2.3
	l-2.4-2.3c-0.5-0.6-1.3-0.7-2-0.4c-0.7,0.3-1.1,0.9-1.1,1.7v23.6h18.2V31.2C57.2,30.5,56.8,29.8,56.1,29.5z"/>
<path class="st2" d="M84.7,76.6H33.6c-3,0-5.4,2.4-5.5,5.4c0,0,0,0,0,0v7.5c0,1,0.8,1.8,1.8,1.8c0,0,0.1,0,0.1,0h58.3
	c1,0,1.8-0.8,1.8-1.8c0,0,0,0,0,0v-7.5C90.1,79.1,87.7,76.6,84.7,76.6C84.7,76.6,84.7,76.6,84.7,76.6z"/>
<path class="st0" d="M72,76.6v5.4c0,3.1-2.4,5.6-5.4,5.7H51.8c-3.1-0.1-5.5-2.6-5.5-5.7v-5.4H72z"/>
<path class="st3" d="M81.1,29.4H66.5c-3,0-5.4,2.4-5.5,5.4c0,0,0,0,0,0v3.6c0,3,2.4,5.4,5.4,5.5c0,0,0,0,0,0h14.5
	c3,0,5.4-2.4,5.4-5.4c0,0,0,0,0,0v-3.6C86.5,31.8,84.1,29.4,81.1,29.4C81.1,29.4,81.1,29.4,81.1,29.4z"/>
<path class="st0" d="M66.5,40.3c-1,0-1.8-0.8-1.8-1.8v-3.6c0-1,0.8-1.8,1.8-1.8c0,0,0,0,0,0h14.5c1,0,1.8,0.8,1.8,1.8v3.6
	c0,1-0.8,1.8-1.8,1.8L66.5,40.3z"/>
<path class="st0" d="M168.1,79.6h-12.2V55.4h-9.6v-8.3c6.5-0.1,11.2-2.3,12.5-9.5h9.3V79.6z"/>
</svg>
