<?xml version="1.0" encoding="utf-8"?>
<!-- Generator: Adobe Illustrator 22.1.0, SVG Export Plug-In . SVG Version: 6.00 Build 0)  -->
<svg version="1.1" id="_x33_5b67ac7-69ce-4052-b773-a27d3cc3f458"
	 xmlns="http://www.w3.org/2000/svg" xmlns:xlink="http://www.w3.org/1999/xlink" x="0px" y="0px" viewBox="0 0 176.1 122.2"
	 style="enable-background:new 0 0 176.1 122.2;" xml:space="preserve">
<style type="text/css">
	.st0{fill:#8DB14C;}
	.st1{fill:#FFFFFF;}
	.st2{fill:#E08000;}
	.st3{fill:#EEF1F8;}
	.st4{fill:#999395;}
	.st5{fill:#333333;}
	.st6{fill:#316D38;}
	.st7{fill:#D22300;}
</style>
<title>tuto</title>
<circle class="st0" cx="115" cy="61.1" r="61.1"/>
<path class="st1" d="M115,111.2c-27.6,0-50.1-22.4-50.1-50c0-27.6,22.4-50.1,50-50.1s50.1,22.4,50.1,50c0,0,0,0,0,0.1
	C165,88.7,142.6,111.1,115,111.2z"/>
<path class="st2" d="M122.1,92.4h-16.4c-0.9,0-1.7-0.7-1.7-1.6c0,0,0,0,0,0V30.6c0-0.9,0.7-1.6,1.6-1.6c0,0,0,0,0,0h16.5
	c0.9,0,1.6,0.7,1.6,1.6c0,0,0,0,0,0v60.2C123.7,91.7,123,92.4,122.1,92.4z"/>
<path class="st3" d="M119.4,67.2h-10.9c-0.6,0-1.1-0.5-1.1-1.1c0,0,0,0,0,0V38.8c0-0.6,0.5-1.1,1.1-1.1h10.9c0.6,0,1.1,0.5,1.1,1.1
	v27.4C120.5,66.7,120,67.2,119.4,67.2C119.4,67.2,119.4,67.2,119.4,67.2z"/>
<path class="st4" d="M117.2,47.5h-6.6c-0.6,0.1-1.1-0.4-1.2-1s0.4-1.1,1-1.2c0.1,0,0.1,0,0.2,0h6.6c0.6-0.1,1.1,0.4,1.2,1
	s-0.4,1.1-1,1.2C117.3,47.5,117.2,47.5,117.2,47.5z"/>
<path class="st4" d="M117.2,51.9h-6.6c-0.6,0.1-1.1-0.4-1.2-1s0.4-1.1,1-1.2c0.1,0,0.1,0,0.2,0h6.6c0.6-0.1,1.1,0.4,1.2,1
	s-0.4,1.1-1,1.2C117.3,51.9,117.2,51.9,117.2,51.9z"/>
<path class="st4" d="M117.2,56.3h-6.6c-0.6,0.1-1.1-0.4-1.2-1s0.4-1.1,1-1.2c0.1,0,0.1,0,0.2,0h6.6c0.6-0.1,1.1,0.4,1.2,1
	s-0.4,1.1-1,1.2C117.3,56.3,117.2,56.3,117.2,56.3z"/>
<path class="st4" d="M117.2,65h-6.6c-0.6,0.1-1.1-0.4-1.2-1c-0.1-0.6,0.4-1.1,1-1.2c0.1,0,0.1,0,0.2,0h6.6c0.6-0.1,1.1,0.4,1.2,1
	s-0.4,1.1-1,1.2C117.3,65,117.2,65,117.2,65z"/>
<rect x="107.3" y="58.5" class="st4" width="13.1" height="2.2"/>
<path class="st4" d="M120.5,42h-13.1v-4.4c0-0.6,0.5-1.1,1.1-1.1c0,0,0,0,0,0h10.9c0.6,0,1.1,0.5,1.1,1.1c0,0,0,0,0,0V42z"/>
<circle class="st5" cx="113.9" cy="77.1" r="2.7"/>
<path class="st3" d="M113.9,82c-2.7,0-4.9-2.2-4.9-4.9c0-2.7,2.2-4.9,4.9-4.9s4.9,2.2,4.9,4.9c0,0,0,0,0,0
	C118.8,79.8,116.6,82,113.9,82z M113.9,74.3c-1.5,0-2.7,1.2-2.7,2.7c0,1.5,1.2,2.7,2.7,2.7c1.5,0,2.7-1.2,2.7-2.7c0,0,0,0,0,0
	C116.6,75.6,115.4,74.3,113.9,74.3z"/>
<path class="st6" d="M141.8,92.4h-16.4c-0.9,0-1.6-0.7-1.6-1.6V30.6c0-0.9,0.7-1.6,1.6-1.6h16.4c0.9,0,1.6,0.7,1.6,1.6c0,0,0,0,0,0
	v60.2C143.4,91.7,142.7,92.4,141.8,92.4z"/>
<path class="st3" d="M139.1,67.2h-10.9c-0.6,0-1.1-0.5-1.1-1.1c0,0,0,0,0,0V38.8c0-0.6,0.5-1.1,1.1-1.1h10.9c0.6,0,1.1,0.5,1.1,1.1
	v0v27.4C140.2,66.7,139.7,67.2,139.1,67.2C139.1,67.2,139.1,67.2,139.1,67.2z"/>
<path class="st4" d="M136.9,47.5h-6.6c-0.6,0.1-1.1-0.4-1.2-1s0.4-1.1,1-1.2c0.1,0,0.1,0,0.2,0h6.6c0.6-0.1,1.1,0.4,1.2,1
	s-0.4,1.1-1,1.2C137,47.5,136.9,47.5,136.9,47.5z"/>
<path class="st4" d="M136.9,51.9h-6.6c-0.6,0.1-1.1-0.4-1.2-1s0.4-1.1,1-1.2c0.1,0,0.1,0,0.2,0h6.6c0.6-0.1,1.1,0.4,1.2,1
	s-0.4,1.1-1,1.2C137,51.9,136.9,51.9,136.9,51.9z"/>
<path class="st4" d="M136.9,56.3h-6.6c-0.6,0.1-1.1-0.4-1.2-1s0.4-1.1,1-1.2c0.1,0,0.1,0,0.2,0h6.6c0.6-0.1,1.1,0.4,1.2,1
	c0.1,0.6-0.4,1.1-1,1.2C137,56.3,136.9,56.3,136.9,56.3z"/>
<path class="st4" d="M136.9,65h-6.6c-0.6,0.1-1.1-0.4-1.2-1c-0.1-0.6,0.4-1.1,1-1.2c0.1,0,0.1,0,0.2,0h6.6c0.6-0.1,1.1,0.4,1.2,1
	c0.1,0.6-0.4,1.1-1,1.2C137,65,136.9,65,136.9,65z"/>
<rect x="127" y="58.5" class="st4" width="13.1" height="2.2"/>
<path class="st4" d="M140.2,42H127v-4.4c0-0.6,0.5-1.1,1.1-1.1c0,0,0,0,0,0H139c0.6,0,1.1,0.5,1.1,1.1c0,0,0,0,0,0L140.2,42
	L140.2,42z"/>
<circle class="st5" cx="133.6" cy="77.1" r="2.7"/>
<path class="st3" d="M133.6,82c-2.7,0-4.9-2.2-4.9-4.9s2.2-4.9,4.9-4.9s4.9,2.2,4.9,4.9c0,0,0,0,0,0C138.5,79.8,136.3,82,133.6,82z
	 M133.6,74.3c-1.5,0-2.7,1.2-2.7,2.7s1.2,2.7,2.7,2.7c1.5,0,2.7-1.2,2.7-2.7S135.1,74.3,133.6,74.3L133.6,74.3z"/>
<path class="st7" d="M102.4,92.4H86c-0.9,0-1.6-0.7-1.6-1.6V30.6c0-0.9,0.7-1.6,1.6-1.6c0,0,0,0,0,0h16.4c0.9,0,1.6,0.7,1.6,1.6
	v60.2C104,91.6,103.3,92.4,102.4,92.4z"/>
<path class="st3" d="M99.7,67.2H88.7c-0.6,0-1.1-0.5-1.1-1.1c0,0,0,0,0,0V38.8c0-0.6,0.5-1.1,1.1-1.1h10.9c0.6,0,1.1,0.5,1.1,1.1
	v27.4C100.8,66.7,100.3,67.2,99.7,67.2C99.7,67.2,99.7,67.2,99.7,67.2z"/>
<path class="st4" d="M97.5,47.5h-6.6c-0.6,0.1-1.1-0.4-1.2-1s0.4-1.1,1-1.2c0.1,0,0.1,0,0.2,0h6.6c0.6-0.1,1.1,0.4,1.2,1
	s-0.4,1.1-1,1.2C97.6,47.5,97.5,47.5,97.5,47.5z"/>
<path class="st4" d="M97.5,51.9h-6.6c-0.6,0.1-1.1-0.4-1.2-1s0.4-1.1,1-1.2c0.1,0,0.1,0,0.2,0h6.6c0.6-0.1,1.1,0.4,1.2,1
	s-0.4,1.1-1,1.2C97.6,51.9,97.5,51.9,97.5,51.9z"/>
<path class="st4" d="M97.5,56.3h-6.6c-0.6,0.1-1.1-0.4-1.2-1s0.4-1.1,1-1.2c0.1,0,0.1,0,0.2,0h6.6c0.6-0.1,1.1,0.4,1.2,1
	s-0.4,1.1-1,1.2C97.6,56.3,97.5,56.3,97.5,56.3z"/>
<path class="st4" d="M97.5,65h-6.6c-0.6,0.1-1.1-0.4-1.2-1c-0.1-0.6,0.4-1.1,1-1.2c0.1,0,0.1,0,0.2,0h6.6c0.6-0.1,1.1,0.4,1.2,1
	s-0.4,1.1-1,1.2C97.6,65,97.5,65,97.5,65z"/>
<rect x="87.6" y="58.5" class="st4" width="13.1" height="2.2"/>
<path class="st4" d="M100.8,42H87.6v-4.4c0-0.6,0.5-1.1,1.1-1.1c0,0,0,0,0,0h10.9c0.6,0,1.1,0.5,1.1,1.1c0,0,0,0,0,0V42z"/>
<circle class="st5" cx="94.2" cy="77.1" r="2.7"/>
<path class="st3" d="M94.2,82c-2.7,0-4.9-2.2-4.9-4.9c0-2.7,2.2-4.9,4.9-4.9c2.7,0,4.9,2.2,4.9,4.9c0,0,0,0,0,0
	C99.1,79.8,96.9,82,94.2,82z M94.2,74.3c-1.5,0-2.7,1.2-2.7,2.7c0,1.5,1.2,2.7,2.7,2.7c1.5,0,2.7-1.2,2.7-2.7c0,0,0,0,0,0
	C96.9,75.6,95.7,74.3,94.2,74.3z"/>
<path class="st0" d="M0,79.6c-0.2-4.8,1.7-8.3,5-11.8c6.9-7.2,17.8-10.1,17.8-16.9c0-2.7-2.5-4.2-5-4.2c-4.7,0-6.1,3.9-6,7.9h-11
	C1,42.5,7.6,37.5,18.4,37.5C27,37.5,35,41.3,35,50.9c0,7.3-5.6,10.3-11,13.6c-3,1.9-6.2,3.5-8.4,5h19.2v10H0z"/>
</svg>
