<?xml version="1.0" encoding="utf-8"?>
<!-- Generator: Adobe Illustrator 22.1.0, SVG Export Plug-In . SVG Version: 6.00 Build 0)  -->
<svg version="1.1" id="_x38_5b8107c-20c8-4df4-89e2-6e50804b6288"
	 xmlns="http://www.w3.org/2000/svg" xmlns:xlink="http://www.w3.org/1999/xlink" x="0px" y="0px" viewBox="0 0 179.4 122.2"
	 style="enable-background:new 0 0 179.4 122.2;" xml:space="preserve">
<style type="text/css">
	.st0{fill:#E08000;}
	.st1{fill:#FFFFFF;}
	.st2{fill:#999395;}
	.st3{fill:#316D38;}
</style>
<title>tuto</title>
<path class="st0" d="M122.2,61.1c0,33.8-27.4,61.1-61.1,61.1S0,94.9,0,61.1S27.3,0,61.1,0c0,0,0,0,0,0C94.9,0,122.2,27.4,122.2,61.1
	L122.2,61.1z"/>
<path class="st1" d="M61.1,111.2c-27.6,0-50.1-22.4-50.1-50s22.4-50.1,50-50.1s50.1,22.4,50.1,50c0,0,0,0,0,0
	C111.1,88.7,88.7,111.1,61.1,111.2z"/>
<path class="st2" d="M89.4,48.1c0.2-1,0.2-1.9,0.2-2.9c0-9.2-7.4-16.6-16.5-16.6c-6.8,0-13,4.2-15.5,10.5
	c-5.9-5.5-15.1-5.2-20.6,0.6c-2.5,2.7-3.9,6.3-3.9,10c0,0.7,0.1,1.4,0.2,2.1c-0.7-0.1-1.4-0.2-2.1-0.2c-7,0-12.7,5.7-12.7,12.7
	S24.1,77,31.2,77h55.5c8.1,0.1,14.7-6.4,14.8-14.5C101.5,55.4,96.4,49.3,89.4,48.1L89.4,48.1z"/>
<polygon class="st3" points="51.5,93.4 68.2,93.4 68.2,72 77.4,72 59.8,51.3 42.3,72 51.5,72 "/>
<path class="st0" d="M155.8,65.2c-0.1,1.6,0.4,3.2,1.5,4.5c1.2,1.1,2.8,1.7,4.4,1.7c3.6,0,5.5-2.4,5.5-4.8c0-4.8-4.7-4.6-7.6-4.6
	v-7.2c2.9,0.2,7.3-0.3,7.3-4.2c0-2.7-2.4-3.7-4.8-3.7c-2.9,0-5,1.5-5.4,4.4h-11c0.4-9.5,8.1-13.6,16.8-13.6
	c9.8,0,15.9,4.5,15.9,11.6c0,3.8-1.5,6.5-4.8,8.2c3.6,1.3,6,4.8,5.9,8.6c0,9.7-7.2,14.5-18.4,14.5c-9.6,0-16.9-5-16.8-15.3H155.8z"
	/>
</svg>
