<svg xmlns="http://www.w3.org/2000/svg" viewBox="0 0 393 255.34"><defs><style>.f2f69b7c-1aee-4c71-8b05-3ecdcc46a000{isolation:isolate;}.\37 033073e-1163-40f2-a52c-83457d431ff3,.a8b98459-fb53-4736-8d00-d1301ef876f0{mix-blend-mode:multiply;}.\32 6e85030-094b-4a33-92a2-ecfaebb4f18d{fill:#414042;}.c6df7fea-2a26-4061-8705-96271b6d4a38{fill:#4f423a;}.\30 d4b61e6-619b-4be5-98a4-3897c629d1fe{fill:#fcd9b9;}.\38 d39b15f-c872-4b1c-aff9-90487b709cbb{fill:#6d6e71;}.a51bc9fe-f7eb-4473-89a6-cd4a256dacbd{fill:#f3f3f3;}.\31 6093e5a-4abe-49cf-baa3-41101cccba50{fill:#e97d84;}.\30 1b5cc18-766e-4641-a2c3-64dd4c292f16{fill:#e4e4e4;}.\37 b0d2061-41f7-4a5e-b50b-1a2632334f78{fill:#e19b02;}.\31 455b707-450b-4689-b179-a00c3506b35c{fill:#fdc44a;}.\35 148cd04-6695-43c0-9272-fa87ebc7f6a7{fill:#999395;}.bbec6859-2fea-4e3a-9ea5-ab3a6666aab3{fill:#f0f0f0;}.ac671bb6-6b87-4164-af75-027174be797f{fill:#b6d1c3;}.ff5a3195-0cd0-4131-a20b-2fd1e78f3e5f{fill:#533e29;}.a8b98459-fb53-4736-8d00-d1301ef876f0{fill:#e3e3df;}</style></defs><title>prop2</title><g class="f2f69b7c-1aee-4c71-8b05-3ecdcc46a000"><g id="cc1287c0-e220-4cac-914f-2515204b6213" data-name="Capa 1"><g class="7033073e-1163-40f2-a52c-83457d431ff3"><path class="26e85030-094b-4a33-92a2-ecfaebb4f18d" d="M380.27,144l-.29,1.35-.07-.07-2.26,9.19c.09.11.18.22.26.34l-7.41,33.74a38.21,38.21,0,0,1-4.74,2.75l.34.48-1,.43.18.28c-2.07.44-7.07,2-4.62,6.47a4.54,4.54,0,0,0,2.27,2.18c-8.78-2.74-30.21-8.23-61-8l1.33-30.75a42.23,42.23,0,0,0,7.35-13l5.79,1.81-2,9.6L330,168.4l16.49-6,.16-7.12,7.86-2,1.22-9.56,22.51,2.1s.15-.71.34-2h0Zm-48.88,30.5a2.08,2.08,0,1,0-2.62,1.33A2.09,2.09,0,0,0,331.39,174.54Zm-.63,9.48a2.08,2.08,0,1,0-2.62,1.34A2.08,2.08,0,0,0,330.76,184Z"/><path class="26e85030-094b-4a33-92a2-ecfaebb4f18d" d="M380,145.39c1.65,1.51,30.91,29.06-8.49,54l-.54-.77.52-.44-2.32-3.48,1.35-6.12c7.62-5.08,20.48-17,7.41-33.74Zm-2.49,48.38a.9.9,0,0,0,.43-1.21.91.91,0,0,0-1.63.79A.9.9,0,0,0,377.49,193.77Zm-2.57,1.84a.9.9,0,1,0-1.21-.42A.9.9,0,0,0,374.92,195.61Zm-2.49,1.8a.9.9,0,1,0-1.21-.42A.9.9,0,0,0,372.43,197.41Z"/><path class="26e85030-094b-4a33-92a2-ecfaebb4f18d" d="M380,145.39l-2.07,9.46c-.08-.12-.17-.23-.26-.34l2.26-9.19Z"/><path class="c6df7fea-2a26-4061-8705-96271b6d4a38" d="M377.85,73.35c33-.67,1.89,69.38.79,70.49l0,0c1.73-10.91,7.89-62.41-26.91-70-15.76-3.46-26.19,1.85-33.09,10.72-20.3-13-13.93-34.85-13.93-34.85,16.78,22.63,22.85-2.9,52,3.5C377.48,57.71,377.85,73.35,377.85,73.35Z"/><path class="c6df7fea-2a26-4061-8705-96271b6d4a38" d="M351.7,73.77c34.8,7.64,28.64,59.14,26.91,70.05C371.84,136,366.73,115,366.73,115s7.8,3.07,6.64-5.38c-1-7.35-8-.66-8-.66l-.11-15.16c-23,.58-37.54-3.46-46.68-9.31C325.51,75.62,335.94,70.31,351.7,73.77Z"/><path class="0d4b61e6-619b-4be5-98a4-3897c629d1fe" d="M378.61,143.82v0l-22.51-2.73L311,136.34l-5.73-.55c0-9.21,1.25-35.73,13.37-51.3,9.14,5.85,23.7,9.89,46.68,9.31L365.4,109s7-6.69,8,.66c1.16,8.45-6.64,5.38-6.64,5.38S371.84,136,378.61,143.82Zm-25.95-33.37c.39-2.83-.48-5.3-1.94-5.51s-3,1.94-3.37,4.77.47,5.3,1.94,5.51S352.27,113.29,352.66,110.45ZM331,132.71c12.75,1.83,12.41-10.11,12.41-10.11s-13.36-3.37-22.16-2.54C321.25,120.06,318.11,130.87,331,132.71Zm-10.88-27.09c.4-2.83-.47-5.29-1.94-5.5s-3,1.94-3.37,4.77.48,5.3,1.95,5.51S319.73,108.46,320.12,105.62Z"/><path class="26e85030-094b-4a33-92a2-ecfaebb4f18d" d="M356.1,141.11l22.51,2.73c-.19,1.29-.34,2-.34,2l-22.51-2.1Z"/><path class="8d39b15f-c872-4b1c-aff9-90487b709cbb" d="M377.92,192.56a.91.91,0,0,1-1.63.79.91.91,0,0,1,1.63-.79Z"/><path class="8d39b15f-c872-4b1c-aff9-90487b709cbb" d="M375.34,194.41a.89.89,0,0,1-.42,1.2.9.9,0,0,1-1.21-.42.9.9,0,0,1,1.63-.78Z"/><path class="8d39b15f-c872-4b1c-aff9-90487b709cbb" d="M372.85,196.21a.9.9,0,1,1-1.21-.42A.9.9,0,0,1,372.85,196.21Z"/><polygon class="26e85030-094b-4a33-92a2-ecfaebb4f18d" points="369.15 194.71 371.47 198.19 370.95 198.63 368.92 195.79 369.15 194.71"/><path class="a51bc9fe-f7eb-4473-89a6-cd4a256dacbd" d="M371,198.63l-1,.87-.11-.16c.27-.19.42-.32.42-.32l-1.49-2.43.18-.8Z"/><path class="26e85030-094b-4a33-92a2-ecfaebb4f18d" d="M370.5,188.59l-1.35,6.12-2.17-3.3-.88.41-.34-.48A38.21,38.21,0,0,0,370.5,188.59Z"/><path class="a51bc9fe-f7eb-4473-89a6-cd4a256dacbd" d="M368.74,196.59l1.49,2.43s-.15.13-.42.32l-1.26-1.9Z"/><path class="0d4b61e6-619b-4be5-98a4-3897c629d1fe" d="M368.55,197.44l1.26,1.9a12,12,0,0,1-1.94,1.21Z"/><polygon class="26e85030-094b-4a33-92a2-ecfaebb4f18d" points="366.98 191.41 369.15 194.71 368.92 195.79 366.1 191.82 366.98 191.41"/><path class="a51bc9fe-f7eb-4473-89a6-cd4a256dacbd" d="M366.1,191.82l2.82,4-.18.8-2.56-4.22s-.33,0-.86.16l-.18-.28Z"/><path class="a51bc9fe-f7eb-4473-89a6-cd4a256dacbd" d="M366.18,192.37l2.56,4.22-.19.85-3.23-4.91C365.85,192.42,366.18,192.37,366.18,192.37Z"/><path class="26e85030-094b-4a33-92a2-ecfaebb4f18d" d="M365.58,218.74l3.11,26.19s-24.14,5.48-16.31-3.33c5.83-6.58,11.12,1,11.12,1l-4.59-23.4-.48-12.59c-28.45.81-47.52-5-47.52-5l-.52,15.9,3.7,25.44s-21.6,6.17-17.2-2.92c3.12-6.44,11.39-1.74,11.39-1.74l-3.76-19.83L302,193.23s6.51,3.32,19.45,5.74c5.41,1.12,13.74,2.1,13.74,2.1,8.52.85,20.11,1.57,32.26,1.66Z"/><path class="0d4b61e6-619b-4be5-98a4-3897c629d1fe" d="M365.32,192.53l3.23,4.91-.68,3.11a6.53,6.53,0,0,1-4.36.81h0l-.39-.13a.28.28,0,0,1-.12,0A4.54,4.54,0,0,1,360.7,199C358.25,194.54,363.25,193,365.32,192.53Z"/><path class="26e85030-094b-4a33-92a2-ecfaebb4f18d" d="M367.87,200.55l-.47,2.16s-1.33-.53-3.89-1.35A6.53,6.53,0,0,0,367.87,200.55Z"/><path class="26e85030-094b-4a33-92a2-ecfaebb4f18d" d="M367.4,202.71v0c-12.15-.09-23.74-.81-32.26-1.66,0,0-8.33-1-13.74-2.1-12.94-2.42-19.45-5.74-19.45-5.74v0c30.81-.26,52.24,5.23,61,8a.28.28,0,0,0,.12,0,3,3,0,0,0,.39.13h0C366.07,202.18,367.4,202.71,367.4,202.71Z"/><path class="0d4b61e6-619b-4be5-98a4-3897c629d1fe" d="M363.09,201.22l.39.13A3,3,0,0,1,363.09,201.22Z"/><polygon class="8d39b15f-c872-4b1c-aff9-90487b709cbb" points="356.1 141.11 355.76 143.75 353.76 143.56 356.1 141.11"/><polygon class="a51bc9fe-f7eb-4473-89a6-cd4a256dacbd" points="356.1 141.11 353.76 143.56 335.12 141.83 334.92 141.31 328.76 140.89 328.5 141.22 313.02 139.77 310.97 136.34 356.1 141.11"/><polygon class="8d39b15f-c872-4b1c-aff9-90487b709cbb" points="355.76 143.75 354.54 153.3 346.68 155.27 346.52 162.39 330.03 168.41 335.91 162.27 335.91 162.24 353.76 143.56 355.76 143.75"/><polygon class="a51bc9fe-f7eb-4473-89a6-cd4a256dacbd" points="353.76 143.56 335.91 162.24 333.97 148.46 336.73 145.82 335.12 141.83 353.76 143.56"/><path class="c6df7fea-2a26-4061-8705-96271b6d4a38" d="M350.72,104.94c1.46.21,2.33,2.68,1.94,5.51s-1.9,5-3.37,4.77-2.34-2.66-1.94-5.51S349.25,104.75,350.72,104.94Z"/><path class="16093e5a-4abe-49cf-baa3-41101cccba50" d="M343.41,122.6s.34,11.94-12.41,10.11-9.75-12.65-9.75-12.65C330.05,119.23,343.41,122.6,343.41,122.6Z"/><polygon class="26e85030-094b-4a33-92a2-ecfaebb4f18d" points="335.12 141.83 336.73 145.82 333.97 148.46 335.91 162.24 330.03 168.41 324.96 159.89 324.96 159.88 328.51 148.04 326.02 144.2 328.5 141.22 335.12 141.83"/><polygon class="26e85030-094b-4a33-92a2-ecfaebb4f18d" points="330.03 168.41 335.91 162.24 335.91 162.27 330.03 168.41"/><polygon class="26e85030-094b-4a33-92a2-ecfaebb4f18d" points="334.92 141.31 335.12 141.83 328.5 141.22 328.76 140.89 334.92 141.31"/><path class="8d39b15f-c872-4b1c-aff9-90487b709cbb" d="M330.05,171.92a2.08,2.08,0,1,1-2.61,1.34A2.09,2.09,0,0,1,330.05,171.92Z"/><path class="8d39b15f-c872-4b1c-aff9-90487b709cbb" d="M329.42,181.41a2.08,2.08,0,1,1-2.62,1.33A2.08,2.08,0,0,1,329.42,181.41Z"/><path class="8d39b15f-c872-4b1c-aff9-90487b709cbb" d="M325,159.89,330,168.4l-15.62-7.54,2-9.6-5.79-1.81a40,40,0,0,0,1.81-6.39l-2.25-.45.38-3.06,2.45.22L325,159.88Z"/><polygon class="a51bc9fe-f7eb-4473-89a6-cd4a256dacbd" points="326.02 144.2 328.51 148.04 324.96 159.88 313.02 139.77 328.5 141.22 326.02 144.2"/><path class="c6df7fea-2a26-4061-8705-96271b6d4a38" d="M318.18,100.12c1.47.21,2.34,2.67,1.94,5.5s-1.9,5-3.36,4.78-2.34-2.68-1.95-5.51S316.71,99.92,318.18,100.12Z"/><polygon class="8d39b15f-c872-4b1c-aff9-90487b709cbb" points="313.02 139.77 310.57 139.55 310.97 136.34 313.02 139.77"/><path class="8d39b15f-c872-4b1c-aff9-90487b709cbb" d="M310.19,142.61l2.25.45a40,40,0,0,1-1.81,6.39l-1.26-.4Z"/><path class="26e85030-094b-4a33-92a2-ecfaebb4f18d" d="M311,136.34l-.4,3.21-5.28-.5s-.05-1.19-.05-3.26Z"/><path class="26e85030-094b-4a33-92a2-ecfaebb4f18d" d="M309.37,149.05l1.26.4a42.23,42.23,0,0,1-7.35,13l.81-18.67c.29-.72.58-1.47.86-2.25l5.24,1.07Z"/><path class="26e85030-094b-4a33-92a2-ecfaebb4f18d" d="M310.57,139.55l-.38,3.06L305,141.54c-.28.78-.57,1.53-.86,2.25l.35-8.08.8.08c0,2.07.05,3.26.05,3.26Z"/><path class="26e85030-094b-4a33-92a2-ecfaebb4f18d" d="M304.09,143.79l-.81,18.67c-7.33,8.55-20.11,14.7-41.93,4.89l.21-.6.68.35,2.76-7.38q1.06-.19,2.1-.45C274.07,162.41,293.94,168.63,304.09,143.79Zm-33.44,24.84a.91.91,0,1,0-1.23.36A.91.91,0,0,0,270.65,168.63Zm-3-1a.9.9,0,1,0-1.23.35A.91.91,0,0,0,267.65,167.6Zm-2.91-1a.91.91,0,1,0-1.23.36A.91.91,0,0,0,264.74,166.6Z"/><path class="01b5cc18-766e-4641-a2c3-64dd4c292f16" d="M289.1,119.85c0,.19,0,.38,0,.57a32.16,32.16,0,0,0-64.31,0c0-.19,0-.38,0-.57a32.17,32.17,0,1,1,64.33,0Z"/><path class="7b0d2061-41f7-4a5e-b50b-1a2632334f78" d="M289.09,120.42c0-.19,0-.38,0-.57a30.8,30.8,0,1,0,0,.57Zm-20,6.56c0-.2,0-.41,0-.61a10.29,10.29,0,0,0-1.1-5.12,9.7,9.7,0,0,0-2.78-3.1,14.73,14.73,0,0,0-3.59-1.85c-.65-.21-1.26-.44-1.86-.67v-2.58h8.4c0-.39,0-.77,0-1.14h0c0-3.38-.74-5.89-2.22-7.55s-3.85-2.64-7.13-3V98.53h-4.52v2.85q-9,1.49-9,10.67c0,.22,0,.43,0,.65a3.93,3.93,0,0,0,0,.49,9.77,9.77,0,0,0,1.06,4.87,9.28,9.28,0,0,0,2.65,3,15.12,15.12,0,0,0,3.47,1.88c.63.23,1.22.47,1.81.72l-.63,2.29h-8.85v2.47c0,3.11.8,5.39,2.41,6.81s4,2.3,7.08,2.63v4.42h4.52v-4.42c3.38-.36,5.94-1.35,7.67-2.95s2.61-4.08,2.61-7.43c0-.16,0-.32,0-.48Z"/><path class="1455b707-450b-4689-b179-a00c3506b35c" d="M256.94,80.33a39.52,39.52,0,0,1,8.47,78.12l-.1,0c-.46-.24-.71-.4-.71-.4l-.19.55-.4-.22-.51-.31-.11.28-.23-.23c-.9-.83-4.22-3.61-6.61-1.58,0,0,0,0,0,0a1.66,1.66,0,0,0-.19.18,4.51,4.51,0,0,0-.82,1.11c-.1.17-.19.36-.28.55a6.18,6.18,0,0,0-.34,1,39.52,39.52,0,0,1,2-79Zm32.16,39.52a32.17,32.17,0,1,0-64.33,0c0,.19,0,.38,0,.57a32.16,32.16,0,0,0,64.32-.57Z"/><path class="8d39b15f-c872-4b1c-aff9-90487b709cbb" d="M270.29,167.4a.91.91,0,1,1-1.23.36A.91.91,0,0,1,270.29,167.4Z"/><polygon class="5148cd04-6695-43c0-9272-fa87ebc7f6a7" points="270.54 55.88 262.25 74.9 259.65 74.24 264.56 52.64 270.54 55.88"/><path class="1455b707-450b-4689-b179-a00c3506b35c" d="M269.08,126.37c0,.2,0,.41,0,.61a9,9,0,0,0-3.87-7.69,14.69,14.69,0,0,0-3.59-1.84c-1.28-.45-2.48-.9-3.6-1.38a10.17,10.17,0,0,1-2.77-1.69,3.44,3.44,0,0,1-1.11-2.71,3.29,3.29,0,0,1,.05-.54,3.15,3.15,0,0,0,1.06,2.11,10.17,10.17,0,0,0,2.77,1.69c.57.24,1.14.48,1.74.7s1.21.46,1.86.67a14.73,14.73,0,0,1,3.59,1.85,9.7,9.7,0,0,1,2.78,3.1A10.29,10.29,0,0,1,269.08,126.37Z"/><path class="01b5cc18-766e-4641-a2c3-64dd4c292f16" d="M269.07,127c0,.16,0,.32,0,.48,0,3.35-.87,5.82-2.61,7.43s-4.29,2.59-7.67,2.95v-1.14c3.38-.37,5.94-1.34,7.67-3S269,130,269.07,127Z"/><path class="1455b707-450b-4689-b179-a00c3506b35c" d="M269.07,127v0q-.17,4.52-2.6,6.77c-1.73,1.61-4.29,2.58-7.67,3v4.42h-4.52v-4.42q-4.68-.5-7.08-2.64t-2.41-6.8v-.19h8.85V128a4.26,4.26,0,0,0,.84,3.05,3,3,0,0,0,2.21.84,2.62,2.62,0,0,0,2.18-.94,3.39,3.39,0,0,0,.77-2.26,3.43,3.43,0,0,0,0-.56,3.69,3.69,0,0,0,0-.58,3.42,3.42,0,0,0-1.06-2.65,9.49,9.49,0,0,0-2.66-1.69c-1-.48-2.21-1-3.46-1.43A15.48,15.48,0,0,1,249,120a9.53,9.53,0,0,1-2.65-3,9.15,9.15,0,0,1-1-4.22c.14-5.82,3.15-9.22,9-10.18V99.67h4.52v2.85c3.28.33,5.66,1.33,7.13,3a10.12,10.12,0,0,1,2.18,6.41h-8.52v-.74a5.14,5.14,0,0,0-.63-2.58,2.15,2.15,0,0,0-2-1.11,2.49,2.49,0,0,0-2.16,1,3.51,3.51,0,0,0-.69,2.09,2.72,2.72,0,0,0,.05.58s0,0,0,0a3.29,3.29,0,0,0-.05.54,3.44,3.44,0,0,0,1.11,2.71,10.17,10.17,0,0,0,2.77,1.69c1.12.48,2.32.93,3.6,1.38a14.69,14.69,0,0,1,3.59,1.84,9,9,0,0,1,3.87,7.69Z"/><path class="1455b707-450b-4689-b179-a00c3506b35c" d="M268.15,111.91h0a10.12,10.12,0,0,0-2.18-6.41c-1.47-1.65-3.85-2.65-7.13-3v-1.14c3.28.34,5.66,1.32,7.13,3S268.15,108.53,268.15,111.91Z"/><path class="01b5cc18-766e-4641-a2c3-64dd4c292f16" d="M268.15,113.05h-8.56v-.74c0-.13,0-.26,0-.4h8.53C268.14,112.28,268.15,112.66,268.15,113.05Z"/><path class="8d39b15f-c872-4b1c-aff9-90487b709cbb" d="M267.29,166.37a.89.89,0,0,1,.36,1.23.9.9,0,0,1-1.58-.88A.89.89,0,0,1,267.29,166.37Z"/><path class="bbec6859-2fea-4e3a-9ea5-ab3a6666aab3" d="M265.82,158.66c.35.18.78.38,1.28.61q-1,.25-2.1.45l.25-.67-.72-.42q.45-.07.87-.18s0,0,0,0Z"/><path class="26e85030-094b-4a33-92a2-ecfaebb4f18d" d="M265.41,158.45c.12.06.25.14.41.21Z"/><path class="1455b707-450b-4689-b179-a00c3506b35c" d="M265.31,158.4l.1,0s0,0,0,0Z"/><path class="1455b707-450b-4689-b179-a00c3506b35c" d="M265.31,158.4l.09,0q-.42.11-.87.18l-.12-.07h0l.19-.55S264.85,158.16,265.31,158.4Z"/><path class="bbec6859-2fea-4e3a-9ea5-ab3a6666aab3" d="M265.25,159.05l-.25.67c-.35.08-.71.14-1.07.2l.43-1.25.17,0Z"/><path class="26e85030-094b-4a33-92a2-ecfaebb4f18d" d="M265,159.72l-2.76,7.38-.68-.35,2.37-6.83C264.29,159.86,264.65,159.8,265,159.72Z"/><path class="8d39b15f-c872-4b1c-aff9-90487b709cbb" d="M264.38,165.37a.91.91,0,1,1-1.23.35A.91.91,0,0,1,264.38,165.37Z"/><path class="1455b707-450b-4689-b179-a00c3506b35c" d="M264.53,158.63l-.17,0,.05-.11Z"/><polygon class="1455b707-450b-4689-b179-a00c3506b35c" points="264.41 158.55 264.41 158.56 264.01 158.32 264.41 158.55"/><path class="1455b707-450b-4689-b179-a00c3506b35c" d="M264.41,158.56l-.05.11c-.39.08-.79.14-1.19.2l.22-.57.11-.28.51.31Z"/><path class="bbec6859-2fea-4e3a-9ea5-ab3a6666aab3" d="M264.36,158.67l-.43,1.25c-.41.06-.82.13-1.24.18l.48-1.23C263.57,158.81,264,158.75,264.36,158.67Z"/><path class="a51bc9fe-f7eb-4473-89a6-cd4a256dacbd" d="M263.93,159.92l-2.37,6.83-1.21-.63.12-.3,2.22-5.72C263.11,160.05,263.52,160,263.93,159.92Z"/><path class="1455b707-450b-4689-b179-a00c3506b35c" d="M263.39,158.3l-.22.57a38.8,38.8,0,0,1-6.23.5c-.68,0-1.37,0-2-.06a6.18,6.18,0,0,1,.34-1c.09-.19.18-.38.28-.55a4.51,4.51,0,0,1,.82-1.11l.19-.18s0,0,0,0c2.36-2,5.62.68,6.61,1.58Z"/><path class="bbec6859-2fea-4e3a-9ea5-ab3a6666aab3" d="M263.17,158.87l-.48,1.23a40,40,0,0,1-5.29.37c-.9,0-1.78-.05-2.67-.1v0a.28.28,0,0,1,0-.09,2.23,2.23,0,0,1,0-.34,3.43,3.43,0,0,1,.12-.59c.67,0,1.36.06,2,.06A38.8,38.8,0,0,0,263.17,158.87Z"/><path class="0d4b61e6-619b-4be5-98a4-3897c629d1fe" d="M262.69,160.1l-2.22,5.72s-5.94-1.27-5.74-5.45c.89,0,1.77.1,2.67.1A40,40,0,0,0,262.69,160.1Z"/><path class="7b0d2061-41f7-4a5e-b50b-1a2632334f78" d="M259.75,113.05v2.58c-.6-.22-1.17-.46-1.74-.7a10.17,10.17,0,0,1-2.77-1.69,3.15,3.15,0,0,1-1.06-2.11s0,0,0,0a3.66,3.66,0,0,1,.64-1.53,2.49,2.49,0,0,1,2.16-1,2.16,2.16,0,0,1,2,1.11,5,5,0,0,1,.62,2.18c0,.14,0,.27,0,.4v.74Z"/><path class="01b5cc18-766e-4641-a2c3-64dd4c292f16" d="M259.64,127.59a3.69,3.69,0,0,1,0,.58,3.28,3.28,0,0,0-1-2.09,9.51,9.51,0,0,0-2.66-1.7c-.52-.24-1.08-.47-1.65-.7s-1.18-.49-1.81-.72a15.12,15.12,0,0,1-3.47-1.88,9.28,9.28,0,0,1-2.65-3,9.77,9.77,0,0,1-1.06-4.87,3.93,3.93,0,0,1,0-.49,9.15,9.15,0,0,0,1,4.22,9.53,9.53,0,0,0,2.65,3,15.48,15.48,0,0,0,3.47,1.87c1.25.47,2.41,1,3.46,1.43a9.49,9.49,0,0,1,2.66,1.69A3.42,3.42,0,0,1,259.64,127.59Z"/><path class="1455b707-450b-4689-b179-a00c3506b35c" d="M259.6,128.17a3.43,3.43,0,0,1,0,.56,3.39,3.39,0,0,1-.77,2.26,2.62,2.62,0,0,1-2.18.94,3,3,0,0,1-2.21-.84,4.26,4.26,0,0,1-.84-3.05v-.93a4,4,0,0,0,.84,2.84,3,3,0,0,0,2.21.84,2.62,2.62,0,0,0,2.18-.94A3.28,3.28,0,0,0,259.6,128.17Z"/><path class="01b5cc18-766e-4641-a2c3-64dd4c292f16" d="M259.59,111.17v.74h0a5,5,0,0,0-.62-2.18,2.16,2.16,0,0,0-2-1.11,2.49,2.49,0,0,0-2.16,1,3.66,3.66,0,0,0-.64,1.53,2.72,2.72,0,0,1-.05-.58,3.51,3.51,0,0,1,.69-2.09,2.49,2.49,0,0,1,2.16-1,2.15,2.15,0,0,1,2,1.11A5.14,5.14,0,0,1,259.59,111.17Z"/><path class="7b0d2061-41f7-4a5e-b50b-1a2632334f78" d="M259.6,128.17a3.28,3.28,0,0,1-.73,1.68,2.62,2.62,0,0,1-2.18.94,3,3,0,0,1-2.21-.84,4,4,0,0,1-.84-2.84V126l.63-2.29c.57.23,1.13.46,1.65.7a9.51,9.51,0,0,1,2.66,1.7A3.28,3.28,0,0,1,259.6,128.17Z"/><path class="1455b707-450b-4689-b179-a00c3506b35c" d="M256.55,156.49c2.39-2,5.71.75,6.61,1.58C262.17,157.17,258.91,154.53,256.55,156.49Z"/><rect class="01b5cc18-766e-4641-a2c3-64dd4c292f16" x="254.28" y="141.16" width="4.52" height="1.14"/><rect class="1455b707-450b-4689-b179-a00c3506b35c" x="254.28" y="98.53" width="4.52" height="1.14"/><path class="1455b707-450b-4689-b179-a00c3506b35c" d="M256.53,156.51l-.19.18A1.66,1.66,0,0,1,256.53,156.51Z"/><path class="1455b707-450b-4689-b179-a00c3506b35c" d="M255.52,157.8c-.1.17-.19.36-.28.55C255.33,158.16,255.42,158,255.52,157.8Z"/><path class="0d4b61e6-619b-4be5-98a4-3897c629d1fe" d="M254.78,159.9a2.23,2.23,0,0,0,0,.34A2.23,2.23,0,0,1,254.78,159.9Z"/><path class="bbec6859-2fea-4e3a-9ea5-ab3a6666aab3" d="M254.73,160.33v0h0S254.72,160.34,254.73,160.33Z"/><path class="01b5cc18-766e-4641-a2c3-64dd4c292f16" d="M254.28,136.74v1.14c-3.12-.33-5.48-1.2-7.08-2.63s-2.41-3.7-2.41-6.81V127.3q0,4.67,2.41,6.8T254.28,136.74Z"/><path class="1455b707-450b-4689-b179-a00c3506b35c" d="M254.28,101.38v1.14c-5.83,1-8.84,4.36-9,10.18,0-.22,0-.43,0-.65Q245.28,102.87,254.28,101.38Z"/><path class="1455b707-450b-4689-b179-a00c3506b35c" d="M253.64,126.9v.21h-8.85V126h8.85Z"/><polygon class="5148cd04-6695-43c0-9272-fa87ebc7f6a7" points="248.24 45.19 249.59 73.78 245.94 74.41 239.05 47.07 248.24 45.19"/><polygon class="5148cd04-6695-43c0-9272-fa87ebc7f6a7" points="224.58 57.93 237.31 78 234.82 79.9 219.67 64.55 224.58 57.93"/><path class="1455b707-450b-4689-b179-a00c3506b35c" d="M178.62,144.07A12.76,12.76,0,0,1,168.11,157a.68.68,0,0,0,0-.15,1.23,1.23,0,0,0-.3-.59,1.18,1.18,0,0,0-1.47-.11,1.4,1.4,0,0,0,.12-1.35,10.36,10.36,0,0,0,9.81-10.47v-.18a10.37,10.37,0,1,0-20.74.6s0,.12,0,.17v0a10.3,10.3,0,0,0,4.34,7.95c-.3.3-.62.59-1,.9l-.71.63-.12.1h0a12.74,12.74,0,1,1,20.55-10.44Z"/><path class="7b0d2061-41f7-4a5e-b50b-1a2632334f78" d="M176.25,144.32a10.36,10.36,0,0,1-9.81,10.47.9.9,0,0,0-.14-.2,1.13,1.13,0,0,0-1.32-.17,1.22,1.22,0,0,0-.1-1.4,1.18,1.18,0,0,0-1.45-.11,1.3,1.3,0,0,0,0-1.55c-.86-1-2.9.89-3.21,1.2l-.32.32a10.3,10.3,0,0,1-4.34-7.95v0a10.37,10.37,0,0,1,20.73-.59Zm-7.16,4.89a3.13,3.13,0,0,0,.78-2.42.66.66,0,0,0,0-.14v-.22a3.45,3.45,0,0,0-.41-1.65,3.05,3.05,0,0,0-.93-1,4.53,4.53,0,0,0-1.17-.57c-.42-.12-.8-.27-1.17-.41a2.94,2.94,0,0,1-.91-.52,1,1,0,0,1-.36-.69s0,0,0,0a1.28,1.28,0,0,1,.18-.48.85.85,0,0,1,.7-.32.67.67,0,0,1,.64.33,1.61,1.61,0,0,1,.23.68v.39l2.76-.08c0-.13,0-.25,0-.37h0a3.63,3.63,0,0,0-.79-2.41,3.4,3.4,0,0,0-2.32-.89l0-.55v-.37l-1.46,0,0,.92a3.12,3.12,0,0,0-2.79,3.52v.37a3.25,3.25,0,0,0,.39,1.56,3,3,0,0,0,.89.95,4.51,4.51,0,0,0,1.14.57c.4.15.78.28,1.13.43a3.19,3.19,0,0,1,.87.52,1,1,0,0,1,.34.63,1,1,0,0,1-.21.59.88.88,0,0,1-.7.32.94.94,0,0,1-.72-.25,1.34,1.34,0,0,1-.29-.91.15.15,0,0,1,0-.07v-.3l-2.85.08V147a.28.28,0,0,0,0,.09v.28a2.74,2.74,0,0,0,.83,2.17,3.91,3.91,0,0,0,2.3.78l0,1v.41l1.46,0v-.36l0-1.06A4.31,4.31,0,0,0,169.09,149.21Z"/><path class="01b5cc18-766e-4641-a2c3-64dd4c292f16" d="M176.25,144.14v.18a10.37,10.37,0,0,0-20.73.59s0-.12,0-.17a10.37,10.37,0,1,1,20.74-.6Z"/><polygon class="ac671bb6-6b87-4164-af75-027174be797f" points="171.54 120.26 168.54 127.14 167.6 126.89 169.38 119.08 171.54 120.26"/><path class="01b5cc18-766e-4641-a2c3-64dd4c292f16" d="M169.87,146.79a3.13,3.13,0,0,1-.78,2.42,4.31,4.31,0,0,1-2.44,1v-.37a4.24,4.24,0,0,0,2.45-1,3,3,0,0,0,.77-2.19A.66.66,0,0,1,169.87,146.79Z"/><path class="1455b707-450b-4689-b179-a00c3506b35c" d="M169.86,146.43v.22a3.06,3.06,0,0,0-.4-1.5,3.29,3.29,0,0,0-.92-1,4.73,4.73,0,0,0-1.18-.56c-.42-.13-.8-.27-1.17-.41a3.68,3.68,0,0,1-.92-.52,1.1,1.1,0,0,1-.37-.86,1.21,1.21,0,0,1,0-.2,1,1,0,0,0,.36.69,2.94,2.94,0,0,0,.91.52c.37.14.75.29,1.17.41a4.53,4.53,0,0,1,1.17.57,3.05,3.05,0,0,1,.93,1A3.45,3.45,0,0,1,169.86,146.43Z"/><path class="1455b707-450b-4689-b179-a00c3506b35c" d="M169.46,145.15a3.06,3.06,0,0,1,.4,1.5,3,3,0,0,1-.77,2.19,4.24,4.24,0,0,1-2.45,1v.37l0,1.06-1.46,0v0l0-1h0v-.36a4.06,4.06,0,0,1-2.31-.78A2.77,2.77,0,0,1,162,147a.28.28,0,0,1,0-.09v-.06l2.85-.08v.3a1.43,1.43,0,0,0,.3,1,1,1,0,0,0,.72.26.86.86,0,0,0,.7-.33,1.13,1.13,0,0,0,.22-.73.82.82,0,0,0,0-.22.36.36,0,0,0,0-.15,1.12,1.12,0,0,0-.37-.84,3.11,3.11,0,0,0-.87-.53q-.53-.22-1.14-.42a5.25,5.25,0,0,1-1.13-.58,2.91,2.91,0,0,1-.89-.95,3.18,3.18,0,0,1-.38-1.42,3.1,3.1,0,0,1,2.81-3.29v-.37l0-.55,1.46,0,0,.55v.37a3.45,3.45,0,0,1,2.34.89,3.26,3.26,0,0,1,.76,2l-2.75.08v-.23a1.59,1.59,0,0,0-.24-.83.66.66,0,0,0-.64-.34.8.8,0,0,0-.69.33,1.06,1.06,0,0,0-.2.68.88.88,0,0,0,0,.16s0,0,0,0a1.21,1.21,0,0,0,0,.2,1.1,1.1,0,0,0,.37.86,3.68,3.68,0,0,0,.92.52c.37.14.75.28,1.17.41a4.73,4.73,0,0,1,1.18.56A3.29,3.29,0,0,1,169.46,145.15Z"/><path class="01b5cc18-766e-4641-a2c3-64dd4c292f16" d="M169.41,141.77c0,.12,0,.24,0,.37l-2.76.08v-.37Z"/><path class="1455b707-450b-4689-b179-a00c3506b35c" d="M169.42,141.77h0a3.26,3.26,0,0,0-.76-2,3.45,3.45,0,0,0-2.34-.89v-.37a3.4,3.4,0,0,1,2.32.89A3.63,3.63,0,0,1,169.42,141.77Z"/><path class="01b5cc18-766e-4641-a2c3-64dd4c292f16" d="M168.11,157a1.53,1.53,0,0,1,0,.3,1.21,1.21,0,0,1-.05.18,2.38,2.38,0,0,1-.33.63h0a13.7,13.7,0,0,1-1.45.13,12.63,12.63,0,0,1-8.78-3.19c.21-.18.42-.35.61-.53h0a12.74,12.74,0,0,0,10,2.48Z"/><path class="1455b707-450b-4689-b179-a00c3506b35c" d="M168.09,156.84a.68.68,0,0,1,0,.15,12.74,12.74,0,0,1-10-2.48l.12-.1c.25-.21.48-.42.71-.63s.65-.6,1-.9a10.3,10.3,0,0,0,6.32,1.93l.26,0a1.4,1.4,0,0,1-.12,1.35,1.18,1.18,0,0,1,1.47.11A1.23,1.23,0,0,1,168.09,156.84Z"/><path class="01b5cc18-766e-4641-a2c3-64dd4c292f16" d="M168,157.47a1.21,1.21,0,0,0,.05-.18A1.21,1.21,0,0,1,168,157.47Z"/><path class="1455b707-450b-4689-b179-a00c3506b35c" d="M167.79,156.25a1.23,1.23,0,0,1,.3.59A1.23,1.23,0,0,0,167.79,156.25Z"/><path class="0d4b61e6-619b-4be5-98a4-3897c629d1fe" d="M167.69,158.1a5.22,5.22,0,0,1-.73.82c-15.45,14.64-35.93,21.93-48.38,9.86l-.82-6.83,3-3.07c9.7,12.64,27.56,3.79,36.69-3.84a12.63,12.63,0,0,0,8.78,3.19A13.7,13.7,0,0,0,167.69,158.1Z"/><path class="1455b707-450b-4689-b179-a00c3506b35c" d="M166.83,147.28a1.13,1.13,0,0,1-.22.73.86.86,0,0,1-.7.33,1,1,0,0,1-.72-.26,1.43,1.43,0,0,1-.3-1v-.3h0a1.34,1.34,0,0,0,.29.91.94.94,0,0,0,.72.25.88.88,0,0,0,.7-.32,1,1,0,0,0,.21-.59A.82.82,0,0,1,166.83,147.28Z"/><path class="01b5cc18-766e-4641-a2c3-64dd4c292f16" d="M166.83,146.91a.36.36,0,0,1,0,.15,1,1,0,0,0-.34-.63,3.19,3.19,0,0,0-.87-.52c-.35-.15-.73-.28-1.13-.43a4.51,4.51,0,0,1-1.14-.57,3,3,0,0,1-.89-.95,3.25,3.25,0,0,1-.39-1.56v-.23a3.18,3.18,0,0,0,.38,1.42,2.91,2.91,0,0,0,.89.95,5.25,5.25,0,0,0,1.13.58q.62.19,1.14.42a3.11,3.11,0,0,1,.87.53A1.12,1.12,0,0,1,166.83,146.91Z"/><rect class="01b5cc18-766e-4641-a2c3-64dd4c292f16" x="165.22" y="151.31" width="1.46" height="0.37" transform="translate(-3.64 4.09) rotate(-1.4)"/><path class="01b5cc18-766e-4641-a2c3-64dd4c292f16" d="M166.66,141.62v.21a1.61,1.61,0,0,0-.23-.68.67.67,0,0,0-.64-.33.85.85,0,0,0-.7.32,1.28,1.28,0,0,0-.18.48.88.88,0,0,1,0-.16,1.06,1.06,0,0,1,.2-.68.8.8,0,0,1,.69-.33.66.66,0,0,1,.64.34A1.59,1.59,0,0,1,166.66,141.62Z"/><path class="7b0d2061-41f7-4a5e-b50b-1a2632334f78" d="M166.44,154.79l-.26,0a10.3,10.3,0,0,1-6.32-1.93l.32-.32c.31-.31,2.35-2.16,3.21-1.2a1.3,1.3,0,0,1,0,1.55,1.18,1.18,0,0,1,1.45.11,1.22,1.22,0,0,1,.1,1.4,1.13,1.13,0,0,1,1.32.17A.9.9,0,0,1,166.44,154.79Z"/><polygon class="1455b707-450b-4689-b179-a00c3506b35c" points="166.28 137.55 166.29 137.92 164.84 137.96 164.85 138.51 164.84 138.51 164.82 137.59 166.28 137.55"/><polygon class="1455b707-450b-4689-b179-a00c3506b35c" points="165.22 151.29 165.19 150.27 165.19 150.27 165.22 151.29"/><path class="01b5cc18-766e-4641-a2c3-64dd4c292f16" d="M165.18,149.91v.36a3.91,3.91,0,0,1-2.3-.78,2.74,2.74,0,0,1-.83-2.17V147a2.77,2.77,0,0,0,.83,2.09A4.06,4.06,0,0,0,165.18,149.91Z"/><path class="1455b707-450b-4689-b179-a00c3506b35c" d="M164.88,146.74a.15.15,0,0,0,0,.07h0l-2.85.08v-.37l2.85-.08Z"/><path class="1455b707-450b-4689-b179-a00c3506b35c" d="M164.85,138.51v.37a3.1,3.1,0,0,0-2.81,3.29V142a3.12,3.12,0,0,1,2.79-3.52Z"/><polygon class="ac671bb6-6b87-4164-af75-027174be797f" points="163.71 116.62 164.2 126.96 162.88 127.19 160.39 117.3 163.71 116.62"/><polygon class="ac671bb6-6b87-4164-af75-027174be797f" points="154.93 121 159.53 128.26 158.62 128.94 153.15 123.39 154.93 121"/><path class="1455b707-450b-4689-b179-a00c3506b35c" d="M158.2,154.41l.71-.63C158.68,154,158.45,154.2,158.2,154.41Z"/><path class="ff5a3195-0cd0-4131-a20b-2fd1e78f3e5f" d="M120.77,241.62c6.55,11-17.66,3.06-17.66,3.06l3.64-26.4.13-15.74c-25.23,5.52-54.46,1.8-54.46,1.8l-.54,15.17-4.5,21.37s7.5-7.74,13.44,1.57C67.26,252.53,43.5,245,43.5,245l1.68-24.54-2.41-22.27c42.62,4,72.82-2.77,72.82-2.77l-2.25,22.8L107.62,240S115.7,233.73,120.77,241.62Z"/><path class="a51bc9fe-f7eb-4473-89a6-cd4a256dacbd" d="M120.77,158.88l-3,3.07-1.55-12.82.09.34c.07.23.13.45.21.69l.15.5c.12.36.24.72.36,1.06s.23.62.34.92c.26.67.53,1.31.82,1.92.09.19.17.37.27.55s.28.55.42.81.23.44.36.65A20.15,20.15,0,0,0,120.77,158.88Z"/><path class="a51bc9fe-f7eb-4473-89a6-cd4a256dacbd" d="M118.87,155.92c.12.23.23.44.36.65C119.1,156.36,119,156.15,118.87,155.92Z"/><path class="01b5cc18-766e-4641-a2c3-64dd4c292f16" d="M117.76,162l.82,6.83c-.52-.5-1-1-1.5-1.6s-1-1.17-1.42-1.81h0v-1.28Z"/><path class="a51bc9fe-f7eb-4473-89a6-cd4a256dacbd" d="M118.18,154.56a5.6,5.6,0,0,0,.27.55C118.35,154.93,118.27,154.75,118.18,154.56Z"/><path class="0d4b61e6-619b-4be5-98a4-3897c629d1fe" d="M117.08,167.18c.48.56,1,1.1,1.5,1.6A17.6,17.6,0,0,1,117.08,167.18Z"/><path class="01b5cc18-766e-4641-a2c3-64dd4c292f16" d="M116.21,149.13,117.76,162l-2.1,2.13,0-17c.08.37.17.74.26,1.1,0,0,0,0,0,0,.06.28.14.56.23.84Z"/><path class="0d4b61e6-619b-4be5-98a4-3897c629d1fe" d="M117,151.72c.11.31.23.62.34.92C117.25,152.34,117.13,152,117,151.72Z"/><path class="a51bc9fe-f7eb-4473-89a6-cd4a256dacbd" d="M116.51,150.16l.15.5Z"/><path class="0d4b61e6-619b-4be5-98a4-3897c629d1fe" d="M115.66,165.37c.46.64.93,1.24,1.42,1.81A19.53,19.53,0,0,1,115.66,165.37Z"/><path class="0d4b61e6-619b-4be5-98a4-3897c629d1fe" d="M116.21,149.1c0,.12.06.25.09.37l-.09-.34Z"/><path class="01b5cc18-766e-4641-a2c3-64dd4c292f16" d="M116,148.26c.07.28.14.56.23.84C116.12,148.82,116,148.54,116,148.26Z"/><path class="0d4b61e6-619b-4be5-98a4-3897c629d1fe" d="M115.7,147.11c.08.37.17.74.26,1.1C115.87,147.85,115.78,147.48,115.7,147.11Z"/><path class="a51bc9fe-f7eb-4473-89a6-cd4a256dacbd" d="M115.7,145.46h0Z"/><path class="a51bc9fe-f7eb-4473-89a6-cd4a256dacbd" d="M115.7,145.47v1.64s0-.07,0-.1l-6.36,2.9c.11.49.21,1,.32,1.43l.06.22a1.17,1.17,0,0,0,0,.2c.1.42.21.84.32,1.24l.06.21c.11.42.23.82.35,1.22,0,.08,0,.16.07.24s.12.4.19.59.18.58.28.87a38.22,38.22,0,0,0,4,8.56l.07-.07c.17.25.34.51.53.75l-.07,30.07-72.82,2.77-5.84-39.37-1.5-10.18s.55.09,1.59.23h.09c51.74,9.22,77.41-2.87,78.56-3.42h0ZM101.26,188l-3.84-28.52,2-3.29-1.52-2.77-5.84.74-1.25,2.29,2.48,3.42-8.46,28.3L91.66,195l1.23-1,.5.5Z"/><path class="a51bc9fe-f7eb-4473-89a6-cd4a256dacbd" d="M115.68,147s0,.06,0,.1l0,17-.52.53q-.42-.6-.81-1.26a36.31,36.31,0,0,1-2.26-4.5c-.11-.23-.2-.47-.29-.71,0,0,0,0,0,0-.11-.25-.21-.51-.31-.77-.17-.45-.33-.91-.49-1.37s-.32-.95-.46-1.43a.56.56,0,0,1,0-.12c-.12-.4-.24-.8-.35-1.22l-.06-.21c-.11-.4-.21-.82-.32-1.24a1.17,1.17,0,0,1,0-.2l-.06-.22c-.11-.47-.21-.94-.32-1.43Z"/><path class="0d4b61e6-619b-4be5-98a4-3897c629d1fe" d="M115.7,145.46h0C87.9,155.1,46,150.11,37.11,148.9H37l-1.53-.28c7.74-4.84,13.58-24,13.58-24s-8.32,3.06-7.28-3.53,7.68-1.88,7.68-1.88l.82-15.09a253.14,253.14,0,0,0,54.2-7C115.51,117.48,115.7,145.46,115.7,145.46ZM101.89,121c1.47-.22,2.3-2.7,1.87-5.53s-2-5-3.43-4.73-2.3,2.7-1.87,5.53S100.42,121.25,101.89,121Zm-3.62,20s.56-12.32-12.28-10.2c-12.46,2.05-9.9,12.6-9.9,12.6S89.87,143.8,98.27,141.05ZM69.32,125.67c1.47-.23,2.31-2.7,1.88-5.54s-2-4.95-3.44-4.72-2.29,2.7-1.86,5.53S67.86,125.89,69.32,125.67Z"/><path class="a51bc9fe-f7eb-4473-89a6-cd4a256dacbd" d="M115.66,165.36h0c-.19-.24-.36-.5-.53-.75h0C115.31,164.87,115.48,165.12,115.66,165.36Z"/><path class="a51bc9fe-f7eb-4473-89a6-cd4a256dacbd" d="M115.66,164.08v1.28c-.18-.24-.35-.49-.52-.75Z"/><path class="a51bc9fe-f7eb-4473-89a6-cd4a256dacbd" d="M42.77,198.21l72.82-2.77S85.39,202.2,42.77,198.21Z"/><path class="a51bc9fe-f7eb-4473-89a6-cd4a256dacbd" d="M115.14,164.61h0c-.28-.41-.55-.83-.8-1.27Q114.72,164,115.14,164.61Z"/><path class="a51bc9fe-f7eb-4473-89a6-cd4a256dacbd" d="M115.13,164.62l-.07.07a38.22,38.22,0,0,1-4-8.56l.45,1.22a7.28,7.28,0,0,0,.31.77s0,0,0,0c.09.24.19.48.29.71a36.31,36.31,0,0,0,2.26,4.5C114.58,163.79,114.85,164.21,115.13,164.62Z"/><path class="a51bc9fe-f7eb-4473-89a6-cd4a256dacbd" d="M111.78,158.14c.09.24.18.48.29.71C112,158.62,111.87,158.38,111.78,158.14Z"/><path class="a51bc9fe-f7eb-4473-89a6-cd4a256dacbd" d="M111.47,157.35c.1.26.2.52.31.77A7.28,7.28,0,0,1,111.47,157.35Z"/><path class="a51bc9fe-f7eb-4473-89a6-cd4a256dacbd" d="M111,156c.16.46.32.92.49,1.37l-.45-1.22A.66.66,0,0,0,111,156Z"/><path class="a51bc9fe-f7eb-4473-89a6-cd4a256dacbd" d="M111,156a.66.66,0,0,1,0,.15c-.1-.29-.2-.58-.28-.87Z"/><path class="a51bc9fe-f7eb-4473-89a6-cd4a256dacbd" d="M110.52,154.55c.14.48.3,1,.46,1.43l-.24-.72c-.07-.19-.13-.39-.19-.59Z"/><path class="a51bc9fe-f7eb-4473-89a6-cd4a256dacbd" d="M110.52,154.55l0,.12c0-.08,0-.16-.07-.24A.56.56,0,0,0,110.52,154.55Z"/><path class="a51bc9fe-f7eb-4473-89a6-cd4a256dacbd" d="M110.13,153.21c.11.42.23.82.35,1.22C110.36,154,110.24,153.63,110.13,153.21Z"/><path class="a51bc9fe-f7eb-4473-89a6-cd4a256dacbd" d="M109.75,151.76c.11.42.21.84.32,1.24C110,152.6,109.85,152.18,109.75,151.76Z"/><path class="a51bc9fe-f7eb-4473-89a6-cd4a256dacbd" d="M109.75,151.76a1.17,1.17,0,0,1,0-.2A1.17,1.17,0,0,0,109.75,151.76Z"/><path class="a51bc9fe-f7eb-4473-89a6-cd4a256dacbd" d="M109.32,149.91c.11.49.21,1,.32,1.43C109.53,150.87,109.43,150.4,109.32,149.91Z"/><path class="5148cd04-6695-43c0-9272-fa87ebc7f6a7" d="M104.89,13.74a11.2,11.2,0,0,1,2.15,9A9.17,9.17,0,0,1,105,27.55a39.62,39.62,0,0,1-6.14,4.83,16.9,16.9,0,0,0-4.48,4A10.43,10.43,0,0,0,93,39.49a2.63,2.63,0,0,1-5.18-.66,2.59,2.59,0,0,1,.09-.68,14.94,14.94,0,0,1,1.49-3.75,18,18,0,0,1,5.38-5.16l2.76-1.93a9.71,9.71,0,0,0,2.08-1.79,7.47,7.47,0,0,0,1.86-3.76,7.67,7.67,0,0,0-1-5.25c-.94-1.6-2.76-2.61-5.45-3.05-3.32-.54-5.82.3-7.48,2.52A11.13,11.13,0,0,0,86,19.47a2.52,2.52,0,0,1-2.85,1.75h-.07A2.66,2.66,0,0,1,81,17.78a13.43,13.43,0,0,1,4.55-6.61Q89.75,7.9,96.06,8.93C100,9.56,102.9,11.16,104.89,13.74Z"/><path class="ff5a3195-0cd0-4131-a20b-2fd1e78f3e5f" d="M111.76,95.12s-2.6.83-7.27,2c-9.2-17-25.91-28.72-56.33-14.5,0,0-20.09,14.69-12.73,66h.06l-.06,0s-13.22-28.74-12.19-46.88a1.22,1.22,0,1,0,.36-2.41c.41,0,1.7,0,1.59-1.44-.05-.62-.68-.89-1.25-1,0-.06,0-.1,0-.16.62-.08,1.31-.29,1.28-.84a1.15,1.15,0,0,0-.66-1.09c0-.13.1-.25.16-.38,1.5.21,2.88,1.49,4,1.54,1.6.07.55-1.43.55-1.43A5.74,5.74,0,0,0,26.1,92a10.32,10.32,0,0,1,4.21-3.5,6.51,6.51,0,0,0-3.2.12,5.39,5.39,0,0,1,4.76-3.47S30.5,82.5,33,79.35a8.18,8.18,0,0,0,1.55,4C36.36,79.1,43.88,67,62.15,64,76.57,61.43,105.4,63.16,111.76,95.12Z"/><path class="ff5a3195-0cd0-4131-a20b-2fd1e78f3e5f" d="M103.76,115.5c.43,2.83-.4,5.31-1.87,5.53s-3-1.89-3.43-4.73.4-5.3,1.87-5.53S103.33,112.66,103.76,115.5Z"/><polygon class="ff5a3195-0cd0-4131-a20b-2fd1e78f3e5f" points="97.42 159.44 101.26 187.96 93.39 194.47 92.89 193.97 99.53 188.48 97.42 159.44"/><polygon class="ff5a3195-0cd0-4131-a20b-2fd1e78f3e5f" points="97.42 159.44 99.53 188.48 92.89 193.97 86.59 187.62 93.33 159.83 90.86 156.41 92.1 154.12 97.94 153.38 99.46 156.15 97.42 159.44"/><path class="16093e5a-4abe-49cf-baa3-41101cccba50" d="M86,130.85c12.84-2.12,12.28,10.2,12.28,10.2-8.4,2.75-22.18,2.4-22.18,2.4S73.53,132.9,86,130.85Z"/><path class="ff5a3195-0cd0-4131-a20b-2fd1e78f3e5f" d="M104.49,97.1a253.14,253.14,0,0,1-54.2,7l-.82,15.09s-6.63-4.7-7.68,1.88,7.28,3.53,7.28,3.53-5.84,19.19-13.58,24h-.06c-7.36-51.31,12.73-66,12.73-66C78.58,68.38,95.29,80.09,104.49,97.1Z"/><polygon class="01b5cc18-766e-4641-a2c3-64dd4c292f16" points="93.33 159.83 86.59 187.62 92.89 193.97 91.66 194.98 84.87 188.13 93.33 159.83"/><path class="5148cd04-6695-43c0-9272-fa87ebc7f6a7" d="M89.67,46.34a2.64,2.64,0,0,1,2.18,3l-.14.89a2.64,2.64,0,0,1-3,2.18l-.61-.1a2.62,2.62,0,0,1-2.18-3l.13-.89a2.65,2.65,0,0,1,3-2.18Z"/><path class="a51bc9fe-f7eb-4473-89a6-cd4a256dacbd" d="M115.67,145.48c-1.15.55-26.82,12.64-78.56,3.42C46,150.11,87.9,155.1,115.67,145.48Z"/><path class="ff5a3195-0cd0-4131-a20b-2fd1e78f3e5f" d="M71.2,120.13c.43,2.84-.41,5.31-1.88,5.54s-3-1.9-3.42-4.73.4-5.31,1.86-5.53S70.77,117.3,71.2,120.13Z"/><path class="5148cd04-6695-43c0-9272-fa87ebc7f6a7" d="M61.63,11.47a11,11,0,0,1-.32,6.37A48.16,48.16,0,0,1,56.38,26,20.28,20.28,0,0,0,53,32.41a12.46,12.46,0,0,0-.14,4.15,3.14,3.14,0,0,1-2.53,3.37l-.08,0a3.16,3.16,0,0,1-3.76-2.78,18.22,18.22,0,0,1,.09-5c.39-2.23,1.7-4.93,3.93-8.14l2.32-3.38a12.1,12.1,0,0,0,1.61-2.92A9,9,0,0,0,55,12.72a9.31,9.31,0,0,0-3.31-5.57Q49,5,44.16,6q-6,1.21-7.46,6a13.3,13.3,0,0,0-.38,4.58,3.18,3.18,0,0,1-2.53,3.31h-.11A3.13,3.13,0,0,1,29.9,17a16.23,16.23,0,0,1,2.35-9.57Q35.7,2,43.3.44,50.35-1,55.37,2.16A13.51,13.51,0,0,1,61.63,11.47Z"/><path class="5148cd04-6695-43c0-9272-fa87ebc7f6a7" d="M55.9,49.34A3.16,3.16,0,0,1,53.43,53l-.86.17a3.15,3.15,0,0,1-3.7-2.47l-.23-1.17a3.15,3.15,0,0,1,2.47-3.7L52,45.7a3.16,3.16,0,0,1,3.72,2.47Z"/><path class="a51bc9fe-f7eb-4473-89a6-cd4a256dacbd" d="M35.43,148.66l1.5,10.18-1.57-.37c-1.13-.27-2.28-.58-3.42-.94l-1.35-.43-1.45-.5-.42-.15c-.44-.17-.88-.33-1.32-.51s-1.06-.42-1.58-.65l-1.57-.69,1.06-9.83.13.07c.41.22.82.45,1.24.65l.46.24.89.43.23.1c.37.17.73.34,1.1.49h0l1.08.44,1.47.53c.39.13.76.25,1.13.35l.1,0c.2.06.4.12.59.16l.58.15.5.11Z"/><path class="0d4b61e6-619b-4be5-98a4-3897c629d1fe" d="M35.36,158.47l1.57.37Z"/><path class="a51bc9fe-f7eb-4473-89a6-cd4a256dacbd" d="M34.32,148.42l.5.11Z"/><path class="a51bc9fe-f7eb-4473-89a6-cd4a256dacbd" d="M33.74,148.27c.19.06.39.1.58.15Z"/><path class="a51bc9fe-f7eb-4473-89a6-cd4a256dacbd" d="M33.15,148.11l.59.16C33.55,148.23,33.35,148.17,33.15,148.11Z"/><path class="a51bc9fe-f7eb-4473-89a6-cd4a256dacbd" d="M31.92,147.73c.39.12.76.25,1.13.35C32.68,148,32.31,147.86,31.92,147.73Z"/><path class="0d4b61e6-619b-4be5-98a4-3897c629d1fe" d="M30.59,157.1l1.35.43Z"/><path class="0d4b61e6-619b-4be5-98a4-3897c629d1fe" d="M29.14,156.6l1.45.5Z"/><path class="a51bc9fe-f7eb-4473-89a6-cd4a256dacbd" d="M29.37,146.76l1.08.44Z"/><path class="0d4b61e6-619b-4be5-98a4-3897c629d1fe" d="M29.35,94.57s1,1.5-.55,1.43c-1.16,0-2.54-1.33-4-1.54A13.11,13.11,0,0,1,26.1,92,5.74,5.74,0,0,1,29.35,94.57Z"/><path class="a51bc9fe-f7eb-4473-89a6-cd4a256dacbd" d="M28.26,146.26c.37.17.73.34,1.1.49C29,146.6,28.63,146.43,28.26,146.26Z"/><path class="0d4b61e6-619b-4be5-98a4-3897c629d1fe" d="M27.4,155.94c.44.18.88.34,1.32.51Q28.06,156.21,27.4,155.94Z"/><path class="a51bc9fe-f7eb-4473-89a6-cd4a256dacbd" d="M27.14,145.73l.89.43Z"/><path class="0d4b61e6-619b-4be5-98a4-3897c629d1fe" d="M25.82,155.29c.52.23,1.05.44,1.58.65C26.87,155.74,26.34,155.53,25.82,155.29Z"/><path class="a51bc9fe-f7eb-4473-89a6-cd4a256dacbd" d="M25.44,144.84c.41.22.82.45,1.24.65C26.26,145.29,25.85,145.06,25.44,144.84Z"/><path class="0d4b61e6-619b-4be5-98a4-3897c629d1fe" d="M24.25,154.6l1.57.69C25.3,155.08,24.78,154.85,24.25,154.6Z"/><path class="0d4b61e6-619b-4be5-98a4-3897c629d1fe" d="M23.15,96.83a3.62,3.62,0,0,1,.79.1,21.61,21.61,0,0,0-.47,2.42c-.11.78-.18,1.59-.23,2.43a4.26,4.26,0,0,1-1.24-.32s-5.05-.1-7.44,2.82c-14.44,18.63-1.63,33.58,10.75,40.49l-1.06,9.83C12.7,149.25,2.45,139.85.37,125.66A31,31,0,0,1,12,96.32s8.51-6,14.11-4.31a13.11,13.11,0,0,0-1.34,2.45,2.65,2.65,0,0,0-1.76.35,2.67,2.67,0,0,1,1.6,0A18.93,18.93,0,0,0,24,96.77,6.09,6.09,0,0,1,23.15,96.83Z"/><path class="0d4b61e6-619b-4be5-98a4-3897c629d1fe" d="M25.26,95.93c0,.55-.66.76-1.28.84a18.93,18.93,0,0,1,.62-1.93A1.15,1.15,0,0,1,25.26,95.93Z"/><path class="0d4b61e6-619b-4be5-98a4-3897c629d1fe" d="M25.19,97.93c.11,1.44-1.18,1.46-1.59,1.44l-.13,0a21.61,21.61,0,0,1,.47-2.42C24.51,97,25.14,97.31,25.19,97.93Z"/><path class="0d4b61e6-619b-4be5-98a4-3897c629d1fe" d="M23.6,99.37a1.22,1.22,0,1,1-.36,2.41c.05-.84.12-1.65.23-2.43Z"/></g><ellipse class="a8b98459-fb53-4736-8d00-d1301ef876f0" cx="333.86" cy="246.03" rx="48.72" ry="9.31"/><ellipse class="a8b98459-fb53-4736-8d00-d1301ef876f0" cx="83.35" cy="246.03" rx="48.72" ry="9.31"/></g></g></svg>