<svg xmlns="http://www.w3.org/2000/svg" viewBox="0 0 61.47 61.47"><defs><style>.\34 66ba880-db72-4b69-b021-a395397ddff2{isolation:isolate;}.\33 0627f2f-6fe3-4b34-829b-c22dcba6b1cb{fill:#fff;}.c98e20f4-4d30-4466-bac6-2b855111312d{fill:#999395;}.\39 f172bb0-59ca-4234-8e9a-d5afaf3b8fa8{opacity:0.1;mix-blend-mode:multiply;}</style></defs><title>prop2</title><g class="466ba880-db72-4b69-b021-a395397ddff2"><g id="287d4738-60e9-46d7-a90e-36228deff655" data-name="Capa 1"><circle class="30627f2f-6fe3-4b34-829b-c22dcba6b1cb" cx="30.73" cy="30.73" r="30.73"/><path class="c98e20f4-4d30-4466-bac6-2b855111312d" d="M42,40.64a15,15,0,0,0,.08-19.72.94.94,0,0,0-.21-.28l-.09-.07a15,15,0,0,0-22,0l-.1.07a1,1,0,0,0-.2.28A15,15,0,0,0,41.84,40.81h0A.55.55,0,0,0,42,40.64Zm-24.33-9h5.13a27.23,27.23,0,0,0,.56,4.77,15.42,15.42,0,0,0-3,2.26A13,13,0,0,1,17.65,31.67Zm2.66-8.9a15.42,15.42,0,0,0,3,2.26,27.23,27.23,0,0,0-.56,4.77H17.65A13,13,0,0,1,20.31,22.77Zm23.51,7H38.69A27.23,27.23,0,0,0,38.13,25a15.42,15.42,0,0,0,3-2.26A13,13,0,0,1,43.82,29.8Zm-12.12-12c1.78.64,3.32,3,4.24,6.25a13.39,13.39,0,0,1-4.24,1Zm-1.87,7.29a13.09,13.09,0,0,1-4.3-1c.92-3.28,2.49-5.66,4.3-6.27Zm0,1.88V29.8H24.66a27,27,0,0,1,.43-3.93A15,15,0,0,0,29.83,27Zm0,4.72v2.85a15,15,0,0,0-4.74,1.08,26.86,26.86,0,0,1-.43-3.93Zm0,4.72v7.32c-1.81-.61-3.38-3-4.3-6.26A13.12,13.12,0,0,1,29.83,36.39Zm1.87,0a12.89,12.89,0,0,1,4.24,1.05c-.92,3.23-2.46,5.6-4.24,6.23Zm0-1.88V31.67h5.11a25.4,25.4,0,0,1-.44,3.92A15.13,15.13,0,0,0,31.7,34.52Zm0-4.72V27a14.86,14.86,0,0,0,4.67-1.08,25.67,25.67,0,0,1,.44,3.93Zm5.94-6.66a15.19,15.19,0,0,0-2.28-4.69,13.18,13.18,0,0,1,4.55,2.91A13.39,13.39,0,0,1,37.64,23.14Zm-13.81,0a13,13,0,0,1-2.27-1.78,13.23,13.23,0,0,1,4.54-2.91A15.41,15.41,0,0,0,23.83,23.14Zm0,15.19A15.23,15.23,0,0,0,26.1,43a13,13,0,0,1-4.54-2.9A12.54,12.54,0,0,1,23.83,38.33Zm13.81,0a12.9,12.9,0,0,1,2.27,1.78A13,13,0,0,1,35.36,43,15,15,0,0,0,37.64,38.33Zm.49-1.89a27.23,27.23,0,0,0,.56-4.77h5.13a13,13,0,0,1-2.66,7A15.42,15.42,0,0,0,38.13,36.44Z"/><g class="9f172bb0-59ca-4234-8e9a-d5afaf3b8fa8"><path class="c98e20f4-4d30-4466-bac6-2b855111312d" d="M31.7,35.46v.94a13.15,13.15,0,0,1,4,.94c.09-.26.18-.55.26-.83A13.14,13.14,0,0,0,31.7,35.46Z"/><path class="c98e20f4-4d30-4466-bac6-2b855111312d" d="M25.53,36.51c.08.28.17.57.26.83a13.54,13.54,0,0,1,4-1v-.93A12.86,12.86,0,0,0,25.53,36.51Z"/><path class="c98e20f4-4d30-4466-bac6-2b855111312d" d="M24.66,30.74c0,.31,0,.62.05.93h5.12v-.93Z"/><path class="c98e20f4-4d30-4466-bac6-2b855111312d" d="M25.53,23.08l.26.11c.95-2.84,2.39-4.87,4-5.43v-.93C28,17.43,26.45,19.81,25.53,23.08Z"/><path class="c98e20f4-4d30-4466-bac6-2b855111312d" d="M25.09,24.94a26.72,26.72,0,0,0-.43,3.92h.05a25.15,25.15,0,0,1,.38-3A15,15,0,0,0,29.83,27V26A15.28,15.28,0,0,1,25.09,24.94Z"/><path class="c98e20f4-4d30-4466-bac6-2b855111312d" d="M26.1,17.52a13.21,13.21,0,0,0-4.54,2.9c.16.17.33.32.5.47a13.34,13.34,0,0,1,3.2-2.08A14.38,14.38,0,0,1,26.1,17.52Z"/><path class="c98e20f4-4d30-4466-bac6-2b855111312d" d="M23.83,37.39a13,13,0,0,0-2.27,1.78l.5.47a14,14,0,0,1,1.77-1.31,17.28,17.28,0,0,0,1.43,3.39q.42.2.84.36A15.41,15.41,0,0,1,23.83,37.39Z"/><path class="c98e20f4-4d30-4466-bac6-2b855111312d" d="M22.78,30.74H17.65c0,.31.05.62.1.93h5a28.4,28.4,0,0,0,.4,3.93l.16-.1A27.23,27.23,0,0,1,22.78,30.74Z"/><path class="c98e20f4-4d30-4466-bac6-2b855111312d" d="M17.65,28.86h.1a13,13,0,0,1,2.56-6.09,15,15,0,0,0,2.87,2.16c.05-.28.11-.56.16-.83a15.88,15.88,0,0,1-3-2.27A13.05,13.05,0,0,0,17.65,28.86Z"/><path class="c98e20f4-4d30-4466-bac6-2b855111312d" d="M38.69,30.74a27.23,27.23,0,0,1-.56,4.76l.15.1a26.91,26.91,0,0,0,.41-3.93h5c0-.31.08-.62.1-.93Z"/><path class="c98e20f4-4d30-4466-bac6-2b855111312d" d="M41.16,21.83a15.88,15.88,0,0,1-3,2.27c0,.27.11.55.15.83a15.05,15.05,0,0,0,2.88-2.16,13.07,13.07,0,0,1,2.56,6.09h.1A13.05,13.05,0,0,0,41.16,21.83Z"/><path class="c98e20f4-4d30-4466-bac6-2b855111312d" d="M37.64,37.39a15.19,15.19,0,0,1-2.28,4.69c.29-.11.57-.23.85-.36a17.28,17.28,0,0,0,1.43-3.39,13.17,13.17,0,0,1,1.76,1.31c.18-.15.35-.31.51-.47A13.39,13.39,0,0,0,37.64,37.39Z"/><path class="c98e20f4-4d30-4466-bac6-2b855111312d" d="M42,39.7a.55.55,0,0,1-.14.17h0a15,15,0,0,1-26.09-9.62c0,.15,0,.32,0,.49A15,15,0,0,0,41.84,40.81h0a.55.55,0,0,0,.14-.17,14.88,14.88,0,0,0,3.75-9.9c0-.17,0-.32,0-.48A14.87,14.87,0,0,1,42,39.7Z"/><path class="c98e20f4-4d30-4466-bac6-2b855111312d" d="M36.37,24.94A14.85,14.85,0,0,1,31.7,26V27a14.86,14.86,0,0,0,4.67-1.08,23.45,23.45,0,0,1,.39,3h.05A25.4,25.4,0,0,0,36.37,24.94Z"/><path class="c98e20f4-4d30-4466-bac6-2b855111312d" d="M31.7,30.74v.93h5.06c0-.31,0-.62.05-.93Z"/><path class="c98e20f4-4d30-4466-bac6-2b855111312d" d="M35.36,17.52a12.52,12.52,0,0,1,.85,1.29,13.28,13.28,0,0,1,3.19,2.08,5.68,5.68,0,0,0,.51-.47A13.16,13.16,0,0,0,35.36,17.52Z"/><path class="c98e20f4-4d30-4466-bac6-2b855111312d" d="M31.7,16.85v.93c1.62.59,3.05,2.61,4,5.41l.26-.1C35,19.85,33.48,17.48,31.7,16.85Z"/></g></g></g></svg>