<svg width="307" height="82" viewBox="0 0 307 82" fill="none" xmlns="http://www.w3.org/2000/svg">
<rect width="306.219" height="82" rx="10.2931" fill="white"/>
<path d="M28.3059 15.4396H41.4939H54.6819M28.3059 39.2423H41.4939H54.6819M54.6819 66.9049H29.5925C28.882 66.9049 28.3059 66.3289 28.3059 65.6183V61.7584" stroke="url(#paint0_linear_3153_508)" stroke-width="5.14653" stroke-linecap="round" stroke-linejoin="round"/>
<path d="M101.666 68.1916C100.236 68.1916 99.1762 67.4457 98.4874 65.9539L76.1548 15.8757C75.7839 14.9497 75.8369 14.2295 76.3137 13.7151C76.7906 13.1493 77.4264 12.8663 78.2211 12.8663C78.9629 12.8663 79.5192 13.0207 79.8901 13.3293C80.261 13.638 80.6054 14.1009 80.9233 14.7182L101.746 61.7871L122.568 14.7182C123.151 13.4836 124.052 12.8663 125.271 12.8663C126.118 12.8663 126.728 13.1493 127.099 13.7151C127.469 14.281 127.469 15.0012 127.099 15.8757L104.766 65.9539C104.448 66.7255 104.051 67.2913 103.574 67.6514C103.097 68.0115 102.461 68.1916 101.666 68.1916Z" fill="url(#paint1_linear_3153_508)"/>
<path d="M149.861 68.1916C148.596 68.1916 147.963 67.3685 147.963 65.7224V15.3355C147.963 13.6894 148.596 12.8663 149.861 12.8663C151.169 12.8663 151.823 13.6894 151.823 15.3355V65.7224C151.823 67.3685 151.169 68.1916 149.861 68.1916Z" fill="url(#paint2_linear_3153_508)"/>
<path d="M194.925 68.1916C187.556 68.1916 181.961 66.3448 178.14 62.6514C174.319 58.9066 172.409 53.4946 172.409 46.4154V15.2517C172.409 13.6615 173.228 12.8663 174.865 12.8663C176.557 12.8663 177.403 13.6615 177.403 15.2517V46.0307C177.403 57.9319 183.244 63.8825 194.925 63.8825C206.606 63.8825 212.447 57.9319 212.447 46.0307V15.2517C212.447 13.6615 213.293 12.8663 214.985 12.8663C216.622 12.8663 217.441 13.6615 217.441 15.2517V46.4154C217.441 53.4946 215.531 58.9066 211.71 62.6514C207.889 66.3448 202.294 68.1916 194.925 68.1916Z" fill="url(#paint3_linear_3153_508)"/>
<path d="M258.321 68.1916C250.525 68.1916 244.175 66.3244 239.27 62.59C238.393 61.9761 237.98 61.2599 238.031 60.4414C238.135 59.5718 238.522 58.9323 239.193 58.5231C239.864 58.1138 240.639 58.2161 241.516 58.83C243.891 60.6205 246.395 61.925 249.028 62.7435C251.712 63.5108 254.81 63.8945 258.321 63.8945C263.225 63.8945 266.891 62.9481 269.317 61.0553C271.795 59.1625 273.034 56.6815 273.034 53.6121C273.034 51.0543 272.131 49.0592 270.324 47.6269C268.568 46.1945 265.651 45.069 261.573 44.2506L253.752 42.6391C248.899 41.6672 245.259 40.0302 242.833 37.7282C240.458 35.4261 239.27 32.3568 239.27 28.5201C239.27 25.3996 240.071 22.6627 241.671 20.3095C243.323 17.9564 245.595 16.1403 248.486 14.8614C251.377 13.5314 254.707 12.8663 258.475 12.8663C261.831 12.8663 264.903 13.3267 267.691 14.2475C270.53 15.1684 273.111 16.6263 275.435 18.6214C276.209 19.2353 276.545 19.9514 276.441 20.7699C276.338 21.5884 275.951 22.2023 275.28 22.6116C274.66 22.9696 273.912 22.8162 273.034 22.1512C270.866 20.4118 268.594 19.1585 266.219 18.3912C263.845 17.5727 261.263 17.1634 258.475 17.1634C254.139 17.1634 250.654 18.1866 248.021 20.2328C245.44 22.279 244.149 25.0159 244.149 28.4433C244.149 31.1546 244.975 33.3032 246.627 34.889C248.279 36.4237 250.938 37.5491 254.603 38.2653L262.502 39.8767C267.717 40.951 271.589 42.5624 274.118 44.711C276.648 46.8084 277.913 49.6987 277.913 53.3819C277.913 56.2978 277.113 58.8812 275.512 61.132C273.963 63.3318 271.718 65.0711 268.775 66.35C265.832 67.5777 262.347 68.1916 258.321 68.1916Z" fill="url(#paint4_linear_3153_508)"/>
<defs>
<linearGradient id="paint0_linear_3153_508" x1="41.4939" y1="15.4396" x2="41.4939" y2="66.9049" gradientUnits="userSpaceOnUse">
<stop stop-color="#2593FC"/>
<stop offset="1" stop-color="#30D2E0"/>
</linearGradient>
<linearGradient id="paint1_linear_3153_508" x1="101.644" y1="12.8663" x2="101.644" y2="68.1916" gradientUnits="userSpaceOnUse">
<stop stop-color="#E0C230"/>
<stop offset="0.0001" stop-color="#2593FC"/>
<stop offset="1" stop-color="#30D2E0"/>
</linearGradient>
<linearGradient id="paint2_linear_3153_508" x1="149.893" y1="12.8663" x2="149.893" y2="68.1916" gradientUnits="userSpaceOnUse">
<stop stop-color="#E0C230"/>
<stop offset="0.0001" stop-color="#2593FC"/>
<stop offset="1" stop-color="#30D2E0"/>
</linearGradient>
<linearGradient id="paint3_linear_3153_508" x1="194.925" y1="12.8663" x2="194.925" y2="68.1916" gradientUnits="userSpaceOnUse">
<stop stop-color="#E0C230"/>
<stop offset="0.0001" stop-color="#2593FC"/>
<stop offset="1" stop-color="#30D2E0"/>
</linearGradient>
<linearGradient id="paint4_linear_3153_508" x1="257.97" y1="12.8663" x2="257.97" y2="68.1916" gradientUnits="userSpaceOnUse">
<stop stop-color="#E0C230"/>
<stop offset="0.0001" stop-color="#2593FC"/>
<stop offset="1" stop-color="#30D2E0"/>
</linearGradient>
</defs>
</svg>
