<?xml version="1.0" encoding="utf-8"?>
<!-- Generator: Adobe Illustrator 24.2.0, SVG Export Plug-In . SVG Version: 6.00 Build 0)  -->
<svg version="1.1" id="Layer_1" xmlns="http://www.w3.org/2000/svg" xmlns:xlink="http://www.w3.org/1999/xlink" x="0px" y="0px"
	 viewBox="0 0 300 300" style="enable-background:new 0 0 300 300;" xml:space="preserve">
<style type="text/css">
	.st0{fill:#FFFFFF;}
</style>
<path class="st0" d="M150,8.03C71.59,8.03,8.03,71.59,8.03,150c0,78.41,63.56,141.97,141.97,141.97
	c78.41,0,141.97-63.56,141.97-141.97C291.97,71.59,228.41,8.03,150,8.03z M191.69,94.16c0,0-14.12,0-19.72,0
	c-6.97,0-8.41,2.85-8.41,10.05c0,5.99,0,17.4,0,17.4h28.13l-2.71,30.55h-25.42v91.25h-36.44v-90.87h-18.96v-30.94h18.96
	c0,0,0-4.45,0-24.36c0-22.86,12.23-34.8,39.34-34.8c4.44,0,25.23,0,25.23,0V94.16z"/>
</svg>
