<?xml version="1.0" encoding="utf-8"?>
<!-- Generator: Adobe Illustrator 24.2.0, SVG Export Plug-In . SVG Version: 6.00 Build 0)  -->
<svg version="1.1" id="Layer_1" xmlns="http://www.w3.org/2000/svg" xmlns:xlink="http://www.w3.org/1999/xlink" x="0px" y="0px"
	 viewBox="0 0 300 300" style="enable-background:new 0 0 300 300;" xml:space="preserve">
<style type="text/css">
	.st0{fill:#FFFFFF;}
</style>
<g>
	<path class="st0" d="M214.15,104.56c-1.49-3.83-3.27-6.57-6.14-9.44c-2.87-2.87-5.61-4.65-9.44-6.14
		c-2.89-1.12-7.24-2.46-15.24-2.83c-8.66-0.39-11.25-0.48-33.17-0.48c-21.92,0-24.52,0.08-33.17,0.48c-8,0.37-12.35,1.7-15.24,2.83
		c-3.83,1.49-6.57,3.27-9.44,6.14c-2.87,2.87-4.65,5.61-6.14,9.44c-1.12,2.89-2.46,7.24-2.83,15.24
		c-0.39,8.66-0.48,11.25-0.48,33.17c0,21.92,0.08,24.52,0.48,33.17c0.37,8,1.7,12.35,2.83,15.24c1.49,3.83,3.27,6.57,6.14,9.44
		c2.87,2.87,5.61,4.65,9.44,6.14c2.89,1.12,7.24,2.46,15.24,2.83c8.66,0.39,11.25,0.48,33.17,0.48c21.92,0,24.52-0.08,33.17-0.48
		c8-0.36,12.35-1.7,15.24-2.83c3.83-1.49,6.57-3.27,9.44-6.14c2.87-2.87,4.65-5.61,6.14-9.44c1.12-2.89,2.46-7.24,2.83-15.24
		c0.39-8.66,0.48-11.25,0.48-33.17c0-21.92-0.08-24.52-0.48-33.17C216.61,111.8,215.27,107.45,214.15,104.56z M150.15,195.13
		c-23.28,0-42.16-18.87-42.16-42.16c0-23.28,18.88-42.16,42.16-42.16c23.28,0,42.16,18.87,42.16,42.16
		C192.3,176.26,173.43,195.13,150.15,195.13z M193.97,119c-5.44,0-9.85-4.41-9.85-9.85c0-5.44,4.41-9.85,9.85-9.85
		c5.44,0,9.85,4.41,9.85,9.85C203.82,114.59,199.41,119,193.97,119z"/>
	<path class="st0" d="M150.15,125.61c-15.11,0-27.37,12.25-27.37,27.37c0,15.11,12.25,27.37,27.37,27.37s27.37-12.25,27.37-27.37
		C177.51,137.86,165.26,125.61,150.15,125.61z"/>
	<path class="st0" d="M150,8C71.58,8,8,71.58,8,150c0,78.42,63.58,142,142,142c78.42,0,142-63.58,142-142C292,71.58,228.42,8,150,8z
		 M231.75,186.82c-0.4,8.74-1.79,14.71-3.82,19.93c-2.1,5.4-4.9,9.98-9.47,14.54c-4.56,4.56-9.14,7.37-14.54,9.47
		c-5.22,2.03-11.19,3.42-19.93,3.82c-8.76,0.4-11.55,0.49-33.85,0.49c-22.3,0-25.09-0.09-33.85-0.49
		c-8.74-0.4-14.71-1.79-19.93-3.82c-5.4-2.1-9.98-4.91-14.54-9.47c-4.56-4.56-7.37-9.14-9.47-14.54
		c-2.03-5.22-3.42-11.19-3.82-19.93c-0.4-8.76-0.49-11.55-0.49-33.85c0-22.3,0.09-25.09,0.49-33.85c0.4-8.74,1.79-14.71,3.82-19.93
		c2.1-5.4,4.9-9.98,9.47-14.54c4.56-4.56,9.14-7.37,14.54-9.47c5.22-2.03,11.19-3.42,19.93-3.82c8.76-0.4,11.55-0.49,33.85-0.49
		c22.3,0,25.09,0.09,33.85,0.49c8.74,0.4,14.71,1.79,19.93,3.82c5.4,2.1,9.98,4.9,14.54,9.47c4.56,4.56,7.37,9.14,9.47,14.54
		c2.03,5.22,3.42,11.19,3.82,19.93c0.4,8.76,0.49,11.55,0.49,33.85C232.24,175.27,232.15,178.07,231.75,186.82z"/>
</g>
</svg>
